<?xml version="1.0" encoding="utf-8"?>
<!-- Generator: Adobe Illustrator 28.3.0, SVG Export Plug-In . SVG Version: 6.00 Build 0)  -->
<svg version="1.1" id="Layer_2_00000014607028524048037150000007968361413280054166_"
	 xmlns="http://www.w3.org/2000/svg" xmlns:xlink="http://www.w3.org/1999/xlink" x="0px" y="0px" viewBox="0 0 1488.7 1263.3"
	 style="enable-background:new 0 0 1488.7 1263.3;" xml:space="preserve">
<style type="text/css">
	.st0{fill:#CAE1A4;}
	.st1{fill:#FFF0CC;}
	.st2{fill:#D3A339;}
	.st3{fill:#78B51D;}
	.st4{fill:#273D01;}
	.st5{fill:#001E2D;}
	.st6{fill:#FFFFFF;}
	.st7{fill:#EAF3DE;}
	.st8{fill:#805B00;}
	.st9{fill:#162100;}
	.st10{fill:#B37F00;}
	.st11{fill:#003C5A;}
	.st12{fill:none;stroke:#001E2D;stroke-miterlimit:10;}
	.st13{fill:#707173;}
</style>
<path class="st0" d="M353.6,160.1C179.7,250.5,50.3,422.3,11.5,614.4c-16,79.4-17,163.2,8.3,240.1c28.7,87.1,89.7,160.8,160.8,218.7
	c185.3,151.1,436.5,201.3,675.2,188.1c189.7-10.5,387.9-64,517.9-202.6c130-138.6,162.6-378.5,31.3-515.8
	c-52.3-54.7-123.4-87.9-179.3-139c-134.8-123-185.7-349.1-362.2-395.7C809.3-6,752.1,0.5,697,10.5
	C548.1,37.7,429.9,120.4,353.6,160.1"/>
<polygon class="st1" points="1090.6,1085 1088.3,1117.9 1103.4,1116.9 1114.4,1085.9 "/>
<polygon class="st1" points="1181.1,1068.3 1180.5,1101.2 1195.6,1099.5 1204.9,1068 "/>
<path class="st1" d="M1092.8,475.7c-8.1,7.5-13,17.8-13.8,28.7c-1.3,18.4,0.6,35.6,13.9,42.6s19.8,6.6,21.1,13s0.7,15.1,0.7,15.1
	l-0.7,7.6l45.3-2.2c0,0-1.8-16.1,0-23.8s20.8-41,20.6-44.2c-0.2-3.2,18.2-48.4-23.4-60.5C1115,440.1,1092.8,475.7,1092.8,475.7
	L1092.8,475.7L1092.8,475.7z"/>
<path class="st1" d="M1080.2,505.5l-6.3,0.3c0,0-3.8,0.2-3.6,4c0.2,3.8,4,3.6,4,3.6l6.3-0.3L1080.2,505.5L1080.2,505.5z"/>
<path class="st2" d="M1182.4,507.1l-70.6-51.9c2.2-2.3,4.8-4.3,7.6-6c9-5.6,25.6-11.1,46.3,2.8
	C1197.6,473.4,1182.4,507.1,1182.4,507.1L1182.4,507.1L1182.4,507.1z"/>
<path class="st2" d="M1130.8,468.8l-38-27.9c0,0-7.1-3.8-1.9-7.1s23.8,7.3,23.8,7.3l37.1,21.9L1130.8,468.8L1130.8,468.8z"/>
<path d="M1144.7,479.2c0,0-39.4,17.5-57.2-0.3S1080,450,1080,450s0.5,15.1,9.1,14.8s10.5-9,10.5-9s-2.4-7.5,10.7-3.6
	S1144.7,479.2,1144.7,479.2L1144.7,479.2L1144.7,479.2z"/>
<path d="M1154.4,486.5c0,0,1.1,13.3-8.3,19.2c-9.4,5.9-15.3-3.6-15.3-3.6s-1.8,8.7,2.7,11.8s13.2,4.8,17.2-0.8
	c4.1-5.6,2.1-2.3,5-7.8c2-3.3,3-5.5,7.4-2.5c5.6,3,4.5,4.1,3.5,6.3s-6.1,8.9-7,12.2c-1.9,5.5-8.6,24.2,4.6,27.9s18.2-3,18.2-3
	s-10.7,1.6-11.2-8.1s19.4-23.6,11.5-30.8C1174.9,500,1154.5,486.5,1154.4,486.5L1154.4,486.5L1154.4,486.5z"/>
<circle cx="1098.9" cy="500.8" r="2.7"/>
<path class="st1" d="M1223,422.6l2-36.5c0.1-2.4,2.2-4.2,4.5-4.1l1.1,0.1c2.4,0.1,4.2,2.2,4.1,4.5l-2,36.5c-0.1,2.4-2.2,4.2-4.5,4.1
	l-1.1-0.1C1224.7,427,1222.9,424.9,1223,422.6z"/>
<path class="st1" d="M1213.7,417.7l2-36.5c0.1-2.4,2.2-4.2,4.5-4.1l1.1,0.1c2.4,0.1,4.2,2.2,4.1,4.5l-2,36.5
	c-0.1,2.4-2.2,4.2-4.5,4.1l-1.1-0.1C1215.4,422.1,1213.6,420.1,1213.7,417.7z"/>
<path class="st1" d="M1204,417.1l2-36.5c0.1-2.4,2.2-4.2,4.5-4.1l1.1,0.1c2.4,0.1,4.2,2.2,4.1,4.5l-2,36.5c-0.1,2.4-2.2,4.2-4.5,4.1
	l-1.1-0.1C1205.7,421.6,1203.9,419.5,1204,417.1z"/>
<path class="st1" d="M1194.3,416.6l2-36.5c0.1-2.4,2.2-4.2,4.5-4.1l1.1,0.1c2.4,0.1,4.2,2.2,4.1,4.5l-2,36.5
	c-0.1,2.4-2.2,4.2-4.5,4.1l-1.1-0.1C1196,421,1194.2,419,1194.3,416.6z"/>
<path class="st1" d="M1190.2,417.8c2.3,5.5,24.1,15,24.1,15l18.8-14.4l-1.4-11.8C1231.7,406.5,1187.9,412.3,1190.2,417.8
	L1190.2,417.8L1190.2,417.8z"/>
<path class="st3" d="M1146,595.9l34.3,42.3c0,0,85.3-78.9,87.8-82.8s2.6-11.5-1-25.7c-5.1-25.7-32.4-109-32.4-109l-27.2,6l26.4,94.9
	c0,0,2.2,7.3-0.1,12.3C1228.6,539.6,1146,595.8,1146,595.9L1146,595.9L1146,595.9z"/>
<path class="st4" d="M1120.1,795.7c0,0,40.8,83.3,46.6,117c5.8,33.6,8.3,174.6,8.3,174.6l34.4-0.2c0,0,4.1-133.9,2.4-190.7
	s-20.8-151.7-20.8-151.7l-95.5,15L1120.1,795.7L1120.1,795.7L1120.1,795.7z"/>
<path class="st4" d="M1060.3,767.9c-3.3,63,25.7,108.7,29,164.6c3.3,55.9-5.2,166.4-5.2,166.4l34.1,4.8c0,0,19.9-123,19.8-191.5
	s-13.7-144.4-13.7-144.4S1063.6,704.9,1060.3,767.9L1060.3,767.9L1060.3,767.9z"/>
<polygon class="st5" points="1084,1118.2 1082.5,1144.2 1140.1,1149.1 1140.8,1142.6 1105.4,1130.8 1107.7,1116.6 "/>
<polygon class="st5" points="1176.2,1101.7 1176,1127.8 1233.8,1129.8 1234.1,1123.3 1198.2,1113.3 1199.8,1099 "/>
<path class="st3" d="M1128.7,577.3l-27.5-1.3c0,0-28.1-1.4-29.7,17.2c-1.6,18.6-14.2,183.5-14.2,183.5l145.4,2.1l-4.6-171.3
	c0,0-11.7-27.6-24.6-28.2L1128.7,577.3L1128.7,577.3L1128.7,577.3z"/>
<path class="st1" d="M1025.6,356.2l1.1-0.1c2.4-0.1,4.4,1.7,4.5,4.1l2,36.5c0.1,2.4-1.7,4.4-4.1,4.5l-1.1,0.1
	c-2.4,0.1-4.4-1.7-4.5-4.1l-2-36.5C1021.4,358.3,1023.2,356.3,1025.6,356.2z"/>
<path class="st1" d="M1034.9,351.3l1.1-0.1c2.4-0.1,4.4,1.7,4.5,4.1l2,36.5c0.1,2.4-1.7,4.4-4.1,4.5l-1.1,0.1
	c-2.4,0.1-4.4-1.7-4.5-4.1l-2-36.5C1030.7,353.5,1032.5,351.5,1034.9,351.3z"/>
<path class="st1" d="M1044.6,350.8l1.1-0.1c2.4-0.1,4.4,1.7,4.5,4.1l2,36.5c0.1,2.4-1.7,4.4-4.1,4.5l-1.1,0.1
	c-2.4,0.1-4.4-1.7-4.5-4.1l-2-36.5C1040.4,353,1042.2,350.9,1044.6,350.8z"/>
<path class="st1" d="M1054.3,350.3l1.1-0.1c2.4-0.1,4.4,1.7,4.5,4.1l2,36.5c0.1,2.4-1.7,4.4-4.1,4.5l-1.1,0.1
	c-2.4,0.1-4.4-1.7-4.5-4.1l-2-36.5C1050.1,352.4,1051.9,350.4,1054.3,350.3z"/>
<path class="st1" d="M1066,391.9c-2.3,5.5-24.1,15-24.1,15l-18.8-14.4l1.4-11.8C1024.5,380.6,1068.3,386.4,1066,391.9L1066,391.9
	L1066,391.9z"/>
<path class="st3" d="M1099.4,579.7l-21.3,52c0,0-78-99.4-78.1-112c-0.1-12.5,3.1-25.7,3.1-25.7l20.5-100.4l30.4,3.9
	c0,0-15.9,84.4-13.5,75.5s-6.6,27-4.2,38.2C1038.7,522.3,1099.4,579.7,1099.4,579.7L1099.4,579.7L1099.4,579.7z"/>
<polygon class="st6" points="1254.6,403.4 1003.6,360.1 1011.7,187.9 1252.9,204.3 "/>
<path class="st1" d="M1057.6,387.1l13.8-27.8c1.1-2.1,3.6-3,5.8-1.9l1,0.5c2.1,1.1,3,3.6,1.9,5.8l-13.8,27.8c-1.1,2.1-3.6,3-5.8,1.9
	l-1-0.5C1057.4,391.9,1056.5,389.3,1057.6,387.1z"/>
<path class="st1" d="M1178,383.8l1-0.5c2.1-1.1,4.7-0.2,5.8,1.9l13.8,27.8c1.1,2.1,0.2,4.7-1.9,5.8l-1,0.5c-2.1,1.1-4.7,0.2-5.8-1.9
	l-13.8-27.8C1175,387.5,1175.9,384.9,1178,383.8z"/>
<polygon class="st1" points="517.4,1097.4 518.5,1130.3 533.4,1127.8 541.1,1095.8 "/>
<polygon class="st5" points="516,1125.4 512.4,1150.9 560.7,1171.2 563.2,1165.1 532.8,1143.7 539.1,1126.4 "/>
<polygon class="st1" points="592.2,1087.2 592.7,1120.2 607.6,1117.9 616,1086.2 "/>
<polygon class="st5" points="588.8,1114.3 587.5,1141.3 635.8,1157.8 638,1151.6 606.5,1131.7 612.2,1114.2 "/>
<path class="st5" d="M557,789.1c0,0,36.7,108.7,34.5,142.7c-2.1,34,0.3,157.3,0.3,157.3l24.5,1.1c0,0,17.6-134.9,21.7-191.6
	c4.1-56.7-5.4-163.8-5.4-163.8l-96.6,16.1L557,789.1L557,789.1L557,789.1z"/>
<path class="st5" d="M485.9,766.1c-3.3,63,25.7,108.7,29,164.6c3.3,55.9,2.4,170.8,2.4,170.8l24.4,1.6c0,0,19.9-130.1,18.8-192.5
	s7.9-144.4,7.9-144.4S489.2,703.2,485.9,766.1L485.9,766.1L485.9,766.1z"/>
<path class="st1" d="M610.4,456.8c8,7.6,12.8,17.9,13.4,28.9c1,18.4-1.2,35.6-14.5,42.3s-19.8,6.3-21.3,12.8s-1,15.1-1,15.1l0.6,7.6
	l-45.2-2.8c0,0,2.1-16.1,0.4-23.8s-20.2-41.2-20-44.5s-17.6-48.6,24.2-60.1C588.7,420.9,610.4,456.8,610.4,456.8L610.4,456.8
	L610.4,456.8z"/>
<path class="st1" d="M622.6,486.7l6.3,0.4c0,0,3.8,0.2,3.5,4s-4,3.5-4,3.5l-6.3-0.4L622.6,486.7z"/>
<circle cx="604" cy="481.8" r="2.7"/>
<path class="st7" d="M558.7,560.2l-27.5-1.3c0,0-19.5-0.2-23.3,17.2c-3.8,17.4-30.4,183.5-30.4,183.5l164.8,2.1l-25.1-171.2
	c0,0-0.9-27.6-13.8-28.2L558.7,560.2L558.7,560.2L558.7,560.2z"/>
<path class="st1" d="M666.1,393.5l2-36.5c0.1-2.4,2.2-4.2,4.5-4.1l1.1,0.1c2.4,0.1,4.2,2.2,4.1,4.5l-2,36.5
	c-0.1,2.4-2.2,4.2-4.5,4.1l-1.1-0.1C667.8,397.9,666,395.8,666.1,393.5z"/>
<path class="st1" d="M656.8,388.6l2-36.5c0.1-2.4,2.2-4.2,4.5-4.1l1.1,0.1c2.4,0.1,4.2,2.2,4.1,4.5l-2,36.5
	c-0.1,2.4-2.2,4.2-4.5,4.1l-1.1-0.1C658.5,393,656.6,391,656.8,388.6z"/>
<path class="st1" d="M647.1,388l2-36.5c0.1-2.4,2.2-4.2,4.5-4.1l1.1,0.1c2.4,0.1,4.2,2.2,4.1,4.5l-2,36.5c-0.1,2.4-2.2,4.2-4.5,4.1
	l-1.1-0.1C648.8,392.5,647,390.4,647.1,388z"/>
<path class="st1" d="M637.4,387.5l2-36.5c0.1-2.4,2.2-4.2,4.5-4.1l1.1,0.1c2.4,0.1,4.2,2.2,4.1,4.5l-2,36.5
	c-0.1,2.4-2.2,4.2-4.5,4.1l-1.1-0.1C639.1,391.9,637.3,389.9,637.4,387.5z"/>
<path class="st1" d="M633.3,388.6c2.3,5.5,24.1,15,24.1,15l18.8-14.4l-1.4-11.8C674.8,377.4,631,383.2,633.3,388.6L633.3,388.6
	L633.3,388.6z"/>
<path class="st7" d="M599.8,576.4l21.3,52c0,0,78-99.4,78.1-112s-3.1-25.7-3.1-25.7l-20.6-100.4l-30.5,3.9c0,0,15.9,84.4,13.5,75.5
	s6.5,27,4.2,38.2C660.5,519.1,599.8,576.4,599.8,576.4L599.8,576.4L599.8,576.4z"/>
<path class="st1" d="M454.9,347.6l1.1-0.1c2.4-0.1,4.4,1.7,4.5,4.1l2,36.5c0.1,2.4-1.7,4.4-4.1,4.5l-1.1,0.1
	c-2.4,0.1-4.4-1.7-4.5-4.1l-2-36.5C450.7,349.8,452.5,347.7,454.9,347.6z"/>
<path class="st1" d="M464.2,342.7l1.1-0.1c2.4-0.1,4.4,1.7,4.5,4.1l2,36.5c0.1,2.4-1.7,4.4-4.1,4.5l-1.1,0.1
	c-2.4,0.1-4.4-1.7-4.5-4.1l-2-36.5C460,344.9,461.9,342.9,464.2,342.7z"/>
<path class="st1" d="M473.9,342.2l1.1-0.1c2.4-0.1,4.4,1.7,4.5,4.1l2,36.5c0.1,2.4-1.7,4.4-4.1,4.5l-1.1,0.1
	c-2.4,0.1-4.4-1.7-4.5-4.1l-2-36.5C469.7,344.4,471.6,342.3,473.9,342.2z"/>
<path class="st1" d="M483.6,341.7l1.1-0.1c2.4-0.1,4.4,1.7,4.5,4.1l2,36.5c0.1,2.4-1.7,4.4-4.1,4.5l-1.1,0.1
	c-2.4,0.1-4.4-1.7-4.5-4.1l-2-36.5C479.4,343.8,481.2,341.8,483.6,341.7z"/>
<path class="st1" d="M495.3,383.2c-2.3,5.5-24.1,15-24.1,15l-18.8-14.4l1.4-11.8C453.8,372,497.6,377.8,495.3,383.2L495.3,383.2
	L495.3,383.2z"/>
<path class="st7" d="M528.8,571l-21.3,52c0,0-78-99.4-78.1-112c-0.1-12.5,3.1-25.7,3.1-25.7L453,384.9l30.4,3.9
	c0,0-15.9,84.4-13.5,75.5c2.4-8.9-6.5,27-4.2,38.2C468,513.7,528.8,571,528.8,571L528.8,571L528.8,571z"/>
<polygon class="st6" points="441.7,362.3 692.6,361.3 689.4,189.2 445.1,198.7 "/>
<path class="st1" d="M621.2,356.3l1-0.5c2.1-1,4.7-0.2,5.8,2l13.6,27.9c1,2.1,0.2,4.7-2,5.8l-1,0.5c-2.1,1-4.7,0.2-5.8-2l-13.6-27.9
	C618.2,360,619.1,357.4,621.2,356.3z"/>
<path class="st1" d="M486.9,378.5l13.8-27.8c1.1-2.1,3.6-3,5.8-1.9l1,0.5c2.1,1.1,3,3.6,1.9,5.8l-13.8,27.8c-1.1,2.1-3.6,3-5.8,1.9
	l-1-0.5C486.7,383.2,485.9,380.6,486.9,378.5z"/>
<path d="M543.3,423.7c30.3-11.4,56.9,7.7,64.5,13.1c7.8,5.6,14,10,14.1,16.4c0.3,19.7-58.6,37.7-65.7,27.5c-2-2.9-0.5-9.1-5-12.2
	c-1.5-1-3.4-1.5-5.3-1.2c-3.6,0.8-5.3,5.1-5.8,6.5c-4,10,7,24.8,11,30.1c12.6,16.6,19.2,15,23.2,25c4.7,11.7,1.1,27.3-8.1,36.9
	c-16.1,16.7-48,13.1-57.1-1.6c-7.6-12.2,0.8-31.6,2.2-34.9c5-11.6,10-12,11-19.7c1.8-14.4-14.9-19.7-17.7-34.9
	C501,456.1,520.6,432.3,543.3,423.7L543.3,423.7L543.3,423.7z"/>
<path class="st8" d="M812.8,745.7c-7.3-10.7,1.2-20.8-5.4-28c-7.1-7.7-26.9-7.1-36.7,4.3c-9.1,10.6-5.1,25.3-4.3,28
	c4.7,17,20.7,24.5,25.9,27c16.8,7.9,32.5,4.8,45.3,2.2c9.9-2,25.1-6.7,24.8-10.8c-0.2-3.1-8.7-3.2-25.9-9.7
	C823.2,753.6,816.5,751.1,812.8,745.7z"/>
<polygon class="st1" points="806.6,1155.7 839.3,1159.3 835.7,1174 803.3,1179.4 "/>
<polygon class="st1" points="544.4,1166 518.1,1186 510.7,1172.8 530.5,1146.6 "/>
<path class="st1" d="M767.6,773.6c-8.1,7.5-13,17.8-13.8,28.7c-1.3,18.4,0.6,35.6,13.9,42.5s19.8,6.6,21.2,13s0.7,15.1,0.7,15.1
	l-0.7,7.6l45.3-2.1c0,0-1.8-16.1,0-23.8s20.7-41,20.6-44.2s18.2-48.4-23.4-60.5S767.6,773.5,767.6,773.6L767.6,773.6L767.6,773.6z"
	/>
<path class="st1" d="M760.1,799.1l-6.2-1.2c0,0-3.7-0.7-4.4,3s3,4.4,3,4.4l6.2,1.2L760.1,799.1L760.1,799.1L760.1,799.1z"/>
<circle cx="770.5" cy="794.3" r="2.7"/>
<path class="st1" d="M921.6,713.9l2-36.5c0.1-2.4,2.2-4.2,4.5-4.1l1.1,0.1c2.4,0.1,4.2,2.2,4.1,4.5l-2,36.5
	c-0.1,2.4-2.2,4.2-4.5,4.1l-1.1-0.1C923.3,718.3,921.4,716.3,921.6,713.9z"/>
<path class="st1" d="M912.3,709l2-36.5c0.1-2.4,2.2-4.2,4.5-4.1l1.1,0.1c2.4,0.1,4.2,2.2,4.1,4.5l-2,36.5c-0.1,2.4-2.2,4.2-4.5,4.1
	l-1.1-0.1C914,713.5,912.1,711.4,912.3,709z"/>
<path class="st1" d="M902.6,708.5l2-36.5c0.1-2.4,2.2-4.2,4.5-4.1l1.1,0.1c2.4,0.1,4.2,2.2,4.1,4.5l-2,36.5
	c-0.1,2.4-2.2,4.2-4.5,4.1l-1.1-0.1C904.3,712.9,902.4,710.9,902.6,708.5z"/>
<path class="st1" d="M892.9,708l2-36.5c0.1-2.4,2.2-4.2,4.5-4.1l1.1,0.1c2.4,0.1,4.2,2.2,4.1,4.5l-2,36.5c-0.1,2.4-2.2,4.2-4.5,4.1
	l-1.1-0.1C894.6,712.4,892.7,710.4,892.9,708z"/>
<path class="st1" d="M888.8,709.1c2.3,5.5,24.1,15,24.1,15l18.8-14.4l-1.4-11.8C930.3,697.9,886.5,703.6,888.8,709.1z"/>
<path class="st7" d="M844.5,887.2l34.3,42.3c0,0,85.3-78.9,87.8-82.8s2.6-11.4-1-25.7c-5.1-25.7-32.4-109.1-32.4-109.1l-27.2,6.1
	l26.4,94.8c0,0,2.2,7.3-0.1,12.3C927.2,830.9,844.5,887.2,844.5,887.2L844.5,887.2L844.5,887.2z"/>
<polygon class="st5" points="825.5,1155.3 843.3,1150.4 885.1,1182 881.2,1187.3 847.1,1172.2 827.5,1180.3 "/>
<polygon class="st5" points="520.3,1189.7 499.4,1205.3 463.6,1159.9 468.7,1155.8 498,1178.8 508.5,1169.1 "/>
<path class="st1" d="M704.7,649.7l1.1-0.1c2.4-0.1,4.4,1.7,4.5,4.1l2,36.5c0.1,2.4-1.7,4.4-4.1,4.5l-1.1,0.1
	c-2.4,0.1-4.4-1.7-4.5-4.1l-2-36.5C700.5,651.9,702.4,649.8,704.7,649.7z"/>
<path class="st1" d="M714,644.8l1.1-0.1c2.4-0.1,4.4,1.7,4.5,4.1l2,36.5c0.1,2.4-1.7,4.4-4.1,4.5l-1.1,0.1c-2.4,0.1-4.4-1.7-4.5-4.1
	l-2-36.5C709.8,647,711.7,645,714,644.8z"/>
<path class="st1" d="M723.7,644.3l1.1-0.1c2.4-0.1,4.4,1.7,4.5,4.1l2,36.5c0.1,2.4-1.7,4.4-4.1,4.5l-1.1,0.1
	c-2.4,0.1-4.4-1.7-4.5-4.1l-2-36.5C719.5,646.5,721.4,644.4,723.7,644.3z"/>
<path class="st1" d="M733.4,643.8l1.1-0.1c2.4-0.1,4.4,1.7,4.5,4.1l2,36.5c0.1,2.4-1.7,4.4-4.1,4.5l-1.1,0.1
	c-2.4,0.1-4.4-1.7-4.5-4.1l-2-36.5C729.2,645.9,731.1,643.9,733.4,643.8z"/>
<path class="st1" d="M745.1,685.4c-2.3,5.5-24.1,15-24.1,15l-18.8-14.4l1.4-11.8C703.6,674.1,747.4,679.9,745.1,685.4L745.1,685.4
	L745.1,685.4z"/>
<path class="st7" d="M778.6,877.5l-21.3,52c0,0-78-99.5-78.1-112s3.1-25.7,3.1-25.7l20.5-100.4l30.5,3.9c0,0-15.9,84.4-13.5,75.5
	s-6.5,27-4.2,38.2S778.6,877.5,778.6,877.5L778.6,877.5L778.6,877.5z"/>
<polygon class="st6" points="939.9,686.8 667.5,657.6 685,486.1 926.1,494.1 "/>
<path class="st1" d="M736.7,680.6l13.8-27.8c1.1-2.1,3.6-3,5.8-1.9l1,0.5c2.1,1.1,3,3.6,1.9,5.8l-13.8,27.8c-1.1,2.1-3.6,3-5.8,1.9
	l-1-0.5C736.5,685.3,735.7,682.7,736.7,680.6z"/>
<path class="st1" d="M876.6,675.1l1-0.5c2.1-1.1,4.7-0.2,5.8,1.9l13.8,27.8c1.1,2.1,0.2,4.7-1.9,5.8l-1,0.5
	c-2.1,1.1-4.7,0.2-5.8-1.9l-13.8-27.8C873.6,678.8,874.4,676.2,876.6,675.1z"/>
<path class="st9" d="M754.5,1093.1c0,0-13,5.4-95,36.7c-4.1,2.3-12.7,7.1-15.1,16.2c-2.2,8.5,6.5,10.8,6.5,10.8h20.5
	c0,0,119.2-5.3,121.9-25.9C795.6,1114.1,754.5,1093.1,754.5,1093.1L754.5,1093.1L754.5,1093.1z"/>
<path class="st4" d="M657,1135.7c7.9,1.6,131.6,15.9,131.6,15.9l19.2,2.2l-0.1,26.3c0,0-142-4.8-159-11.6
	c-4.8-4.1-7.2-10.3-6.5-16.6C643,1146,649.1,1134.1,657,1135.7L657,1135.7L657,1135.7z"/>
<path class="st4" d="M770.9,1136.8c-22.6-25.2-55.4-53.8-86-51.5c-53.9,4-141.1,88.4-141.1,88.4l-23-25.6
	c0,0,110.6-110.6,153.7-114.5s188.5,36.4,188.5,36.4s-18,54.4-29.2,64.6C822.5,1144.9,788.2,1156.1,770.9,1136.8L770.9,1136.8
	L770.9,1136.8z"/>
<path class="st7" d="M803.6,875.2l-27.4-1.3c0,0-15.2,7.2-16.8,17.2s-21.8,149-21.8,149l135.7,45.2l-0.4-179.9
	c0,0-11.7-27.6-24.6-28.2L803.6,875.2L803.6,875.2L803.6,875.2z"/>
<path class="st10" d="M792.3,740.3c-7.3-10.7,1.2-20.8-5.4-28c-7.1-7.7-26.9-7.1-36.7,4.3c-9.1,10.6-5.1,25.3-4.3,28
	c4.7,17,20.7,24.5,25.9,27c16.8,7.9,32.5,4.8,45.3,2.2c9.9-2,25.1-6.7,24.8-10.8c-0.2-3.1-8.7-3.2-25.9-9.7
	C802.7,748.2,796,745.7,792.3,740.3z"/>
<path class="st10" d="M793.4,765.1c-0.1-2.4-0.6-16.8,9.7-25.9c9.9-8.7,22.9-6.7,31.3-5.4c4.8,0.7,23.2,3.6,34.5,19.4
	c10.4,14.5,8.2,30.8,6.5,44.2c-1.1,8.6-3.6,27.3-18.3,42.1c-9.1,9.1-24.4,18.4-30.2,14c-6.6-5-2.6-29.1,1.1-39.9
	c1.3-3.8,1.7-7.9,1.1-11.9c-0.3-1.6-1.5-8.9-5.4-9.7c-3.4-0.7-7.1,3.6-8.6,6.5c-2.9,5.3-2.3,12.2-2.2,14c0.3,3.6,1.1,5.4,0,6.5
	c-2,2-7.8-0.7-8.6-1.1C792.5,812.5,792.9,777.6,793.4,765.1L793.4,765.1L793.4,765.1z"/>
<path class="st10" d="M873.2,781.3c2.5-8.9,23.2-16.4,34.5-7.5c6.7,5.2,10,16,7.5,23.7c-1.1,3.5-3,5.2-3.2,9.7
	c-0.2,3.9,0.7,10.3,4.3,11.9s6.5-3.6,14-5.4c5.8-1.4,13.8-0.5,19.4,4.3c8.2,7,9.5,20.8,4.3,28c-4.2,6-11.4,5.4-11.9,9.7
	s5.8,8.6,10.8,10.8c11.1,4.7,17.5-2.1,25.9,2.2c7.2,3.6,10.2,12.5,10.8,18.3c1.6,17.3-17.1,28.7-19.4,30.2
	c-10.2,6.2-27.7,11-37.8,3.2c-5.9-4.5-4.1-9.4-15.1-23.7c-7-9.1-10.2-10.5-13-10.8c-6.8-0.8-14.8,4.5-15.1,9.7
	c-0.3,6.1,10.3,7.3,13,16.2c2.3,7.8-2.5,17.7-8.6,21.6c-12.1,7.7-35.3-3.3-44.2-19.4c-10.5-19-1-45.1,9.7-59.3
	c7.5-9.9,13.3-11,18.3-22.7c1.5-3.6,7.5-17.4,3.2-32.4C877.6,788.7,871.7,786.6,873.2,781.3L873.2,781.3L873.2,781.3z"/>
<path class="st3" d="M886.3,783.7c2.4-10.2,1.5-12.6,1.1-13.5c-2-4.6-7.5-8.7-11.7-7.7c-5,1.2-6.5,8.9-8.5,18.9
	c-1.8,8.9-3,15.2,0.8,18.5c2.9,2.5,7.8,2.6,11.1,0.8C882.7,798.9,883.9,793.8,886.3,783.7L886.3,783.7L886.3,783.7z"/>
<path d="M549.7,274.2c-1.5,10.8-1,24.8,0.7,32.7c8.6,1.1,32.8,1.4,38.1,0.7l0.7-0.1c0.5,0,1.1-0.1,1.6-0.3c1.1-0.4,1.8-1.7,1.7-5.9
	c0-1,0.5-2,1.3-2.6c2.8-1.9,3.2-4,2.1-7.8c-0.5-1.6,0.5-3.3,2.1-3.8c0.1,0,0.2,0,0.3-0.1c1-0.2,2.2-5,1.2-5.9
	c-1.3-1.1-1.4-3.1-0.3-4.4c0.1-0.1,0.1-0.1,0.2-0.2c0.8-1.1,1.3-2.5,1.3-3.9c0-2.7-0.8-3.8-3.4-4.2c-2-0.3-4.1-0.5-6.2-0.6
	c-4-0.2-8-0.1-11.9,0.2c-1,0.1-1.9,0.1-2.7,0.2l-1,0.1c-1.2,0.1-2.4-0.5-3-1.6c-0.2-0.4-0.3-0.8-0.4-1.2c-0.4-1.9,0.1-5.5,1.7-11.6
	c1.5-5.8-2.4-11.6-7.2-13.8c-0.7-0.3-1.1-0.3-1.5,0.2c0,1.4,0.1,2.9,0,4.2c0,1.2-0.1,2.2-0.2,3.1c-0.6,5.6-1.6,8.8-4.9,14.9
	c-1.4,2.4-3.1,4.6-5.1,6.6c-1.3,1.4-2.7,2.6-4.2,3.8C550.5,273.6,550,274,549.7,274.2L549.7,274.2L549.7,274.2z M548.4,267.3
	c0.8-0.7,1.6-1.5,2.3-2.2c1.6-1.6,3-3.3,4.1-5.2c2.9-5.5,3.7-7.9,4.2-12.7c0.1-0.7,0.1-1.6,0.1-2.6v-3.9c0-0.6,0-1.1-0.1-1.4
	c0-0.6,0.1-1.2,0.4-1.8c0.4-0.7,1-1.3,1.6-1.8c2.2-2,5.5-2.4,8.1-1c7.2,3.3,13,11.8,10.5,20.9c-0.6,2.1-1.1,4.2-1.4,6.4h0.4
	c4.2-0.3,8.5-0.4,12.7-0.2c2.3,0.1,4.7,0.3,7,0.7c5.8,1,8.5,4.7,8.5,10.3c0,2.1-0.6,4.3-1.6,6.2c1.7,4,0.4,10-2.9,12.8
	c0.8,4.5-0.2,8.1-3.8,11.1c-0.1,5.8-2.2,9.1-5.9,10.4c-0.6,0.2-1.2,0.3-1.8,0.4c-0.4,0.1-0.4,0.1-1.3,0.1h-0.4
	c-5.6,0.8-28.3,0.6-38.5-0.5c-0.3,0.4-0.8,0.8-1.3,1c-8.4,3.3-11.3,3.5-24.8,1.8c-1.2-0.2-2.2-1-2.5-2.2c-3.8-12.7-3.2-26.6,0-45.3
	c0.3-1.7,1.9-2.8,3.6-2.5c0.1,0,0.2,0,0.3,0.1c7,1.9,11.5,2.1,20.8,1.2C547.4,267.1,547.9,267.1,548.4,267.3L548.4,267.3
	L548.4,267.3z M527.8,272.7c-2.5,15.2-2.9,27-0.2,37.4c9.2,1.2,12,1.1,17.1-0.7c-2.1-8.6-2.7-23.8-1.1-35.8
	C538.3,274.2,533,273.9,527.8,272.7z"/>
<path d="M792.3,574.5c-2.7,10.6-3.8,24.5-3,32.6c8.4,2.1,32.4,5.1,37.8,5h0.7c0.5,0,1.1,0,1.6-0.1c1.2-0.3,2-1.5,2.3-5.7
	c0.1-1,0.7-2,1.6-2.5c3-1.6,3.6-3.5,3-7.5c-0.3-1.7,0.9-3.3,2.5-3.5c0.1,0,0.2,0,0.3,0c1-0.1,2.8-4.7,1.8-5.8
	c-1.2-1.2-1.1-3.2,0.2-4.3c0.1-0.1,0.2-0.1,0.2-0.2c1-1,1.5-2.3,1.7-3.7c0.3-2.7-0.3-3.8-2.9-4.6c-2-0.6-4-1-6.1-1.3
	c-3.9-0.6-7.9-1-11.9-1.2l-2.7-0.1h-1c-1.3,0-2.4-0.8-2.9-1.9c-0.2-0.4-0.2-0.8-0.3-1.2c-0.1-1.9,0.7-5.4,3-11.4
	c2.2-5.6-1.1-11.8-5.6-14.5c-0.6-0.4-1-0.4-1.5,0.1c-0.1,1.4-0.3,2.9-0.4,4.2c-0.2,1.1-0.3,2.2-0.5,3c-1.2,5.5-2.6,8.6-6.5,14.3
	c-1.6,2.3-3.6,4.3-5.8,6c-1.5,1.2-3,2.3-4.6,3.3C793.1,574,792.7,574.3,792.3,574.5L792.3,574.5L792.3,574.5z M791.8,567.5
	c0.9-0.6,1.7-1.3,2.6-1.9c1.8-1.4,3.3-3,4.6-4.8c3.5-5.1,4.6-7.5,5.6-12.1c0.2-0.7,0.3-1.6,0.4-2.6c0.2-1.2,0.3-2.6,0.4-3.9
	c0-0.6,0.1-1.1,0.1-1.4c0-0.6,0.2-1.2,0.6-1.7c0.5-0.6,1.1-1.2,1.8-1.7c2.5-1.7,5.7-1.8,8.2-0.1c6.8,4.1,11.6,13.2,8.1,22
	c-0.8,2-1.5,4.1-2.1,6.2h0.4c4.2,0.2,8.4,0.6,12.6,1.2c2.3,0.4,4.6,0.9,6.8,1.5c5.6,1.7,8,5.6,7.3,11.2c-0.3,2.1-1.1,4.2-2.3,5.9
	c1.3,4.2-0.7,10-4.3,12.4c0.2,4.5-1.2,8.1-5,10.6c-0.8,5.7-3.2,8.8-7,9.6c-0.6,0.1-1.2,0.2-1.8,0.2h-1.7c-5.7,0.2-28.2-2.6-38.2-4.9
	c-0.4,0.4-0.8,0.6-1.4,0.8c-8.7,2.3-11.7,2.2-24.8-1c-1.2-0.3-2.1-1.2-2.3-2.4c-2.3-13-0.2-26.8,5.2-45c0.5-1.6,2.2-2.6,3.8-2.1
	c0.1,0,0.2,0.1,0.3,0.1c6.7,2.7,11.2,3.4,20.5,3.5C790.9,567.1,791.3,567.2,791.8,567.5L791.8,567.5L791.8,567.5z M770.7,570.6
	c-4.1,14.8-5.8,26.5-4.4,37c9,2.2,11.8,2.5,17,1.2c-1.1-8.8,0-24,2.9-35.7C781,573.1,775.7,572.3,770.7,570.6L770.7,570.6
	L770.7,570.6z"/>
<path d="M1116.3,279.6c-3.3,10.4-5.2,24.3-4.9,32.4c8.3,2.6,32,7.1,37.4,7.2h0.7c0.5,0.1,1.1,0.1,1.6,0c1.2-0.2,2.1-1.4,2.7-5.5
	c0.1-1,0.8-1.9,1.8-2.4c3.1-1.4,3.8-3.3,3.4-7.3c-0.2-1.7,1-3.2,2.7-3.4c0.1,0,0.2,0,0.3,0c1.1,0,3-4.6,2.2-5.6
	c-1.1-1.3-0.9-3.3,0.5-4.3c0.1-0.1,0.2-0.1,0.2-0.2c1-1,1.7-2.2,1.9-3.6c0.5-2.7-0.1-3.8-2.6-4.8c-2-0.7-4-1.3-6-1.7
	c-3.9-0.9-7.8-1.5-11.8-1.9c-1-0.1-1.9-0.2-2.7-0.2l-1-0.1c-1.2-0.1-2.3-0.9-2.7-2.1c-0.1-0.4-0.2-0.8-0.2-1.2c0-1.9,1-5.4,3.7-11.2
	c2.5-5.4-0.3-11.8-4.7-14.8c-0.6-0.4-1-0.5-1.5,0c-0.2,1.4-0.4,2.9-0.7,4.2c-0.2,1.1-0.4,2.1-0.7,3c-1.5,5.4-3.1,8.4-7.4,13.9
	c-1.8,2.2-3.8,4.1-6.2,5.7c-1.6,1.1-3.2,2.1-4.8,3.1L1116.3,279.6L1116.3,279.6L1116.3,279.6z M1116.3,272.5
	c0.9-0.6,1.8-1.2,2.7-1.8c1.8-1.3,3.5-2.8,4.9-4.5c3.8-4.9,5-7.2,6.3-11.8c0.2-0.7,0.4-1.5,0.6-2.5c0.2-1.2,0.5-2.6,0.7-3.9
	c0.1-0.6,0.2-1.1,0.2-1.4c0.1-0.6,0.3-1.2,0.7-1.7c0.6-0.6,1.2-1.1,1.9-1.5c2.6-1.6,5.8-1.4,8.2,0.4c6.5,4.5,10.8,13.8,6.8,22.4
	c-0.9,2-1.8,4-2.5,6h0.4c4.2,0.4,8.4,1.1,12.5,2c2.3,0.5,4.5,1.1,6.7,1.9c5.5,2,7.6,6.1,6.6,11.6c-0.4,2.1-1.3,4.1-2.7,5.8
	c1,4.2-1.3,9.9-5,12.1c0,4.5-1.7,8-5.6,10.3c-1.1,5.6-3.7,8.6-7.6,9.2c-0.6,0.1-1.2,0.1-1.8,0.1c-0.4,0-0.4,0-1.3-0.1h-0.4
	c-5.8-0.2-28-4.4-37.9-7.2c-0.4,0.4-0.9,0.6-1.4,0.7c-8.9,1.8-11.8,1.5-24.7-2.5c-1.2-0.4-2-1.4-2.1-2.6
	c-1.5-13.1,1.5-26.8,7.9-44.6c0.6-1.6,2.3-2.4,3.9-1.9c0.1,0,0.2,0.1,0.3,0.1c6.5,3.1,11,4.1,20.3,4.7
	C1115.4,272.1,1115.8,272.2,1116.3,272.5L1116.3,272.5z M1095.1,274.3c-5.1,14.6-7.5,26.1-6.7,36.7c8.9,2.7,11.7,3.2,16.9,2.3
	c-0.6-8.8,1.4-24,5.1-35.5C1105.1,277.5,1099.9,276.3,1095.1,274.3L1095.1,274.3z"/>
<path class="st1" d="M327,521.4c8,7.6,12.8,17.9,13.4,28.9c1,18.4-1.1,35.6-14.5,42.3s-19.8,6.3-21.3,12.8s-1,15.1-1,15.1l0.6,7.6
	l-45.2-2.8c0,0,2.1-16.1,0.4-23.8s-20.2-41.2-20-44.5s-17.6-48.6,24.2-60.1S327,521.4,327,521.4L327,521.4L327,521.4z"/>
<path class="st1" d="M339.2,551.3l6.3,0.4c0,0,3.8,0.2,3.5,4s-4,3.5-4,3.5l-6.3-0.4L339.2,551.3z"/>
<circle cx="325.6" cy="546.4" r="2.7"/>
<path class="st1" d="M382.7,458l2-36.5c0.1-2.4,2.2-4.2,4.5-4.1l1.1,0.1c2.4,0.1,4.2,2.2,4.1,4.5l-2,36.5c-0.1,2.4-2.2,4.2-4.5,4.1
	l-1.1-0.1C384.4,462.5,382.5,460.4,382.7,458z"/>
<path class="st1" d="M373.4,453.2l2-36.5c0.1-2.4,2.2-4.2,4.5-4.1l1.1,0.1c2.4,0.1,4.2,2.2,4.1,4.5l-2,36.5
	c-0.1,2.4-2.2,4.2-4.5,4.1l-1.1-0.1C375,457.6,373.2,455.6,373.4,453.2z"/>
<path class="st1" d="M363.6,452.6l2-36.5c0.1-2.4,2.2-4.2,4.5-4.1l1.1,0.1c2.4,0.1,4.2,2.2,4.1,4.5l-2,36.5
	c-0.1,2.4-2.2,4.2-4.5,4.1l-1.1-0.1C365.3,457,363.5,455,363.6,452.6z"/>
<path class="st1" d="M354,452.1l2-36.5c0.1-2.4,2.2-4.2,4.5-4.1l1.1,0.1c2.4,0.1,4.2,2.2,4.1,4.5l-2,36.5c-0.1,2.4-2.2,4.2-4.5,4.1
	l-1.1-0.1C355.6,456.5,353.8,454.5,354,452.1z"/>
<path class="st1" d="M349.9,453.2c2.3,5.5,24.1,15,24.1,15l18.8-14.4l-1.4-11.8C391.3,442,347.5,447.8,349.9,453.2L349.9,453.2
	L349.9,453.2z"/>
<path class="st3" d="M316.4,641l21.3,52c0,0,78-99.4,78.1-112s-3.1-25.7-3.1-25.7l-20.6-100.4l-30.5,3.9c0,0,15.9,84.4,13.5,75.5
	s6.5,27,4.2,38.2S316.4,641,316.4,641z"/>
<path class="st1" d="M171.5,412.2l1.1-0.1c2.4-0.1,4.4,1.7,4.5,4.1l2,36.5c0.1,2.4-1.7,4.4-4.1,4.5l-1.1,0.1
	c-2.4,0.1-4.4-1.7-4.5-4.1l-2-36.5C167.3,414.4,169.1,412.3,171.5,412.2z"/>
<path class="st1" d="M180.8,407.3l1.1-0.1c2.4-0.1,4.4,1.7,4.5,4.1l2,36.5c0.1,2.4-1.7,4.4-4.1,4.5l-1.1,0.1
	c-2.4,0.1-4.4-1.7-4.5-4.1l-2-36.5C176.6,409.5,178.4,407.5,180.8,407.3z"/>
<path class="st1" d="M190.5,406.8l1.1-0.1c2.4-0.1,4.4,1.7,4.5,4.1l2,36.5c0.1,2.4-1.7,4.4-4.1,4.5l-1.1,0.1
	c-2.4,0.1-4.4-1.7-4.5-4.1l-2-36.5C186.3,409,188.1,406.9,190.5,406.8z"/>
<path class="st1" d="M200.2,406.3l1.1-0.1c2.4-0.1,4.4,1.7,4.5,4.1l2,36.5c0.1,2.4-1.7,4.4-4.1,4.5l-1.1,0.1
	c-2.4,0.1-4.4-1.7-4.5-4.1l-2-36.5C196,408.4,197.8,406.4,200.2,406.3z"/>
<path class="st1" d="M211.9,447.8c-2.3,5.5-24.1,15-24.1,15L169,448.4l1.4-11.8C170.4,436.6,214.2,442.4,211.9,447.8L211.9,447.8
	L211.9,447.8z"/>
<path class="st3" d="M245.4,635.6l-21.3,52c0,0-78-99.4-78.1-112c-0.1-12.5,3.1-25.7,3.1-25.7l20.6-100.4l30.4,3.9
	c0,0-15.9,84.4-13.5,75.5s-6.6,27-4.2,38.2S245.4,635.6,245.4,635.6L245.4,635.6L245.4,635.6z"/>
<polygon class="st6" points="158.2,426.9 409.2,425.9 406,253.8 161.6,263.3 "/>
<path class="st1" d="M337.8,420.9l1-0.5c2.1-1,4.7-0.2,5.8,2l13.6,27.9c1,2.1,0.2,4.7-2,5.8l-1,0.5c-2.1,1-4.7,0.2-5.8-2l-13.6-27.9
	C334.7,424.5,335.6,421.9,337.8,420.9z"/>
<path class="st1" d="M203.5,443.1l13.8-27.8c1.1-2.1,3.6-3,5.8-1.9l1,0.5c2.1,1.1,3,3.6,1.9,5.8l-13.8,27.8c-1.1,2.1-3.6,3-5.8,1.9
	l-1-0.5C203.3,447.8,202.4,445.2,203.5,443.1z"/>
<path d="M266.2,338.8c-1.5,10.8-1,24.8,0.7,32.7c8.6,1.1,32.8,1.4,38.1,0.7l0.7-0.1c0.5,0,1.1-0.1,1.6-0.3c1.1-0.4,1.8-1.7,1.7-5.9
	c0-1,0.5-2,1.3-2.6c2.8-1.9,3.2-4,2.1-7.8c-0.5-1.6,0.5-3.3,2.1-3.8c0.1,0,0.2,0,0.3-0.1c1-0.2,2.2-5,1.2-5.9
	c-1.3-1.1-1.4-3.1-0.3-4.4c0.1-0.1,0.1-0.1,0.2-0.2c0.8-1.1,1.3-2.5,1.3-3.9c0-2.7-0.8-3.8-3.4-4.2c-2-0.3-4.1-0.5-6.2-0.6
	c-4-0.2-8-0.1-11.9,0.2c-1,0.1-1.9,0.1-2.7,0.2l-1,0.1c-1.2,0.1-2.4-0.5-3-1.6c-0.2-0.4-0.3-0.8-0.4-1.2c-0.4-1.9,0.1-5.5,1.7-11.6
	c1.5-5.8-2.4-11.6-7.2-13.8c-0.7-0.3-1.1-0.3-1.5,0.2c0,1.4,0.1,2.9,0,4.2c0,1.2-0.1,2.2-0.2,3.1c-0.6,5.6-1.6,8.8-4.9,15
	c-1.4,2.4-3.1,4.6-5.1,6.6c-1.3,1.4-2.7,2.6-4.2,3.8C267,338.2,266.6,338.6,266.2,338.8L266.2,338.8L266.2,338.8z M264.9,331.9
	c0.8-0.7,1.6-1.5,2.3-2.2c1.6-1.6,3-3.3,4.1-5.2c2.9-5.5,3.7-7.9,4.2-12.7c0.1-0.7,0.1-1.6,0.1-2.6v-3.9c0-0.6,0-1.1-0.1-1.4
	c0-0.6,0.1-1.2,0.4-1.8c0.4-0.7,1-1.3,1.6-1.8c2.2-2,5.5-2.4,8.1-1c7.2,3.3,13,11.8,10.5,20.9c-0.6,2.1-1.1,4.2-1.4,6.4h0.4
	c4.2-0.3,8.5-0.4,12.7-0.2c2.3,0.1,4.7,0.3,7,0.7c5.8,1,8.5,4.7,8.5,10.3c0,2.1-0.6,4.3-1.6,6.2c1.7,4,0.4,10-2.9,12.8
	c0.8,4.5-0.2,8.1-3.8,11.1c-0.1,5.8-2.2,9.1-5.9,10.4c-0.6,0.2-1.2,0.3-1.8,0.4c-0.4,0.1-0.4,0.1-1.3,0.1h-0.4
	c-5.6,0.8-28.3,0.6-38.5-0.5c-0.3,0.4-0.8,0.8-1.3,1c-8.4,3.3-11.3,3.5-24.8,1.8c-1.2-0.2-2.2-1-2.5-2.2c-3.8-12.7-3.2-26.6,0-45.3
	c0.3-1.7,1.9-2.8,3.6-2.5c0.1,0,0.2,0,0.3,0.1c6.9,1.9,11.5,2.1,20.8,1.2C264,331.7,264.5,331.7,264.9,331.9L264.9,331.9
	L264.9,331.9z M244.4,337.3c-2.4,15.2-2.9,27-0.2,37.4c9.2,1.2,12,1.1,17.1-0.7c-2.1-8.6-2.7-23.8-1.1-35.8
	C254.9,338.8,249.5,338.5,244.4,337.3L244.4,337.3L244.4,337.3z"/>
<path class="st11" d="M343.1,564.6c0,0-2.4-4.6-6.8-4.3s-1.9,7.4-8,8.5s-4.2-2.5-4.2-2.5s-2.9,6.1,2.5,6.5S343.7,574.1,343.1,564.6z
	"/>
<path d="M323.3,511.9l-36.7,2.3l-4.2,46.1h-5.8v-8.9c0,0,1.5-7-5.9-7.6s-8.2,10.2-8.2,10.2s-2.5,14.8,2,14.7l4.5-0.2
	c0,0,0.5,22.4-4.2,25.8s-10.9,8.9-14.5,1.8s3.8-1.2,3.8-1.2l1.8-3.5c0,0-32.5-37.1-30.5-58.2c2-21.1,19.9-45.1,45.5-44.5
	S308.9,486.6,323.3,511.9L323.3,511.9L323.3,511.9z"/>
<path class="st12" d="M336.3,547.2c0.4-6.8-5.5-12.6-12.2-12.5c-6.2,0.1-12,5.1-12,11.8s5.7,11.7,12,11.8
	C330.3,558.3,335.9,553.4,336.3,547.2z"/>
<path class="st12" d="M314.3,540l-47.1-1.2c0,0-7.2-1.2-7.4,8"/>
<path class="st12" d="M336.3,547.2c0,0,2-1.8,4.2,0"/>
<polygon class="st1" points="234.8,1142.1 232.6,1175 247.6,1174 258.6,1143 "/>
<polygon class="st1" points="325.3,1125.4 324.8,1158.3 339.8,1156.6 349.1,1125.1 "/>
<path class="st13" d="M264.3,852.8c0,0,40.8,83.3,46.6,117s8.4,174.6,8.4,174.6l34.4-0.2c0,0,4.1-133.9,2.4-190.7
	s-20.8-151.7-20.8-151.7l-95.5,15L264.3,852.8L264.3,852.8L264.3,852.8z"/>
<path class="st13" d="M204.6,825c-3.3,63,25.7,108.7,29,164.6c3.3,55.9-5.2,166.4-5.2,166.4l34.1,4.8c0,0,19.9-123,19.8-191.5
	S268.5,825,268.5,825S207.8,762,204.6,825L204.6,825L204.6,825z"/>
<polygon points="228.2,1175.3 226.7,1201.3 284.3,1206.2 285,1199.7 249.6,1187.9 251.9,1173.7 "/>
<polygon points="320.5,1158.8 320.2,1184.9 378,1186.9 378.4,1180.4 342.5,1170.4 344,1156.1 "/>
<path class="st3" d="M274.5,625l-27.5-1.3c0,0-28.1-1.4-29.7,17.2s-14.2,183.5-14.2,183.5l145.4,2.1l-4.6-171.3
	c0,0-11.7-27.6-24.6-28.2L274.5,625L274.5,625L274.5,625z"/>
</svg>
