<?xml version="1.0" encoding="UTF-8"?>
<svg id="Layer_2" xmlns="http://www.w3.org/2000/svg" version="1.1" viewBox="0 0 1488.8 1263.3">
  <!-- Generator: Adobe Illustrator 29.5.1, SVG Export Plug-In . SVG Version: 2.1.0 Build 141)  -->
  <defs>
    <style>
      .st0 {
        fill: #1da961;
      }

      .st1 {
        fill: #d8bf80;
      }

      .st2 {
        fill: #031109;
      }

      .st3 {
        fill: #a08447;
      }

      .st4 {
        fill: #fce4cc;
      }

      .st5 {
        fill: #fff;
      }

      .st6 {
        fill: #fff0cc;
      }

      .st7 {
        fill: #1275a5;
      }

      .st8 {
        fill: #db2634;
      }

      .st9 {
        fill: #021214;
      }

      .st10 {
        fill: none;
        stroke: #001e2d;
        stroke-miterlimit: 10;
      }

      .st11 {
        fill: #082b18;
      }

      .st12 {
        fill: #051d26;
      }
    </style>
  </defs>
  <g id="Layer_2-2">
    <path class="st7" d="M353.6,160.1C179.7,250.5,50.3,422.3,11.5,614.4c-16,79.4-17,163.2,8.3,240.1,28.7,87.1,89.7,160.8,160.8,218.7,185.3,151.1,436.5,201.3,675.2,188.1,189.7-10.5,387.9-64,517.9-202.6s162.6-378.5,31.3-515.8c-52.3-54.7-123.4-87.9-179.3-139-134.8-123-185.7-349.1-362.2-395.7-54.2-14.2-111.4-7.7-166.5,2.3-148.9,27.2-267.1,109.9-343.4,149.6"/>
    <polygon class="st4" points="1090.6 1085 1088.3 1117.9 1103.4 1116.9 1114.4 1085.9 1090.6 1085"/>
    <polygon class="st4" points="1181.1 1068.3 1180.5 1101.2 1195.6 1099.5 1204.9 1068 1181.1 1068.3"/>
    <path class="st4" d="M1092.8,475.7c-8.1,7.5-13,17.8-13.8,28.7-1.3,18.4.6,35.6,13.9,42.6s19.8,6.6,21.1,13,.7,15.1.7,15.1l-.7,7.6,45.3-2.2s-1.8-16.1,0-23.8,20.8-41,20.6-44.2c-.2-3.2,18.2-48.4-23.4-60.5-41.5-11.9-63.7,23.7-63.7,23.7h0Z"/>
    <path class="st4" d="M1080.2,505.5l-6.3.3s-3.8.2-3.6,4c.2,3.8,4,3.6,4,3.6l6.3-.3-.4-7.6h0Z"/>
    <path class="st0" d="M1182.4,507.1l-70.6-51.9c2.2-2.3,4.8-4.3,7.6-6,9-5.6,25.6-11.1,46.3,2.8,31.9,21.4,16.7,55.1,16.7,55.1h0Z"/>
    <path class="st0" d="M1130.8,468.8l-38-27.9s-7.1-3.8-1.9-7.1,23.8,7.3,23.8,7.3l37.1,21.9-21,5.8h0Z"/>
    <path d="M1144.7,479.2s-39.4,17.5-57.2-.3-7.5-28.9-7.5-28.9c0,0,.5,15.1,9.1,14.8s10.5-9,10.5-9c0,0-2.4-7.5,10.7-3.6s34.4,27,34.4,27h0Z"/>
    <path d="M1154.4,486.5s1.1,13.3-8.3,19.2c-9.4,5.9-15.3-3.6-15.3-3.6,0,0-1.8,8.7,2.7,11.8,4.5,3.1,13.2,4.8,17.2-.8,4.1-5.6,2.1-2.3,5-7.8,2-3.3,3-5.5,7.4-2.5,5.6,3,4.5,4.1,3.5,6.3s-6.1,8.9-7,12.2c-1.9,5.5-8.6,24.2,4.6,27.9s18.2-3,18.2-3c0,0-10.7,1.6-11.2-8.1s19.4-23.6,11.5-30.8c-7.8-7.3-28.2-20.8-28.3-20.8h0Z"/>
    <circle cx="1098.9" cy="500.8" r="2.7"/>
    <path class="st4" d="M1223,422.6l2-36.5c0-2.4,2.2-4.2,4.5-4.1h1.1c2.4.2,4.2,2.3,4.1,4.6l-2,36.5c0,2.4-2.2,4.2-4.5,4.1h-1.1c-2.4-.2-4.2-2.3-4.1-4.6Z"/>
    <path class="st4" d="M1213.7,417.7l2-36.5c0-2.4,2.2-4.2,4.5-4.1h1.1c2.4.2,4.2,2.3,4.1,4.6l-2,36.5c0,2.4-2.2,4.2-4.5,4.1h-1.1c-2.4-.2-4.2-2.2-4.1-4.6Z"/>
    <path class="st4" d="M1204,417.1l2-36.5c0-2.4,2.2-4.2,4.5-4.1h1.1c2.4.2,4.2,2.3,4.1,4.6l-2,36.5c0,2.4-2.2,4.2-4.5,4.1h-1.1c-2.4-.1-4.2-2.2-4.1-4.6Z"/>
    <path class="st4" d="M1194.3,416.6l2-36.5c0-2.4,2.2-4.2,4.5-4.1h1.1c2.4.2,4.2,2.3,4.1,4.6l-2,36.5c0,2.4-2.2,4.2-4.5,4.1h-1.1c-2.4-.2-4.2-2.2-4.1-4.6Z"/>
    <path class="st4" d="M1190.2,417.8c2.3,5.5,24.1,15,24.1,15l18.8-14.4-1.4-11.8c0-.1-43.8,5.7-41.5,11.2h0Z"/>
    <path class="st0" d="M1146,595.9l34.3,42.3s85.3-78.9,87.8-82.8,2.6-11.5-1-25.7c-5.1-25.7-32.4-109-32.4-109l-27.2,6,26.4,94.9s2.2,7.3,0,12.3c-5.2,5.7-87.8,61.9-87.8,62h0Z"/>
    <path class="st11" d="M1120.1,795.7s40.8,83.3,46.6,117c5.8,33.6,8.3,174.6,8.3,174.6l34.4-.2s4.1-133.9,2.4-190.7-20.8-151.7-20.8-151.7l-95.5,15,24.6,36h0Z"/>
    <path class="st11" d="M1060.3,767.9c-3.3,63,25.7,108.7,29,164.6s-5.2,166.4-5.2,166.4l34.1,4.8s19.9-123,19.8-191.5-13.7-144.4-13.7-144.4c0,0-60.7-62.9-64,0h0Z"/>
    <polygon class="st9" points="1084 1118.2 1082.5 1144.2 1140.1 1149.1 1140.8 1142.6 1105.4 1130.8 1107.7 1116.6 1084 1118.2"/>
    <polygon class="st9" points="1176.2 1101.7 1176 1127.8 1233.8 1129.8 1234.1 1123.3 1198.2 1113.3 1199.8 1099 1176.2 1101.7"/>
    <path class="st0" d="M1128.7,577.3l-27.5-1.3s-28.1-1.4-29.7,17.2c-1.6,18.6-14.2,183.5-14.2,183.5l145.4,2.1-4.6-171.3s-11.7-27.6-24.6-28.2l-44.8-2h0Z"/>
    <path class="st4" d="M1025.6,356.2h1.1c2.4-.2,4.4,1.6,4.5,4l2,36.5c0,2.4-1.7,4.4-4.1,4.5h-1.1c-2.4.2-4.4-1.6-4.5-4l-2-36.5c0-2.4,1.7-4.4,4.1-4.5Z"/>
    <path class="st4" d="M1034.9,351.3h1.1c2.4-.2,4.4,1.6,4.5,4l2,36.5c0,2.4-1.7,4.4-4.1,4.5h-1.1c-2.4.2-4.4-1.6-4.5-4l-2-36.5c0-2.3,1.7-4.3,4.1-4.5Z"/>
    <path class="st4" d="M1044.6,350.8h1.1c2.4-.2,4.4,1.6,4.5,4l2,36.5c0,2.4-1.7,4.4-4.1,4.5h-1.1c-2.4.2-4.4-1.6-4.5-4l-2-36.5c0-2.3,1.7-4.4,4.1-4.5Z"/>
    <path class="st4" d="M1054.3,350.3h1.1c2.4-.2,4.4,1.6,4.5,4l2,36.5c0,2.4-1.7,4.4-4.1,4.5h-1.1c-2.4.2-4.4-1.6-4.5-4l-2-36.5c0-2.4,1.7-4.4,4.1-4.5Z"/>
    <path class="st4" d="M1066,391.9c-2.3,5.5-24.1,15-24.1,15l-18.8-14.4,1.4-11.8c0-.1,43.8,5.7,41.5,11.2h0Z"/>
    <path class="st0" d="M1099.4,579.7l-21.3,52s-78-99.4-78.1-112c0-12.5,3.1-25.7,3.1-25.7l20.5-100.4,30.4,3.9s-15.9,84.4-13.5,75.5-6.6,27-4.2,38.2c2.4,11.1,63.1,68.5,63.1,68.5h0Z"/>
    <polygon class="st5" points="1254.6 403.4 1003.6 360.1 1011.7 187.9 1252.9 204.3 1254.6 403.4"/>
    <path class="st4" d="M1057.6,387.1l13.8-27.8c1.1-2.1,3.6-3,5.8-1.9l1,.5c2.1,1.1,3,3.6,1.9,5.8l-13.8,27.8c-1.1,2.1-3.6,3-5.8,1.9l-1-.5c-2.1-1-3-3.6-1.9-5.8Z"/>
    <path class="st4" d="M1178,383.8l1-.5c2.1-1.1,4.7-.2,5.8,1.9l13.8,27.8c1.1,2.1.2,4.7-1.9,5.8l-1,.5c-2.1,1.1-4.7.2-5.8-1.9l-13.8-27.8c-1.1-2.1-.2-4.7,1.9-5.8Z"/>
    <polygon class="st4" points="517.4 1097.4 518.5 1130.3 533.4 1127.8 541.1 1095.8 517.4 1097.4"/>
    <polygon class="st9" points="516 1125.4 512.4 1150.9 560.7 1171.2 563.2 1165.1 532.8 1143.7 539.1 1126.4 516 1125.4"/>
    <polygon class="st6" points="592.2 1087.2 592.7 1120.2 607.6 1117.9 616 1086.2 592.2 1087.2"/>
    <polygon class="st9" points="588.8 1114.3 587.5 1141.3 635.8 1157.8 638 1151.6 606.5 1131.7 612.2 1114.2 588.8 1114.3"/>
    <path class="st9" d="M557,789.1s36.7,108.7,34.5,142.7c-2.1,34,.3,157.3.3,157.3l24.5,1.1s17.6-134.9,21.7-191.6c4.1-56.7-5.4-163.8-5.4-163.8l-96.6,16.1,21,38.2h0Z"/>
    <path class="st9" d="M485.9,766.1c-3.3,63,25.7,108.7,29,164.6,3.3,55.9,2.4,170.8,2.4,170.8l24.4,1.6s19.9-130.1,18.8-192.5,7.9-144.4,7.9-144.4c0,0-79.2-63-82.5,0h0Z"/>
    <path class="st4" d="M610.4,456.8c8,7.6,12.8,17.9,13.4,28.9,1,18.4-1.2,35.6-14.5,42.3s-19.8,6.3-21.3,12.8-1,15.1-1,15.1l.6,7.6-45.2-2.8s2.1-16.1.4-23.8-20.2-41.2-20-44.5-17.6-48.6,24.2-60.1c41.7-11.4,63.4,24.5,63.4,24.5h0Z"/>
    <path class="st4" d="M622.6,486.7l6.3.4s3.8.2,3.5,4-4,3.5-4,3.5l-6.3-.4.5-7.5Z"/>
    <circle cx="604" cy="481.8" r="2.7"/>
    <path class="st0" d="M558.7,560.2l-27.5-1.3s-19.5-.2-23.3,17.2-30.4,183.5-30.4,183.5l164.8,2.1-25.1-171.2s-.9-27.6-13.8-28.2l-44.7-2.1h0Z"/>
    <path class="st4" d="M666.1,393.5l2-36.5c0-2.4,2.2-4.2,4.5-4.1h1.1c2.4.2,4.2,2.3,4.1,4.6l-2,36.5c0,2.4-2.2,4.2-4.5,4.1h-1.1c-2.4-.2-4.2-2.3-4.1-4.6Z"/>
    <path class="st4" d="M656.8,388.6l2-36.5c0-2.4,2.2-4.2,4.5-4.1h1.1c2.4.2,4.2,2.3,4.1,4.6l-2,36.5c0,2.4-2.2,4.2-4.5,4.1h-1.1c-2.4-.2-4.3-2.2-4.1-4.6Z"/>
    <path class="st4" d="M647.1,388l2-36.5c0-2.4,2.2-4.2,4.5-4.1h1.1c2.4.2,4.2,2.3,4.1,4.6l-2,36.5c0,2.4-2.2,4.2-4.5,4.1h-1.1c-2.4-.1-4.2-2.2-4.1-4.6Z"/>
    <path class="st4" d="M637.4,387.5l2-36.5c0-2.4,2.2-4.2,4.5-4.1h1.1c2.4.2,4.2,2.3,4.1,4.6l-2,36.5c0,2.4-2.2,4.2-4.5,4.1h-1.1c-2.4-.2-4.2-2.2-4.1-4.6Z"/>
    <path class="st4" d="M633.3,388.6c2.3,5.5,24.1,15,24.1,15l18.8-14.4-1.4-11.8s-43.8,5.8-41.5,11.2h0Z"/>
    <path class="st0" d="M599.8,576.4l21.3,52s78-99.4,78.1-112-3.1-25.7-3.1-25.7l-20.6-100.4-30.5,3.9s15.9,84.4,13.5,75.5,6.5,27,4.2,38.2c-2.2,11.2-62.9,68.5-62.9,68.5h0Z"/>
    <path class="st4" d="M454.9,347.6h1.1c2.4-.2,4.4,1.6,4.5,4l2,36.5c.1,2.4-1.7,4.4-4.1,4.5h-1.1c-2.4.2-4.4-1.6-4.5-4l-2-36.5c-.1-2.3,1.7-4.4,4.1-4.5Z"/>
    <path class="st4" d="M464.2,342.7h1.1c2.4-.2,4.4,1.6,4.5,4l2,36.5c.1,2.4-1.7,4.4-4.1,4.5h-1.1c-2.4.2-4.4-1.6-4.5-4l-2-36.5c-.1-2.3,1.8-4.3,4.1-4.5Z"/>
    <path class="st4" d="M473.9,342.2h1.1c2.4-.2,4.4,1.6,4.5,4l2,36.5c.1,2.4-1.7,4.4-4.1,4.5h-1.1c-2.4.2-4.4-1.6-4.5-4l-2-36.5c-.1-2.3,1.8-4.4,4.1-4.5Z"/>
    <path class="st4" d="M483.6,341.7h1.1c2.4-.2,4.4,1.6,4.5,4l2,36.5c.1,2.4-1.7,4.4-4.1,4.5h-1.1c-2.4.2-4.4-1.6-4.5-4l-2-36.5c-.1-2.4,1.7-4.4,4.1-4.5Z"/>
    <path class="st4" d="M495.3,383.2c-2.3,5.5-24.1,15-24.1,15l-18.8-14.4,1.4-11.8s43.8,5.8,41.5,11.2h0Z"/>
    <path class="st0" d="M528.8,571l-21.3,52s-78-99.4-78.1-112c-.1-12.5,3.1-25.7,3.1-25.7l20.5-100.4,30.4,3.9s-15.9,84.4-13.5,75.5-6.5,27-4.2,38.2,63.1,68.5,63.1,68.5h0Z"/>
    <polygon class="st5" points="441.7 362.3 692.6 361.3 689.4 189.2 445.1 198.7 441.7 362.3"/>
    <path class="st4" d="M621.2,356.3l1-.5c2.1-1,4.7-.2,5.8,2l13.6,27.9c1,2.1.2,4.7-2,5.8l-1,.5c-2.1,1-4.7.2-5.8-2l-13.6-27.9c-1-2.1,0-4.7,2-5.8Z"/>
    <path class="st4" d="M486.9,378.5l13.8-27.8c1.1-2.1,3.6-3,5.8-1.9l1,.5c2.1,1.1,3,3.6,1.9,5.8l-13.8,27.8c-1.1,2.1-3.6,3-5.8,1.9l-1-.5c-2.1-1.1-2.9-3.7-1.9-5.8Z"/>
    <path class="st9" d="M543.3,423.7c30.3-11.4,56.9,7.7,64.5,13.1,7.8,5.6,14,10,14.1,16.4.3,19.7-58.6,37.7-65.7,27.5-2-2.9-.5-9.1-5-12.2-1.5-1-3.4-1.5-5.3-1.2-3.6.8-5.3,5.1-5.8,6.5-4,10,7,24.8,11,30.1,12.6,16.6,19.2,15,23.2,25,4.7,11.7,1.1,27.3-8.1,36.9-16.1,16.7-48,13.1-57.1-1.6-7.6-12.2.8-31.6,2.2-34.9,5-11.6,10-12,11-19.7,1.8-14.4-14.9-19.7-17.7-34.9-3.6-18.6,16-42.4,38.7-51h0Z"/>
    <path class="st3" d="M812.8,745.7c-7.3-10.7,1.2-20.8-5.4-28-7.1-7.7-26.9-7.1-36.7,4.3-9.1,10.6-5.1,25.3-4.3,28,4.7,17,20.7,24.5,25.9,27,16.8,7.9,32.5,4.8,45.3,2.2,9.9-2,25.1-6.7,24.8-10.8-.2-3.1-8.7-3.2-25.9-9.7-13.3-5.1-20-7.6-23.7-13h0Z"/>
    <polygon class="st4" points="806.6 1155.7 839.3 1159.3 835.7 1174 803.3 1179.4 806.6 1155.7"/>
    <polygon class="st4" points="544.4 1166 518.1 1186 510.7 1172.8 530.5 1146.6 544.4 1166"/>
    <path class="st4" d="M767.6,773.6c-8.1,7.5-13,17.8-13.8,28.7-1.3,18.4.6,35.6,13.9,42.5s19.8,6.6,21.2,13,.7,15.1.7,15.1l-.7,7.6,45.3-2.1s-1.8-16.1,0-23.8,20.7-41,20.6-44.2,18.2-48.4-23.4-60.5-63.8,23.6-63.8,23.7h0Z"/>
    <path class="st4" d="M760.1,799.1l-6.2-1.2s-3.7-.7-4.4,3,3,4.4,3,4.4l6.2,1.2,1.4-7.4h0Z"/>
    <circle cx="770.5" cy="794.3" r="2.7"/>
    <path class="st4" d="M921.6,713.9l2-36.5c0-2.4,2.2-4.2,4.5-4.1h1.1c2.4.2,4.2,2.3,4.1,4.6l-2,36.5c0,2.4-2.2,4.2-4.5,4.1h-1.1c-2.4-.2-4.3-2.2-4.1-4.6Z"/>
    <path class="st4" d="M912.3,709l2-36.5c0-2.4,2.2-4.2,4.5-4.1h1.1c2.4.2,4.2,2.3,4.1,4.6l-2,36.5c0,2.4-2.2,4.2-4.5,4.1h-1.1c-2.4,0-4.3-2.2-4.1-4.6Z"/>
    <path class="st4" d="M902.6,708.5l2-36.5c0-2.4,2.2-4.2,4.5-4.1h1.1c2.4.2,4.2,2.3,4.1,4.6l-2,36.5c0,2.4-2.2,4.2-4.5,4.1h-1.1c-2.4-.2-4.3-2.2-4.1-4.6Z"/>
    <path class="st4" d="M892.9,708l2-36.5c0-2.4,2.2-4.2,4.5-4.1h1.1c2.4.2,4.2,2.3,4.1,4.6l-2,36.5c0,2.4-2.2,4.2-4.5,4.1h-1.1c-2.4-.2-4.3-2.2-4.1-4.6Z"/>
    <path class="st4" d="M888.8,709.1c2.3,5.5,24.1,15,24.1,15l18.8-14.4-1.4-11.8s-43.8,5.7-41.5,11.2h0Z"/>
    <path class="st8" d="M844.5,887.2l34.3,42.3s85.3-78.9,87.8-82.8,2.6-11.4-1-25.7c-5.1-25.7-32.4-109.1-32.4-109.1l-27.2,6.1,26.4,94.8s2.2,7.3,0,12.3c-5.1,5.8-87.8,62.1-87.8,62.1h0Z"/>
    <polygon class="st9" points="825.5 1155.3 843.3 1150.4 885.1 1182 881.2 1187.3 847.1 1172.2 827.5 1180.3 825.5 1155.3"/>
    <polygon class="st9" points="520.3 1189.7 499.4 1205.3 463.6 1159.9 468.7 1155.8 498 1178.8 508.5 1169.1 520.3 1189.7"/>
    <path class="st4" d="M704.7,649.7h1.1c2.4-.2,4.4,1.6,4.5,4l2,36.5c0,2.4-1.7,4.4-4.1,4.5h-1.1c-2.4.2-4.4-1.6-4.5-4l-2-36.5c0-2.3,1.8-4.4,4.1-4.5Z"/>
    <path class="st4" d="M714,644.8h1.1c2.4-.2,4.4,1.6,4.5,4l2,36.5c0,2.4-1.7,4.4-4.1,4.5h-1.1c-2.4.2-4.4-1.6-4.5-4l-2-36.5c0-2.3,1.8-4.3,4.1-4.5Z"/>
    <path class="st4" d="M723.7,644.3h1.1c2.4-.2,4.4,1.6,4.5,4l2,36.5c0,2.4-1.7,4.4-4.1,4.5h-1.1c-2.4.2-4.4-1.6-4.5-4l-2-36.5c0-2.3,1.8-4.4,4.1-4.5Z"/>
    <path class="st4" d="M733.4,643.8h1.1c2.4-.2,4.4,1.6,4.5,4l2,36.5c0,2.4-1.7,4.4-4.1,4.5h-1.1c-2.4.2-4.4-1.6-4.5-4l-2-36.5c0-2.4,1.8-4.4,4.1-4.5Z"/>
    <path class="st4" d="M745.1,685.4c-2.3,5.5-24.1,15-24.1,15l-18.8-14.4,1.4-11.8c0,0,43.8,5.7,41.5,11.2h0Z"/>
    <path class="st8" d="M778.6,877.5l-21.3,52s-78-99.5-78.1-112,3.1-25.7,3.1-25.7l20.5-100.4,30.5,3.9s-15.9,84.4-13.5,75.5-6.5,27-4.2,38.2,63,68.5,63,68.5h0Z"/>
    <polygon class="st5" points="939.9 686.8 667.5 657.6 685 486.1 926.1 494.1 939.9 686.8"/>
    <path class="st4" d="M736.7,680.6l13.8-27.8c1.1-2.1,3.6-3,5.8-1.9l1,.5c2.1,1.1,3,3.6,1.9,5.8l-13.8,27.8c-1.1,2.1-3.6,3-5.8,1.9l-1-.5c-2.1-1.1-2.9-3.7-1.9-5.8Z"/>
    <path class="st4" d="M876.6,675.1l1-.5c2.1-1.1,4.7-.2,5.8,1.9l13.8,27.8c1.1,2.1.2,4.7-1.9,5.8l-1,.5c-2.1,1.1-4.7.2-5.8-1.9l-13.8-27.8c-1.1-2.1-.3-4.7,1.9-5.8Z"/>
    <path class="st2" d="M754.5,1093.1s-13,5.4-95,36.7c-4.1,2.3-12.7,7.1-15.1,16.2-2.2,8.5,6.5,10.8,6.5,10.8h20.5s119.2-5.3,121.9-25.9c2.3-16.8-38.8-37.8-38.8-37.8h0Z"/>
    <path class="st11" d="M657,1135.7c7.9,1.6,131.6,15.9,131.6,15.9l19.2,2.2v26.3c0,0-142.1-4.8-159.1-11.6-4.8-4.1-7.2-10.3-6.5-16.6.8-5.9,6.9-17.8,14.8-16.2h0Z"/>
    <path class="st11" d="M770.9,1136.8c-22.6-25.2-55.4-53.8-86-51.5-53.9,4-141.1,88.4-141.1,88.4l-23-25.6s110.6-110.6,153.7-114.5,188.5,36.4,188.5,36.4c0,0-18,54.4-29.2,64.6-11.3,10.3-45.6,21.5-62.9,2.2h0Z"/>
    <path class="st8" d="M803.6,875.2l-27.4-1.3s-15.2,7.2-16.8,17.2-21.8,149-21.8,149l135.7,45.2-.4-179.9s-11.7-27.6-24.6-28.2l-44.7-2h0Z"/>
    <path class="st1" d="M792.3,740.3c-7.3-10.7,1.2-20.8-5.4-28-7.1-7.7-26.9-7.1-36.7,4.3-9.1,10.6-5.1,25.3-4.3,28,4.7,17,20.7,24.5,25.9,27,16.8,7.9,32.5,4.8,45.3,2.2,9.9-2,25.1-6.7,24.8-10.8-.2-3.1-8.7-3.2-25.9-9.7-13.3-5.1-20-7.6-23.7-13h0Z"/>
    <path class="st1" d="M793.4,765.1c0-2.4-.6-16.8,9.7-25.9,9.9-8.7,22.9-6.7,31.3-5.4,4.8.7,23.2,3.6,34.5,19.4,10.4,14.5,8.2,30.8,6.5,44.2-1.1,8.6-3.6,27.3-18.3,42.1-9.1,9.1-24.4,18.4-30.2,14-6.6-5-2.6-29.1,1.1-39.9,1.3-3.8,1.7-7.9,1.1-11.9-.3-1.6-1.5-8.9-5.4-9.7-3.4-.7-7.1,3.6-8.6,6.5-2.9,5.3-2.3,12.2-2.2,14,.3,3.6,1.1,5.4,0,6.5-2,2-7.8-.7-8.6-1.1-11.8-5.4-11.4-40.3-10.9-52.8h0Z"/>
    <path class="st1" d="M873.2,781.3c2.5-8.9,23.2-16.4,34.5-7.5,6.7,5.2,10,16,7.5,23.7-1.1,3.5-3,5.2-3.2,9.7-.2,3.9.7,10.3,4.3,11.9s6.5-3.6,14-5.4c5.8-1.4,13.8-.5,19.4,4.3,8.2,7,9.5,20.8,4.3,28-4.2,6-11.4,5.4-11.9,9.7s5.8,8.6,10.8,10.8c11.1,4.7,17.5-2.1,25.9,2.2,7.2,3.6,10.2,12.5,10.8,18.3,1.6,17.3-17.1,28.7-19.4,30.2-10.2,6.2-27.7,11-37.8,3.2-5.9-4.5-4.1-9.4-15.1-23.7-7-9.1-10.2-10.5-13-10.8-6.8-.8-14.8,4.5-15.1,9.7-.3,6.1,10.3,7.3,13,16.2,2.3,7.8-2.5,17.7-8.6,21.6-12.1,7.7-35.3-3.3-44.2-19.4-10.5-19-1-45.1,9.7-59.3,7.5-9.9,13.3-11,18.3-22.7,1.5-3.6,7.5-17.4,3.2-32.4-3-10.9-8.9-13-7.4-18.3h0Z"/>
    <path class="st0" d="M886.3,783.7c2.4-10.2,1.5-12.6,1.1-13.5-2-4.6-7.5-8.7-11.7-7.7-5,1.2-6.5,8.9-8.5,18.9-1.8,8.9-3,15.2.8,18.5,2.9,2.5,7.8,2.6,11.1.8,3.6-1.8,4.8-6.9,7.2-17h0Z"/>
    <path d="M549.7,274.2c-1.5,10.8-1,24.8.7,32.7,8.6,1.1,32.8,1.4,38.1.7h.7c.5-.1,1.1-.2,1.6-.4,1.1-.4,1.8-1.7,1.7-5.9,0-1,.5-2,1.3-2.6,2.8-1.9,3.2-4,2.1-7.8-.5-1.6.5-3.3,2.1-3.8,0,0,.2,0,.3-.1,1-.2,2.2-5,1.2-5.9-1.3-1.1-1.4-3.1-.3-4.4,0,0,.1-.1.2-.2.8-1.1,1.3-2.5,1.3-3.9,0-2.7-.8-3.8-3.4-4.2-2-.3-4.1-.5-6.2-.6-4-.2-8-.1-11.9.2-1,.1-1.9.1-2.7.2h-1c-1.2.2-2.4-.4-3-1.5-.2-.4-.3-.8-.4-1.2-.4-1.9,0-5.5,1.7-11.6,1.5-5.8-2.4-11.6-7.2-13.8-.7-.3-1.1-.3-1.5.2,0,1.4,0,2.9,0,4.2,0,1.2,0,2.2-.2,3.1-.6,5.6-1.6,8.8-4.9,14.9-1.4,2.4-3.1,4.6-5.1,6.6-1.3,1.4-2.7,2.6-4.2,3.8-.2.7-.7,1.1-1,1.3h0ZM548.4,267.3c.8-.7,1.6-1.5,2.3-2.2,1.6-1.6,3-3.3,4.1-5.2,2.9-5.5,3.7-7.9,4.2-12.7,0-.7,0-1.6,0-2.6v-3.9c0-.6,0-1.1,0-1.4,0-.6,0-1.2.4-1.8.4-.7,1-1.3,1.6-1.8,2.2-2,5.5-2.4,8.1-1,7.2,3.3,13,11.8,10.5,20.9-.6,2.1-1.1,4.2-1.4,6.4h.4c4.2-.3,8.5-.4,12.7-.2,2.3.1,4.7.3,7,.7,5.8,1,8.5,4.7,8.5,10.3s-.6,4.3-1.6,6.2c1.7,4,.4,10-2.9,12.8.8,4.5-.2,8.1-3.8,11.1,0,5.8-2.2,9.1-5.9,10.4-.6.2-1.2.3-1.8.4-.3,0-.7.1-1.3.1h-.4c-5.6.8-28.3.6-38.5-.5-.3.4-.8.8-1.3,1-8.4,3.3-11.3,3.5-24.8,1.8-1.2-.2-2.2-1-2.5-2.2-3.8-12.7-3.2-26.6,0-45.3.3-1.7,1.9-2.8,3.6-2.5,0,0,.2,0,.3.1,7,1.9,11.5,2.1,20.8,1.2.7-.3,1.2-.3,1.7-.1h0ZM527.8,272.7c-2.5,15.2-2.9,27-.2,37.4,9.2,1.2,12,1.1,17.1-.7-2.1-8.6-2.7-23.8-1.1-35.8-5.3.6-10.6.3-15.8-.9Z"/>
    <path d="M1116.3,279.6c-3.3,10.4-5.2,24.3-4.9,32.4,8.3,2.6,32,7.1,37.4,7.2h.7c.5.1,1.1.1,1.6,0,1.2-.2,2.1-1.4,2.7-5.5,0-1,.8-1.9,1.8-2.4,3.1-1.4,3.8-3.3,3.4-7.3-.2-1.7,1-3.2,2.7-3.4h.3c1.1,0,3-4.6,2.2-5.6-1.1-1.3-.9-3.3.5-4.3,0-.1.2-.1.2-.2,1-1,1.7-2.2,1.9-3.6.5-2.7,0-3.8-2.6-4.8-2-.7-4-1.3-6-1.7-3.9-.9-7.8-1.5-11.8-1.9-1-.1-1.9-.2-2.7-.2h-1c-1.2-.2-2.3-1-2.7-2.2,0-.4-.2-.8-.2-1.2,0-1.9,1-5.4,3.7-11.2,2.5-5.4-.3-11.8-4.7-14.8-.6-.4-1-.5-1.5,0-.2,1.4-.4,2.9-.7,4.2-.2,1.1-.4,2.1-.7,3-1.5,5.4-3.1,8.4-7.4,13.9-1.8,2.2-3.8,4.1-6.2,5.7-1.6,1.1-3.2,2.1-4.8,3.1l-1.2.8h0ZM1116.3,272.5c.9-.6,1.8-1.2,2.7-1.8,1.8-1.3,3.5-2.8,4.9-4.5,3.8-4.9,5-7.2,6.3-11.8.2-.7.4-1.5.6-2.5.2-1.2.5-2.6.7-3.9,0-.6.2-1.1.2-1.4,0-.6.3-1.2.7-1.7.6-.6,1.2-1.1,1.9-1.5,2.6-1.6,5.8-1.4,8.2.4,6.5,4.5,10.8,13.8,6.8,22.4-.9,2-1.8,4-2.5,6h.4c4.2.4,8.4,1.1,12.5,2,2.3.5,4.5,1.1,6.7,1.9,5.5,2,7.6,6.1,6.6,11.6-.4,2.1-1.3,4.1-2.7,5.8,1,4.2-1.3,9.9-5,12.1,0,4.5-1.7,8-5.6,10.3-1.1,5.6-3.7,8.6-7.6,9.2-.6.1-1.2.1-1.8.1s-.7,0-1.3-.1h-.4c-5.8-.2-28-4.4-37.9-7.2-.4.4-.9.6-1.4.7-8.9,1.8-11.8,1.5-24.7-2.5-1.2-.4-2-1.4-2.1-2.6-1.5-13.1,1.5-26.8,7.9-44.6.6-1.6,2.3-2.4,3.9-1.9,0,0,.2.1.3.1,6.5,3.1,11,4.1,20.3,4.7.5.3.9.4,1.4.7h0ZM1095.1,274.3c-5.1,14.6-7.5,26.1-6.7,36.7,8.9,2.7,11.7,3.2,16.9,2.3-.6-8.8,1.4-24,5.1-35.5-5.3-.3-10.5-1.5-15.3-3.5h0Z"/>
    <path class="st4" d="M327,521.4c8,7.6,12.8,17.9,13.4,28.9,1,18.4-1.1,35.6-14.5,42.3s-19.8,6.3-21.3,12.8-1,15.1-1,15.1l.6,7.6-45.2-2.8s2.1-16.1.4-23.8-20.2-41.2-20-44.5-17.6-48.6,24.2-60.1,63.4,24.5,63.4,24.5h0Z"/>
    <path class="st4" d="M339.2,551.3l6.3.4s3.8.2,3.5,4-4,3.5-4,3.5l-6.3-.4.5-7.5Z"/>
    <circle cx="325.6" cy="546.4" r="2.7"/>
    <path class="st4" d="M382.7,458l2-36.5c.1-2.4,2.2-4.2,4.5-4.1h1.1c2.4.2,4.2,2.3,4.1,4.6l-2,36.5c-.1,2.4-2.2,4.2-4.5,4.1h-1.1c-2.4-.1-4.3-2.2-4.1-4.6Z"/>
    <path class="st4" d="M373.4,453.2l2-36.5c.1-2.4,2.2-4.2,4.5-4.1h1.1c2.4.2,4.2,2.3,4.1,4.6l-2,36.5c-.1,2.4-2.2,4.2-4.5,4.1h-1.1c-2.5-.2-4.3-2.2-4.1-4.6Z"/>
    <path class="st4" d="M363.6,452.6l2-36.5c.1-2.4,2.2-4.2,4.5-4.1h1.1c2.4.2,4.2,2.3,4.1,4.6l-2,36.5c-.1,2.4-2.2,4.2-4.5,4.1h-1.1c-2.4-.2-4.2-2.2-4.1-4.6Z"/>
    <path class="st4" d="M354,452.1l2-36.5c.1-2.4,2.2-4.2,4.5-4.1h1.1c2.4.2,4.2,2.3,4.1,4.6l-2,36.5c-.1,2.4-2.2,4.2-4.5,4.1h-1.1c-2.5-.2-4.3-2.2-4.1-4.6Z"/>
    <path class="st4" d="M349.9,453.2c2.3,5.5,24.1,15,24.1,15l18.8-14.4-1.4-11.8c-.1,0-43.9,5.8-41.5,11.2h0Z"/>
    <path class="st8" d="M316.4,641l21.3,52s78-99.4,78.1-112-3.1-25.7-3.1-25.7l-20.6-100.4-30.5,3.9s15.9,84.4,13.5,75.5,6.5,27,4.2,38.2-62.9,68.5-62.9,68.5Z"/>
    <path class="st4" d="M171.5,412.2h1.1c2.4-.2,4.4,1.6,4.5,4l2,36.5c.1,2.4-1.7,4.4-4.1,4.5h-1.1c-2.4.2-4.4-1.6-4.5-4l-2-36.5c-.1-2.3,1.7-4.4,4.1-4.5Z"/>
    <path class="st4" d="M180.8,407.3h1.1c2.4-.2,4.4,1.6,4.5,4l2,36.5c.1,2.4-1.7,4.4-4.1,4.5h-1.1c-2.4.2-4.4-1.6-4.5-4l-2-36.5c-.1-2.3,1.7-4.3,4.1-4.5Z"/>
    <path class="st4" d="M190.5,406.8h1.1c2.4-.2,4.4,1.6,4.5,4l2,36.5c.1,2.4-1.7,4.4-4.1,4.5h-1.1c-2.4.2-4.4-1.6-4.5-4l-2-36.5c-.1-2.3,1.7-4.4,4.1-4.5Z"/>
    <path class="st4" d="M200.2,406.3h1.1c2.4-.2,4.4,1.6,4.5,4l2,36.5c.1,2.4-1.7,4.4-4.1,4.5h-1.1c-2.4.2-4.4-1.6-4.5-4l-2-36.5c-.1-2.4,1.7-4.4,4.1-4.5Z"/>
    <path class="st4" d="M211.9,447.8c-2.3,5.5-24.1,15-24.1,15l-18.8-14.4,1.4-11.8s43.8,5.8,41.5,11.2h0Z"/>
    <path class="st8" d="M245.4,635.6l-21.3,52s-78-99.4-78.1-112c-.1-12.5,3.1-25.7,3.1-25.7l20.6-100.4,30.4,3.9s-15.9,84.4-13.5,75.5-6.6,27-4.2,38.2,63,68.5,63,68.5h0Z"/>
    <polygon class="st5" points="158.2 426.9 409.2 425.9 406 253.8 161.6 263.3 158.2 426.9"/>
    <path class="st4" d="M337.8,420.9l1-.5c2.1-1,4.7-.2,5.8,2l13.6,27.9c1,2.1.2,4.7-2,5.8l-1,.5c-2.1,1-4.7.2-5.8-2l-13.6-27.9c-1.1-2.2-.2-4.8,2-5.8Z"/>
    <path class="st4" d="M203.5,443.1l13.8-27.8c1.1-2.1,3.6-3,5.8-1.9l1,.5c2.1,1.1,3,3.6,1.9,5.8l-13.8,27.8c-1.1,2.1-3.6,3-5.8,1.9l-1-.5c-2.1-1.1-3-3.7-1.9-5.8Z"/>
    <path d="M266.2,338.8c-1.5,10.8-1,24.8.7,32.7,8.6,1.1,32.8,1.4,38.1.7h.7c.5-.1,1.1-.2,1.6-.4,1.1-.4,1.8-1.7,1.7-5.9,0-1,.5-2,1.3-2.6,2.8-1.9,3.2-4,2.1-7.8-.5-1.6.5-3.3,2.1-3.8.1,0,.2,0,.3-.1,1-.2,2.2-5,1.2-5.9-1.3-1.1-1.4-3.1-.3-4.4l.2-.2c.8-1.1,1.3-2.5,1.3-3.9,0-2.7-.8-3.8-3.4-4.2-2-.3-4.1-.5-6.2-.6-4-.2-8-.1-11.9.2-1,.1-1.9.1-2.7.2h-1c-1.2.2-2.4-.4-3-1.5-.2-.4-.3-.8-.4-1.2-.4-1.9.1-5.5,1.7-11.6,1.5-5.8-2.4-11.6-7.2-13.8-.7-.3-1.1-.3-1.5.2,0,1.4.1,2.9,0,4.2,0,1.2-.1,2.2-.2,3.1-.6,5.6-1.6,8.8-4.9,15-1.4,2.4-3.1,4.6-5.1,6.6-1.3,1.4-2.7,2.6-4.2,3.8-.2.6-.6,1-1,1.2h0ZM264.9,331.9c.8-.7,1.6-1.5,2.3-2.2,1.6-1.6,3-3.3,4.1-5.2,2.9-5.5,3.7-7.9,4.2-12.7.1-.7.1-1.6.1-2.6v-3.9c0-.6,0-1.1-.1-1.4,0-.6.1-1.2.4-1.8.4-.7,1-1.3,1.6-1.8,2.2-2,5.5-2.4,8.1-1,7.2,3.3,13,11.8,10.5,20.9-.6,2.1-1.1,4.2-1.4,6.4h.4c4.2-.3,8.5-.4,12.7-.2,2.3.1,4.7.3,7,.7,5.8,1,8.5,4.7,8.5,10.3s-.6,4.3-1.6,6.2c1.7,4,.4,10-2.9,12.8.8,4.5-.2,8.1-3.8,11.1-.1,5.8-2.2,9.1-5.9,10.4-.6.2-1.2.3-1.8.4-.3,0-.7.1-1.3.1h-.4c-5.6.8-28.3.6-38.5-.5-.3.4-.8.8-1.3,1-8.4,3.3-11.3,3.5-24.8,1.8-1.2-.2-2.2-1-2.5-2.2-3.8-12.7-3.2-26.6,0-45.3.3-1.7,1.9-2.8,3.6-2.5.1,0,.2,0,.3.1,6.9,1.9,11.5,2.1,20.8,1.2.8-.3,1.3-.3,1.7-.1h0ZM244.4,337.3c-2.4,15.2-2.9,27-.2,37.4,9.2,1.2,12,1.1,17.1-.7-2.1-8.6-2.7-23.8-1.1-35.8-5.3.6-10.7.3-15.8-.9h0Z"/>
    <path d="M343.1,564.6s-2.4-4.6-6.8-4.3-1.9,7.4-8,8.5-4.2-2.5-4.2-2.5c0,0-2.9,6.1,2.5,6.5s17.1,1.3,16.5-8.2Z"/>
    <path d="M323.3,511.9l-36.7,2.3-4.2,46.1h-5.8v-8.9s1.5-7-5.9-7.6-8.2,10.2-8.2,10.2c0,0-2.5,14.8,2,14.7l4.5-.2s.5,22.4-4.2,25.8-10.9,8.9-14.5,1.8,3.8-1.2,3.8-1.2l1.8-3.5s-32.5-37.1-30.5-58.2c2-21.1,19.9-45.1,45.5-44.5s38-2.1,52.4,23.2h0Z"/>
    <path class="st10" d="M336.3,547.2c.4-6.8-5.5-12.6-12.2-12.5-6.2,0-12,5.1-12,11.8s5.7,11.7,12,11.8c6.2,0,11.8-4.9,12.2-11.1Z"/>
    <path class="st10" d="M314.3,540l-47.1-1.2s-7.2-1.2-7.4,8"/>
    <path class="st10" d="M336.3,547.2s2-1.8,4.2,0"/>
    <polygon class="st4" points="234.8 1142.1 232.6 1175 247.6 1174 258.6 1143 234.8 1142.1"/>
    <polygon class="st4" points="325.3 1125.4 324.8 1158.3 339.8 1156.6 349.1 1125.1 325.3 1125.4"/>
    <path class="st12" d="M264.3,852.8s40.8,83.3,46.6,117,8.4,174.6,8.4,174.6l34.4-.2s4.1-133.9,2.4-190.7-20.8-151.7-20.8-151.7l-95.5,15,24.5,36h0Z"/>
    <path class="st12" d="M204.6,825c-3.3,63,25.7,108.7,29,164.6,3.3,55.9-5.2,166.4-5.2,166.4l34.1,4.8s19.9-123,19.8-191.5-13.8-144.3-13.8-144.3c0,0-60.7-63-63.9,0h0Z"/>
    <polygon class="st9" points="228.2 1175.3 226.7 1201.3 284.3 1206.2 285 1199.7 249.6 1187.9 251.9 1173.7 228.2 1175.3"/>
    <polygon class="st9" points="320.5 1158.8 320.2 1184.9 378 1186.9 378.4 1180.4 342.5 1170.4 344 1156.1 320.5 1158.8"/>
    <path class="st8" d="M274.5,625l-27.5-1.3s-28.1-1.4-29.7,17.2-14.2,183.5-14.2,183.5l145.4,2.1-4.6-171.3s-11.7-27.6-24.6-28.2l-44.8-2h0Z"/>
    <path d="M791.2,578.5c-3.3,10.4-5.2,24.3-4.9,32.4,8.3,2.6,32,7.1,37.4,7.2h.7c.5,0,1.1,0,1.6,0,1.2-.2,2.1-1.4,2.7-5.5,0-1,.8-1.9,1.8-2.4,3.1-1.4,3.8-3.3,3.4-7.3-.2-1.7,1-3.2,2.7-3.4h.3c1.1,0,3-4.6,2.2-5.6-1.1-1.3-.9-3.3.5-4.3,0,0,.2,0,.2-.2,1-1,1.7-2.2,1.9-3.6.5-2.7,0-3.8-2.6-4.8-2-.7-4-1.3-6-1.7-3.9-.9-7.8-1.5-11.8-1.9-1,0-1.9-.2-2.7-.2h-1c-1.2-.2-2.3-1-2.7-2.2,0-.4-.2-.8-.2-1.2,0-1.9,1-5.4,3.7-11.2,2.5-5.4-.3-11.8-4.7-14.8-.6-.4-1-.5-1.5,0-.2,1.4-.4,2.9-.7,4.2-.2,1.1-.4,2.1-.7,3-1.5,5.4-3.1,8.4-7.4,13.9-1.8,2.2-3.8,4.1-6.2,5.7-1.6,1.1-3.2,2.1-4.8,3.1l-1.2.8h0ZM791.2,571.4c.9-.6,1.8-1.2,2.7-1.8,1.8-1.3,3.5-2.8,4.9-4.5,3.8-4.9,5-7.2,6.3-11.8.2-.7.4-1.5.6-2.5.2-1.2.5-2.6.7-3.9,0-.6.2-1.1.2-1.4,0-.6.3-1.2.7-1.7.6-.6,1.2-1.1,1.9-1.5,2.6-1.6,5.8-1.4,8.2.4,6.5,4.5,10.8,13.8,6.8,22.4-.9,2-1.8,4-2.5,6h.4c4.2.4,8.4,1.1,12.5,2,2.3.5,4.5,1.1,6.7,1.9,5.5,2,7.6,6.1,6.6,11.6-.4,2.1-1.3,4.1-2.7,5.8,1,4.2-1.3,9.9-5,12.1,0,4.5-1.7,8-5.6,10.3-1.1,5.6-3.7,8.6-7.6,9.2-.6,0-1.2,0-1.8,0s-.7,0-1.3,0h-.4c-5.8-.2-28-4.4-37.9-7.2-.4.4-.9.6-1.4.7-8.9,1.8-11.8,1.5-24.7-2.5-1.2-.4-2-1.4-2.1-2.6-1.5-13.1,1.5-26.8,7.9-44.6.6-1.6,2.3-2.4,3.9-1.9,0,0,.2,0,.3,0,6.5,3.1,11,4.1,20.3,4.7.5.3.9.4,1.4.7h0ZM770,573.2c-5.1,14.6-7.5,26.1-6.7,36.7,8.9,2.7,11.7,3.2,16.9,2.3-.6-8.8,1.4-24,5.1-35.5-5.3-.3-10.5-1.5-15.3-3.5h0Z"/>
  </g>
</svg>