<svg xmlns="http://www.w3.org/2000/svg" viewBox="0 0 1488.68 1263.33"><defs><style>.cls-1{fill:#74daf8;}.cls-2{fill:#fdedee;}.cls-3{fill:#b39758;}.cls-4{fill:#021318;}.cls-5{fill:#ef4658;}.cls-6{fill:#0c617a;}.cls-7{fill:#16164c;}.cls-8{fill:#fff;stroke:#000;}.cls-16,.cls-8{stroke-miterlimit:10;}.cls-9{fill:#efd0c5;}.cls-10{fill:#5f8d54;}.cls-11{fill:#ccad64;}.cls-12{fill:#1087aa;}.cls-13{fill:#17c1f3;}.cls-14{fill:#ffe4a4;}.cls-15{fill:#40358f;}.cls-16{fill:none;stroke:#16164c;}.cls-17{fill:#073a49;}</style></defs><g id="Layer_2" data-name="Layer 2"><g id="Layer_1-2" data-name="Layer 1"><path class="cls-1" d="M353.62,160.1C179.67,250.48,50.3,422.29,11.48,614.42c-16,79.38-17,163.17,8.3,240.09,28.72,87.12,89.67,160.75,160.75,218.73C365.82,1224.34,617,1274.5,855.72,1261.31c189.72-10.47,387.91-64,517.87-202.57s162.6-378.46,31.29-515.8c-52.33-54.71-123.37-87.91-179.29-139-134.76-123-185.7-349.07-362.15-395.69C809.35-6,752.07.49,697,10.55,548.12,37.73,429.92,120.43,353.62,160.09"/><polygon class="cls-2" points="1090.56 1085.02 1088.34 1117.88 1103.42 1116.9 1114.38 1085.91 1090.56 1085.02"/><polygon class="cls-2" points="1181.1 1068.31 1180.55 1101.24 1195.56 1099.5 1204.94 1068 1181.1 1068.31"/><path class="cls-2" d="M1092.83,475.74a43.4,43.4,0,0,0-13.77,28.74c-1.29,18.42.6,35.62,13.89,42.55s19.76,6.63,21.14,13.05.72,15.09.72,15.09l-.73,7.6,45.32-2.15s-1.84-16.12,0-23.77,20.75-41,20.6-44.18,18.2-48.39-23.38-60.47-63.79,23.53-63.79,23.53Z"/><path class="cls-2" d="M1080.19,505.5l-6.29.3s-3.77.18-3.59,3.95,4,3.6,4,3.6l6.29-.3-.35-7.55Z"/><path class="cls-3" d="M1182.4,507.09l-70.55-51.91a37.51,37.51,0,0,1,7.56-6c9-5.58,25.58-11.1,46.3,2.83,31.9,21.45,16.7,55.09,16.7,55.09Z"/><path class="cls-3" d="M1130.8,468.8l-38-27.86s-7-3.78-1.92-7.07,23.75,7.3,23.75,7.3l37.06,21.91-20.93,5.72Z"/><path class="cls-4" d="M1144.67,479.2s-39.38,17.49-57.24-.28S1080,450,1080,450s.5,15.1,9.13,14.81,10.54-9,10.54-9-2.4-7.48,10.67-3.59,34.32,26.94,34.32,26.94Z"/><path class="cls-4" d="M1154.45,486.51s1.09,13.27-8.35,19.16-15.33-3.6-15.33-3.6-1.75,8.73,2.71,11.76,13.19,4.79,17.25-.81,2-2.26,5-7.8c2-3.33,3-5.55,7.44-2.51,5.55,3,4.51,4.1,3.54,6.31s-6.06,8.93-7,12.21c-1.92,5.49-8.62,24.17,4.55,27.87s18.2-3,18.2-3-10.73,1.59-11.19-8.12,19.41-23.6,11.5-30.78-28.37-20.67-28.37-20.67Z"/><circle cx="1098.88" cy="500.83" r="2.7"/><rect class="cls-2" x="1206.29" y="399.72" width="45.15" height="9.72" rx="4.31" transform="matrix(0.05, -1, 1, 0.05, 757.58, 1609.45)"/><rect class="cls-2" x="1196.98" y="394.85" width="45.15" height="9.72" rx="4.31" transform="translate(753.64 1595.54) rotate(-86.86)"/><rect class="cls-2" x="1187.28" y="394.32" width="45.15" height="9.72" rx="4.31" transform="translate(745 1585.35) rotate(-86.86)"/><rect class="cls-2" x="1177.58" y="393.79" width="45.15" height="9.72" rx="4.31" transform="translate(736.37 1575.16) rotate(-86.86)"/><path class="cls-2" d="M1190.21,417.78c2.33,5.46,24.08,15,24.08,15l18.81-14.44-1.41-11.8s-43.79,5.8-41.48,11.26Z"/><path class="cls-5" d="M1146,595.86l34.28,42.29s85.27-78.94,87.84-82.83,2.59-11.45-1-25.73c-5.07-25.65-32.41-109-32.41-109l-27.21,6.05L1234,521.45s2.23,7.27-.07,12.28c-5.27,5.83-87.9,62.12-87.9,62.12Z"/><path class="cls-6" d="M1120.12,795.74s40.82,83.35,46.6,117,8.35,174.63,8.35,174.63l34.41-.23s4.09-133.86,2.44-190.66-20.84-151.66-20.84-151.66l-95.52,15.05,24.57,35.9Z"/><path class="cls-6" d="M1060.33,767.92c-3.29,63,25.74,108.66,29,164.59s-5.18,166.45-5.18,166.45l34.07,4.79s19.86-123,19.79-191.46-13.73-144.36-13.73-144.36-60.72-63-64,0Z"/><polygon class="cls-7" points="1084.05 1118.16 1082.49 1144.22 1140.11 1149.1 1140.79 1142.58 1105.4 1130.82 1107.72 1116.62 1084.05 1118.16"/><polygon class="cls-7" points="1176.26 1101.74 1176.02 1127.83 1233.82 1129.85 1234.14 1123.28 1198.23 1113.32 1199.83 1099.01 1176.26 1101.74"/><path class="cls-5" d="M1128.74,577.35l-27.48-1.29s-28.14-1.39-29.7,17.25-14.21,183.53-14.21,183.53l145.36,2.06-4.61-171.31s-11.66-27.56-24.59-28.17l-44.77-2.07Z"/><rect class="cls-2" x="1022.49" y="356.12" width="9.72" height="45.15" rx="4.31" transform="translate(-19.2 56.84) rotate(-3.14)"/><rect class="cls-2" x="1031.81" y="351.26" width="9.72" height="45.15" rx="4.31" transform="translate(-18.92 57.35) rotate(-3.14)"/><rect class="cls-2" x="1041.5" y="350.73" width="9.72" height="45.15" rx="4.31" transform="matrix(1, -0.05, 0.05, 1, -18.88, 57.88)"/><rect class="cls-2" x="1051.21" y="350.2" width="9.72" height="45.15" rx="4.31" transform="matrix(1, -0.05, 0.05, 1, -18.83, 58.41)"/><path class="cls-2" d="M1066,391.88c-2.32,5.46-24.07,15-24.07,15l-18.82-14.44,1.42-11.8s43.79,5.8,41.47,11.26Z"/><path class="cls-5" d="M1099.45,579.68l-21.34,52s-78-99.43-78.13-111.95,3.14-25.73,3.14-25.73l20.55-100.42,30.44,3.9s-15.87,84.38-13.52,75.47-6.55,27-4.24,38.18,63.1,68.55,63.1,68.55Z"/><polygon class="cls-8" points="1254.58 403.45 1003.64 360.11 1011.65 187.94 1252.88 204.31 1254.58 403.45"/><rect class="cls-2" x="1049" y="370.54" width="39.64" height="9.72" rx="4.31" transform="translate(257.33 1165.84) rotate(-63.6)"/><rect class="cls-2" x="1182.48" y="381.49" width="9.72" height="39.64" rx="4.31" transform="translate(-54.61 569.79) rotate(-26.4)"/><polygon class="cls-2" points="517.36 1097.4 518.54 1130.31 533.42 1127.79 541.14 1095.83 517.36 1097.4"/><polygon class="cls-7" points="515.99 1125.36 512.38 1150.93 560.72 1171.21 563.23 1165.15 532.78 1143.66 539.11 1126.42 515.99 1125.36"/><polygon class="cls-9" points="592.2 1087.22 592.67 1120.16 607.63 1117.95 616 1086.17 592.2 1087.22"/><polygon class="cls-7" points="588.85 1114.26 587.53 1141.32 635.8 1157.83 638.01 1151.65 606.53 1131.71 612.21 1114.16 588.85 1114.26"/><path class="cls-6" d="M557,789.15s36.66,108.68,34.55,142.65.35,157.32.35,157.32l24.55,1.09s17.6-134.92,21.7-191.62-5.4-163.77-5.4-163.77l-96.56,16.09L557,789.15Z"/><path class="cls-6" d="M485.86,766.15c-3.29,63,25.74,108.66,29,164.58s2.37,170.77,2.37,170.77l24.36,1.57s19.93-130.15,18.75-192.53,7.89-144.37,7.89-144.37-79.07-63-82.4,0Z"/><path class="cls-2" d="M610.41,456.82a43.32,43.32,0,0,1,13.41,28.92c1,18.44-1.15,35.62-14.53,42.33s-19.84,6.35-21.31,12.75-1,15.08-1,15.08l.61,7.61-45.23-2.76s2.06-16.09.36-23.76-20.2-41.2-20-44.46S505.18,443.9,547,432.39s63.45,24.43,63.45,24.43Z"/><path class="cls-2" d="M622.61,486.75l6.29.38s3.77.23,3.54,4-4,3.54-4,3.54l-6.29-.38Z"/><circle cx="604" cy="481.83" r="2.7"/><path class="cls-10" d="M558.67,560.24,531.18,559s-19.46-.15-23.29,17.21-30.35,183.53-30.35,183.53l164.79,2.06L617.19,590.53s-.87-27.56-13.81-28.17l-44.71-2.12Z"/><rect class="cls-2" x="649.37" y="370.62" width="45.15" height="9.72" rx="4.31" transform="translate(260.22 1025.85) rotate(-86.86)"/><rect class="cls-2" x="640.06" y="365.76" width="45.15" height="9.72" rx="4.31" transform="translate(256.27 1011.96) rotate(-86.86)"/><rect class="cls-2" x="630.36" y="365.22" width="45.15" height="9.72" rx="4.31" transform="translate(247.65 1001.76) rotate(-86.86)"/><rect class="cls-2" x="620.67" y="364.7" width="45.15" height="9.72" rx="4.31" transform="translate(239.01 991.59) rotate(-86.86)"/><path class="cls-2" d="M633.32,388.64c2.32,5.46,24.07,15,24.07,15l18.82-14.43-1.42-11.8s-43.79,5.79-41.47,11.25Z"/><path class="cls-10" d="M599.81,576.44l21.34,52s78-99.42,78.13-112a119.75,119.75,0,0,0-3.13-25.73L675.56,390.34l-30.45,3.9s15.87,84.38,13.48,75.47,6.55,27,4.24,38.18-63,68.55-63,68.55Z"/><rect class="cls-2" x="451.84" y="347.54" width="9.72" height="45.15" rx="4.31" transform="translate(-19.59 25.57) rotate(-3.14)"/><rect class="cls-2" x="461.16" y="342.67" width="9.72" height="45.15" rx="4.31" transform="translate(-19.31 26.08) rotate(-3.14)"/><rect class="cls-2" x="470.86" y="342.13" width="9.72" height="45.15" rx="4.31" transform="translate(-19.26 26.61) rotate(-3.14)"/><rect class="cls-2" x="480.55" y="341.61" width="9.72" height="45.15" rx="4.31" transform="translate(-19.22 27.14) rotate(-3.14)"/><path class="cls-2" d="M495.3,383.25c-2.32,5.46-24.07,15-24.07,15l-18.82-14.44,1.42-11.8s43.79,5.8,41.47,11.26Z"/><path class="cls-10" d="M528.8,571l-21.34,52s-78-99.43-78.13-111.95,3.14-25.73,3.14-25.73L453,384.94l30.44,3.9S467.59,473.22,470,464.31s-6.55,27-4.24,38.18S528.8,571,528.8,571Z"/><polygon class="cls-8" points="441.67 362.29 692.61 361.35 689.41 189.2 445.07 198.68 441.67 362.29"/><rect class="cls-2" x="625.56" y="354.06" width="9.73" height="39.71" rx="4.32" transform="translate(-100.16 314.84) rotate(-26.05)"/><rect class="cls-2" x="478.37" y="361.89" width="39.64" height="9.72" rx="4.31" transform="translate(-51.83 649.91) rotate(-63.6)"/><path class="cls-4" d="M543.34,423.68c30.28-11.39,56.9,7.66,64.5,13.15,7.78,5.58,14,10,14.06,16.37.3,19.74-58.6,37.66-65.74,27.47-2-2.93-.52-9.13-5-12.17a7.28,7.28,0,0,0-5.27-1.17c-3.62.81-5.33,5.13-5.84,6.45-4,10,7,24.76,11,30.07,12.59,16.57,19.16,15,23.21,25,4.66,11.67,1.11,27.31-8.14,36.88-16.14,16.71-48,13.11-57.1-1.57-7.58-12.2.76-31.57,2.18-34.87,5-11.62,10-12,11-19.68,1.8-14.44-14.93-19.73-17.72-34.86-3.45-18.65,16.12-42.5,38.89-51.08Z"/><path class="cls-11" d="M812.79,745.66c-7.35-10.72,1.24-20.84-5.39-28-7.08-7.71-26.88-7.06-36.69,4.31-9.14,10.62-5.08,25.32-4.31,28.05,4.69,17,20.72,24.54,25.87,27,16.81,7.92,32.53,4.79,45.33,2.16,9.93-2,25.12-6.65,24.81-10.79-.23-3.06-8.73-3.25-25.87-9.72C823.17,753.58,816.5,751.07,812.79,745.66Z"/><polygon class="cls-2" points="806.59 1155.74 839.34 1159.3 835.73 1173.97 803.32 1179.36 806.59 1155.74"/><polygon class="cls-2" points="544.38 1166.03 518.14 1185.96 510.68 1172.84 530.52 1146.63 544.38 1166.03"/><path class="cls-2" d="M767.64,773.56a43.39,43.39,0,0,0-13.76,28.74c-1.29,18.42.59,35.62,13.88,42.55s19.77,6.63,21.15,13,.71,15.09.71,15.09l-.72,7.6,45.27-2.14s-1.84-16.12,0-23.77,20.74-40.95,20.6-44.18S873,762.11,831.38,750s-63.74,23.53-63.74,23.53Z"/><path class="cls-2" d="M760.12,799.15,753.93,798s-3.71-.7-4.41,3,3,4.41,3,4.41l6.18,1.16,1.4-7.43Z"/><circle cx="770.46" cy="794.34" r="2.7"/><rect class="cls-2" x="904.86" y="691.08" width="45.15" height="9.72" rx="4.31" transform="translate(181.73 1583.86) rotate(-86.86)"/><rect class="cls-2" x="895.55" y="686.21" width="45.15" height="9.72" rx="4.31" transform="matrix(0.05, -1, 1, 0.05, 177.8, 1569.97)"/><rect class="cls-2" x="885.85" y="685.68" width="45.15" height="9.72" rx="4.31" transform="translate(169.17 1559.78) rotate(-86.86)"/><rect class="cls-2" x="876.16" y="685.15" width="45.15" height="9.72" rx="4.31" transform="matrix(0.05, -1, 1, 0.05, 160.53, 1549.61)"/><path class="cls-2" d="M888.78,709.14c2.32,5.46,24.07,15,24.07,15l18.82-14.43-1.42-11.8S886.46,703.65,888.78,709.14Z"/><path class="cls-3" d="M844.54,887.2l34.28,42.31s85.27-78.94,87.85-82.83,2.59-11.44-1-25.72c-5.09-25.67-32.42-109.07-32.42-109.07L906.08,718l26.43,94.85s2.23,7.27-.08,12.28c-5.27,5.82-87.9,62.11-87.9,62.11Z"/><polygon class="cls-5" points="825.48 1155.28 843.26 1150.4 885.13 1181.99 881.23 1187.28 847.13 1172.25 827.5 1180.29 825.48 1155.28"/><polygon class="cls-5" points="520.28 1189.72 499.38 1205.34 463.58 1159.91 468.68 1155.77 497.95 1178.83 508.54 1169.09 520.28 1189.72"/><rect class="cls-2" x="701.66" y="649.65" width="9.72" height="45.15" rx="4.31" transform="translate(-35.76 39.71) rotate(-3.14)"/><rect class="cls-2" x="710.97" y="644.78" width="9.72" height="45.15" rx="4.31" transform="translate(-35.48 40.21) rotate(-3.14)"/><rect class="cls-2" x="720.66" y="644.24" width="9.72" height="45.15" rx="4.31" transform="translate(-35.44 40.74) rotate(-3.14)"/><rect class="cls-2" x="730.37" y="643.71" width="9.72" height="45.15" rx="4.31" transform="translate(-35.39 41.27) rotate(-3.14)"/><path class="cls-2" d="M745.09,685.37c-2.32,5.46-24.07,15-24.07,15L702.2,685.92l1.42-11.8s43.79,5.79,41.47,11.25Z"/><path class="cls-3" d="M778.58,877.49l-21.34,52s-78-99.45-78.12-112,3.14-25.72,3.14-25.72l20.55-100.42,30.45,3.89s-15.88,84.39-13.49,75.48-6.54,27-4.23,38.18,63,68.55,63,68.55Z"/><polygon class="cls-8" points="939.9 686.76 667.49 657.56 684.96 486.08 926.1 494.12 939.9 686.76"/><rect class="cls-2" x="728.13" y="664.02" width="39.64" height="9.72" rx="4.31" transform="translate(-183.73 1041.42) rotate(-63.6)"/><rect class="cls-2" x="881.01" y="672.83" width="9.72" height="39.64" rx="4.31" transform="translate(-215.59 466.12) rotate(-26.4)"/><path class="cls-12" d="M754.53,1093.1s-12.95,5.4-95,36.7c-4.12,2.31-12.7,7.12-15.11,16.18-2.25,8.51,6.48,10.79,6.48,10.79h20.5s119.16-5.26,121.93-25.87c2.24-16.77-38.84-37.8-38.84-37.8Z"/><path class="cls-13" d="M657.05,1135.73c7.91,1.62,131.6,15.88,131.6,15.88l19.16,2.17-.1,26.35s-142-4.79-159-11.59a18.87,18.87,0,0,1-6.46-16.61c.68-5.88,6.83-17.81,14.75-16.19Z"/><path class="cls-13" d="M770.94,1136.85c-22.64-25.17-55.41-53.75-86-51.46-53.89,4-141.13,88.44-141.13,88.44l-23-25.56s110.58-110.64,153.69-114.52S863,1070.16,863,1070.16s-18,54.4-29.23,64.6-45.52,21.3-62.78,2.1Z"/><path class="cls-3" d="M803.6,875.16l-27.44-1.3s-15.18,7.25-16.77,17.25-21.76,149-21.76,149l135.66,45.22-.36-179.89s-11.66-27.56-24.59-28.17l-44.73-2.11Z"/><path class="cls-14" d="M792.28,740.26c-7.34-10.72,1.24-20.84-5.39-28-7.08-7.71-26.88-7.06-36.69,4.31-9.14,10.62-5.07,25.32-4.31,28.05,4.69,17,20.72,24.54,25.87,27,16.8,7.92,32.52,4.79,45.32,2.16,9.94-2,25.12-6.65,24.81-10.79-.22-3.06-8.72-3.25-25.87-9.72C802.66,748.18,796,745.67,792.28,740.26Z"/><path class="cls-14" d="M793.41,765.08c-.12-2.43-.63-16.79,9.72-25.87,9.87-8.7,22.9-6.71,31.29-5.39,4.79.74,23.19,3.58,34.49,19.42,10.4,14.53,8.25,30.76,6.47,44.25-1.13,8.62-3.6,27.3-18.34,42.08-9.06,9.09-24.42,18.38-30.22,14-6.62-5-2.59-29.13,1.08-39.92A24.79,24.79,0,0,0,829,801.81c-.26-1.56-1.45-8.86-5.39-9.71-3.37-.72-7.06,3.62-8.62,6.47-2.93,5.3-2.33,12.15-2.17,14,.33,3.6,1.1,5.37,0,6.47-2,2-7.78-.68-8.62-1.07-11.66-5.5-11.24-40.41-10.77-52.91Z"/><path class="cls-14" d="M873.22,781.26c2.51-8.94,23.19-16.36,34.49-7.55,6.71,5.23,10,16,7.55,23.74-1.09,3.48-3,5.16-3.23,9.71-.23,3.9.69,10.33,4.31,11.87s6.48-3.63,14-5.39c5.83-1.36,13.81-.49,19.42,4.32,8.24,7,9.46,20.83,4.32,28-4.23,6-11.38,5.44-11.87,9.71s5.75,8.62,10.79,10.8c11.14,4.65,17.51-2.12,25.87,2.16,7.16,3.64,10.24,12.46,10.79,18.35,1.64,17.34-17.08,28.74-19.42,30.21-10.18,6.23-27.69,11-37.77,3.24-5.91-4.54-4.11-9.41-15.1-23.74-7-9.07-10.25-10.46-12.95-10.79-6.81-.82-14.85,4.52-15.11,9.71-.3,6.07,10.3,7.26,12.95,16.19,2.32,7.78-2.5,17.69-8.62,21.58-12.08,7.66-35.33-3.35-44.25-19.42-10.54-19-1-45.14,9.72-59.34,7.48-9.91,13.28-11,18.35-22.66,1.55-3.58,7.54-17.36,3.24-32.37-3.09-10.94-9-13.06-7.5-18.35Z"/><path class="cls-5" d="M886.27,783.74c2.37-10.18,1.47-12.57,1.07-13.48-2-4.64-7.45-8.7-11.74-7.66-5,1.2-6.53,8.91-8.51,18.92-1.75,8.87-3,15.24.76,18.55,2.87,2.5,7.76,2.56,11.09.8,3.75-2,5-7.07,7.33-17.13Z"/><path class="cls-15" d="M549.69,274.24c-1.5,10.84-1,24.81.73,32.72,8.62,1.1,32.77,1.44,38.07.67l.67-.08a6.85,6.85,0,0,0,1.62-.26c1.14-.38,1.84-1.7,1.69-5.92a3.06,3.06,0,0,1,1.34-2.64c2.78-1.92,3.2-4,2.11-7.8a3.06,3.06,0,0,1,2.14-3.77l.26-.06c1-.19,2.2-5,1.18-5.93a3.08,3.08,0,0,1-.29-4.35l.2-.21a6.94,6.94,0,0,0,1.31-3.9c0-2.74-.75-3.75-3.4-4.22a51.48,51.48,0,0,0-6.2-.64,105.51,105.51,0,0,0-11.93.19c-1,.07-1.92.14-2.67.22l-1,.1a3.1,3.1,0,0,1-3-1.56,3.63,3.63,0,0,1-.4-1.16c-.36-1.92.08-5.47,1.73-11.65,1.55-5.75-2.4-11.56-7.17-13.75-.68-.31-1.07-.28-1.47.23,0,1.43.06,2.87,0,4.25,0,1.16-.08,2.19-.16,3.09-.57,5.6-1.64,8.8-4.9,14.95a29.84,29.84,0,0,1-5.06,6.61,52.12,52.12,0,0,1-4.17,3.83c-.47.42-.88.77-1.24,1Zm-1.33-6.92c.8-.72,1.58-1.47,2.33-2.23a24.38,24.38,0,0,0,4.07-5.25c2.87-5.48,3.72-7.93,4.2-12.68.08-.71.11-1.59.13-2.6v-3.94a8,8,0,0,0-.06-1.38,3.1,3.1,0,0,1,.44-1.76,7.91,7.91,0,0,1,1.62-1.84,7.33,7.33,0,0,1,8.12-1c7.22,3.31,13,11.77,10.54,20.93a62.79,62.79,0,0,0-1.42,6.36h.38a107.66,107.66,0,0,1,12.7-.2,54.2,54.2,0,0,1,7,.73c5.75,1,8.54,4.68,8.49,10.32a13.7,13.7,0,0,1-1.63,6.16c1.73,4,.38,10-2.87,12.76.76,4.47-.24,8.14-3.76,11.12-.12,5.75-2.17,9.09-5.86,10.35a9.6,9.6,0,0,1-1.76.42c-.39.06-.44.06-1.26.13h-.36c-5.64.81-28.32.56-38.55-.53a3.22,3.22,0,0,1-1.26,1c-8.43,3.3-11.33,3.54-24.78,1.78a3.07,3.07,0,0,1-2.49-2.19c-3.83-12.73-3.23-26.64,0-45.31a3.09,3.09,0,0,1,3.58-2.5l.26.06c7,1.92,11.5,2.13,20.78,1.17a3,3,0,0,1,1.49.18Zm-20.56,5.4c-2.45,15.21-2.87,27-.21,37.37,9.23,1.16,12,1.1,17.08-.68-2.08-8.62-2.73-23.81-1.1-35.77A49.45,49.45,0,0,1,527.8,272.72Z"/><path class="cls-15" d="M792.31,574.52c-2.71,10.6-3.77,24.54-3,32.58,8.44,2.07,32.39,5.13,37.75,5h.67a6.92,6.92,0,0,0,1.64-.07c1.19-.26,2-1.49,2.35-5.7a3.08,3.08,0,0,1,1.63-2.48c3-1.58,3.62-3.55,3-7.5a3.09,3.09,0,0,1,2.55-3.54,1.27,1.27,0,0,1,.28,0c1-.07,2.75-4.74,1.83-5.75a3.08,3.08,0,0,1,.19-4.35l.24-.2a6.9,6.9,0,0,0,1.74-3.74c.34-2.72-.33-3.83-2.87-4.57a50.7,50.7,0,0,0-6.08-1.33,102.56,102.56,0,0,0-11.87-1.16l-2.68-.09h-1a3.08,3.08,0,0,1-2.87-1.92,3.79,3.79,0,0,1-.26-1.2c-.14-1.92.69-5.42,3-11.38,2.19-5.59-1.07-11.76-5.57-14.47-.64-.38-1-.39-1.49.06-.11,1.44-.26,2.87-.44,4.24-.15,1.14-.33,2.17-.52,3-1.2,5.5-2.63,8.56-6.55,14.3a29.71,29.71,0,0,1-5.81,6c-1.48,1.21-3,2.33-4.57,3.35-.53.35-1,.65-1.36.88Zm-.54-7c.87-.61,1.73-1.27,2.57-1.92a25.07,25.07,0,0,0,4.64-4.79c3.49-5.12,4.59-7.46,5.6-12.12.15-.7.3-1.57.43-2.57.16-1.24.31-2.59.41-3.92a12.21,12.21,0,0,1,.11-1.37,3.06,3.06,0,0,1,.63-1.71,8.35,8.35,0,0,1,1.81-1.65,7.4,7.4,0,0,1,8.25-.11c6.79,4.1,11.58,13.15,8.12,22a60.54,60.54,0,0,0-2.13,6.16h.38a106.41,106.41,0,0,1,12.6,1.23,57.13,57.13,0,0,1,6.84,1.5c5.57,1.65,8,5.61,7.26,11.22a13.6,13.6,0,0,1-2.31,5.93c1.27,4.17-.74,9.95-4.27,12.37.25,4.52-1.16,8.06-5,10.63-.78,5.66-3.19,8.8-7,9.58a10.79,10.79,0,0,1-1.79.21h-1.65c-5.69.17-28.2-2.64-38.24-4.88a3.13,3.13,0,0,1-1.37.78c-8.74,2.33-11.65,2.24-24.81-1a3.07,3.07,0,0,1-2.29-2.44c-2.32-13-.16-26.83,5.18-45a3.07,3.07,0,0,1,3.81-2.09l.29.1c6.71,2.7,11.19,3.41,20.51,3.51a3,3,0,0,1,1.41.41Zm-21.08,3.06c-4.12,14.85-5.83,26.5-4.38,37,9,2.19,11.82,2.45,17.05,1.25-1.1-8.78,0-24,2.93-35.66a49.4,49.4,0,0,1-15.57-2.63h0Z"/><path class="cls-15" d="M1116.34,279.58c-3.34,10.4-5.25,24.26-4.92,32.35,8.3,2.58,32,7.08,37.37,7.24h.67a6.43,6.43,0,0,0,1.64,0c1.19-.18,2.11-1.36,2.68-5.54a3.08,3.08,0,0,1,1.77-2.38c3.08-1.4,3.83-3.33,3.43-7.31a3.06,3.06,0,0,1,2.72-3.37l.3,0c1.06,0,3-4.58,2.18-5.63a3.08,3.08,0,0,1,.47-4.34l.24-.17a6.89,6.89,0,0,0,1.92-3.61c.49-2.7-.1-3.83-2.63-4.79a51.79,51.79,0,0,0-6-1.71,102.15,102.15,0,0,0-11.78-1.92c-1-.11-1.92-.18-2.66-.25l-1-.07a3.06,3.06,0,0,1-2.72-2.07,3.83,3.83,0,0,1-.19-1.21c0-1.92,1-5.38,3.72-11.18,2.53-5.44-.35-11.8-4.68-14.77-.62-.43-1-.47-1.49,0-.2,1.42-.43,2.87-.7,4.21-.22,1.13-.45,2.15-.7,3-1.52,5.42-3.13,8.38-7.41,13.88a29.89,29.89,0,0,1-6.16,5.67,54.6,54.6,0,0,1-4.79,3.07l-1.33.91Zm-.06-7.05c.91-.57,1.81-1.17,2.67-1.79a24,24,0,0,0,4.92-4.47c3.83-4.89,5-7.17,6.32-11.76.19-.69.39-1.54.58-2.53.24-1.23.46-2.56.65-3.89.09-.62.15-1.1.18-1.36a3.14,3.14,0,0,1,.74-1.67,7.49,7.49,0,0,1,1.92-1.53,7.37,7.37,0,0,1,8.24.4c6.53,4.5,10.77,13.83,6.76,22.44a59.56,59.56,0,0,0-2.49,6h.38a109.84,109.84,0,0,1,12.5,2,56.34,56.34,0,0,1,6.71,1.92c5.46,2,7.6,6.08,6.57,11.64a13.78,13.78,0,0,1-2.66,5.75c1,4.23-1.34,9.88-5,12.07,0,4.53-1.65,8-5.62,10.31-1.11,5.6-3.71,8.62-7.57,9.18a12.08,12.08,0,0,1-1.8.11,8.41,8.41,0,0,1-1.26-.09h-.37c-5.75-.17-28-4.36-37.88-7.2a3,3,0,0,1-1.41.7c-8.87,1.79-11.77,1.52-24.71-2.53a3.09,3.09,0,0,1-2.13-2.58c-1.52-13.15,1.46-26.83,7.89-44.63a3.08,3.08,0,0,1,3.94-1.85,1.39,1.39,0,0,1,.28.12c6.52,3.1,11,4.08,20.27,4.73a3,3,0,0,1,1.39.5Zm-21.18,1.77c-5,14.56-7.47,26.09-6.71,36.72,8.88,2.74,11.65,3.17,16.94,2.29-.57-8.83,1.43-23.95,5.09-35.45a49.6,49.6,0,0,1-15.37-3.56Z"/><path class="cls-2" d="M327,521.41a43.32,43.32,0,0,1,13.41,28.92c1,18.44-1.15,35.62-14.53,42.33S306,599,304.54,605.41s-1,15.08-1,15.08l.61,7.61L259,625.34s2.06-16.09.36-23.76-20.2-41.2-20-44.46S221.74,508.49,263.51,497,327,521.41,327,521.41Z"/><path class="cls-2" d="M339.17,551.34l6.29.38s3.77.23,3.54,4-4,3.54-4,3.54l-6.29-.38Z"/><circle cx="325.56" cy="546.43" r="2.7"/><rect class="cls-2" x="365.94" y="435.22" width="45.15" height="9.72" rx="4.31" transform="translate(-72.18 803.9) rotate(-86.86)"/><rect class="cls-2" x="356.63" y="430.36" width="45.15" height="9.72" rx="4.31" transform="translate(-76.13 790.01) rotate(-86.86)"/><rect class="cls-2" x="346.93" y="429.81" width="45.15" height="9.72" rx="4.31" transform="translate(-84.76 779.81) rotate(-86.86)"/><rect class="cls-2" x="337.23" y="429.29" width="45.15" height="9.72" rx="4.31" transform="translate(-93.4 769.63) rotate(-86.86)"/><path class="cls-2" d="M349.87,453.23c2.32,5.46,24.07,15,24.07,15l18.82-14.43L391.34,442s-43.79,5.79-41.47,11.25Z"/><path class="cls-5" d="M316.37,641l21.34,52s78-99.42,78.13-112a119.75,119.75,0,0,0-3.13-25.73L392.12,454.93l-30.45,3.9s15.87,84.38,13.48,75.47,6.55,27,4.24,38.18S316.37,641,316.37,641Z"/><rect class="cls-2" x="168.41" y="412.13" width="9.72" height="45.15" rx="4.31" transform="translate(-23.55 10.14) rotate(-3.14)"/><rect class="cls-2" x="177.71" y="407.27" width="9.72" height="45.15" rx="4.31" transform="translate(-23.27 10.65) rotate(-3.14)"/><rect class="cls-2" x="187.41" y="406.74" width="9.72" height="45.15" rx="4.31" transform="translate(-23.23 11.18) rotate(-3.14)"/><rect class="cls-2" x="197.12" y="406.2" width="9.72" height="45.15" rx="4.31" transform="translate(-23.18 11.71) rotate(-3.14)"/><path class="cls-2" d="M211.86,447.84c-2.32,5.46-24.07,15-24.07,15L169,448.38l1.42-11.8s43.79,5.8,41.47,11.26Z"/><path class="cls-5" d="M245.36,635.64l-21.34,52s-78-99.43-78.13-111.95S149,550,149,550l20.55-100.42,30.44,3.9s-15.87,84.38-13.48,75.47-6.55,27-4.24,38.18,63.06,68.55,63.06,68.55Z"/><polygon class="cls-8" points="158.22 426.89 409.18 425.95 405.98 253.8 161.63 263.27 158.22 426.89"/><rect class="cls-2" x="342.1" y="418.64" width="9.73" height="39.71" rx="4.32" transform="translate(-157.32 196.92) rotate(-26.05)"/><rect class="cls-2" x="194.92" y="426.48" width="39.64" height="9.72" rx="4.31" transform="translate(-267.1 431.9) rotate(-63.6)"/><path class="cls-15" d="M266.25,338.84c-1.5,10.84-1,24.81.73,32.72,8.62,1.1,32.77,1.44,38.07.67l.67-.08a6.85,6.85,0,0,0,1.62-.26c1.14-.38,1.84-1.7,1.69-5.92a3.06,3.06,0,0,1,1.34-2.64c2.78-1.92,3.2-3.95,2.11-7.8a3.06,3.06,0,0,1,2.14-3.77l.26-.06c1-.19,2.2-5,1.18-5.93a3.08,3.08,0,0,1-.29-4.35l.2-.21a6.94,6.94,0,0,0,1.31-3.9c0-2.74-.75-3.75-3.4-4.22a51.48,51.48,0,0,0-6.2-.64,105.51,105.51,0,0,0-11.93.19c-1,.07-1.92.14-2.67.22l-1,.1a3.1,3.1,0,0,1-3-1.56,3.63,3.63,0,0,1-.4-1.16c-.36-1.92.08-5.47,1.73-11.65,1.55-5.75-2.4-11.56-7.17-13.75-.68-.31-1.07-.28-1.47.23,0,1.43.06,2.87,0,4.25,0,1.16-.08,2.19-.16,3.09-.57,5.6-1.64,8.8-4.9,14.95a29.84,29.84,0,0,1-5.06,6.61,52.12,52.12,0,0,1-4.17,3.83c-.47.42-.88.77-1.24,1Zm-1.33-6.92c.8-.72,1.58-1.47,2.33-2.23a24.38,24.38,0,0,0,4.07-5.25c2.87-5.48,3.72-7.93,4.2-12.68.08-.71.11-1.59.13-2.6v-3.94a8,8,0,0,0-.06-1.38,3.1,3.1,0,0,1,.44-1.76,7.91,7.91,0,0,1,1.62-1.84,7.33,7.33,0,0,1,8.12-1c7.22,3.31,13,11.77,10.54,20.93a62.79,62.79,0,0,0-1.42,6.36h.38a107.66,107.66,0,0,1,12.7-.2,54.2,54.2,0,0,1,7,.73c5.75,1,8.54,4.68,8.49,10.32a13.7,13.7,0,0,1-1.63,6.16c1.73,4,.38,10-2.87,12.76.76,4.47-.24,8.14-3.76,11.12-.12,5.75-2.17,9.09-5.86,10.35a9.6,9.6,0,0,1-1.76.42c-.39.06-.44.06-1.26.13h-.36c-5.64.81-28.32.56-38.55-.53a3.22,3.22,0,0,1-1.26,1c-8.43,3.3-11.33,3.54-24.78,1.78a3.07,3.07,0,0,1-2.49-2.19c-3.83-12.73-3.23-26.64,0-45.31a3.09,3.09,0,0,1,3.58-2.5l.26.06c6.95,1.92,11.5,2.13,20.78,1.17a3,3,0,0,1,1.49.18Zm-20.56,5.4c-2.45,15.21-2.87,27-.21,37.37,9.23,1.16,12,1.1,17.08-.68-2.08-8.62-2.73-23.81-1.1-35.77a49.45,49.45,0,0,1-15.77-.92Z"/><path class="cls-4" d="M343.06,564.57s-2.41-4.57-6.78-4.28-1.88,7.41-8,8.53-4.25-2.5-4.25-2.5-2.88,6.09,2.5,6.55S343.72,574.07,343.06,564.57Z"/><path class="cls-4" d="M323.26,511.94l-36.68,2.25-4.25,46.08H276.5v-8.93s1.46-7-5.92-7.62-8.25,10.21-8.25,10.21-2.5,14.79,2,14.65l4.5-.15s.5,22.38-4.25,25.75-10.88,8.88-14.5,1.75,3.75-1.25,3.75-1.25l1.75-3.5s-32.5-37.12-30.5-58.25,19.88-45.12,45.5-44.5,38.36-1.87,52.68,23.5Z"/><path class="cls-16" d="M336.33,547.19c.42-6.78-5.54-12.56-12.25-12.5-6.23.06-12,5.14-12,11.75s5.74,11.67,12,11.75S336,553.45,336.33,547.19Z"/><path class="cls-16" d="M314.31,540l-47.15-1.16s-7.22-1.24-7.42,8"/><path class="cls-16" d="M336.33,547.19a3.34,3.34,0,0,1,4.25,0"/><polygon class="cls-2" points="234.76 1142.12 232.56 1174.98 247.63 1174 258.58 1143.01 234.76 1142.12"/><polygon class="cls-2" points="325.32 1125.41 324.75 1158.34 339.76 1156.6 349.15 1125.1 325.32 1125.41"/><path class="cls-17" d="M264.33,852.84s40.82,83.35,46.6,117,8.35,174.63,8.35,174.63l34.41-.23s4.09-133.86,2.44-190.66-20.84-151.66-20.84-151.66l-95.52,15.05,24.57,35.9Z"/><path class="cls-17" d="M204.55,825c-3.29,63,25.74,108.66,29,164.59s-5.18,166.45-5.18,166.45l34.07,4.79s19.86-123,19.79-191.46S268.53,825,268.53,825s-60.72-63-64,0Z"/><polygon points="228.25 1175.26 226.72 1201.32 284.33 1206.21 284.99 1199.68 249.63 1187.93 251.93 1173.72 228.25 1175.26"/><polygon points="320.48 1158.84 320.24 1184.94 378.02 1186.95 378.36 1180.38 342.45 1170.42 344.05 1156.11 320.48 1158.84"/><path class="cls-5" d="M274.5,625,247,623.72s-28.14-1.39-29.7,17.25S203.11,824.5,203.11,824.5l145.36,2.06-4.61-171.31s-11.66-27.56-24.59-28.17L274.5,625Z"/></g></g></svg>