<?xml version="1.0" encoding="UTF-8"?><svg id="Layer_2" xmlns="http://www.w3.org/2000/svg" viewBox="0 0 1488.68 1263.33"><defs><style>.cls-1{fill:#003c5a;}.cls-2{fill:#005b87;}.cls-3{fill:#001e2d;}.cls-4{fill:#0097e1;}.cls-5{fill:#007cad;}.cls-6{fill:#fff;}.cls-7{fill:#ffdb80;}.cls-8{fill:#fff0cc;}.cls-9{fill:#ffb600;}.cls-10{fill:#805b00;}.cls-11{fill:#80a771;}.cls-12{fill:#b37f00;}.cls-13{fill:#d3a339;}.cls-14{fill:none;stroke:#001e2d;stroke-miterlimit:10;}</style></defs><g id="Layer_1-2"><g><path class="cls-7" d="M353.62,160.1C179.67,250.48,50.3,422.29,11.48,614.42c-16.02,79.38-17.05,163.17,8.3,240.09,28.72,87.12,89.67,160.75,160.75,218.73,185.29,151.1,436.48,201.26,675.19,188.07,189.72-10.47,387.91-63.98,517.87-202.57,130-138.58,162.6-378.46,31.29-515.8-52.33-54.71-123.37-87.91-179.29-138.98-134.76-123.05-185.7-349.07-362.15-395.69-54.09-14.28-111.37-7.78-166.41,2.28-148.91,27.18-267.11,109.88-343.41,149.54"/><polygon class="cls-8" points="1090.55 1085.02 1088.34 1117.88 1103.42 1116.9 1114.37 1085.91 1090.55 1085.02"/><polygon class="cls-8" points="1181.1 1068.31 1180.54 1101.24 1195.55 1099.5 1204.94 1068 1181.1 1068.31"/><path class="cls-8" d="M1092.83,475.74c-8.07,7.49-12.99,17.76-13.77,28.74-1.29,18.42,.6,35.62,13.89,42.55s19.76,6.63,21.14,13.05,.72,15.09,.72,15.09l-.73,7.6,45.32-2.15s-1.84-16.12,0-23.77,20.75-40.95,20.6-44.18,18.2-48.39-23.38-60.47c-41.58-12.07-63.79,23.53-63.79,23.53h0Z"/><path class="cls-8" d="M1080.19,505.5l-6.29,.3s-3.77,.18-3.59,3.95,3.96,3.6,3.96,3.6l6.29-.3-.35-7.55h-.02Z"/><path class="cls-13" d="M1182.4,507.09l-70.55-51.91c2.25-2.32,4.79-4.34,7.56-6.01,9.04-5.58,25.58-11.1,46.3,2.83,31.9,21.45,16.7,55.09,16.7,55.09h-.01Z"/><path class="cls-13" d="M1130.8,468.8l-37.96-27.86s-7.05-3.78-1.92-7.07,23.75,7.3,23.75,7.3l37.06,21.91-20.93,5.72h0Z"/><path class="cls-1" d="M1144.67,479.2s-39.38,17.49-57.24-.28-7.43-28.91-7.43-28.91c0,0,.5,15.1,9.13,14.81s10.54-8.98,10.54-8.98c0,0-2.4-7.48,10.67-3.59s34.32,26.94,34.32,26.94h.01Z"/><path class="cls-1" d="M1154.45,486.51s1.09,13.27-8.35,19.16c-9.45,5.89-15.33-3.6-15.33-3.6,0,0-1.75,8.73,2.71,11.76,4.46,3.03,13.19,4.79,17.25-.81,4.05-5.6,2.05-2.26,5.03-7.8,2-3.33,2.98-5.55,7.44-2.51,5.55,2.98,4.51,4.1,3.54,6.31s-6.06,8.93-6.98,12.21c-1.92,5.49-8.62,24.17,4.55,27.87s18.2-3.02,18.2-3.02c0,0-10.73,1.59-11.19-8.12s19.41-23.6,11.5-30.78c-7.91-7.19-28.37-20.67-28.37-20.67h0Z"/><circle cx="1098.88" cy="500.83" r="2.7"/><rect class="cls-8" x="1206.29" y="399.72" width="45.15" height="9.72" rx="4.31" ry="4.31" transform="translate(757.58 1609.45) rotate(-86.86)"/><rect class="cls-8" x="1196.98" y="394.85" width="45.15" height="9.72" rx="4.31" ry="4.31" transform="translate(753.64 1595.54) rotate(-86.86)"/><rect class="cls-8" x="1187.28" y="394.32" width="45.15" height="9.72" rx="4.31" ry="4.31" transform="translate(745 1585.35) rotate(-86.86)"/><rect class="cls-8" x="1177.58" y="393.79" width="45.15" height="9.72" rx="4.31" ry="4.31" transform="translate(736.37 1575.16) rotate(-86.86)"/><path class="cls-8" d="M1190.21,417.78c2.33,5.46,24.08,14.98,24.08,14.98l18.81-14.44-1.41-11.8s-43.79,5.8-41.48,11.26h0Z"/><path class="cls-11" d="M1145.99,595.86l34.28,42.29s85.27-78.94,87.84-82.83,2.59-11.45-.96-25.73c-5.07-25.65-32.41-109.04-32.41-109.04l-27.21,6.05,26.42,94.85s2.23,7.27-.07,12.28c-5.27,5.83-87.9,62.12-87.9,62.12h0Z"/><path class="cls-4" d="M1120.12,795.74s40.82,83.35,46.6,116.97c5.78,33.61,8.35,174.63,8.35,174.63l34.41-.23s4.09-133.86,2.44-190.66-20.84-151.66-20.84-151.66l-95.52,15.05,24.57,35.9h0Z"/><path class="cls-4" d="M1060.33,767.92c-3.29,62.98,25.74,108.66,29.03,164.59,3.29,55.93-5.18,166.45-5.18,166.45l34.07,4.79s19.86-122.98,19.79-191.46c-.07-68.48-13.73-144.36-13.73-144.36,0,0-60.72-63-63.98-.02h0Z"/><polygon class="cls-3" points="1084.04 1118.16 1082.49 1144.22 1140.11 1149.1 1140.78 1142.58 1105.4 1130.82 1107.72 1116.62 1084.04 1118.16"/><polygon class="cls-3" points="1176.25 1101.74 1176.01 1127.83 1233.81 1129.85 1234.14 1123.28 1198.23 1113.32 1199.83 1099.01 1176.25 1101.74"/><path class="cls-11" d="M1128.74,577.35l-27.48-1.29s-28.14-1.39-29.7,17.25c-1.56,18.64-14.21,183.53-14.21,183.53l145.36,2.06-4.61-171.31s-11.66-27.56-24.59-28.17l-44.77-2.07h0Z"/><rect class="cls-8" x="1022.49" y="356.12" width="9.72" height="45.15" rx="4.31" ry="4.31" transform="translate(-19.2 56.84) rotate(-3.14)"/><rect class="cls-8" x="1031.81" y="351.26" width="9.72" height="45.15" rx="4.31" ry="4.31" transform="translate(-18.92 57.35) rotate(-3.14)"/><rect class="cls-8" x="1041.5" y="350.73" width="9.72" height="45.15" rx="4.31" ry="4.31" transform="translate(-18.88 57.88) rotate(-3.14)"/><rect class="cls-8" x="1051.21" y="350.2" width="9.72" height="45.15" rx="4.31" ry="4.31" transform="translate(-18.83 58.41) rotate(-3.14)"/><path class="cls-8" d="M1065.96,391.88c-2.32,5.46-24.07,14.98-24.07,14.98l-18.82-14.44,1.42-11.8s43.79,5.8,41.47,11.26h0Z"/><path class="cls-11" d="M1099.45,579.68l-21.34,52s-78-99.43-78.13-111.95,3.14-25.73,3.14-25.73l20.55-100.42,30.44,3.9s-15.87,84.38-13.52,75.47-6.55,27.01-4.24,38.18,63.1,68.55,63.1,68.55h0Z"/><polygon class="cls-6" points="1254.58 403.45 1003.64 360.11 1011.65 187.94 1252.88 204.31 1254.58 403.45"/><rect class="cls-8" x="1049" y="370.54" width="39.64" height="9.72" rx="4.31" ry="4.31" transform="translate(257.33 1165.84) rotate(-63.6)"/><rect class="cls-8" x="1182.48" y="381.49" width="9.72" height="39.64" rx="4.31" ry="4.31" transform="translate(-54.61 569.79) rotate(-26.4)"/><polygon class="cls-8" points="517.36 1097.4 518.54 1130.31 533.42 1127.79 541.14 1095.83 517.36 1097.4"/><polygon class="cls-3" points="515.99 1125.36 512.37 1150.93 560.72 1171.21 563.23 1165.15 532.78 1143.66 539.11 1126.42 515.99 1125.36"/><polygon class="cls-8" points="592.19 1087.22 592.67 1120.16 607.62 1117.95 616 1086.17 592.19 1087.22"/><polygon class="cls-3" points="588.84 1114.26 587.53 1141.32 635.8 1157.83 638.01 1151.65 606.53 1131.71 612.2 1114.16 588.84 1114.26"/><path class="cls-3" d="M556.99,789.15s36.66,108.68,34.55,142.65c-2.11,33.97,.35,157.32,.35,157.32l24.55,1.09s17.6-134.92,21.7-191.62c4.1-56.7-5.4-163.77-5.4-163.77l-96.56,16.09,20.81,38.24h0Z"/><path class="cls-3" d="M485.86,766.15c-3.29,62.98,25.74,108.66,29.03,164.58,3.29,55.92,2.37,170.77,2.37,170.77l24.36,1.57s19.93-130.15,18.75-192.53,7.89-144.37,7.89-144.37c0,0-79.07-63-82.4-.03h0Z"/><path class="cls-8" d="M610.41,456.82c7.98,7.59,12.78,17.92,13.41,28.92,.96,18.44-1.15,35.62-14.53,42.33s-19.84,6.35-21.31,12.75-.96,15.08-.96,15.08l.61,7.61-45.23-2.76s2.06-16.09,.36-23.76-20.2-41.2-20-44.46-17.58-48.63,24.19-60.14c41.77-11.51,63.45,24.43,63.45,24.43h.01Z"/><path class="cls-8" d="M622.61,486.75l6.29,.38s3.77,.23,3.54,4-4,3.54-4,3.54l-6.29-.38,.46-7.54Z"/><circle cx="604" cy="481.83" r="2.7"/><path class="cls-4" d="M558.67,560.24l-27.49-1.29s-19.46-.15-23.29,17.21c-3.83,17.36-30.35,183.53-30.35,183.53l164.79,2.06-25.14-171.22s-.87-27.56-13.81-28.17l-44.71-2.12h0Z"/><rect class="cls-8" x="649.37" y="370.62" width="45.15" height="9.72" rx="4.31" ry="4.31" transform="translate(260.22 1025.85) rotate(-86.86)"/><rect class="cls-8" x="640.06" y="365.76" width="45.15" height="9.72" rx="4.31" ry="4.31" transform="translate(256.27 1011.96) rotate(-86.86)"/><rect class="cls-8" x="630.36" y="365.22" width="45.15" height="9.72" rx="4.31" ry="4.31" transform="translate(247.65 1001.76) rotate(-86.86)"/><rect class="cls-8" x="620.67" y="364.7" width="45.15" height="9.72" rx="4.31" ry="4.31" transform="translate(239.01 991.59) rotate(-86.86)"/><path class="cls-8" d="M633.32,388.64c2.32,5.46,24.07,14.98,24.07,14.98l18.82-14.43-1.42-11.8s-43.79,5.79-41.47,11.25h0Z"/><path class="cls-4" d="M599.81,576.44l21.34,52.01s78.01-99.42,78.13-111.96c.12-12.54-3.13-25.73-3.13-25.73l-20.59-100.42-30.45,3.9s15.87,84.38,13.48,75.47,6.55,27.01,4.24,38.18-63.02,68.55-63.02,68.55h0Z"/><rect class="cls-8" x="451.84" y="347.54" width="9.72" height="45.15" rx="4.31" ry="4.31" transform="translate(-19.59 25.57) rotate(-3.14)"/><rect class="cls-8" x="461.16" y="342.67" width="9.72" height="45.15" rx="4.31" ry="4.31" transform="translate(-19.31 26.08) rotate(-3.14)"/><rect class="cls-8" x="470.86" y="342.13" width="9.72" height="45.15" rx="4.31" ry="4.31" transform="translate(-19.26 26.61) rotate(-3.14)"/><rect class="cls-8" x="480.55" y="341.61" width="9.72" height="45.15" rx="4.31" ry="4.31" transform="translate(-19.22 27.14) rotate(-3.14)"/><path class="cls-8" d="M495.3,383.25c-2.32,5.46-24.07,14.98-24.07,14.98l-18.82-14.44,1.42-11.8s43.79,5.8,41.47,11.26h0Z"/><path class="cls-4" d="M528.8,571.04l-21.34,52s-78-99.43-78.13-111.95c-.13-12.52,3.14-25.73,3.14-25.73l20.55-100.42,30.44,3.9s-15.87,84.38-13.48,75.47c2.39-8.91-6.55,27.01-4.24,38.18s63.06,68.55,63.06,68.55h0Z"/><polygon class="cls-6" points="441.66 362.29 692.61 361.35 689.41 189.2 445.07 198.68 441.66 362.29"/><rect class="cls-8" x="625.56" y="354.06" width="9.73" height="39.71" rx="4.32" ry="4.32" transform="translate(-100.16 314.84) rotate(-26.05)"/><rect class="cls-8" x="478.37" y="361.89" width="39.64" height="9.72" rx="4.31" ry="4.31" transform="translate(-51.83 649.91) rotate(-63.6)"/><path class="cls-1" d="M543.34,423.68c30.28-11.39,56.9,7.66,64.5,13.15,7.78,5.58,13.97,10.02,14.06,16.37,.3,19.74-58.6,37.66-65.74,27.47-2.05-2.93-.52-9.13-5.05-12.17-1.54-1.05-3.43-1.47-5.27-1.17-3.62,.81-5.33,5.13-5.84,6.45-3.96,10.03,7,24.76,11.04,30.07,12.59,16.57,19.16,14.98,23.21,25.02,4.66,11.67,1.11,27.31-8.14,36.88-16.14,16.71-47.96,13.11-57.1-1.57-7.58-12.2,.76-31.57,2.18-34.87,5-11.62,10.01-11.96,10.98-19.68,1.8-14.44-14.93-19.73-17.72-34.86-3.45-18.65,16.12-42.5,38.89-51.08h0Z"/><path class="cls-10" d="M812.79,745.66c-7.35-10.72,1.24-20.84-5.39-28.05-7.08-7.71-26.88-7.06-36.69,4.31-9.14,10.62-5.08,25.32-4.31,28.05,4.69,16.98,20.72,24.54,25.87,26.98,16.81,7.92,32.53,4.79,45.33,2.16,9.93-2.01,25.12-6.65,24.81-10.79-.23-3.06-8.73-3.25-25.87-9.72-13.37-5.02-20.04-7.53-23.75-12.94Z"/><polygon class="cls-8" points="806.58 1155.74 839.33 1159.3 835.73 1173.97 803.31 1179.36 806.58 1155.74"/><polygon class="cls-8" points="544.38 1166.03 518.14 1185.96 510.67 1172.84 530.52 1146.63 544.38 1166.03"/><path class="cls-8" d="M767.64,773.56c-8.07,7.49-12.98,17.76-13.76,28.74-1.29,18.42,.59,35.62,13.88,42.55s19.77,6.63,21.15,13.05,.71,15.09,.71,15.09l-.72,7.6,45.27-2.14s-1.84-16.12,0-23.77,20.74-40.95,20.6-44.18,18.2-48.39-23.39-60.48-63.74,23.53-63.74,23.53h0Z"/><path class="cls-8" d="M760.12,799.15l-6.19-1.16s-3.71-.7-4.41,3.02,3.02,4.41,3.02,4.41l6.18,1.16,1.4-7.43h0Z"/><circle cx="770.46" cy="794.34" r="2.7"/><rect class="cls-8" x="904.86" y="691.08" width="45.15" height="9.72" rx="4.31" ry="4.31" transform="translate(181.73 1583.86) rotate(-86.86)"/><rect class="cls-8" x="895.55" y="686.21" width="45.15" height="9.72" rx="4.31" ry="4.31" transform="translate(177.8 1569.97) rotate(-86.86)"/><rect class="cls-8" x="885.85" y="685.68" width="45.15" height="9.72" rx="4.31" ry="4.31" transform="translate(169.17 1559.78) rotate(-86.86)"/><rect class="cls-8" x="876.16" y="685.15" width="45.15" height="9.72" rx="4.31" ry="4.31" transform="translate(160.53 1549.61) rotate(-86.86)"/><path class="cls-8" d="M888.78,709.14c2.32,5.46,24.07,14.98,24.07,14.98l18.82-14.43-1.42-11.8s-43.79,5.76-41.47,11.25Z"/><path class="cls-9" d="M844.54,887.2l34.28,42.31s85.27-78.94,87.85-82.83,2.59-11.44-.96-25.72c-5.09-25.67-32.42-109.07-32.42-109.07l-27.21,6.06,26.43,94.85s2.23,7.27-.08,12.28c-5.27,5.82-87.9,62.11-87.9,62.11h.01Z"/><polygon class="cls-3" points="825.48 1155.28 843.26 1150.4 885.12 1181.99 881.23 1187.28 847.12 1172.25 827.5 1180.29 825.48 1155.28"/><polygon class="cls-3" points="520.28 1189.72 499.37 1205.34 463.58 1159.91 468.68 1155.77 497.95 1178.83 508.53 1169.09 520.28 1189.72"/><rect class="cls-8" x="701.66" y="649.65" width="9.72" height="45.15" rx="4.31" ry="4.31" transform="translate(-35.76 39.71) rotate(-3.14)"/><rect class="cls-8" x="710.97" y="644.78" width="9.72" height="45.15" rx="4.31" ry="4.31" transform="translate(-35.48 40.21) rotate(-3.14)"/><rect class="cls-8" x="720.66" y="644.24" width="9.72" height="45.15" rx="4.31" ry="4.31" transform="translate(-35.44 40.74) rotate(-3.14)"/><rect class="cls-8" x="730.37" y="643.71" width="9.72" height="45.15" rx="4.31" ry="4.31" transform="translate(-35.39 41.27) rotate(-3.14)"/><path class="cls-8" d="M745.09,685.37c-2.32,5.46-24.07,14.98-24.07,14.98l-18.82-14.43,1.42-11.8s43.79,5.79,41.47,11.25h0Z"/><path class="cls-9" d="M778.58,877.49l-21.34,52.02s-78-99.45-78.12-111.98,3.14-25.72,3.14-25.72l20.55-100.42,30.45,3.89s-15.88,84.39-13.49,75.48-6.54,27.01-4.23,38.18,63.04,68.55,63.04,68.55h0Z"/><polygon class="cls-6" points="939.9 686.76 667.49 657.56 684.95 486.08 926.09 494.12 939.9 686.76"/><rect class="cls-8" x="728.13" y="664.02" width="39.64" height="9.72" rx="4.31" ry="4.31" transform="translate(-183.73 1041.42) rotate(-63.6)"/><rect class="cls-8" x="881.01" y="672.83" width="9.72" height="39.64" rx="4.31" ry="4.31" transform="translate(-215.59 466.12) rotate(-26.4)"/><path class="cls-5" d="M754.53,1093.1s-12.95,5.4-94.96,36.7c-4.12,2.31-12.7,7.12-15.11,16.18-2.25,8.51,6.48,10.79,6.48,10.79h20.5s119.16-5.26,121.93-25.87c2.24-16.77-38.84-37.8-38.84-37.8h0Z"/><path class="cls-4" d="M657.05,1135.73c7.91,1.62,131.6,15.88,131.6,15.88l19.16,2.17-.1,26.35s-141.95-4.79-158.96-11.59c-4.8-4.11-7.22-10.34-6.46-16.61,.68-5.88,6.83-17.81,14.75-16.19h.01Z"/><path class="cls-4" d="M770.94,1136.85c-22.64-25.17-55.41-53.75-85.98-51.46-53.89,4.04-141.13,88.44-141.13,88.44l-23.04-25.56s110.58-110.64,153.69-114.52,188.48,36.41,188.48,36.41c0,0-18.02,54.4-29.23,64.6-11.21,10.19-45.52,21.3-62.78,2.1h-.01Z"/><path class="cls-9" d="M803.6,875.16l-27.44-1.3s-15.18,7.25-16.77,17.25-21.76,149-21.76,149l135.66,45.22-.36-179.89s-11.66-27.56-24.59-28.17l-44.73-2.11h0Z"/><path class="cls-12" d="M792.28,740.26c-7.34-10.72,1.24-20.84-5.39-28.05-7.08-7.71-26.88-7.06-36.69,4.31-9.14,10.62-5.07,25.32-4.31,28.05,4.69,16.98,20.72,24.54,25.87,26.98,16.8,7.92,32.52,4.79,45.32,2.16,9.94-2.01,25.12-6.65,24.81-10.79-.22-3.06-8.72-3.25-25.87-9.72-13.36-5.02-20.03-7.53-23.74-12.94Z"/><path class="cls-12" d="M793.41,765.08c-.12-2.43-.63-16.79,9.72-25.87,9.87-8.7,22.9-6.71,31.29-5.39,4.79,.74,23.19,3.58,34.49,19.42,10.4,14.53,8.25,30.76,6.47,44.25-1.13,8.62-3.6,27.3-18.34,42.08-9.06,9.09-24.42,18.38-30.22,14.03-6.62-4.96-2.59-29.13,1.08-39.92,1.32-3.81,1.69-7.88,1.08-11.87-.26-1.56-1.45-8.86-5.39-9.71-3.37-.72-7.06,3.62-8.62,6.47-2.93,5.3-2.33,12.15-2.17,14.04,.33,3.6,1.1,5.37,0,6.47-2,2.03-7.78-.68-8.62-1.07-11.66-5.5-11.24-40.41-10.77-52.91v-.02Z"/><path class="cls-12" d="M873.22,781.26c2.51-8.94,23.19-16.36,34.49-7.55,6.71,5.23,9.98,16.02,7.55,23.74-1.09,3.48-2.96,5.16-3.23,9.71-.23,3.9,.69,10.33,4.31,11.87s6.48-3.63,14.03-5.39c5.83-1.36,13.81-.49,19.42,4.32,8.24,7.04,9.46,20.83,4.32,28.05-4.23,5.96-11.38,5.44-11.87,9.71s5.75,8.62,10.79,10.8c11.14,4.65,17.51-2.12,25.87,2.16,7.16,3.64,10.24,12.46,10.79,18.35,1.64,17.34-17.08,28.74-19.42,30.21-10.18,6.23-27.69,10.97-37.77,3.24-5.91-4.54-4.11-9.41-15.1-23.74-6.97-9.07-10.25-10.46-12.95-10.79-6.81-.82-14.85,4.52-15.11,9.71-.3,6.07,10.3,7.26,12.95,16.19,2.32,7.78-2.5,17.69-8.62,21.58-12.08,7.66-35.33-3.35-44.25-19.42-10.54-19.02-1.03-45.14,9.72-59.34,7.48-9.91,13.28-11.01,18.35-22.66,1.55-3.58,7.54-17.36,3.24-32.37-3.09-10.94-8.98-13.06-7.5-18.35v-.03Z"/><path class="cls-1" d="M886.27,783.74c2.37-10.18,1.47-12.57,1.07-13.48-2.01-4.64-7.45-8.7-11.74-7.66-5.01,1.2-6.53,8.91-8.51,18.92-1.75,8.87-3.02,15.24,.76,18.55,2.87,2.5,7.76,2.56,11.09,.8,3.75-1.99,4.99-7.07,7.33-17.13h0Z"/><path class="cls-2" d="M549.69,274.24c-1.5,10.84-.96,24.81,.73,32.72,8.62,1.1,32.77,1.44,38.07,.67l.67-.08c.55-.02,1.09-.11,1.62-.26,1.14-.38,1.84-1.7,1.69-5.92-.04-1.05,.47-2.05,1.34-2.64,2.78-1.92,3.2-3.95,2.11-7.8-.45-1.63,.5-3.32,2.14-3.77,.09-.02,.17-.04,.26-.06,1.04-.19,2.2-5.03,1.18-5.93-1.28-1.12-1.41-3.07-.29-4.35,.06-.07,.13-.14,.2-.21,.82-1.14,1.28-2.5,1.31-3.9,0-2.74-.75-3.75-3.4-4.22-2.05-.34-4.12-.55-6.2-.64-3.98-.16-7.96-.1-11.93,.19-.96,.07-1.92,.14-2.67,.22l-.96,.1c-1.23,.14-2.43-.48-3.04-1.56-.2-.36-.33-.75-.4-1.16-.36-1.92,.08-5.47,1.73-11.65,1.55-5.75-2.4-11.56-7.17-13.75-.68-.31-1.07-.28-1.47,.23,0,1.43,.06,2.87,0,4.25,0,1.16-.08,2.19-.16,3.09-.57,5.6-1.64,8.8-4.9,14.95-1.37,2.43-3.07,4.65-5.06,6.61-1.32,1.35-2.71,2.63-4.17,3.83-.47,.42-.88,.77-1.24,1.03h0Zm-1.33-6.91c.8-.72,1.58-1.47,2.33-2.23,1.59-1.56,2.96-3.32,4.07-5.25,2.87-5.48,3.72-7.93,4.2-12.68,.08-.71,.11-1.59,.13-2.6v-3.94c0-.63,0-1.12-.06-1.38-.03-.62,.12-1.23,.44-1.76,.44-.69,.99-1.32,1.62-1.84,2.24-1.96,5.45-2.37,8.12-1.03,7.22,3.31,13,11.77,10.54,20.93-.58,2.09-1.06,4.22-1.42,6.36h.38c4.23-.32,8.47-.38,12.7-.2,2.33,.09,4.66,.34,6.96,.73,5.75,.96,8.54,4.68,8.49,10.32-.05,2.15-.61,4.26-1.63,6.16,1.73,4,.38,9.96-2.87,12.76,.76,4.47-.24,8.14-3.76,11.12-.12,5.75-2.17,9.09-5.86,10.35-.57,.19-1.16,.34-1.76,.42-.39,.06-.44,.06-1.26,.13h-.36c-5.64,.81-28.32,.56-38.55-.53-.33,.42-.77,.75-1.26,.96-8.43,3.3-11.33,3.54-24.78,1.78-1.19-.18-2.16-1.04-2.49-2.19-3.83-12.73-3.23-26.64,0-45.31,.3-1.68,1.9-2.8,3.58-2.5,.09,.02,.17,.03,.26,.06,6.95,1.92,11.5,2.13,20.78,1.17,.5-.07,1.01,0,1.49,.18h-.03Zm-20.56,5.41c-2.45,15.21-2.87,26.99-.21,37.37,9.23,1.16,12.02,1.1,17.08-.68-2.08-8.62-2.73-23.81-1.1-35.77-5.27,.54-10.6,.23-15.77-.92Z"/><path class="cls-2" d="M792.31,574.52c-2.71,10.6-3.77,24.54-2.96,32.58,8.44,2.07,32.39,5.13,37.75,4.96h.67c.55,.04,1.1,.02,1.64-.07,1.19-.26,2.02-1.49,2.35-5.7,.08-1.05,.7-1.99,1.63-2.48,2.98-1.58,3.62-3.55,2.97-7.5-.27-1.68,.87-3.27,2.55-3.54,.09-.02,.18-.03,.28-.03,1.05-.07,2.75-4.74,1.83-5.75-1.15-1.25-1.06-3.2,.19-4.35,.08-.07,.16-.13,.24-.2,.95-1.04,1.55-2.34,1.74-3.74,.34-2.72-.33-3.83-2.87-4.57-2-.57-4.03-1.01-6.08-1.33-3.93-.62-7.89-1-11.87-1.16l-2.68-.09h-.96c-1.26,0-2.4-.75-2.87-1.92-.15-.38-.24-.79-.26-1.2-.14-1.92,.69-5.42,3.03-11.38,2.19-5.59-1.07-11.76-5.57-14.47-.64-.38-1.03-.39-1.49,.06-.11,1.44-.26,2.87-.44,4.24-.15,1.14-.33,2.17-.52,3.05-1.2,5.5-2.63,8.56-6.55,14.3-1.64,2.28-3.6,4.31-5.81,6.04-1.48,1.21-3.03,2.33-4.57,3.35-.53,.35-.98,.65-1.36,.88v.02Zm-.55-7.03c.87-.61,1.73-1.27,2.57-1.92,1.75-1.38,3.31-2.99,4.64-4.79,3.49-5.12,4.59-7.46,5.6-12.12,.15-.7,.3-1.57,.43-2.57,.16-1.24,.31-2.59,.41-3.92,0-.63,.09-1.11,.11-1.37,.03-.62,.25-1.21,.63-1.71,.52-.64,1.13-1.19,1.81-1.65,2.47-1.71,5.73-1.75,8.25-.11,6.79,4.1,11.58,13.15,8.12,21.99-.82,2.01-1.53,4.07-2.13,6.16h.38c4.22,.16,8.43,.57,12.6,1.23,2.31,.36,4.59,.86,6.84,1.5,5.57,1.65,7.95,5.61,7.26,11.22-.29,2.13-1.08,4.16-2.31,5.93,1.27,4.17-.74,9.95-4.27,12.37,.25,4.52-1.16,8.06-4.98,10.63-.78,5.66-3.19,8.8-7,9.58-.59,.12-1.19,.19-1.79,.21h-1.65c-5.69,.17-28.2-2.64-38.24-4.88-.38,.37-.85,.64-1.37,.78-8.74,2.33-11.65,2.24-24.81-1.03-1.18-.29-2.08-1.25-2.29-2.44-2.32-13.04-.16-26.83,5.18-45.03,.48-1.63,2.18-2.57,3.81-2.09,.1,.03,.19,.06,.29,.1,6.71,2.7,11.19,3.41,20.51,3.51,.5,.02,.98,.16,1.41,.41h0Zm-21.08,3.07c-4.12,14.85-5.83,26.5-4.38,37.04,9.03,2.19,11.82,2.45,17.05,1.25-1.1-8.78,0-23.95,2.93-35.66-5.3-.04-10.55-.92-15.57-2.63h-.03Z"/><path class="cls-2" d="M1116.34,279.58c-3.34,10.4-5.25,24.26-4.92,32.35,8.3,2.58,32.02,7.08,37.37,7.24h.67c.54,.07,1.09,.07,1.64,0,1.19-.18,2.11-1.36,2.68-5.54,.14-1.04,.81-1.94,1.77-2.38,3.08-1.4,3.83-3.33,3.43-7.31-.18-1.68,1.04-3.19,2.72-3.37,.1-.01,.2-.02,.3-.02,1.06,0,3.04-4.58,2.18-5.63-1.07-1.33-.86-3.27,.47-4.34,.08-.06,.16-.12,.24-.17,.99-.98,1.66-2.24,1.92-3.61,.49-2.7-.1-3.83-2.63-4.79-1.96-.69-3.96-1.26-5.99-1.71-3.89-.87-7.82-1.51-11.78-1.92-.96-.11-1.92-.18-2.66-.25l-.96-.07c-1.24-.07-2.32-.89-2.72-2.07-.13-.39-.19-.8-.19-1.21,0-1.92,1.02-5.38,3.72-11.18,2.53-5.44-.35-11.8-4.68-14.77-.62-.43-.96-.47-1.49,0-.2,1.42-.43,2.87-.7,4.21-.22,1.13-.45,2.15-.7,3.01-1.52,5.42-3.13,8.38-7.41,13.88-1.78,2.17-3.85,4.08-6.16,5.67-1.55,1.11-3.17,2.15-4.79,3.07l-1.33,.91h0Zm-.06-7.05c.91-.57,1.81-1.17,2.67-1.79,1.84-1.26,3.5-2.76,4.92-4.47,3.83-4.89,5.03-7.17,6.32-11.76,.19-.69,.39-1.54,.58-2.53,.24-1.23,.46-2.56,.65-3.89,.09-.62,.15-1.1,.18-1.36,.08-.62,.33-1.2,.74-1.67,.55-.61,1.2-1.13,1.92-1.53,2.57-1.56,5.83-1.4,8.24,.4,6.53,4.5,10.77,13.83,6.76,22.44-.94,1.96-1.77,3.97-2.49,6.02h.38c4.2,.42,8.38,1.09,12.5,1.99,2.27,.5,4.51,1.14,6.71,1.92,5.46,1.98,7.6,6.08,6.57,11.64-.43,2.1-1.34,4.07-2.66,5.75,1.02,4.23-1.34,9.88-5.02,12.07,0,4.53-1.65,7.98-5.62,10.31-1.11,5.6-3.71,8.62-7.57,9.18-.6,.08-1.2,.12-1.8,.11-.39,0-.44,0-1.26-.09h-.37c-5.75-.17-27.99-4.36-37.88-7.2-.4,.35-.89,.6-1.41,.7-8.87,1.79-11.77,1.52-24.71-2.53-1.15-.37-1.99-1.37-2.13-2.58-1.52-13.15,1.46-26.83,7.89-44.63,.58-1.6,2.34-2.43,3.94-1.85,.1,.03,.19,.07,.28,.12,6.52,3.1,10.97,4.08,20.27,4.73,.5,.05,.97,.22,1.39,.5h.01Zm-21.18,1.77c-5.05,14.56-7.47,26.09-6.71,36.72,8.88,2.74,11.65,3.17,16.94,2.29-.57-8.83,1.43-23.95,5.09-35.45-5.28-.36-10.47-1.56-15.37-3.56h.05Z"/><path class="cls-8" d="M326.97,521.41c7.98,7.59,12.78,17.92,13.41,28.92,.96,18.44-1.15,35.62-14.53,42.33s-19.84,6.35-21.31,12.75-.96,15.08-.96,15.08l.61,7.61-45.23-2.76s2.06-16.09,.36-23.76-20.2-41.2-20-44.46-17.58-48.63,24.19-60.14c41.77-11.51,63.45,24.43,63.45,24.43h.01Z"/><path class="cls-8" d="M339.17,551.34l6.29,.38s3.77,.23,3.54,4-4,3.54-4,3.54l-6.29-.38,.46-7.54Z"/><circle cx="325.56" cy="546.43" r="2.7"/><rect class="cls-8" x="365.94" y="435.22" width="45.15" height="9.72" rx="4.31" ry="4.31" transform="translate(-72.18 803.9) rotate(-86.86)"/><rect class="cls-8" x="356.63" y="430.36" width="45.15" height="9.72" rx="4.31" ry="4.31" transform="translate(-76.13 790.01) rotate(-86.86)"/><rect class="cls-8" x="346.93" y="429.81" width="45.15" height="9.72" rx="4.31" ry="4.31" transform="translate(-84.76 779.81) rotate(-86.86)"/><rect class="cls-8" x="337.23" y="429.29" width="45.15" height="9.72" rx="4.31" ry="4.31" transform="translate(-93.4 769.63) rotate(-86.86)"/><path class="cls-8" d="M349.87,453.23c2.32,5.46,24.07,14.98,24.07,14.98l18.82-14.43-1.42-11.8s-43.79,5.79-41.47,11.25h0Z"/><path class="cls-11" d="M316.37,641.03l21.34,52.01s78.01-99.42,78.13-111.96-3.13-25.73-3.13-25.73l-20.59-100.42-30.45,3.9s15.87,84.38,13.48,75.47,6.55,27.01,4.24,38.18-63.02,68.55-63.02,68.55Z"/><rect class="cls-8" x="168.41" y="412.13" width="9.72" height="45.15" rx="4.31" ry="4.31" transform="translate(-23.55 10.14) rotate(-3.14)"/><rect class="cls-8" x="177.71" y="407.27" width="9.72" height="45.15" rx="4.31" ry="4.31" transform="translate(-23.27 10.65) rotate(-3.14)"/><rect class="cls-8" x="187.41" y="406.74" width="9.72" height="45.15" rx="4.31" ry="4.31" transform="translate(-23.23 11.18) rotate(-3.14)"/><rect class="cls-8" x="197.12" y="406.2" width="9.72" height="45.15" rx="4.31" ry="4.31" transform="translate(-23.18 11.71) rotate(-3.14)"/><path class="cls-8" d="M211.86,447.84c-2.32,5.46-24.07,14.98-24.07,14.98l-18.82-14.44,1.42-11.8s43.79,5.8,41.47,11.26h0Z"/><path class="cls-11" d="M245.36,635.64l-21.34,52s-78-99.43-78.13-111.95c-.13-12.52,3.14-25.73,3.14-25.73l20.55-100.42,30.44,3.9s-15.87,84.38-13.48,75.47-6.55,27.01-4.24,38.18,63.06,68.55,63.06,68.55h0Z"/><polygon class="cls-6" points="158.22 426.89 409.17 425.95 405.97 253.8 161.63 263.27 158.22 426.89"/><rect class="cls-8" x="342.1" y="418.64" width="9.73" height="39.71" rx="4.32" ry="4.32" transform="translate(-157.32 196.92) rotate(-26.05)"/><rect class="cls-8" x="194.92" y="426.48" width="39.64" height="9.72" rx="4.31" ry="4.31" transform="translate(-267.1 431.9) rotate(-63.6)"/><path class="cls-2" d="M266.25,338.84c-1.5,10.84-.96,24.81,.73,32.72,8.62,1.1,32.77,1.44,38.07,.67l.67-.08c.55-.02,1.09-.11,1.62-.26,1.14-.38,1.84-1.7,1.69-5.92-.04-1.05,.47-2.05,1.34-2.64,2.78-1.92,3.2-3.95,2.11-7.8-.45-1.63,.5-3.32,2.14-3.77,.09-.02,.17-.04,.26-.06,1.04-.19,2.2-5.03,1.18-5.93-1.28-1.12-1.41-3.07-.29-4.35,.06-.07,.13-.14,.2-.21,.82-1.14,1.28-2.5,1.31-3.9,0-2.74-.75-3.75-3.4-4.22-2.05-.34-4.12-.55-6.2-.64-3.98-.16-7.96-.1-11.93,.19-.96,.07-1.92,.14-2.67,.22l-.96,.1c-1.23,.14-2.43-.48-3.04-1.56-.2-.36-.33-.75-.4-1.16-.36-1.92,.08-5.47,1.73-11.65,1.55-5.75-2.4-11.56-7.17-13.75-.68-.31-1.07-.28-1.47,.23,0,1.43,.06,2.87,0,4.25,0,1.16-.08,2.19-.16,3.09-.57,5.6-1.64,8.8-4.9,14.95-1.37,2.43-3.07,4.65-5.06,6.61-1.32,1.35-2.71,2.63-4.17,3.83-.47,.42-.88,.77-1.24,1.03h0Zm-1.33-6.91c.8-.72,1.58-1.47,2.33-2.23,1.59-1.56,2.96-3.32,4.07-5.25,2.87-5.48,3.72-7.93,4.2-12.68,.08-.71,.11-1.59,.13-2.6v-3.94c0-.63,0-1.12-.06-1.38-.03-.62,.12-1.23,.44-1.76,.44-.69,.99-1.32,1.62-1.84,2.24-1.96,5.45-2.37,8.12-1.03,7.22,3.31,13,11.77,10.54,20.93-.58,2.09-1.06,4.22-1.42,6.36h.38c4.23-.32,8.47-.38,12.7-.2,2.33,.09,4.66,.34,6.96,.73,5.75,.96,8.54,4.68,8.49,10.32-.05,2.15-.61,4.26-1.63,6.16,1.73,4,.38,9.96-2.87,12.76,.76,4.47-.24,8.14-3.76,11.12-.12,5.75-2.17,9.09-5.86,10.35-.57,.19-1.16,.34-1.76,.42-.39,.06-.44,.06-1.26,.13h-.36c-5.64,.81-28.32,.56-38.55-.53-.33,.42-.77,.75-1.26,.96-8.43,3.3-11.33,3.54-24.78,1.78-1.19-.18-2.16-1.04-2.49-2.19-3.83-12.73-3.23-26.64,0-45.31,.3-1.68,1.9-2.8,3.58-2.5,.09,.02,.17,.03,.26,.06,6.95,1.92,11.5,2.13,20.78,1.17,.5-.07,1.01,0,1.49,.18h-.03Zm-20.56,5.41c-2.45,15.21-2.87,26.99-.21,37.37,9.23,1.16,12.02,1.1,17.08-.68-2.08-8.62-2.73-23.81-1.1-35.77-5.27,.54-10.6,.23-15.77-.92h0Z"/><path class="cls-1" d="M343.06,564.57s-2.41-4.57-6.78-4.28-1.88,7.41-8,8.53-4.25-2.5-4.25-2.5c0,0-2.88,6.09,2.5,6.55s17.19,1.2,16.53-8.3Z"/><path class="cls-1" d="M323.26,511.94l-36.68,2.25-4.25,46.08h-5.83v-8.93s1.46-6.95-5.92-7.62-8.25,10.21-8.25,10.21c0,0-2.5,14.79,2,14.65l4.5-.15s.5,22.38-4.25,25.75-10.88,8.88-14.5,1.75,3.75-1.25,3.75-1.25l1.75-3.5s-32.5-37.12-30.5-58.25,19.88-45.12,45.5-44.5,38.36-1.87,52.68,23.5h0Z"/><path class="cls-14" d="M336.33,547.19c.42-6.78-5.54-12.56-12.25-12.5-6.23,.06-12,5.14-12,11.75s5.74,11.67,12,11.75c6.19,.08,11.87-4.74,12.25-11Z"/><path class="cls-14" d="M314.31,540l-47.15-1.16s-7.22-1.24-7.42,7.98"/><path class="cls-14" d="M336.33,547.19s2.01-1.75,4.25,0"/><polygon class="cls-8" points="234.76 1142.12 232.55 1174.98 247.63 1174 258.58 1143.01 234.76 1142.12"/><polygon class="cls-8" points="325.32 1125.41 324.75 1158.34 339.76 1156.6 349.15 1125.1 325.32 1125.41"/><path class="cls-1" d="M264.33,852.84s40.82,83.35,46.6,116.97,8.35,174.63,8.35,174.63l34.41-.23s4.09-133.86,2.44-190.66-20.84-151.66-20.84-151.66l-95.52,15.05,24.57,35.9h-.01Z"/><path class="cls-1" d="M204.55,825.03c-3.29,62.98,25.74,108.66,29.03,164.59,3.29,55.93-5.18,166.45-5.18,166.45l34.07,4.79s19.86-122.98,19.79-191.46c-.07-68.48-13.73-144.36-13.73-144.36,0,0-60.72-63-63.98-.02h0Z"/><polygon points="228.25 1175.26 226.71 1201.32 284.33 1206.21 284.99 1199.68 249.62 1187.93 251.93 1173.72 228.25 1175.26"/><polygon points="320.47 1158.84 320.23 1184.94 378.02 1186.95 378.36 1180.38 342.45 1170.42 344.05 1156.11 320.47 1158.84"/><path class="cls-11" d="M274.5,625.01l-27.48-1.29s-28.14-1.39-29.7,17.25-14.21,183.53-14.21,183.53l145.36,2.06-4.61-171.31s-11.66-27.56-24.59-28.17l-44.77-2.07h0Z"/></g></g></svg>