<?xml version="1.0" encoding="utf-8"?>
<!-- Generator: Adobe Illustrator 28.3.0, SVG Export Plug-In . SVG Version: 6.00 Build 0)  -->
<svg version="1.1" id="Layer_2_00000177474081146028994170000012337133024134176682_"
	 xmlns="http://www.w3.org/2000/svg" xmlns:xlink="http://www.w3.org/1999/xlink" x="0px" y="0px" viewBox="0 0 1297.8 1150.2"
	 style="enable-background:new 0 0 1297.8 1150.2;" xml:space="preserve">
<style type="text/css">
	.st0{fill:#C2E585;}
	.st1{fill:#3C5B01;}
	.st2{fill:#FFF0CC;}
	.st3{fill:none;stroke:#001E2D;stroke-miterlimit:10;}
	.st4{fill:#78B51D;}
	.st5{fill:#805B00;}
	.st6{fill:#EAF3DE;}
	.st7{fill:#B37F00;}
	.st8{fill:#003C5A;}
	.st9{fill:#001E2D;}
	.st10{fill:#273D01;}
</style>
<path class="st0" d="M829.6,8C748.2-0.7,663.1-8.9,587,21.3S448.8,133.5,470,212.6c10.1,37.7,36.8,68.4,54.3,103.3
	c17.5,34.9,24,81.6-3.3,109.5c-17.2,17.6-43.1,22.9-67.3,27.3c-81.9,14.9-163.8,29.8-245.7,44.6c-71.6,13-152.3,32.2-188,95.6
	C2.7,623.6-0.8,660.2,0.1,695.5c6.2,241.6,228.7,456.7,470.3,454.7c33.2-0.3,68.9-5.2,93-27.9c39.2-36.8,30.7-100.8,52-150.1
	c32.8-76.1,129.2-102.2,211.8-96.2s164,34,246.5,26.4c84.8-7.8,167-57.5,204.1-134s22-178-42.5-233.5
	c-39.3-33.8-91.1-48.4-136.4-73.3c-45.4-24.9-88.3-68.6-84.4-120.2c3.5-46.3,42.9-81.7,56.4-126.1c19.2-63.3-19.7-132.7-74.8-169.5
	C941,8.8,874.5,12.9,829.6,8"/>
<rect x="378.5" y="731.7" class="st1" width="18.3" height="58.9"/>
<path class="st2" d="M947.3,141c41.8,11.5,24,56.9,24.2,60.1s-18.3,36.8-20,44.5c-1.7,7.7,0.4,23.8,0.4,23.8l-45.2,2.8l0.6-7.6
	c0,0,0.5-8.7-1-15.1c-1.5-6.4-7.9-6.1-21.3-12.8c-13.4-6.7-15.5-23.9-14.5-42.3c0.6-11,5.4-21.3,13.4-28.9
	C883.8,165.4,905.5,129.5,947.3,141L947.3,141L947.3,141z"/>
<path class="st2" d="M872.1,202.9l-6.3,0.4c0,0-3.8,0.2-4-3.5c-0.2-3.8,3.5-4,3.5-4l6.3-0.4L872.1,202.9z"/>
<circle cx="885.3" cy="190.4" r="2.7"/>
<path d="M867.8,208.5c0,0,2.4-4.6,6.8-4.3s1.9,7.4,8,8.5c6.1,1.1,4.2-2.5,4.2-2.5s2.9,6.1-2.5,6.6S867.1,218,867.8,208.5z"/>
<path d="M887.6,155.9l36.7,2.2l4.2,46.1h5.8v-8.9c0,0-1.5-6.9,5.9-7.6s8.2,10.2,8.2,10.2s2.5,14.8-2,14.6l-4.5-0.1
	c0,0-0.5,22.4,4.2,25.8s10.9,8.9,14.5,1.8s-3.8-1.2-3.8-1.2l-1.8-3.5c0,0,32.5-37.1,30.5-58.2s-19.9-45.1-45.5-44.5
	C914.6,133,901.9,130.5,887.6,155.9L887.6,155.9L887.6,155.9z"/>
<path class="st3" d="M874.5,191.2c-0.4-6.8,5.5-12.6,12.2-12.5c6.2,0.1,12,5.1,12,11.8s-5.7,11.7-12,11.8
	C880.6,202.2,874.9,197.4,874.5,191.2z"/>
<path class="st3" d="M896.5,184l47.2-1.2c0,0,7.2-1.2,7.4,8"/>
<path class="st3" d="M874.5,191.2c0,0-2-1.8-4.2,0"/>
<path class="st2" d="M764.7,119.4l0.2-0.1c2.1-0.9,4.6,0,5.6,2.1l22.7,51.1c0.9,2.1,0,4.6-2.1,5.6l-0.2,0.1c-2.1,0.9-4.6,0-5.6-2.1
	l-22.7-51.1C761.6,122.8,762.5,120.3,764.7,119.4z"/>
<path class="st2" d="M767.5,107.8l0.2-0.1c2.1-0.9,4.6,0,5.6,2.1l22.7,51.1c0.9,2.1,0,4.6-2.1,5.6l-0.2,0.1c-2.1,0.9-4.6,0-5.6-2.1
	l-22.7-51.1C764.4,111.2,765.3,108.7,767.5,107.8z"/>
<path class="st2" d="M771.7,98.1l0.2-0.1c2.1-0.9,4.6,0,5.6,2.1l22.7,51.1c0.9,2.1,0,4.6-2.1,5.6l-0.2,0.1c-2.1,0.9-4.6,0-5.6-2.1
	l-22.7-51.1C768.6,101.5,769.5,99,771.7,98.1z"/>
<path class="st2" d="M780.8,98.3l0.2-0.1c2.1-0.9,4.6,0,5.6,2.1l22.7,51.1c0.9,2.1,0,4.6-2.1,5.6l-0.2,0.1c-2.1,0.9-4.6,0-5.6-2.1
	l-22.7-51.1C777.7,101.7,778.7,99.2,780.8,98.3z"/>
<path class="st2" d="M788.2,156.5l1.8,10.3l15,5.9c0,0,11.4-15,11.6-20.3C816.8,147.1,788.2,156.5,788.2,156.5z"/>
<path class="st4" d="M819.5,262.9c-3.5-3.5-4-10.2-4-10.2l-8-87.5l-24.6,3.6c0,0,3.6,78.2,7.5,101.2c1.5,13.1,3.9,19.3,7.3,21.7
	s99.5,41.2,99.5,41.2l15.2-46.1C912.4,286.8,825.7,266,819.5,262.9L819.5,262.9L819.5,262.9z"/>
<path class="st4" d="M1001.9,380.8c2.1,10-5.9,42-3.8,34s-12,67.3-12,67.3l27.2,3.5l18.3-89.5c1.8-7.5,2.7-15.2,2.8-23
	c-0.1-11.2-69.7-99.8-69.7-99.8l-19,46.4C945.8,319.6,999.9,370.8,1001.9,380.8L1001.9,380.8L1001.9,380.8z"/>
<path class="st2" d="M808.2,151.9l2.6-26.8c0.2-2.3,2.3-4,4.6-3.8l0.2,0c2.3,0.2,4,2.3,3.8,4.6l-2.6,26.8c-0.2,2.3-2.3,4-4.6,3.8
	l-0.2,0C809.7,156.3,808,154.3,808.2,151.9z"/>
<path class="st4" d="M956.6,270.1c11.5,0.5,21.6,31.9,21.6,31.9l-1.8,205.4l-120.5-50c0,0,19.7-159,21.2-170.5s15.2-19.9,15.2-19.9
	l24.5,1.1L956.6,270.1L956.6,270.1L956.6,270.1z"/>
<path class="st5" d="M476.5,210.3c-14.9,5.6-22.3,5.8-22.5,8.4c-0.3,3.6,12.9,7.6,21.6,9.4c11.1,2.3,24.8,5,39.4-1.9
	c4.5-2.1,18.4-8.7,22.5-23.4c0.7-2.4,4.2-15.2-3.7-24.4c-8.5-9.9-25.7-10.4-31.9-3.7c-5.8,6.3,1.7,15.1-4.7,24.4
	C493.8,203.7,488.1,205.9,476.5,210.3L476.5,210.3L476.5,210.3z"/>
<path class="st2" d="M480.9,202.8c-36.2,10.5-20.2,49.7-20.3,52.5c-0.1,2.8,16.3,31.8,17.9,38.4s0,20.6,0,20.6l39.3,1.9l-0.6-6.6
	c-0.3-4.4-0.1-8.8,0.6-13.1c1.2-5.6,6.8-5.3,18.4-11.3s13.2-21,12.1-37c-0.7-9.6-5-18.5-12-25C536.3,223.2,517.1,192.3,480.9,202.8
	L480.9,202.8L480.9,202.8z"/>
<path class="st2" d="M544.1,251.9l5.4-1c1.7-0.4,2.8-2,2.5-3.7c-0.3-1.8-1.9-3-3.7-2.8l-5.4,1L544.1,251.9L544.1,251.9z"/>
<circle cx="533.9" cy="241.3" r="2.3"/>
<path class="st2" d="M399.9,121.4l2.7,49.5c0.1,2.3-1.6,4.3-4,4.4l0,0c-2.3,0.1-4.3-1.6-4.4-4l-2.7-49.5c-0.1-2.3,1.6-4.3,4-4.4l0,0
	C397.8,117.2,399.7,119,399.9,121.4z"/>
<path class="st2" d="M407.9,115.3l2.7,49.5c0.1,2.3-1.6,4.3-4,4.4l0,0c-2.3,0.1-4.3-1.6-4.4-4l-2.7-49.5c-0.1-2.3,1.6-4.3,4-4.4l0,0
	C405.7,111.2,407.7,113,407.9,115.3z"/>
<path class="st2" d="M416.3,114.8l2.7,49.5c0.1,2.3-1.6,4.3-4,4.4l0,0c-2.3,0.1-4.3-1.6-4.4-4l-2.7-49.5c-0.1-2.3,1.6-4.3,4-4.4l0,0
	C414.2,110.7,416.1,112.5,416.3,114.8z"/>
<path class="st2" d="M424.7,114.4l2.7,49.5c0.1,2.3-1.6,4.3-4,4.4l0,0c-2.3,0.1-4.3-1.6-4.4-4l-2.7-49.5c-0.1-2.3,1.6-4.3,4-4.4l0,0
	C422.6,110.3,424.6,112.1,424.7,114.4z"/>
<path class="st2" d="M395.1,157.5l-1.2,10.3l16.4,12.5c0,0,18.9-8.3,20.9-13C433.1,162.5,395.1,157.5,395.1,157.5L395.1,157.5
	L395.1,157.5z"/>
<path class="st6" d="M393.2,268.1c-2-4.4-0.1-10.7-0.1-10.7l23-82.4l-23.6-5.3c0,0-23.8,72.4-28.2,94.8c-3.1,12.4-3.1,19-0.8,22.3
	s76.3,71.9,76.3,71.9l29.8-36.7C469.5,322,397.7,273.1,393.2,268.1L393.2,268.1L393.2,268.1z"/>
<path class="st2" d="M584.4,150.3l2.9-53.3c0.1-2.3,2.1-4.1,4.4-4l0,0c2.3,0.1,4.1,2.1,4,4.4l-2.9,53.3c-0.1,2.3-2.1,4.1-4.4,4l0,0
	C586.1,154.6,584.3,152.6,584.4,150.3z"/>
<path class="st2" d="M576.5,143.9l2.9-53.3c0.1-2.3,2.1-4.1,4.4-4l0,0c2.3,0.1,4.1,2.1,4,4.4l-2.9,53.3c-0.1,2.3-2.1,4.1-4.4,4l0,0
	C578.1,148.2,576.3,146.2,576.5,143.9L576.5,143.9L576.5,143.9z"/>
<path class="st2" d="M568,143.4l2.9-53.3c0.1-2.3,2.1-4.1,4.4-4l0,0c2.3,0.1,4.1,2.1,4,4.4l-2.9,53.3c-0.1,2.3-2.1,4.1-4.4,4l0,0
	C569.7,147.7,567.9,145.8,568,143.4L568,143.4L568,143.4z"/>
<path class="st2" d="M559.6,143l2.9-53.3c0.1-2.3,2.1-4.1,4.4-4l0,0c2.3,0.1,4.1,2.1,4,4.4l-2.9,53.3c-0.1,2.3-2.1,4.1-4.4,4l0,0
	C561.2,147.3,559.5,145.3,559.6,143L559.6,143L559.6,143z"/>
<path class="st2" d="M591.9,136.9l1.2,10.2l-16.4,12.6c0,0-18.9-8.3-20.9-13C553.9,141.9,591.9,136.9,591.9,136.9L591.9,136.9
	L591.9,136.9z"/>
<path class="st6" d="M581.7,254c2-9.7-5.8-40.9-3.7-33.2s-11.7-65.6-11.7-65.6l26.5-3.4l17.9,87.2c1.7,7.3,2.6,14.8,2.7,22.3
	c-0.1,10.9-67.9,97.3-67.9,97.3l-18.5-45.2C526.8,313.5,579.7,263.7,581.7,254L581.7,254L581.7,254z"/>
<path class="st2" d="M555.4,145.9l-11.6-23.3c-1-2.1-0.2-4.6,1.9-5.7l0,0c2.1-1,4.6-0.2,5.7,1.9l11.6,23.3c1,2.1,0.2,4.6-1.9,5.6
	l0,0C559,148.8,556.5,147.9,555.4,145.9z"/>
<path class="st2" d="M443.1,143.2l-11.6,23.3c-1,2.1-3.6,2.9-5.6,1.9l0,0c-2.1-1-2.9-3.6-1.9-5.6l11.6-23.3c1-2.1,3.6-2.9,5.6-1.9
	l0,0C443.3,138.6,444.2,141.1,443.1,143.2z"/>
<path class="st6" d="M466.2,313.4c-11.2,0.5-21.4,24.5-21.4,24.5l-0.3,156.3l117.8-39.3c0,0-17.5-120.8-18.9-129.5
	c-1.4-8.6-14.6-15-14.6-15l-23.9,1.1L466.2,313.4L466.2,313.4L466.2,313.4z"/>
<path class="st7" d="M494.3,205.5c-14.9,5.6-22.3,5.8-22.5,8.4c-0.3,3.6,12.9,7.6,21.6,9.4c11.1,2.3,24.8,5,39.4-1.9
	c4.5-2.1,18.4-8.7,22.5-23.4c0.7-2.4,4.2-15.2-3.7-24.4c-8.5-9.9-25.7-10.4-31.9-3.7c-5.8,6.3,1.7,15.1-4.7,24.4
	C511.7,199,505.9,201.2,494.3,205.5L494.3,205.5L494.3,205.5z"/>
<path class="st7" d="M504.5,261.8c-0.7,0.4-5.7,2.7-7.4,0.9c-0.9-1-0.3-2.5,0-5.6c0.1-1.6,0.6-7.6-1.9-12.2
	c-1.3-2.5-4.6-6.2-7.5-5.6c-3.4,0.7-4.5,7.1-4.7,8.4c-0.5,3.5-0.2,7,0.9,10.3c3.2,9.4,6.7,30.4,0.9,34.7c-5,3.8-18.4-4.3-26.3-12.2
	c-12.8-12.9-15-29.1-15.9-36.6c-1.5-11.7-3.4-25.8,5.6-38.4c9.9-13.8,25.9-16.2,30-16.9c7.3-1.1,18.6-2.9,27.2,4.7
	c9,7.9,8.5,20.4,8.4,22.5C514.4,226.7,514.7,257.1,504.5,261.8L504.5,261.8L504.5,261.8z"/>
<path class="st7" d="M438.1,245.9c-3.8,13.1,1.5,25,2.8,28.1c4.4,10.1,9.4,11.1,15.9,19.7c9.3,12.4,17.6,35,8.4,51.6
	c-7.8,14-28,23.6-38.5,16.9c-5.3-3.4-9.5-12-7.5-18.8c2.3-7.8,11.5-8.8,11.2-14.1c-0.2-4.5-7.2-9.1-13.1-8.4
	c-2.3,0.3-5.2,1.5-11.2,9.4c-9.5,12.5-8,16.7-13.1,20.6c-8.8,6.7-24,2.6-32.8-2.8c-2-1.2-18.3-11.2-16.9-26.2
	c0.5-5.1,3.2-12.8,9.4-15.9c7.3-3.7,12.8,2.2,22.5-1.9c4.4-1.9,9.8-5.7,9.4-9.4s-6.6-3.3-10.3-8.4c-4.5-6.3-3.4-18.3,3.7-24.4
	c4.9-4.1,11.8-4.9,16.9-3.7c6.6,1.5,9.1,6,12.2,4.7s3.9-6.9,3.7-10.3c-0.2-4-1.9-5.4-2.8-8.4c-2.1-6.7,0.7-16.1,6.6-20.6
	c9.9-7.6,27.8-1.2,30,6.6C445.9,234.5,440.8,236.4,438.1,245.9L438.1,245.9L438.1,245.9z"/>
<path class="st8" d="M439.7,247c2.9,1.5,7.1,1.5,9.6-0.7c3.3-2.9,2.2-8.4,0.7-16.1c-1.8-8.7-3.1-15.4-7.4-16.4
	c-3.7-0.9-8.5,2.6-10.2,6.7c-0.3,0.8-1.1,2.9,0.9,11.7C435.3,240.8,436.4,245.2,439.7,247L439.7,247L439.7,247z"/>
<rect x="999.1" y="731.7" class="st1" width="18.3" height="181.8"/>
<polygon class="st1" points="1049.9,735.8 353.6,735.8 321.6,447.3 995.4,447.3 "/>
<polygon class="st2" points="1224.8,991.7 1255.1,1005 1247.2,1017.9 1214.5,1013.3 "/>
<polygon class="st9" points="1257.3,1001.3 1281.2,1012 1258.8,1065.6 1252.7,1063.1 1258.7,1026.2 1244.9,1021.6 "/>
<polygon class="st2" points="1027.4,1014.1 1034.9,1046.3 1019.8,1047.8 1004,1018.8 "/>
<path class="st9" d="M1079.3,798.3c-32.5,12.7-76,35.2-84.6,67.3c-14,52.4,36.9,163.2,36.9,163.2l-31.9,13.3
	c0,0-68.1-141.6-57.4-183.8c10.7-42.2,100.2-142.5,100.2-142.5l53.8,51.3C1096.3,767.2,1082.9,796.9,1079.3,798.3L1079.3,798.3
	L1079.3,798.3z"/>
<path class="st9" d="M1120.7,795.2c-14.9,30.6-29.2,71.9-15.5,99.5c24.1,48.7,135.6,98.1,135.6,98.1l-15.1,31.1
	c0,0-144.7-61.3-164.6-100s-19-173.2-19-173.2l71.2,2.9C1113.2,753.6,1132,771.9,1120.7,795.2L1120.7,795.2L1120.7,795.2z"/>
<polygon class="st9" points="1039.3,1045.9 1045,1071.5 988.6,1085.6 986.9,1079.3 1020.1,1061.9 1015.5,1048.2 "/>
<path class="st2" d="M322.2,430.6c7.7,7.2,12.5,17,13.2,27.6c1.2,17.7-0.6,34.2-13.3,40.8c-12.8,6.7-19,6.4-20.3,12.5
	c-0.8,4.8-1,9.6-0.7,14.5l0.7,7.3l-43.4-2.1c0,0,1.8-15.5,0-22.8c-1.8-7.3-19.9-39.3-19.8-42.4s-17.5-46.5,22.4-58
	S322.2,430.6,322.2,430.6L322.2,430.6L322.2,430.6z"/>
<path class="st2" d="M334.3,459.2l6,0.3c2,0.1,3.5,1.8,3.4,3.8s-1.8,3.5-3.8,3.4l-6-0.3L334.3,459.2z"/>
<path class="st7" d="M236.2,460.7l67.7-49.8c-2.1-2.2-4.6-4.2-7.3-5.8c-8.7-5.4-24.5-10.6-44.4,2.7
	C221.6,428.4,236.2,460.7,236.2,460.7L236.2,460.7L236.2,460.7z"/>
<path class="st7" d="M285.8,424l36.4-26.7c0,0,6.8-3.6,1.9-6.8s-22.8,7-22.8,7l-35.5,21L285.8,424L285.8,424L285.8,424z"/>
<path d="M272.5,433.9c0,0,37.8,16.8,54.9-0.3c17.1-17,7.1-27.7,7.1-27.7s-0.5,14.5-8.8,14.2s-10.1-8.6-10.1-8.6s2.3-7.1-10.2-3.4
	S272.4,433.9,272.5,433.9L272.5,433.9L272.5,433.9z"/>
<path d="M263,441c0,0-1,12.7,8,18.4c9.1,5.6,14.7-3.5,14.7-3.5s1.7,8.3-2.6,11.3c-4.3,2.9-12.7,4.6-16.5-0.8c-3.9-5.4-2-2.2-4.8-7.5
	c-1.9-3.2-2.9-5.3-7.1-2.4c-5.3,2.9-4.3,3.9-3.4,6c0.9,2.1,5.8,8.6,6.7,11.7c1.8,5.3,8.2,23.2-4.4,26.7s-17.5-2.9-17.5-2.9
	s10.3,1.5,10.7-7.8s-18.6-22.6-11.1-29.5S263,441,263,441L263,441L263,441z"/>
<circle cx="316.4" cy="454.7" r="2.6"/>
<path class="st2" d="M193.8,383.2L193.8,383.2c-2.6,0.1-4.8-1.9-4.9-4.4l-1.7-34c-0.1-2.6,1.9-4.8,4.4-4.9l0,0
	c2.6-0.1,4.8,1.9,4.9,4.4l1.7,34C198.3,380.9,196.3,383.1,193.8,383.2z"/>
<path class="st2" d="M201.8,379.3L201.8,379.3c-2.6,0.1-4.8-1.8-4.9-4.4l-1.9-34c-0.1-2.6,1.8-4.8,4.4-4.9l0,0
	c2.6-0.1,4.8,1.8,4.9,4.4l1.9,34C206.4,377,204.4,379.2,201.8,379.3z"/>
<path class="st2" d="M211.1,378.8L211.1,378.8c-2.6,0.1-4.8-1.8-4.9-4.4l-1.9-34c-0.1-2.6,1.8-4.8,4.4-4.9l0,0
	c2.6-0.1,4.8,1.8,4.9,4.4l1.9,34C215.7,376.5,213.7,378.7,211.1,378.8z"/>
<path class="st2" d="M220.4,378.3L220.4,378.3c-2.6,0.1-4.8-1.8-4.9-4.4l-1.9-34c-0.1-2.6,1.8-4.8,4.4-4.9l0,0
	c2.6-0.1,4.8,1.8,4.9,4.4l1.9,34C225,376,223,378.2,220.4,378.3z"/>
<path class="st2" d="M228.7,375c-2.2,5.2-23.1,14.4-23.1,14.4l-18.1-13.9l1.4-11.3C188.9,364.2,231,369.7,228.7,375L228.7,375
	L228.7,375z"/>
<path class="st4" d="M271.2,545.8l-32.9,40.6c0,0-81.8-75.8-84.3-79.5s-2.5-11,0.9-24.7c4.9-24.6,31.1-104.6,31.1-104.6l26.1,5.8
	l-25.4,91.1c0,0-2.1,7,0.1,11.8C191.9,491.8,271.2,545.8,271.2,545.8L271.2,545.8L271.2,545.8z"/>
<path class="st2" d="M496.9,668.2c-5.7,0.5-20.8,17.6-20.8,17.6l7.7,21.5l11.2,2.2C495.1,709.4,502.6,667.7,496.9,668.2L496.9,668.2
	L496.9,668.2z"/>
<path class="st2" d="M531.2,668.3L531.2,668.3c0.4,2.5-1.4,4.9-3.9,5.3l-28.4,4.3c-2.5,0.4-4.9-1.4-5.3-3.9l0,0
	c-0.4-2.5,1.4-4.9,3.9-5.3l28.4-4.3C528.4,664,530.8,665.7,531.2,668.3L531.2,668.3L531.2,668.3z"/>
<path class="st2" d="M223,376.2L223,376.2c-2.3-1.1-3.2-3.9-2.1-6.2l12.8-25.7c1.1-2.3,3.9-3.2,6.2-2.1l0,0c2.3,1.1,3.2,3.9,2.1,6.2
	l-12.8,25.7C228.1,376.4,225.3,377.3,223,376.2z"/>
<path class="st2" d="M981.7,501.8c-6.3,7.5-9.5,17.2-9,27c0.9,16.5,4.5,31.5,17,36.2c12.6,4.7,18.3,3.7,20.2,9.2
	c1.3,4.3,2.1,8.8,2.3,13.3l0.2,6.8l39.9-6.9c0,0-3.4-14-2.7-21.1s13.9-38.6,13.4-41.5s10.8-44.9-27.4-51.1
	C997.4,467.7,981.7,501.8,981.7,501.8L981.7,501.8L981.7,501.8z"/>
<path class="st2" d="M973.8,529.6l-5.5,1c-1.8,0.3-3.1,2.1-2.7,3.9c0.3,1.8,2.1,3.1,3.9,2.7l5.5-1L973.8,529.6L973.8,529.6
	L973.8,529.6z"/>
<circle cx="989.8" cy="523.4" r="2.4"/>
<path class="st6" d="M1029.6,768.3c8.8,11,58.7,13.6,78,10.7c14.2-2.1,36.7-5.5,39.1-16.5c2.2-9.8-14.4-14.3-26.5-33.1
	c-17.9-27.7-2.2-49.8-12.9-90.2c-9.4-36-17.4-48.3-28.1-53.5c-4.2-2.1-7.7-2.5-14.6-3.5c-14.7-2.1-40-4.9-55.2,5
	c-15.2,10-15.5,80.8-15.5,80.8l18-1.4c0,0,2.4,39,3.8,59.2c1,15.6,2,22.5,4.4,28.1C1022.2,759.4,1025.5,764.2,1029.6,768.3
	L1029.6,768.3L1029.6,768.3z"/>
<path d="M1038,465.7c-28-7.1-49.8,12.4-56,18s-11.4,10.3-10.9,15.9c1.7,17.6,55.8,27.7,61.1,17.9c1.5-2.8-0.4-8.2,3.3-11.3
	c1.3-1.1,2.9-1.6,4.6-1.6c3.3,0.4,5.2,4,5.8,5.1c4.5,8.5-3.8,22.7-6.9,27.8c-9.6,16-15.6,15.2-18.2,24.5c-3,10.8,1.7,24.4,10.9,32
	c16,13.3,43.9,7,50.6-7c5.5-11.6-3.8-28-5.4-30.8c-5.6-9.8-10.1-9.6-11.7-16.4c-3-12.7,11.3-19,12.3-32.8
	C1078.8,490.4,1059.1,471.1,1038,465.7L1038,465.7L1038,465.7z"/>
<path class="st2" d="M864.9,633c5.1,1.4,16.3,19.4,16.3,19.4L870.7,671l-10.6,0.2C860.1,671.2,859.8,631.7,864.9,633L864.9,633
	L864.9,633z"/>
<path class="st2" d="M866.7,638.1L866.7,638.1c-0.8,2.3-3.2,3.5-5.5,2.8l-25.4-8.5c-2.3-0.8-3.5-3.2-2.8-5.5l0,0
	c0.8-2.3,3.2-3.5,5.5-2.8l25.4,8.5C866.2,633.4,867.5,635.9,866.7,638.1z"/>
<path class="st10" d="M832.4,628L832.4,628c3-1.9,7-1,8.9,2l29.6,46.3c1.9,3,1,7-2,8.9l0,0c-3,1.9-7,1-8.9-2l-29.6-46.3
	C828.5,633.8,829.4,629.9,832.4,628z"/>
<ellipse transform="matrix(0.8427 -0.5383 0.5383 0.8427 -195.3815 533.4057)" cx="815.2" cy="601.1" rx="32.8" ry="37.4"/>
<path class="st2" d="M877.9,665L877.9,665c0.5,2.3-1.1,4.6-3.4,5.1l-31.1,6.1c-2.3,0.5-4.6-1.1-5.1-3.4l0,0
	c-0.5-2.3,1.1-4.6,3.4-5.1l31.1-6.1C875.1,661.1,877.4,662.6,877.9,665z"/>
<path class="st2" d="M872.4,657.3L872.4,657.3c0.5,2.3-1.1,4.6-3.4,5.1l-31.1,6.1c-2.3,0.5-4.6-1.1-5.1-3.4l0,0
	c-0.5-2.3,1.1-4.6,3.4-5.1l31.1-6.1C869.7,653.5,872,655,872.4,657.3z"/>
<path class="st2" d="M870.8,648.8L870.8,648.8c0.5,2.3-1.1,4.6-3.4,5.1l-31.1,6.1c-2.3,0.5-4.6-1.1-5.1-3.4l0,0
	c-0.5-2.3,1.1-4.6,3.4-5.1l31.1-6.1C868,645,870.3,646.5,870.8,648.8z"/>
<path class="st2" d="M869.1,640.3L869.1,640.3c0.5,2.3-1.1,4.6-3.4,5.1l-31.1,6.1c-2.3,0.5-4.6-1.1-5.1-3.4l0,0
	c-0.5-2.3,1.1-4.6,3.4-5.1l31.1-6.1C866.3,636.4,868.6,638,869.1,640.3z"/>
<path class="st6" d="M1006.4,591.2l43.5,47.3c0,0-57.6,52.7-72.4,64c-14.8,11.3-26.5,5.1-26.5,5.1l-81.8-30.7l11.4-30.5l62.5,23.4
	c4.6,1.7,8,0.6,10.4-1.5C957.5,664.9,1006.4,591.2,1006.4,591.2L1006.4,591.2L1006.4,591.2z"/>
<polygon class="st6" points="723.8,675.9 715,735.8 665.9,448.3 674.7,398.6 "/>
<path class="st10" d="M523.1,656.6L523.1,656.6c3.5,1,5.5,4.7,4.5,8.1l-15.7,53.8c-1,3.5-4.7,5.5-8.1,4.5l0,0
	c-3.5-1-5.5-4.7-4.5-8.1l15.7-53.8C516,657.6,519.6,655.6,523.1,656.6z"/>
<ellipse transform="matrix(0.2808 -0.9598 0.9598 0.2808 -216.8295 963.5307)" cx="534.5" cy="626.4" rx="38.1" ry="33.4"/>
<path class="st2" d="M517.8,715.1L517.8,715.1c-0.9,2.4-3.6,3.6-6,2.7l-31.8-12.2c-2.4-0.9-3.6-3.6-2.7-6l0,0c0.9-2.4,3.6-3.6,6-2.7
	l31.8,12.2C517.6,710,518.8,712.7,517.8,715.1z"/>
<path class="st2" d="M525,708L525,708c-0.9,2.4-3.6,3.6-6,2.7l-31.8-12.2c-2.4-0.9-3.6-3.6-2.7-6l0,0c0.9-2.4,3.6-3.6,6-2.7
	l31.7,12.2C524.7,702.9,525.9,705.6,525,708L525,708L525,708z"/>
<path class="st2" d="M528.4,699.3L528.4,699.3c-0.9,2.4-3.6,3.6-6,2.7l-31.8-12.2c-2.4-0.9-3.6-3.6-2.7-6l0,0c0.9-2.4,3.6-3.6,6-2.7
	l31.7,12.2C528.1,694.2,529.3,696.9,528.4,699.3L528.4,699.3L528.4,699.3z"/>
<path class="st2" d="M531.7,690.6L531.7,690.6c-0.9,2.4-3.6,3.6-6,2.7l-31.8-12.2c-2.4-0.9-3.6-3.6-2.7-6l0,0c0.9-2.4,3.6-3.6,6-2.7
	l31.8,12.2C531.4,685.5,532.6,688.2,531.7,690.6z"/>
<path class="st4" d="M333.3,579.2l-53.8,4.2c0,0,67.9,100.4,79.4,104.2c7.9,2.5,16.1,4,24.4,4.7l97.8,10.7l5.4-29
	c0,0-81.8-10.2-72.9-9.8s-26.6-2-36.1-7.4S333.3,579.2,333.3,579.2L333.3,579.2L333.3,579.2z"/>
<polygon class="st2" points="153.5,973.5 124.3,990.4 133.7,1002.6 166.3,994.3 "/>
<polygon class="st9" points="121.6,986.9 98.6,1000.4 127.3,1052.2 133.2,1049 123,1012.3 136.4,1006.1 "/>
<polygon class="st2" points="355.7,974.1 351.8,1007.6 367.2,1007.4 380,976.3 "/>
<path class="st10" d="M272.9,762.2c34.3,9.2,80.9,27.1,93.2,58.6c20.1,51.5-19.1,169.3-19.1,169.3l33.8,9.9c0,0,53-151,37.5-192.5
	S300.9,674.5,300.9,674.5l-48.7,58C252.3,732.6,269.1,761.2,272.9,762.2L272.9,762.2L272.9,762.2z"/>
<path class="st10" d="M236.8,763c18.5,29.3,37.6,69.5,26.9,98.9c-18.9,52-126.2,114.5-126.2,114.5l18.8,29.8
	c0,0,139.6-78.3,155.4-119.7c15.8-41.4-0.2-177.5-0.2-177.5L239.7,720C239.7,720,222.7,740.6,236.8,763L236.8,763L236.8,763z"/>
<polygon class="st9" points="347.3,1007.6 344.4,1034.2 403,1042.2 404,1035.5 368.5,1021.7 371.6,1007.3 "/>
<path class="st4" d="M287.7,528.1l26.4-1.2c0,0,27-1.3,28.5,16.5c1.5,17.8,13.6,176.1,13.6,176.1l-139.4,2l4.4-164.3
	c0,0,11.2-26.4,23.6-27L287.7,528.1L287.7,528.1L287.7,528.1z"/>
<circle cx="786.7" cy="382.7" r="23.2"/>
<rect x="429.2" y="731.7" class="st1" width="18.3" height="181.8"/>
<rect x="948.3" y="731.7" class="st1" width="18.3" height="58.9"/>
<path class="st2" d="M191.7,361.4L191.7,361.4c-2.6,0.1-4.8-1.8-4.9-4.4l-1.9-34c-0.1-2.6,1.8-4.8,4.4-4.9l0,0
	c2.6-0.1,4.8,1.8,4.9,4.4l1.9,34C196.2,359,194.3,361.2,191.7,361.4z"/>
<path class="st2" d="M200.6,351.9L200.6,351.9c-2.6,0.1-4.8-1.8-4.9-4.4l-1.9-34c-0.1-2.6,1.8-4.8,4.4-4.9l0,0
	c2.6-0.1,4.8,1.8,4.9,4.4l1.9,34C205.2,349.6,203.2,351.8,200.6,351.9z"/>
<path class="st2" d="M209.9,351.4L209.9,351.4c-2.6,0.1-4.8-1.8-4.9-4.4l-1.9-34c-0.1-2.6,1.8-4.8,4.4-4.9l0,0
	c2.6-0.1,4.8,1.8,4.9,4.4l1.9,34C214.5,349.1,212.5,351.3,209.9,351.4z"/>
<path class="st2" d="M219.2,350.9L219.2,350.9c-2.6,0.1-4.8-1.8-4.9-4.4l-1.9-34c-0.1-2.6,1.8-4.8,4.4-4.9l0,0
	c2.6-0.1,4.8,1.8,4.9,4.4l1.9,34C223.8,348.6,221.8,350.8,219.2,350.9z"/>
</svg>
