<svg xmlns="http://www.w3.org/2000/svg" viewBox="0 0 1297.76 1150.23"><defs><style>.cls-1{fill:#ffd87d;}.cls-2{fill:#073a49;}.cls-3{fill:#fdedee;}.cls-4{fill:#021318;}.cls-5{fill:none;stroke:#16164c;stroke-miterlimit:10;}.cls-6{fill:#ef4658;}.cls-7{fill:#ccad64;}.cls-8{fill:#b39758;}.cls-9{fill:#ffe4a4;}.cls-10{fill:#0c617a;}.cls-11{fill:#f0b9ad;}.cls-12{fill:#5f8d54;}.cls-13{fill:#a166aa;}.cls-14{fill:#16164c;}</style></defs><g id="Layer_2" data-name="Layer 2"><g id="Layer_1-2" data-name="Layer 1"><path class="cls-1" d="M829.59,8.05C748.23-.67,663.07-8.94,587,21.27S448.79,133.53,470,212.56c10.1,37.69,36.8,68.42,54.33,103.28s24,81.57-3.29,109.52C503.85,443,478,448.26,453.72,452.65L208,497.3c-71.61,13-152.3,32.19-188,95.6C2.69,623.62-.78,660.23.13,695.49c6.22,241.56,228.7,456.66,470.33,454.73,33.16-.27,68.86-5.2,93-27.91,39.16-36.8,30.7-100.78,52-150.13C648.22,896.12,744.66,870,827.27,875.93s164,34,246.46,26.43c84.76-7.75,167-57.48,204.11-134.05s22-178-42.51-233.53c-39.27-33.77-91-48.43-136.45-73.34s-88.32-68.55-84.43-120.21c3.46-46.26,42.87-81.71,56.36-126.09,19.24-63.34-19.72-132.73-74.75-169.51S874.52,12.88,829.58,8.06"/><rect class="cls-2" x="378.46" y="731.73" width="18.28" height="58.91"/><path class="cls-3" d="M947.31,141c41.77,11.51,24,56.88,24.19,60.14s-18.3,36.78-20,44.46.36,23.76.36,23.76l-45.23,2.76.61-7.61s.51-8.68-1-15.08-7.92-6.05-21.31-12.75-15.49-23.89-14.53-42.33a43.39,43.39,0,0,1,13.41-28.92S905.52,129.46,947.3,141Z"/><path class="cls-3" d="M872.12,202.87l-6.29.38s-3.77.22-4-3.54,3.54-4,3.54-4l6.29-.38Z"/><circle cx="885.27" cy="190.42" r="2.7"/><path class="cls-4" d="M867.77,208.55s2.41-4.57,6.78-4.28,1.87,7.41,8,8.53,4.25-2.5,4.25-2.5,2.87,6.09-2.5,6.55S867.11,218.05,867.77,208.55Z"/><path class="cls-4" d="M887.57,155.92l36.68,2.25,4.25,46.08h5.83v-8.93s-1.46-6.95,5.92-7.62,8.25,10.21,8.25,10.21,2.5,14.79-2,14.65l-4.5-.15s-.5,22.37,4.25,25.75,10.87,8.88,14.5,1.75-3.75-1.25-3.75-1.25l-1.75-3.5s32.5-37.12,30.5-58.25-19.87-45.13-45.5-44.5-38.36-1.87-52.68,23.5Z"/><path class="cls-5" d="M874.5,191.17c-.42-6.78,5.54-12.56,12.25-12.5,6.23.06,12,5.14,12,11.75s-5.74,11.67-12,11.75S874.88,197.43,874.5,191.17Z"/><path class="cls-5" d="M896.52,184l47.15-1.16s7.22-1.24,7.42,8"/><path class="cls-5" d="M874.5,191.17a3.34,3.34,0,0,0-4.25,0"/><rect class="cls-3" x="773.5" y="116.56" width="8.66" height="64.4" rx="4.22" transform="translate(6.55 328.43) rotate(-23.94)"/><rect class="cls-3" x="776.3" y="104.96" width="8.66" height="64.4" rx="4.22" transform="translate(11.5 328.56) rotate(-23.94)"/><rect class="cls-3" x="780.49" y="95.25" width="8.66" height="64.4" rx="4.22" transform="translate(15.8 329.43) rotate(-23.94)"/><rect class="cls-3" x="789.66" y="95.45" width="8.66" height="64.4" rx="4.22" transform="translate(16.51 333.16) rotate(-23.94)"/><path class="cls-3" d="M788.18,156.5,790,166.76l15,5.87s11.41-15,11.61-20.26S788.18,156.5,788.18,156.5Z"/><path class="cls-6" d="M819.46,263c-3.51-3.45-4-10.21-4-10.21l-8-87.54-24.6,3.57s3.61,78.18,7.5,101.17c1.55,13.06,3.94,19.31,7.33,21.74s99.46,41.23,99.46,41.23l15.18-46.11S825.69,266,819.45,262.93Z"/><path class="cls-6" d="M1001.94,380.76c2.06,10-5.92,42-3.78,34.05s-12,67.29-12,67.29l27.15,3.47L1031.61,396a105.78,105.78,0,0,0,2.85-23c-.12-11.16-69.67-99.82-69.67-99.82l-19,46.38s54.12,51.17,56.18,61.13Z"/><rect class="cls-3" x="796.14" y="134.65" width="35.35" height="8.66" rx="4.22" transform="translate(596.08 935.35) rotate(-84.4)"/><path class="cls-6" d="M956.59,270.15C968.13,270.7,978.2,302,978.2,302l-1.85,205.43-120.51-50S875.51,298.37,877,287s15.16-19.85,15.16-19.85l24.51,1.15,39.89,1.87Z"/><path class="cls-7" d="M476.48,210.26c-14.89,5.62-22.33,5.76-22.54,8.42-.26,3.58,12.89,7.63,21.57,9.37,11.11,2.26,24.78,5,39.37-1.87,4.49-2.12,18.43-8.7,22.5-23.43.68-2.38,4.22-15.16-3.72-24.39-8.51-9.85-25.68-10.42-31.88-3.72-5.76,6.28,1.7,15.06-4.69,24.37-3.25,4.7-9,6.88-20.62,11.25Z"/><path class="cls-3" d="M480.94,202.85c-36.16,10.49-20.17,49.74-20.31,52.54s16.3,31.75,17.9,38.39,0,20.64,0,20.64l39.33,1.86-.63-6.6a54.82,54.82,0,0,1,.62-13.11c1.2-5.58,6.82-5.31,18.37-11.34s13.19-21,12.07-37a37.8,37.8,0,0,0-12-25s-19.24-30.89-55.4-20.39Z"/><path class="cls-3" d="M544.1,251.94l5.38-1a3.29,3.29,0,0,0-1.25-6.45l-5.37,1,1.23,6.45Z"/><circle cx="533.89" cy="241.31" r="2.34"/><path class="cls-3" d="M399.87,121.36l2.72,49.55a4.21,4.21,0,0,1-4,4.44h0a4.21,4.21,0,0,1-4.44-4l-2.72-49.55a4.21,4.21,0,0,1,4-4.44h0A4.21,4.21,0,0,1,399.87,121.36Z"/><path class="cls-3" d="M407.85,115.31l2.72,49.55a4.21,4.21,0,0,1-4,4.44h0a4.21,4.21,0,0,1-4.44-4l-2.72-49.55a4.21,4.21,0,0,1,4-4.44h0A4.21,4.21,0,0,1,407.85,115.31Z"/><path class="cls-3" d="M416.28,114.85,419,164.4a4.21,4.21,0,0,1-4,4.44h0a4.21,4.21,0,0,1-4.44-4l-2.72-49.55a4.21,4.21,0,0,1,4-4.44h0A4.21,4.21,0,0,1,416.28,114.85Z"/><path class="cls-3" d="M424.7,114.39l2.72,49.55a4.21,4.21,0,0,1-4,4.44h0a4.21,4.21,0,0,1-4.44-4l-2.72-49.55a4.21,4.21,0,0,1,4-4.44h0A4.21,4.21,0,0,1,424.7,114.39Z"/><path class="cls-3" d="M395.06,157.48l-1.24,10.26,16.35,12.54s18.89-8.27,20.91-13-36-9.79-36-9.79Z"/><path class="cls-8" d="M393.18,268.1c-2-4.35-.06-10.68-.06-10.68l23-82.45-23.64-5.26s-23.77,72.43-28.17,94.76c-3.09,12.4-3.09,19-.84,22.33s76.32,71.94,76.32,71.94L469.52,322s-71.8-48.92-76.34-53.9Z"/><path class="cls-3" d="M584.43,150.3,587.35,97a4.22,4.22,0,0,1,4.44-4h0a4.22,4.22,0,0,1,4,4.44l-2.92,53.28a4.22,4.22,0,0,1-4.44,4h0A4.22,4.22,0,0,1,584.43,150.3Z"/><path class="cls-3" d="M576.45,143.9l2.92-53.28a4.22,4.22,0,0,1,4.44-4h0a4.22,4.22,0,0,1,4,4.44l-2.92,53.28a4.22,4.22,0,0,1-4.44,4h0a4.22,4.22,0,0,1-4-4.44Z"/><path class="cls-3" d="M568,143.44,571,90.16a4.22,4.22,0,0,1,4.44-4h0a4.22,4.22,0,0,1,4,4.44l-2.92,53.28a4.22,4.22,0,0,1-4.44,4h0a4.22,4.22,0,0,1-4-4.44Z"/><path class="cls-3" d="M559.6,143l2.92-53.28a4.22,4.22,0,0,1,4.44-4h0a4.22,4.22,0,0,1,4,4.44L568,143.43a4.22,4.22,0,0,1-4.44,4h0a4.22,4.22,0,0,1-4-4.44Z"/><path class="cls-3" d="M591.94,136.86l1.24,10.25-16.41,12.55s-18.89-8.29-20.9-13,36.07-9.77,36.07-9.77Z"/><path class="cls-8" d="M581.65,254c2-9.71-5.79-40.93-3.72-33.18s-11.71-65.57-11.71-65.57l26.45-3.35,17.86,87.25a103,103,0,0,1,2.73,22.33c-.11,10.88-67.89,97.27-67.89,97.27l-18.54-45.18s52.85-49.86,54.83-59.58Z"/><path class="cls-3" d="M555.44,145.87l-11.57-23.3a4.21,4.21,0,0,1,1.9-5.65h0a4.21,4.21,0,0,1,5.65,1.9L563,142.12a4.21,4.21,0,0,1-1.9,5.65h0A4.21,4.21,0,0,1,555.44,145.87Z"/><path class="cls-3" d="M443.14,143.21l-11.57,23.3a4.21,4.21,0,0,1-5.65,1.9h0a4.21,4.21,0,0,1-1.9-5.65l11.57-23.3a4.21,4.21,0,0,1,5.65-1.9h0A4.21,4.21,0,0,1,443.14,143.21Z"/><path class="cls-8" d="M466.25,313.36c-11.24.53-21.37,24.47-21.37,24.47l-.27,156.29,117.84-39.3S544.92,334,543.55,325.33,529,310.38,529,310.38l-23.88,1.13-38.84,1.84Z"/><path class="cls-9" d="M494.29,205.53c-14.92,5.62-22.32,5.78-22.5,8.45-.27,3.6,12.88,7.63,21.56,9.37,11.11,2.26,24.78,5,39.37-1.87,4.5-2.12,18.43-8.7,22.5-23.43.69-2.38,4.22-15.16-3.72-24.37-8.51-9.85-25.68-10.42-31.88-3.72-5.76,6.28,1.7,15.06-4.69,24.37-3.24,4.7-9,6.88-20.64,11.21Z"/><path class="cls-9" d="M504.54,261.8c-.67.35-5.69,2.7-7.44.94-.94-1-.27-2.49,0-5.63.15-1.62.61-7.58-1.87-12.18-1.3-2.48-4.56-6.25-7.5-5.63-3.44.73-4.47,7.08-4.68,8.45a21.62,21.62,0,0,0,.93,10.31c3.19,9.41,6.7,30.42.94,34.73-5,3.77-18.38-4.29-26.26-12.19-12.8-12.85-15-29.13-15.94-36.57-1.54-11.72-3.41-25.83,5.63-38.45,9.85-13.76,25.85-16.22,30-16.87,7.34-1.13,18.61-2.88,27.19,4.69,9,7.91,8.53,20.38,8.43,22.5.37,10.85.74,41.18-9.44,45.91Z"/><path class="cls-9" d="M438.13,245.86c-3.75,13.05,1.45,25,2.8,28.13,4.4,10.12,9.44,11.08,15.94,19.69,9.33,12.35,17.6,35,8.43,51.56-7.75,14-28,23.56-38.45,16.88-5.33-3.39-9.51-12-7.5-18.76,2.31-7.75,11.51-8.79,11.25-14.07-.22-4.5-7.21-9.15-13.12-8.43-2.34.29-5.21,1.49-11.25,9.38-9.55,12.45-8,16.68-13.12,20.63-8.76,6.71-24,2.59-32.82-2.82-2-1.24-18.3-11.18-16.87-26.25.47-5.09,3.16-12.78,9.37-15.94,7.29-3.71,12.83,2.17,22.5-1.87,4.42-1.85,9.76-5.67,9.38-9.38s-6.59-3.26-10.31-8.43c-4.49-6.28-3.44-18.26,3.72-24.39,4.89-4.14,11.81-4.9,16.88-3.72,6.56,1.53,9.07,6,12.18,4.69s3.92-6.93,3.72-10.31c-.24-4-1.87-5.42-2.82-8.45-2.12-6.7.71-16.08,6.56-20.63,9.86-7.65,27.82-1.2,30,6.57,1.28,4.59-3.83,6.43-6.47,15.9Z"/><path class="cls-6" d="M439.68,247c2.88,1.53,7.14,1.48,9.63-.69,3.27-2.89,2.18-8.42.66-16.13-1.76-8.71-3.09-15.41-7.44-16.45-3.72-.89-8.46,2.64-10.2,6.67-.31.78-1.13,2.85.93,11.71,2,8.68,3.11,13.11,6.43,14.89Z"/><rect class="cls-2" x="999.07" y="731.73" width="18.28" height="181.82"/><polygon class="cls-2" points="1049.86 735.79 353.61 735.79 321.57 447.32 995.4 447.32 1049.86 735.79"/><polygon class="cls-3" points="1224.77 991.67 1255.08 1004.96 1247.2 1017.94 1214.5 1013.31 1224.77 991.67"/><polygon class="cls-6" points="1257.32 1001.26 1281.25 1011.99 1258.84 1065.6 1252.72 1063.14 1258.68 1026.18 1244.94 1021.65 1257.32 1001.26"/><polygon class="cls-3" points="1027.45 1014.09 1034.94 1046.33 1019.83 1047.79 1003.97 1018.82 1027.45 1014.09"/><path class="cls-10" d="M1079.35,798.33c-32.48,12.67-76,35.22-84.62,67.31-14,52.43,36.87,163.21,36.87,163.21l-31.89,13.34s-68.09-141.59-57.43-183.8,100.23-142.51,100.23-142.51l53.76,51.35s-13.33,29.71-16.92,31.11Z"/><path class="cls-10" d="M1120.67,795.18c-14.91,30.56-29.17,71.86-15.52,99.46,24.07,48.68,135.55,98.12,135.55,98.12l-15.12,31.1s-144.72-61.29-164.58-100-19-173.18-19-173.18l71.18,2.88s18.84,18.28,7.47,41.6Z"/><polygon class="cls-6" points="1039.26 1045.92 1044.99 1071.5 988.64 1085.64 986.93 1079.28 1020.11 1061.91 1015.51 1048.2 1039.26 1045.92"/><path class="cls-3" d="M322.18,430.61a41.66,41.66,0,0,1,13.22,27.58c1.19,17.69-.58,34.18-13.34,40.84s-19,6.35-20.26,12.51a61,61,0,0,0-.68,14.48l.69,7.29-43.44-2.06s1.76-15.49,0-22.8-19.91-39.33-19.77-42.4S221.11,419.57,261,408s61.14,22.58,61.14,22.58Z"/><path class="cls-3" d="M334.31,459.17l6,.29a3.62,3.62,0,0,1-.35,7.23l-6-.29Z"/><path class="cls-11" d="M236.21,460.7l67.7-49.81a35.52,35.52,0,0,0-7.26-5.77c-8.68-5.35-24.54-10.65-44.42,2.72-30.58,20.55-16,52.86-16,52.86Z"/><path class="cls-11" d="M285.75,424l36.43-26.74s6.76-3.58,1.85-6.78-22.8,7-22.8,7l-35.55,21L285.75,424Z"/><path class="cls-4" d="M272.45,433.91s37.78,16.78,54.91-.27,7.15-27.74,7.15-27.74-.48,14.49-8.76,14.22-10.07-8.62-10.07-8.62,2.3-7.15-10.25-3.44-33,25.86-33,25.86Z"/><path class="cls-4" d="M263,441s-1,12.74,8,18.35,14.68-3.46,14.68-3.46,1.68,8.34-2.61,11.29-12.66,4.59-16.54-.79-2-2.16-4.84-7.48c-1.92-3.19-2.85-5.32-7.15-2.38-5.32,2.86-4.33,3.94-3.4,6.05s5.82,8.57,6.71,11.73c1.82,5.27,8.22,23.19-4.37,26.74s-17.49-2.9-17.49-2.9,10.3,1.53,10.73-7.79S228.12,467.7,235.7,460.8,263,441,263,441Z"/><circle cx="316.38" cy="454.69" r="2.59"/><path class="cls-3" d="M193.76,383.24h0a4.66,4.66,0,0,1-4.89-4.43l-1.7-34a4.66,4.66,0,0,1,4.43-4.89h0a4.66,4.66,0,0,1,4.89,4.43l1.7,34A4.66,4.66,0,0,1,193.76,383.24Z"/><path class="cls-3" d="M201.82,379.33h0a4.66,4.66,0,0,1-4.91-4.4L195.05,341a4.66,4.66,0,0,1,4.4-4.91h0a4.66,4.66,0,0,1,4.91,4.4l1.86,33.95A4.66,4.66,0,0,1,201.82,379.33Z"/><path class="cls-3" d="M211.12,378.81h0a4.66,4.66,0,0,1-4.91-4.4l-1.86-34a4.66,4.66,0,0,1,4.4-4.91h0a4.66,4.66,0,0,1,4.91,4.4l1.86,33.95A4.66,4.66,0,0,1,211.12,378.81Z"/><path class="cls-3" d="M220.42,378.31h0a4.66,4.66,0,0,1-4.91-4.4l-1.86-34a4.66,4.66,0,0,1,4.4-4.91h0a4.66,4.66,0,0,1,4.91,4.4l1.86,33.95A4.66,4.66,0,0,1,220.42,378.31Z"/><path class="cls-3" d="M228.73,375c-2.22,5.24-23.1,14.38-23.1,14.38l-18-13.86,1.36-11.32s42,5.55,39.79,10.8Z"/><path class="cls-6" d="M271.18,545.85l-32.89,40.59S156.47,510.69,154,507s-2.48-11,.94-24.68c4.86-24.61,31.12-104.63,31.12-104.63l26.11,5.8-25.4,91.08s-2.13,7,.07,11.79c5.06,5.54,84.35,59.54,84.35,59.54Z"/><path class="cls-3" d="M496.94,668.2c-5.67.52-20.75,17.6-20.75,17.6l7.66,21.45,11.2,2.17s7.51-41.73,1.88-41.22Z"/><path class="cls-3" d="M531.18,668.28h0a4.66,4.66,0,0,1-3.91,5.31l-28.43,4.31a4.66,4.66,0,0,1-5.31-3.91h0a4.66,4.66,0,0,1,3.91-5.31l28.43-4.31a4.66,4.66,0,0,1,5.31,3.91Z"/><path class="cls-3" d="M223,376.18h0a4.65,4.65,0,0,1-2.1-6.25l12.77-25.73a4.65,4.65,0,0,1,6.25-2.1h0a4.65,4.65,0,0,1,2.1,6.25l-12.77,25.73A4.65,4.65,0,0,1,223,376.18Z"/><path class="cls-3" d="M981.7,501.77a38.86,38.86,0,0,0-9,27c.89,16.49,4.46,31.52,17,36.2s18.27,3.7,20.2,9.24a56.23,56.23,0,0,1,2.34,13.3l.2,6.82,39.91-6.9s-3.42-14-2.66-21.06,13.88-38.61,13.39-41.47,10.84-44.93-27.42-51-53.94,27.9-53.94,27.9Z"/><path class="cls-3" d="M973.78,529.58l-5.55,1a3.38,3.38,0,1,0,1.17,6.65l5.55-1-1.17-6.65Z"/><circle cx="989.83" cy="523.37" r="2.41"/><path class="cls-12" d="M1029.6,768.28c8.83,11,58.71,13.6,78,10.68,14.17-2.14,36.65-5.53,39.11-16.45,2.21-9.83-14.39-14.31-26.49-33.1-17.87-27.71-2.22-49.75-12.87-90.22-9.36-36-17.36-48.3-28.08-53.5-4.21-2.06-7.69-2.55-14.63-3.51-14.65-2.11-40-4.91-55.18,5.05S994,668.07,994,668.07l18-1.39s2.41,39,3.81,59.21c1,15.64,2,22.55,4.39,28.08a40.27,40.27,0,0,0,9.45,14.3Z"/><path class="cls-4" d="M1038,465.71c-28-7.15-49.8,12.44-56,18S970.55,494,971.09,499.66c1.68,17.55,55.77,27.71,61.12,17.94,1.53-2.8-.44-8.19,3.29-11.3a6.45,6.45,0,0,1,4.56-1.56c3.3.36,5.23,4,5.85,5.15,4.49,8.52-3.79,22.69-6.86,27.8-9.55,16-15.57,15.21-18.15,24.51-3,10.82,1.7,24.36,10.87,32,16,13.26,43.91,7,50.58-7,5.53-11.58-3.78-28-5.37-30.77-5.58-9.84-10.06-9.64-11.7-16.38-3-12.65,11.33-19,12.31-32.76,1.22-16.84-18.51-36.1-39.61-41.5Z"/><path class="cls-3" d="M864.88,633c5.13,1.37,16.26,19.44,16.26,19.44L870.7,671l-10.62.22s-.26-39.49,4.8-38.13Z"/><path class="cls-3" d="M866.73,638.15h0a4.35,4.35,0,0,1-5.49,2.75l-25.38-8.45a4.35,4.35,0,0,1-2.75-5.49h0a4.35,4.35,0,0,1,5.49-2.75L864,632.66A4.35,4.35,0,0,1,866.73,638.15Z"/><path class="cls-13" d="M832.41,628h0a6.44,6.44,0,0,1,8.89,2l29.6,46.34a6.44,6.44,0,0,1-2,8.89h0a6.44,6.44,0,0,1-8.89-2l-29.6-46.34A6.44,6.44,0,0,1,832.41,628Z"/><ellipse class="cls-6" cx="815.25" cy="601.1" rx="32.76" ry="37.44" transform="translate(-195.38 533.41) rotate(-32.57)"/><path class="cls-3" d="M877.89,665h0a4.35,4.35,0,0,1-3.42,5.1l-31.08,6.12a4.35,4.35,0,0,1-5.1-3.42h0a4.35,4.35,0,0,1,3.42-5.1l31.08-6.12A4.35,4.35,0,0,1,877.89,665Z"/><path class="cls-3" d="M872.42,657.34h0a4.35,4.35,0,0,1-3.42,5.1l-31.08,6.12a4.35,4.35,0,0,1-5.1-3.42h0a4.35,4.35,0,0,1,3.42-5.1l31.08-6.12A4.35,4.35,0,0,1,872.42,657.34Z"/><path class="cls-3" d="M870.76,648.84h0a4.35,4.35,0,0,1-3.42,5.1l-31.08,6.12a4.35,4.35,0,0,1-5.1-3.42h0a4.35,4.35,0,0,1,3.42-5.1l31.08-6.12A4.35,4.35,0,0,1,870.76,648.84Z"/><path class="cls-3" d="M869.08,640.31h0a4.35,4.35,0,0,1-3.42,5.1l-31.08,6.12a4.35,4.35,0,0,1-5.1-3.42h0a4.35,4.35,0,0,1,3.42-5.1L864,636.89A4.35,4.35,0,0,1,869.08,640.31Z"/><path class="cls-12" d="M1006.42,591.16l43.52,47.3s-57.58,52.66-72.41,64S951,707.52,951,707.52l-81.8-30.67,11.43-30.48,62.49,23.4c4.62,1.74,8,.62,10.36-1.46,4-3.44,53-77.15,53-77.15Z"/><polygon class="cls-3" points="723.81 675.86 715.04 735.79 665.91 448.34 674.74 398.57 723.81 675.86"/><path class="cls-13" d="M523.07,656.62h0a6.56,6.56,0,0,1,4.45,8.13L511.79,718.5a6.56,6.56,0,0,1-8.13,4.45h0a6.56,6.56,0,0,1-4.45-8.13l15.73-53.75A6.56,6.56,0,0,1,523.07,656.62Z"/><ellipse class="cls-6" cx="534.52" cy="626.45" rx="38.14" ry="33.37" transform="translate(-216.83 963.53) rotate(-73.69)"/><path class="cls-3" d="M517.84,715.13h0a4.66,4.66,0,0,1-6,2.69l-31.75-12.15a4.66,4.66,0,0,1-2.69-6h0a4.66,4.66,0,0,1,6-2.69l31.75,12.15A4.66,4.66,0,0,1,517.84,715.13Z"/><path class="cls-3" d="M525,708.05h0a4.66,4.66,0,0,1-6,2.69l-31.75-12.15a4.66,4.66,0,0,1-2.69-6h0a4.66,4.66,0,0,1,6-2.69L522.34,702a4.66,4.66,0,0,1,2.69,6Z"/><path class="cls-3" d="M528.37,699.35h0a4.66,4.66,0,0,1-6,2.69L490.6,689.89a4.66,4.66,0,0,1-2.69-6h0a4.66,4.66,0,0,1,6-2.69l31.75,12.15a4.66,4.66,0,0,1,2.69,6Z"/><path class="cls-3" d="M531.69,690.64h0a4.66,4.66,0,0,1-6,2.69l-31.75-12.15a4.66,4.66,0,0,1-2.69-6h0a4.66,4.66,0,0,1,6-2.69L529,684.62A4.66,4.66,0,0,1,531.69,690.64Z"/><path class="cls-6" d="M333.34,579.22l-53.78,4.24s67.93,100.43,79.38,104.23a114.33,114.33,0,0,0,24.37,4.74l97.78,10.73,5.37-29s-81.75-10.25-72.91-9.82-26.59-2-36.12-7.39-44.09-77.77-44.09-77.77Z"/><polygon class="cls-3" points="153.47 973.53 124.28 990.4 133.71 1002.65 166.29 994.28 153.47 973.53"/><polygon class="cls-14" points="121.59 986.89 98.57 1000.43 127.26 1052.19 133.19 1049.03 123.01 1012.28 136.4 1006.14 121.59 986.89"/><polygon class="cls-3" points="355.72 974.12 351.75 1007.58 367.2 1007.37 380.02 976.26 355.72 974.12"/><path class="cls-10" d="M272.91,762.19c34.3,9.19,80.87,27.14,93.2,58.64C386.26,872.32,347,990.17,347,990.17l33.77,9.94s53-151,37.53-192.5-117.4-133.07-117.4-133.07l-48.66,58s16.82,28.59,20.62,29.6Z"/><path class="cls-10" d="M236.81,763c18.52,29.27,37.59,69.47,26.86,98.91-18.91,52-126.22,114.51-126.22,114.51l18.79,29.79s139.62-78.26,155.38-119.65-.2-177.45-.2-177.45L239.7,720s-17,20.66-2.9,43Z"/><polygon class="cls-14" points="347.33 1007.65 344.39 1034.19 403.03 1042.19 404.04 1035.55 368.51 1021.7 371.61 1007.31 347.33 1007.65"/><path class="cls-6" d="M287.68,528.11l26.37-1.25s27-1.32,28.52,16.52S356.2,719.5,356.2,719.5l-139.43,2,4.45-164.31s11.19-26.44,23.6-27l42.87-2Z"/><circle class="cls-2" cx="786.7" cy="382.68" r="23.24"/><rect class="cls-2" x="429.24" y="731.73" width="18.28" height="181.82"/><rect class="cls-2" x="948.28" y="731.73" width="18.28" height="58.91"/><path class="cls-3" d="M191.69,361.36h0a4.66,4.66,0,0,1-4.91-4.4L184.92,323a4.66,4.66,0,0,1,4.4-4.91h0a4.66,4.66,0,0,1,4.91,4.4l1.86,33.95A4.66,4.66,0,0,1,191.69,361.36Z"/><path class="cls-3" d="M200.62,351.92h0a4.66,4.66,0,0,1-4.91-4.4l-1.86-33.95a4.66,4.66,0,0,1,4.4-4.91h0a4.66,4.66,0,0,1,4.91,4.4L205,347A4.66,4.66,0,0,1,200.62,351.92Z"/><path class="cls-3" d="M209.92,351.4h0A4.66,4.66,0,0,1,205,347l-1.86-33.95a4.66,4.66,0,0,1,4.4-4.91h0a4.66,4.66,0,0,1,4.91,4.4l1.86,33.95A4.66,4.66,0,0,1,209.92,351.4Z"/><path class="cls-3" d="M219.23,350.9h0a4.66,4.66,0,0,1-4.91-4.4l-1.86-33.95a4.66,4.66,0,0,1,4.4-4.91h0a4.66,4.66,0,0,1,4.91,4.4L223.63,346A4.66,4.66,0,0,1,219.23,350.9Z"/></g></g></svg>