<?xml version="1.0" encoding="utf-8"?>
<!-- Generator: Adobe Illustrator 28.3.0, SVG Export Plug-In . SVG Version: 6.00 Build 0)  -->
<svg version="1.1" id="Layer_2_00000027605285989985113960000010544804342947763331_"
	 xmlns="http://www.w3.org/2000/svg" xmlns:xlink="http://www.w3.org/1999/xlink" x="0px" y="0px" viewBox="0 0 1493.7 1262.9"
	 style="enable-background:new 0 0 1493.7 1262.9;" xml:space="preserve">
<style type="text/css">
	.st0{fill:#C2E585;}
	.st1{fill:#FFF0CC;}
	.st2{fill:#273D01;}
	.st3{fill:#EAF3DE;}
	.st4{fill:#3C5B01;}
	.st5{fill:#001E2D;}
	.st6{fill:#78B51D;}
	.st7{fill:#805B00;}
	.st8{fill:#B37F00;}
	.st9{fill:none;stroke:#FFFFFF;stroke-width:8;stroke-miterlimit:10;}
	.st10{fill:none;}
	.st11{fill:#0097E1;}
</style>
<path class="st0" d="M1324.7,405.6c-0.5-82-24.9-162.7-78.2-225c-88.3-103.1-217.7-172-353.6-180C856-1.6,816.1,1.3,787,24.2
	c-79.4,62.5-38.2,236.8-176.1,221.1c-37.9-4.3-69.1-30.2-85.5-64.6C467.8,60,317.5,2.9,193.5,42.7C90.4,75.8,11.4,173.8,1.1,281.6
	c-2.9,30.6-0.6,62.4,12.7,90.1c41.2,86,161.4,95.9,230.1,161.9c112.1,107.6,41.6,295,67.9,448.2c23.4,135.9,137.6,251.3,273.2,276.1
	c135.6,24.8,283.3-42.8,353.2-161.6c12.2-20.7,22.7-43.3,41.3-58.4c37.9-30.5,93.4-19.3,139.8-4.6c109.4,34.5,241,75.8,325-12
	c35.2-36.8,51.1-87.7,49.3-138.6c-4.3-122.7-80.3-215.7-128.5-320.8C1341.4,510.3,1324.9,451.8,1324.7,405.6"/>
<polygon class="st1" points="878.9,1078.9 854.6,1112.3 840.8,1099.3 855.2,1060.6 "/>
<polygon points="860.7,1109 846.5,1138.1 782,1125.4 783.6,1117.3 830.4,1116.3 835.9,1093.9 "/>
<polygon class="st1" points="771.9,1026.8 743.6,1057 731.6,1042.3 750.7,1005.7 "/>
<polygon points="752.2,1054.8 730.5,1081 671.7,1055.5 674.9,1047.9 721,1056 730.5,1034.9 "/>
<path class="st2" d="M1056.5,779.9c0,0-125.9,69.9-152.6,103.2s-133.3,145.7-133.3,145.7l-23.7-19.7c0,0,97.7-140.1,141.8-196.2
	c44.2-56.1,143.4-147.5,143.4-147.5l76,96.6L1056.5,779.9L1056.5,779.9L1056.5,779.9z"/>
<path class="st2" d="M1143.7,755.9C1103,823.8,1040.8,851,998.1,907c-42.6,56-122.1,176.2-122.1,176.2l-26.5-15.4
	c0,0,70.5-149.5,115.4-213.7c44.9-64.2,93-155.9,93-155.9S1184.4,688,1143.7,755.9L1143.7,755.9L1143.7,755.9z"/>
<path class="st1" d="M1021.2,360c-8.9,8.3-14.3,19.6-15.2,31.7c-1.4,20.3,0.7,39.3,15.3,47c14.7,7.6,21.8,7.3,23.3,14.4
	s0.8,16.7,0.8,16.7l-0.8,8.4l50-2.4c0,0-2-17.8,0-26.2s22.9-45.2,22.7-48.8s20.1-53.4-25.8-66.7C1045.6,320.6,1021.2,360,1021.2,360
	L1021.2,360L1021.2,360z"/>
<path class="st3" d="M1058.8,523.5l-37.8-46.6c0,0-94.1,87.1-97,91.4s-2.8,12.6,1.1,28.4C930.6,625,960.8,717,960.8,717l30-6.7
	l-29.2-104.7c0,0-2.5-8,0.1-13.6C967.6,585.6,1058.8,523.5,1058.8,523.5z"/>
<path class="st3" d="M1060.9,472.1l-30.3-1.4c0,0-16.8,10-18.7,23.5C1010,507.8,986,696.6,986,696.6l149.3,59.8l1.8-244
	c0,0-12.6-37.2-26.8-37.9L1060.9,472.1L1060.9,472.1L1060.9,472.1z"/>
<rect x="1179.2" y="855.2" class="st4" width="23.3" height="231.8"/>
<rect x="452.6" y="855.2" class="st4" width="23.3" height="231.8"/>
<rect x="387.9" y="855.2" class="st4" width="23.3" height="75.1"/>
<rect x="1114.5" y="855.2" class="st4" width="23.3" height="75.1"/>
<polygon class="st4" points="1258.3,860.4 370.5,860.4 329.6,697.2 1188.8,697.2 "/>
<circle class="st5" cx="410.1" cy="235.5" r="17"/>
<path class="st6" d="M849.2,829.9h203c5.1,0,9.2-4.1,9.2-9.2v-92.3c0-5.1-4.1-9.2-9.2-9.2h-203c-5.1,0-9.2,4.1-9.2,9.2l0,0v92.3
	C839.9,825.8,844,829.9,849.2,829.9L849.2,829.9L849.2,829.9z M955.2,806.9H946v-9.2h9.2V806.9z M955.2,788.4H946v-9.2h9.2V788.4z
	 M955.2,769.9H946v-9.2h9.2V769.9z M982.9,806.8h-9.2v-9.2h9.2V806.8z M982.9,788.4h-9.2v-9.2h9.2V788.4z M982.9,769.9h-9.2v-9.2
	h9.2V769.9z M1029.1,742.2h9.2v9.2h-9.2V742.2z M1029.1,760.7h9.2v9.2h-9.2V760.7z M1029.1,779.2h9.2v9.2h-9.2V779.2z M1029.1,797.6
	h9.2v9.2h-9.2V797.6z M1001.4,742.3h9.2v9.2h-9.2V742.3z M1001.4,760.7h9.2v9.2h-9.2V760.7z M1001.4,779.2h9.2v9.2h-9.2V779.2z
	 M1001.4,797.6h9.2v9.2h-9.2V797.6z M918.3,742.3h64.6v9.2h-64.6V742.3z M918.3,760.7h9.2v9.2h-9.2V760.7z M918.3,779.2h9.2v9.2
	h-9.2V779.2z M918.3,797.6h9.2v9.2h-9.2V797.6z M890.6,742.3h9.2v9.2h-9.2V742.3z M890.6,760.7h9.2v9.2h-9.2V760.7z M890.6,779.2
	h9.2v9.2h-9.2V779.2z M890.6,797.7h9.2v9.2h-9.2V797.7z M863,742.3h9.2v9.2H863V742.3z M863,760.7h9.2v9.2H863V760.7z M863,779.2
	h9.2v9.2H863V779.2z M863,797.7h9.2v9.2H863V797.7z"/>
<path class="st7" d="M1071.1,329.2c-8.1-11.8,1.4-23-6-31c-7.8-8.5-29.7-7.8-40.5,4.8c-10.1,11.7-5.6,27.9-4.8,31
	c5.2,18.7,22.9,27.1,28.6,29.8c18.6,8.8,35.9,5.2,50,2.4c11-2.2,27.7-7.3,27.4-11.9c-0.3-3.4-9.6-3.6-28.6-10.7
	C1082.5,337.9,1075.1,335.1,1071.1,329.2L1071.1,329.2L1071.1,329.2z"/>
<path class="st1" d="M1012.9,388.2l-6.8-1.3c-2.3-0.4-4.4,1.1-4.8,3.4c-0.4,2.2,1.1,4.3,3.3,4.8l6.8,1.3L1012.9,388.2L1012.9,388.2
	L1012.9,388.2z"/>
<circle cx="1024.3" cy="382.9" r="3"/>
<path class="st1" d="M1014.5,809.9l35.3-60.1c1.2-2.1,3.9-2.8,6-1.6l1.7,1c2.1,1.2,2.8,3.9,1.6,6l-35.3,60.1c-1.2,2.1-3.9,2.8-6,1.6
	l-1.7-1C1014,814.7,1013.3,812,1014.5,809.9z"/>
<path class="st1" d="M1001.6,811.1l35.3-60.1c1.2-2.1,3.9-2.8,6-1.6l1.7,1c2.1,1.2,2.8,3.9,1.6,6l-35.3,60.1c-1.2,2.1-3.9,2.8-6,1.6
	l-1.7-1C1001.1,815.8,1000.4,813.1,1001.6,811.1z"/>
<path class="st1" d="M992.4,805.6l35.3-60.1c1.2-2.1,3.9-2.8,6-1.6l1.7,1c2.1,1.2,2.8,3.9,1.6,6l-35.3,60.1c-1.2,2.1-3.9,2.8-6,1.6
	l-1.7-1C991.8,810.4,991.1,807.7,992.4,805.6z"/>
<path class="st1" d="M983,800.9l35.5-59.9c1.2-2.1,3.9-2.8,6-1.5l1.7,1c2.1,1.2,2.8,3.9,1.5,6l-35.5,59.9c-1.2,2.1-3.9,2.8-6,1.5
	l-1.7-1C982.5,805.7,981.8,803,983,800.9z"/>
<path class="st1" d="M1016.5,734.5c5.5-3.6,31.3,0.9,31.3,0.9l8.5,24.8l-8.5,10C1047.9,770.2,1011.1,738.1,1016.5,734.5
	L1016.5,734.5z"/>
<path class="st3" d="M1103,537.4l51.3-34.8c0,0,11.1,139.1,3.5,150.6c-5.4,7.9-11.6,15.2-18.6,21.8l-80.2,79.8l-25.6-22.2
	c0,0,66.1-67.9,58.4-61.2c-7.6,6.8,22.5-20.8,27.2-32.5S1103,537.4,1103,537.4L1103,537.4L1103,537.4z"/>
<path class="st1" d="M986,752l30.3-17.5c2.1-1.2,4.8-0.5,6,1.6l1,1.7c1.2,2.1,0.5,4.8-1.6,6l-30.3,17.5c-2.1,1.2-4.8,0.5-6-1.6
	l-1-1.7C983.2,756,983.9,753.3,986,752z"/>
<path class="st8" d="M1048.4,323.2c-8.1-11.8,1.3-23-6-31c-7.8-8.5-29.7-7.8-40.5,4.8c-10.1,11.7-5.6,27.9-4.8,31
	c5.2,18.7,22.9,27.1,28.6,29.8c18.5,8.8,35.9,5.2,50,2.4c11-2.2,27.7-7.3,27.4-11.9c-0.3-3.4-9.6-3.6-28.6-10.7
	C1059.9,332,1052.5,329.2,1048.4,323.2L1048.4,323.2L1048.4,323.2z"/>
<path class="st8" d="M1049.6,350.6c-0.1-2.7-0.7-18.5,10.7-28.6c10.9-9.6,25.3-7.4,34.5-6c5.3,0.8,25.6,4,38.1,21.4
	c11.5,16,9.1,34,7.2,48.8c-1.3,9.5-4,30.1-20.2,46.5c-10,10-26.9,20.3-33.3,15.5c-7.3-5.5-2.8-32.2,1.2-44c1.5-4.2,1.9-8.7,1.2-13.1
	c-0.3-1.7-1.6-9.8-6-10.7c-3.7-0.8-7.8,4-9.5,7.1c-3.2,5.8-2.6,13.4-2.4,15.5c0.3,4,1.2,5.9,0,7.1c-2.2,2.2-8.6-0.8-9.5-1.2
	C1048.7,402.9,1049.1,364.4,1049.6,350.6L1049.6,350.6L1049.6,350.6z"/>
<path class="st8" d="M1137.7,368.5c2.8-9.9,25.6-18.1,38.1-8.3c7.4,5.8,11,17.7,8.3,26.2c-1.2,3.9-3.3,5.7-3.6,10.7
	c-0.2,4.3,0.8,11.4,4.8,13.1s7.2-4,15.5-6c6.5-1.5,15.2-0.5,21.4,4.8c9.1,7.8,10.4,23,4.8,31c-4.7,6.6-12.6,6-13.1,10.7
	s6.3,9.6,11.9,11.9c12.3,5.2,19.3-2.3,28.6,2.4c7.9,4,11.3,13.8,11.9,20.2c1.8,19.1-18.9,31.8-21.4,33.4
	c-11.2,6.9-30.6,12.1-41.7,3.6c-6.5-5-4.5-10.4-16.7-26.2c-7.7-10-11.3-11.5-14.2-11.9c-7.5-0.9-16.4,5-16.7,10.7
	c-0.3,6.7,11.4,8,14.2,17.9c2.6,8.6-2.8,19.5-9.5,23.8c-13.3,8.5-39-3.7-48.8-21.4c-11.7-21-1.1-49.8,10.7-65.5
	c8.2-10.9,14.7-12.2,20.2-25c1.7-4,8.3-19.2,3.6-35.7C1142.6,376.7,1136.1,374.3,1137.7,368.5L1137.7,368.5L1137.7,368.5z"/>
<path class="st6" d="M1152.2,371.2c2.6-11.2,1.6-13.9,1.2-14.9c-2.2-5.1-8.2-9.6-12.9-8.5c-5.5,1.3-7.2,9.8-9.4,20.9
	c-1.9,9.8-3.3,16.8,0.8,20.5c3.1,2.8,8.6,2.8,12.2,0.9C1148.2,387.9,1149.6,382.3,1152.2,371.2L1152.2,371.2L1152.2,371.2z"/>
<path d="M884.1,528.8H566.2c-5.9,0-10.7,4.8-10.7,10.7v225.2c0,5.9,4.8,10.7,10.7,10.7h317.9c5.9,0,10.7-4.8,10.7-10.7V539.5
	C894.8,533.6,890,528.8,884.1,528.8z M774.3,802.8h-2l-1-0.1c-11.2-1.1-16.8-18.8-19.5-29.8h-60.3c-2.8,11-8.3,28.7-19.5,29.8
	l-1,0.1h-2c-5.2,0-9.5,4.3-9.5,9.5s4.2,9.5,9.5,9.5h105.5c5.2,0,9.5-4.2,9.5-9.5S779.6,802.8,774.3,802.8L774.3,802.8z"/>
<path class="st9" d="M555.5,633.7h-88.1c0,0-23.2,2.5-23.2-21.5v-76.4c0-25.8-0.3-37.3-37.4-37.4h-91.3c-12.7,0-30.2-2.6-30.2-30.2
	V422"/>
<polygon class="st10" points="345,391.6 344.3,391.6 344.2,391.5 343.5,391.3 344.9,395.2 347,392 "/>
<polygon class="st10" points="368.2,358.8 359.1,361.8 365.5,363 "/>
<path class="st10" d="M472.9,257.4c-4.6-64.2-60.5-112.5-124.7-107.9c-37,2.7-70.4,22.7-90.2,54.1c-14-5.3-29.4-5.7-43.6-1.2
	c13.4,4,23.2,12.7,26.9,16.1c5.9,5.3,10.6,9.5,10.1,14.7c-0.3,3.1-2.3,5.9-5.5,8.4c3,5.7,4.4,12.1,4,18.5l-0.1,0.9l4.2,0.7
	c1.7,0.3,2.9,1.9,2.6,3.6s-1.9,2.9-3.6,2.6c0,0-0.1,0-0.1,0l-3.6-0.6c-1.5,12.3-5.4,22.7-15.1,26.4c-11.6,4.3-16.9,3.4-18.7,8.5
	c-1.1,3.5-1.7,7-2,10.6c0.8,0.4,1.6,0.9,2.3,1.4c2.1,1.4,3.9,4,5.4,7.4c9.6,14.3,43.3,64.9,46.5,67.6c2.2,1.9,5.3,3,9.6,1.4
	l57.8-21.7l1.2,3.1c2.6-4,7.9-11.6,11.6-14.4c0.3-0.4,0.7-0.7,1.2-0.9l20.9-7c-7.8-10.3-8.2-26.1,0.1-39
	c10.3-16.1,30.1-21.9,44.2-12.9s17.2,29.4,6.9,45.5c-9,14.2-25.4,20.3-38.8,15.5l-4.3,6.7l2.8,0.5c1.4,0.3,2.2,1.6,2,2.9l-0.6,3
	c-0.3,1.4-1.6,2.2-2.9,2c1.4,0.3,2.2,1.6,2,2.9l-0.6,3c-0.3,1.4-1.6,2.2-2.9,2c1.4,0.3,2.2,1.6,2,2.9l-0.6,3c-0.3,1.4-1.6,2.2-2.9,2
	l-2.8-0.5c1,0.5,1.5,1.6,1.3,2.7l-0.6,3c-0.3,1.4-1.6,2.2-2.9,2l-11.5-2.3l-6.6,10.3c-1.1,1.7-3.4,2.2-5.1,1.1l-3.8-2.4
	c-1.7-1.1-2.2-3.4-1.1-5.1l0.2-0.4l-59.5,22.3h180.9c45.2-0.7,81.2-37.9,80.5-83C544.4,296.4,513.6,262.2,472.9,257.4L472.9,257.4
	L472.9,257.4z"/>
<path class="st10" d="M211.6,420.3h33.3c-6.1-4.8-18.9-16-31.6-27.3C212.9,399.2,212.2,409.7,211.6,420.3L211.6,420.3L211.6,420.3z"
	/>
<path class="st10" d="M125.3,362.2c7.9-30.2,14.7-42.4,23.3-48c0,0,0-0.1-0.1-0.1c-5.1-10.7,3.5-25.9,5-28.5
	c5.2-9.1,9.3-8.9,10.8-15.2c1.1-4.6-0.3-8.3-2.5-11.9c-44.2,9.2-72.6,52.5-63.4,96.6c3.3,16,11.4,30.6,23.1,42
	C121.1,385.4,122.4,373.7,125.3,362.2L125.3,362.2L125.3,362.2z"/>
<path class="st1" d="M194.9,249.8c-1.4-2.6,0.4-7.6-3-10.4c-1.2-1-2.7-1.5-4.2-1.4c-3.1,0.3-4.8,3.7-5.4,4.8
	c-4.2,7.9,3.5,21,6.4,25.7c8.8,14.8,14.4,14.1,16.8,22.7c1.5,6.1,0.9,12.5-1.7,18.2c3.4,0.8,6.8,2,9.9,3.6c0.3-3.6,0.9-7.2,2-10.6
	c1.8-5.1,7.1-4.2,18.7-8.5c9.8-3.6,13.6-14.1,15.1-26.4l-1.5-0.2l1.1-6.2l1,0.2l0.1-0.9c0.3-6.4-1.1-12.8-4-18.5
	C232.5,252.3,198.9,257.1,194.9,249.8L194.9,249.8L194.9,249.8z M231.9,254.7c0.2-1.2,1.4-2,2.6-1.8s2,1.4,1.8,2.6
	c-0.2,1.2-1.3,2-2.5,1.8C232.5,257.1,231.7,256,231.9,254.7L231.9,254.7L231.9,254.7L231.9,254.7z"/>
<path class="st1" d="M253,267.9c1.7,0.3,3.3-0.8,3.7-2.5s-0.8-3.3-2.4-3.7c0,0-0.1,0-0.1,0l-4.2-0.7c-0.1,2.1-0.3,4.2-0.6,6.2
	L253,267.9z"/>
<path class="st1" d="M247.9,267l1.5,0.2c0.2-2,0.4-4.1,0.6-6.2l-1-0.2L247.9,267L247.9,267L247.9,267z"/>
<path d="M233.7,257.3c1.2,0.2,2.3-0.6,2.5-1.8c0.2-1.2-0.6-2.3-1.8-2.5c-1.2-0.2-2.3,0.6-2.5,1.8C231.6,255.9,232.4,257,233.7,257.3
	L233.7,257.3L233.7,257.3L233.7,257.3z"/>
<path class="st11" d="M197.9,318.1l15.3,2.6l0.2-6.3c0,0,0-0.6,0.1-1.7c-3.1-1.6-6.5-2.8-9.9-3.6
	C202.3,312.5,200.3,315.5,197.9,318.1L197.9,318.1L197.9,318.1z"/>
<path d="M241.3,218.4c-3.7-3.3-13.5-12.1-26.9-16.1c-24.6,7.8-42.4,29.3-45.5,55c-0.8,0.1-1.6,0.2-2.4,0.4c-1.6,0.2-3.1,0.5-4.7,0.8
	c2.2,3.6,3.6,7.3,2.5,11.9c-1.5,6.3-5.6,6.1-10.8,15.2c-1.5,2.6-10.1,17.8-5,28.5c0,0,0.1,0.1,0.1,0.1c6.3,12.8,32,18.6,46.7,6.4
	c0.9-0.8,1.8-1.6,2.6-2.5c2.4-2.6,4.4-5.6,5.8-8.9c2.6-5.7,3.2-12.1,1.7-18.2c-2.4-8.6-7.9-7.9-16.8-22.7
	c-2.8-4.7-10.5-17.8-6.4-25.7c0.6-1,2.3-4.4,5.4-4.8c1.5-0.1,3.1,0.4,4.2,1.4c3.4,2.9,1.6,7.9,3,10.4c4,7.3,37.6,2.6,51.1-8.2
	c3.1-2.5,5.2-5.4,5.5-8.4C251.9,227.9,247.2,223.7,241.3,218.4L241.3,218.4L241.3,218.4z"/>
<path class="st1" d="M340.9,382.6l2.8,0.6c-1-0.5-1.5-1.6-1.3-2.7l0.6-3c0.3-1.4,1.6-2.2,2.9-2c-1.4-0.3-2.2-1.6-2-2.9l0.6-3
	c0.3-1.4,1.6-2.2,2.9-2c-1.4-0.3-2.2-1.6-2-2.9l0.6-3c0.1-0.8,0.7-1.5,1.4-1.8l0-0.2c-0.2-0.8-0.1-1.6,0.4-2.3
	c-3.7,2.8-9,10.4-11.6,14.4l4,10.6C340.5,382.6,340.7,382.6,340.9,382.6L340.9,382.6L340.9,382.6z"/>
<polygon class="st1" points="344.3,391.6 345,391.6 344.2,391.5 "/>
<path class="st1" d="M352.1,360.4l7,1.4l9.1-3l4.1-6.4c-0.8-0.8-1.6-1.7-2.3-2.7l-20.9,7c-0.5,0.2-0.9,0.5-1.2,0.9
	c0.5-0.5,1.1-0.8,1.8-1C350.7,356.3,351.5,357.8,352.1,360.4L352.1,360.4L352.1,360.4z"/>
<path class="st1" d="M347.5,359.8l0,0.2c0.5-0.2,1-0.3,1.5-0.2l3.1,0.6c-0.6-2.6-1.4-4.1-2.5-3.9c-0.7,0.2-1.3,0.6-1.8,1
	C347.4,358.2,347.3,359,347.5,359.8L347.5,359.8L347.5,359.8z"/>
<path class="st5" d="M376.6,356l-8.4,2.9l-2.7,4.3l12.5,2.5l4.3-6.7c-1.9-0.7-3.7-1.6-5.4-2.6L376.6,356z"/>
<path class="st11" d="M344.9,395.2l0.7,1.9l-2.5,0.9l-0.2,0.4c-1.1,1.7-0.6,4,1.1,5.1l3.8,2.4c1.7,1.1,4,0.6,5.1-1.1l6.6-10.3
	l-12.5-2.5L344.9,395.2L344.9,395.2L344.9,395.2z"/>
<path class="st1" d="M372.3,352.4l-4.1,6.4l8.4-2.8C375,355,373.6,353.8,372.3,352.4z"/>
<path class="st5" d="M378.6,349.5l0.7,2.1l2.3,1.5c1.7,1.1,2.2,3.4,1.1,5.1l-0.4,0.7c13.4,4.8,29.8-1.3,38.8-15.5
	c10.3-16.1,7.2-36.5-6.9-45.5c-14.1-9-33.9-3.3-44.2,12.9c-8.3,13-7.9,28.7-0.1,39l5.5-1.8C376.7,347.5,378.1,348.2,378.6,349.5
	L378.6,349.5L378.6,349.5z"/>
<path class="st1" d="M372.3,352.4l0.4-0.7c1.1-1.7,3.4-2.2,5.1-1.1l1.5,0.9l-0.7-2.1c-0.4-1.3-1.9-2-3.2-1.6l-5.5,1.8
	C370.6,350.7,371.4,351.6,372.3,352.4L372.3,352.4L372.3,352.4z"/>
<path class="st5" d="M381.6,353l-2.3-1.5l0.3,0.8c0.4,1.3-0.3,2.7-1.6,3.2l-1.3,0.5l0.3,0.2c1.7,1.1,3.5,2,5.4,2.6l0.4-0.7
	C383.9,356.4,383.3,354.1,381.6,353L381.6,353L381.6,353z"/>
<path class="st1" d="M377.9,355.5c1.3-0.4,2-1.9,1.6-3.2l-0.3-0.8l-1.5-0.9c-1.7-1.1-4-0.6-5.1,1.1l-0.4,0.7
	c1.3,1.3,2.8,2.5,4.3,3.6L377.9,355.5L377.9,355.5L377.9,355.5z"/>
<polygon class="st1" points="347,392 347.2,391.7 345,391.6 "/>
<path class="st1" d="M359.5,394.5l11.5,2.3c1.4,0.3,2.7-0.6,2.9-2l0.6-3c0.2-1.1-0.3-2.2-1.3-2.7l-9.2-1.8L359.5,394.5L359.5,394.5
	L359.5,394.5z"/>
<polygon class="st1" points="342.3,388.1 343.5,391.3 344.2,391.5 "/>
<path class="st1" d="M344.2,391.5l0.8,0.2h2.2l4.4-6.8l-7.2-1.4c-0.2,0-0.5-0.1-0.7-0.2l-2.8-0.6c-0.2,0-0.4,0-0.7,0l2.1,5.5
	L344.2,391.5L344.2,391.5L344.2,391.5z"/>
<path class="st1" d="M354,385.3c0,3.8,0,6.5,0,6.5l-6.9-0.1l-0.2,0.3l12.5,2.5l4.6-7.2L354,385.3L354,385.3L354,385.3z"/>
<path class="st1" d="M347.2,391.7l7,0.1v-6.5l-2.5-0.5L347.2,391.7L347.2,391.7L347.2,391.7z"/>
<path class="st1" d="M353.8,377.1c0.1,1.4,0.1,2.7,0.1,3.9l2.2-3.5L353.8,377.1L353.8,377.1L353.8,377.1z"/>
<path class="st1" d="M364.1,387.2l8.5,1.7c0.2,0,0.5,0.1,0.7,0.3l2.8,0.5c1.4,0.3,2.7-0.6,2.9-2l0.6-3c0.3-1.4-0.6-2.7-2-2.9
	l-8.9-1.8L364.1,387.2L364.1,387.2L364.1,387.2z"/>
<path class="st1" d="M354,381.1c0-1.3-0.1-2.6-0.1-3.9l-7.9-1.5c-1.4-0.3-2.7,0.6-2.9,2l-0.6,3c-0.2,1.1,0.3,2.2,1.3,2.7l7.9,1.5
	L354,381.1L354,381.1L354,381.1z"/>
<path class="st1" d="M354,381.1c0,1.5,0.1,2.9,0.1,4.2l10.1,2l4.6-7.2l-12.5-2.5L354,381.1L354,381.1L354,381.1z"/>
<path class="st1" d="M354,381.1l-2.4,3.7l2.4,0.5C354,383.9,354,382.5,354,381.1L354,381.1L354,381.1z"/>
<path class="st1" d="M364.1,387.2l-0.1,0.1l9.2,1.8c-0.2-0.1-0.5-0.2-0.7-0.3L364.1,387.2L364.1,387.2L364.1,387.2z"/>
<path class="st1" d="M351.5,384.8l0.1-0.1l-7.9-1.5c0.2,0.1,0.4,0.2,0.7,0.2L351.5,384.8L351.5,384.8L351.5,384.8z"/>
<path class="st1" d="M354,385.3l10,2l0.1-0.1l-10.1-2C354,385.2,354.1,385.3,354,385.3L354,385.3L354,385.3z"/>
<path class="st1" d="M351.6,384.7l-0.1,0.1l2.5,0.5v-0.1L351.6,384.7L351.6,384.7L351.6,384.7z"/>
<path class="st1" d="M368.7,380l8.9,1.8c1.4,0.3,2.7-0.6,2.9-2l0.6-3c0.3-1.4-0.6-2.7-2-2.9l-5.8-1.1L368.7,380L368.7,380L368.7,380
	z"/>
<path class="st1" d="M353.8,377.1l2.4,0.5l4.6-7.3l-7.5-1.5C353.5,371.5,353.7,374.4,353.8,377.1z"/>
<path class="st1" d="M353.3,368.8l-5.8-1.1c-1.4-0.3-2.6,0.6-2.9,2l-0.6,3c-0.3,1.4,0.6,2.7,2,2.9l7.9,1.5
	C353.7,374.4,353.5,371.5,353.3,368.8L353.3,368.8L353.3,368.8z"/>
<polygon class="st1" points="368.7,380 373.4,372.8 360.8,370.3 356.2,377.6 "/>
<path class="st1" d="M379.2,373.9c1.4,0.3,2.7-0.6,2.9-2l0.6-3c0.3-1.4-0.6-2.7-2-2.9l-2.8-0.5l-4.6,7.3L379.2,373.9L379.2,373.9
	L379.2,373.9z"/>
<path class="st1" d="M353.3,368.8l7.5,1.5l4.6-7.3l-6.4-1.2l-6.4,2.1C353,365.4,353.1,367.1,353.3,368.8L353.3,368.8L353.3,368.8z"
	/>
<path class="st1" d="M352.7,363.9l-1.1,0.4c-1.3,0.4-2.7-0.3-3.2-1.6l-0.9-2.7c-0.7,0.3-1.3,1-1.4,1.8l-0.6,3
	c-0.3,1.4,0.6,2.6,2,2.9l5.8,1.1C353.2,367.1,353,365.4,352.7,363.9L352.7,363.9L352.7,363.9z"/>
<path class="st1" d="M359.1,361.8l-7-1.4c0.2,1,0.5,2.2,0.6,3.5L359.1,361.8L359.1,361.8L359.1,361.8z"/>
<path class="st1" d="M351.6,364.3l1.1-0.4c-0.2-1.3-0.4-2.5-0.6-3.5l-3.1-0.6c-0.5-0.1-1,0-1.5,0.2l0.9,2.7
	C348.8,364,350.3,364.8,351.6,364.3L351.6,364.3L351.6,364.3z"/>
<polygon class="st1" points="360.8,370.3 373.4,372.8 378,365.5 365.5,363 "/>
<path class="st6" d="M343.5,391.3l-4.2-0.8c-1.4-0.3-2.2-1.6-2-2.9l0.6-3c0.1-0.8,0.7-1.4,1.4-1.8l-4.7-8.3c0,0,0.6-1,1.6-2.5
	l-1.2-3.1l-57.8,21.7c-4.3,1.6-7.4,0.6-9.6-1.4c-3.1-2.8-36.9-53.3-46.4-67.6c-1.5-3.5-3.3-6.1-5.4-7.4c-0.8-0.5-1.5-1-2.3-1.4
	c-0.1,1-0.1,1.7-0.1,1.7l-0.2,6.3l-15.3-2.6c-0.8,0.9-1.7,1.7-2.6,2.5c-14.7,12.2-40.4,6.5-46.7-6.4c-8.6,5.6-15.4,17.8-23.3,48
	c-2.9,11.4-4.2,23.2-3.7,35c14.9,14.5,34.7,22.7,55.4,23.1h34.6c0.7-10.6,1.3-21.2,1.7-27.3c12.7,11.3,25.5,22.5,31.6,27.3h38.8
	l59.4-22.3l1.8-2.8L343.5,391.3L343.5,391.3L343.5,391.3z"/>
<path class="st11" d="M339.3,382.8c0.3-0.1,0.6-0.2,0.9-0.2l-4-10.6c-1,1.5-1.6,2.5-1.6,2.5L339.3,382.8z"/>
<polygon class="st11" points="344.9,395.2 343.1,398 345.6,397.1 "/>
<path class="st11" d="M339.3,382.8c-0.7,0.3-1.2,1-1.4,1.8l-0.6,3c-0.3,1.4,0.6,2.7,2,2.9l4.2,0.8l-1.2-3.2L339.3,382.8L339.3,382.8
	L339.3,382.8z"/>
<path class="st11" d="M340.2,382.6c-0.3,0-0.6,0.1-0.9,0.2l3,5.3L340.2,382.6L340.2,382.6L340.2,382.6z"/>
<path class="st9" d="M472.9,259c-4.6-64.2-60.5-112.5-124.7-107.9c-37,2.7-70.4,22.7-90.2,54.1c-34.1-12.9-72.3,4.2-85.3,38.4
	c-1.9,5-3.2,10.1-3.8,15.4c-44.8,5.4-76.8,46.1-71.5,90.9c4.8,40.5,38.8,71.2,79.6,72h287.5c45.2-0.8,81.2-38,80.4-83.1
	C544.2,298,513.5,263.9,472.9,259L472.9,259L472.9,259z"/>
<path class="st5" d="M174.2,273.5v19c0,0.9,0.8,1.6,1.7,1.6c0.7,0,1.4-0.5,1.6-1.2c0.7-2.8,1.1-5.6,1.1-8.4c0-0.9-0.7-1.6-1.6-1.6
	s-1.6,0.7-1.6,1.6c0,2.5-0.4,5.1-1,7.6l3.3,0.4v-19c0-0.9-0.7-1.6-1.6-1.6S174.2,272.6,174.2,273.5L174.2,273.5L174.2,273.5z"/>
</svg>
