<svg xmlns="http://www.w3.org/2000/svg" viewBox="0 0 1493.7 1262.87"><defs><style>.cls-1{fill:#9fd493;}.cls-2{fill:#fdedee;}.cls-3{fill:#16164c;}.cls-4{fill:#17c1f3;}.cls-5{fill:#b39758;}.cls-6{fill:#073a49;}.cls-7{fill:#ef4658;}.cls-8{fill:#ccad64;}.cls-9{fill:#ffe4a4;}.cls-10{fill:#021318;}.cls-11,.cls-12{fill:none;}.cls-11{stroke:#fff;stroke-miterlimit:10;stroke-width:8px;}.cls-13{fill:#c43f2a;}.cls-14{fill:#5f8d54;}</style></defs><g id="Layer_2" data-name="Layer 2"><g id="Layer_1-2" data-name="Layer 1"><path class="cls-1" d="M1324.67,405.62c-.47-82-24.86-162.72-78.18-225C1158.2,77.48,1028.82,8.61,892.9.6,856-1.58,816.1,1.3,787,24.17c-79.42,62.49-38.18,236.77-176.1,221.08-37.91-4.3-69.11-30.17-85.54-64.62C467.8,60,317.48,3,193.47,42.72,90.39,75.78,11.44,173.84,1.11,281.58-1.81,312.15.56,344,13.82,371.66c41.19,86,161.36,95.86,230.12,161.86,112.12,107.61,41.56,295,67.88,448.19C335.17,1117.58,449.41,1233,585,1257.78S868.3,1215,938.19,1096.15c12.16-20.66,22.66-43.29,41.32-58.38,37.88-30.55,93.39-19.28,139.8-4.61,109.42,34.52,241,75.81,325-12,35.17-36.79,51.08-87.72,49.29-138.6-4.34-122.71-80.26-215.74-128.49-320.83-23.63-51.47-40.14-109.93-40.41-156.12"/><polygon class="cls-2" points="878.86 1078.89 854.57 1112.35 840.83 1099.28 855.18 1060.59 878.86 1078.89"/><polygon class="cls-3" points="860.69 1108.98 846.54 1138.15 781.96 1125.39 783.6 1117.32 830.37 1116.29 835.86 1093.88 860.69 1108.98"/><polygon class="cls-2" points="771.89 1026.84 743.6 1057.01 731.6 1042.32 750.67 1005.73 771.89 1026.84"/><polygon class="cls-3" points="752.15 1054.77 730.49 1081.01 671.73 1055.53 674.9 1047.93 720.99 1056.02 730.53 1034.94 752.15 1054.77"/><path class="cls-4" d="M1056.48,779.89S930.6,849.83,903.84,883.12s-133.29,145.73-133.29,145.73l-23.7-19.74S844.51,869,888.66,812.88s143.43-147.46,143.43-147.46l76,96.56-51.63,17.91Z"/><path class="cls-4" d="M1143.7,755.91C1103,823.8,1040.75,851,998.12,907S876,1083.21,876,1083.21l-26.47-15.43S920,918.29,964.94,854.07s93-155.88,93-155.88,126.53-10.21,85.78,57.7Z"/><path class="cls-2" d="M1021.22,360A47.92,47.92,0,0,0,1006,391.68c-1.42,20.33.66,39.31,15.34,47s21.8,7.32,23.31,14.39.79,16.66.79,16.66l-.8,8.39,50-2.37s-2-17.78,0-26.23,22.91-45.19,22.74-48.76,20.13-53.4-25.81-66.74-70.34,26-70.34,26Z"/><path class="cls-5" d="M1058.75,523.49l-37.83-46.63S926.81,564,924,568.29s-2.85,12.63,1.09,28.39C930.63,625,960.82,717,960.82,717l30-6.73L961.68,605.57s-2.46-8,.09-13.56C967.56,585.64,1058.75,523.49,1058.75,523.49Z"/><path class="cls-5" d="M1060.91,472.1l-30.33-1.42s-16.84,10-18.73,23.55S986,696.63,986,696.63l149.26,59.75,1.81-244s-12.55-37.17-26.82-37.88l-49.37-2.33Z"/><rect class="cls-6" x="1179.24" y="855.19" width="23.31" height="231.84"/><rect class="cls-6" x="452.64" y="855.19" width="23.31" height="231.84"/><rect class="cls-6" x="387.88" y="855.19" width="23.31" height="75.12"/><rect class="cls-6" x="1114.48" y="855.19" width="23.31" height="75.12"/><polygon class="cls-6" points="1258.26 860.37 370.45 860.37 329.61 697.18 1188.81 697.18 1258.26 860.37"/><circle class="cls-6" cx="410.15" cy="235.55" r="17.05"/><path class="cls-7" d="M849.15,829.92h203a9.22,9.22,0,0,0,9.22-9.22V728.42a9.24,9.24,0,0,0-9.22-9.22h-203a9.22,9.22,0,0,0-9.23,9.21h0v92.3a9.19,9.19,0,0,0,9.17,9.22h.06Zm106.1-23H946v-9.22h9.22Zm0-18.46H946v-9.22h9.22Zm0-18.46H946v-9.22h9.22Zm27.69,36.91h-9.23v-9.22h9.23Zm0-18.46h-9.23v-9.22h9.23Zm0-18.46h-9.23v-9.22h9.23Zm46.13-27.68h9.22v9.22h-9.22Zm0,18.46h9.22v9.22h-9.22Zm0,18.46h9.22v9.22h-9.22Zm0,18.46h9.22v9.22h-9.22Zm-27.68-55.37h9.22v9.22h-9.22Zm0,18.46h9.22V770h-9.22Zm0,18.46h9.22v9.22h-9.22Zm0,18.46h9.22v9.22h-9.22Zm-83.06-55.37h64.6v9.22h-64.6Zm0,18.46h9.23V770h-9.23Zm0,18.46h9.23v9.22h-9.23Zm0,18.46h9.23v9.22h-9.23Zm-27.68-55.37h9.22v9.22h-9.22Zm0,18.46h9.22V770h-9.22Zm0,18.46h9.22v9.22h-9.22Zm0,18.46h9.22v9.22h-9.22ZM863,742.3h9.22v9.22H863Zm0,18.46h9.22V770H863Zm0,18.46h9.22v9.22H863Zm0,18.46h9.22v9.22H863Z"/><path class="cls-8" d="M1071.05,329.18c-8.11-11.84,1.36-23-6-31-7.77-8.51-29.67-7.77-40.49,4.77-10.09,11.66-5.6,27.94-4.77,30.95,5.18,18.73,22.87,27.08,28.58,29.79,18.55,8.76,35.89,5.25,50,2.38,11-2.21,27.73-7.34,27.39-11.9-.26-3.38-9.64-3.59-28.58-10.72-14.74-5.56-22.11-8.33-26.2-14.3Z"/><path class="cls-2" d="M1012.88,388.21l-6.83-1.3a4.17,4.17,0,0,0-1.53,8.2l6.83,1.3,1.53-8.2Z"/><circle cx="1024.32" cy="382.9" r="2.98"/><rect class="cls-2" x="997.56" y="777.17" width="78.5" height="10.72" rx="4.4" transform="translate(-162.97 1280.39) rotate(-59.58)"/><rect class="cls-2" x="984.63" y="778.36" width="78.5" height="10.72" rx="4.4" transform="translate(-170.38 1269.82) rotate(-59.58)"/><rect class="cls-2" x="975.38" y="772.93" width="78.5" height="10.72" rx="4.4" transform="translate(-170.26 1259.17) rotate(-59.58)"/><rect class="cls-2" x="966.16" y="768.27" width="78.49" height="10.72" rx="4.4" transform="translate(-172.86 1243.77) rotate(-59.33)"/><path class="cls-2" d="M1016.55,734.53c5.47-3.6,31.28.91,31.28.91l8.5,24.76-8.47,10s-36.77-32-31.3-35.66Z"/><path class="cls-5" d="M1103,537.42l51.35-34.8s11.06,139,3.54,150.64A132.11,132.11,0,0,1,1139.28,675l-80.17,79.8-25.62-22.15s66-67.93,58.45-61.18,22.5-20.84,27.2-32.52S1103,537.43,1103,537.43Z"/><rect class="cls-2" x="981.93" y="742.58" width="43.75" height="10.72" rx="4.4" transform="translate(-239.56 602.76) rotate(-30.03)"/><path class="cls-9" d="M1048.42,323.22c-8.11-11.84,1.3-23-6-31-7.77-8.51-29.67-7.77-40.49,4.77-10.09,11.66-5.6,27.94-4.77,31,5.18,18.73,22.87,27.08,28.58,29.79,18.53,8.76,35.89,5.25,50,2.38,11-2.21,27.73-7.34,27.39-11.9-.26-3.38-9.64-3.59-28.58-10.72-14.74-5.57-22.11-8.34-26.2-14.31Z"/><path class="cls-9" d="M1049.62,350.61c-.14-2.69-.7-18.53,10.71-28.58,10.91-9.61,25.28-7.38,34.54-6,5.28.82,25.59,3.95,38.1,21.44,11.49,16,9.07,34,7.15,48.83-1.3,9.49-4,30.13-20.24,46.45-10,10-27,20.28-33.35,15.54-7.3-5.49-2.85-32.16,1.19-44a27.21,27.21,0,0,0,1.19-13.09c-.27-1.74-1.58-9.79-6-10.72-3.72-.79-7.77,4-9.52,7.15-3.24,5.84-2.59,13.41-2.38,15.54.35,4,1.2,5.92,0,7.14-2.21,2.24-8.59-.75-9.53-1.19-12.85-6.18-12.37-44.71-11.9-58.49Z"/><path class="cls-9" d="M1137.74,368.47c2.77-9.87,25.59-18.07,38.12-8.34,7.42,5.78,11,17.68,8.33,26.2-1.2,3.89-3.28,5.7-3.57,10.72-.25,4.3.78,11.4,4.77,13.09s7.15-4,15.54-6c6.48-1.5,15.23-.53,21.44,4.77,9.07,7.77,10.36,23,4.75,31-4.68,6.58-12.55,6-13.09,10.72s6.29,9.56,11.92,11.9c12.29,5.18,19.31-2.33,28.57,2.38,7.9,4,11.31,13.79,11.92,20.24,1.8,19.14-18.86,31.77-21.44,33.35-11.24,6.86-30.57,12.1-41.69,3.57-6.48-5-4.53-10.36-16.67-26.2-7.68-10-11.31-11.55-14.25-11.92-7.53-.91-16.4,5-16.68,10.72-.32,6.7,11.36,8,14.25,17.86,2.59,8.59-2.77,19.52-9.53,23.82-13.33,8.47-39-3.7-48.83-21.44-11.66-21-1.13-49.81,10.72-65.5,8.25-10.93,14.66-12.16,20.24-25,1.71-4,8.33-19.17,3.57-35.73-3.51-12-10-14.42-8.38-20.24Z"/><path class="cls-7" d="M1152.16,371.2c2.59-11.24,1.62-13.87,1.19-14.88-2.23-5.12-8.24-9.6-12.95-8.47-5.53,1.3-7.21,9.83-9.39,20.89-1.93,9.79-3.33,16.84.84,20.48,3.13,2.75,8.56,2.82,12.23.88,4.12-2.19,5.5-7.8,8.08-18.9Z"/><path class="cls-10" d="M884.1,528.8H566.2a10.7,10.7,0,0,0-10.7,10.69V764.71a10.7,10.7,0,0,0,10.7,10.69H884.1a10.7,10.7,0,0,0,10.7-10.69V539.49A10.7,10.7,0,0,0,884.1,528.8Zm-109.78,274h-2l-1-.13c-11.2-1.1-16.76-18.81-19.53-29.79H691.44c-2.77,11-8.33,28.69-19.53,29.79l-1,.13h-2a9.51,9.51,0,0,0,0,19H774.31a9.51,9.51,0,1,0,0-19h0Z"/><path class="cls-11" d="M555.5,633.71H467.44s-23.2,2.53-23.2-21.47V535.82c0-25.83-.3-37.33-37.4-37.4H315.55c-12.73,0-30.25-2.56-30.25-30.25V422"/><polygon class="cls-1" points="345.01 391.64 344.27 391.61 344.18 391.47 343.48 391.33 344.94 395.18 346.96 392.02 345.01 391.64"/><path class="cls-12" d="M472.91,257.37A116.58,116.58,0,0,0,258,203.54a65.86,65.86,0,0,0-43.59-1.17c13.43,4,23.19,12.73,26.9,16.07,5.88,5.29,10.57,9.5,10.06,14.74-.3,3.08-2.33,5.92-5.5,8.43a36,36,0,0,1,4,18.49l-.07.89,4.16.73a3.12,3.12,0,0,1-1,6.17l-.13,0-3.65-.63c-1.48,12.29-5.37,22.72-15.13,26.4-11.61,4.33-16.89,3.42-18.7,8.55a47.41,47.41,0,0,0-2,10.62,25.75,25.75,0,0,1,2.33,1.36c2.08,1.36,3.86,4,5.38,7.44,9.56,14.3,43.3,64.89,46.45,67.63,2.2,1.92,5.3,3,9.58,1.35L335,368.9l1.18,3.13c2.63-4,7.88-11.65,11.59-14.44a2.42,2.42,0,0,1,1.22-.89l20.9-7c-7.82-10.34-8.21-26.06.09-39,10.29-16.12,30.08-21.89,44.18-12.88s17.2,29.39,6.9,45.51c-9,14.17-25.41,20.33-38.83,15.51l-4.28,6.7,2.75.54a2.51,2.51,0,0,1,2,2.94l-.58,3a2.51,2.51,0,0,1-2.94,2,2.5,2.5,0,0,1,2,2.93l-.58,3a2.51,2.51,0,0,1-2.94,2,2.5,2.5,0,0,1,2,2.93l-.58,3a2.51,2.51,0,0,1-2.94,2l-2.82-.55a2.52,2.52,0,0,1,1.28,2.67l-.58,3a2.51,2.51,0,0,1-2.94,2l-11.54-2.28-6.6,10.34a3.71,3.71,0,0,1-5.11,1.1l-3.79-2.43a3.7,3.7,0,0,1-1.1-5.1l.25-.41-59.48,22.33H464.54a81.78,81.78,0,0,0,8.38-163Z"/><path class="cls-12" d="M211.59,420.33h33.3c-6.12-4.77-18.86-15.95-31.58-27.29-.38,6.13-1.08,16.69-1.73,27.29Z"/><path class="cls-12" d="M125.35,362.24c7.91-30.22,14.69-42.39,23.27-48a.18.18,0,0,0-.08-.14c-5.11-10.71,3.5-25.88,5-28.46,5.17-9.1,9.32-8.92,10.81-15.18,1.1-4.63-.3-8.34-2.46-11.92a81.73,81.73,0,0,0-40.29,138.67,122.8,122.8,0,0,1,3.77-35Z"/><path class="cls-2" d="M194.87,249.77c-1.42-2.58.41-7.55-3-10.45a6,6,0,0,0-4.23-1.44c-3,.34-4.84,3.73-5.39,4.76-4.16,7.89,3.51,21,6.35,25.72,8.8,14.77,14.41,14.06,16.78,22.68a28,28,0,0,1-1.68,18.16,40.15,40.15,0,0,1,9.9,3.57,47.31,47.31,0,0,1,2-10.62c1.79-5.13,7.07-4.21,18.7-8.55,9.77-3.64,13.65-14.08,15.13-26.4l-1.48-.25,1.1-6.16,1,.16.07-.89a36,36,0,0,0-4-18.49c-13.52,10.75-47.14,15.52-51.14,8.19Zm37,4.94a1.93,1.93,0,1,1,0,.06v-.06Z"/><path class="cls-2" d="M253,267.87a3.13,3.13,0,0,0,1.23-6.13l-.13,0-4.16-.73c-.12,2.12-.31,4.21-.55,6.25Z"/><path class="cls-2" d="M247.85,267l1.48.25c.24-2,.43-4.12.55-6.25l-1-.16L247.84,267Z"/><path d="M233.68,257.29a2.48,2.48,0,1,0-.07,0h.06Z"/><path class="cls-10" d="M241.34,218.45c-3.72-3.3-13.47-12.1-26.9-16.07a66,66,0,0,0-45.53,55c-.81.1-1.61.23-2.41.35-1.58.23-3.13.51-4.69.82,2.2,3.59,3.57,7.29,2.46,11.92-1.5,6.26-5.64,6.08-10.81,15.18-1.47,2.58-10.09,17.75-5,28.46a1.32,1.32,0,0,0,.08.14c6.3,12.82,32,18.57,46.72,6.35a26,26,0,0,0,2.65-2.49,31.16,31.16,0,0,0,5.76-8.92A28,28,0,0,0,205.38,291c-2.38-8.62-7.95-7.91-16.78-22.68-2.84-4.73-10.5-17.83-6.35-25.72.55-1,2.34-4.4,5.39-4.76a6,6,0,0,1,4.23,1.44c3.44,2.9,1.62,7.86,3,10.45,4,7.33,37.63,2.55,51.06-8.16,3.15-2.51,5.18-5.35,5.5-8.43.44-5.26-4.25-9.45-10.13-14.74Z"/><path class="cls-3" d="M376.6,356l-8.4,2.85-2.74,4.28L378,365.57l4.28-6.7a27.55,27.55,0,0,1-5.37-2.63Z"/><path class="cls-13" d="M344.94,395.19l.7,1.88-2.52.93-.25.41a3.7,3.7,0,0,0,1.1,5.1l3.79,2.43a3.71,3.71,0,0,0,5.11-1.1l6.6-10.34L346.92,392l-2,3.16Z"/><path class="cls-6" d="M378.57,349.48l.69,2.08,2.32,1.48a3.73,3.73,0,0,1,1.1,5.11l-.43.66c13.42,4.82,29.78-1.34,38.83-15.51,10.31-16.12,7.22-36.49-6.9-45.51s-33.89-3.3-44.18,12.88c-8.29,13-7.91,28.7-.09,39l5.5-1.81a2.51,2.51,0,0,1,3.16,1.58Z"/><path class="cls-3" d="M381.62,353l-2.32-1.48.26.8a2.51,2.51,0,0,1-1.58,3.16l-1.34.45.32.22a27.55,27.55,0,0,0,5.37,2.63l.43-.66a3.72,3.72,0,0,0-1.13-5.11Z"/><polygon class="cls-2" points="368.2 358.76 359.09 361.79 365.46 363.04 368.2 358.76"/><polygon class="cls-2" points="344.27 391.61 345.01 391.64 344.18 391.47 344.27 391.61"/><polygon class="cls-2" points="346.96 392.02 347.17 391.68 345.01 391.64 346.96 392.02"/><polygon class="cls-2" points="342.27 388.12 343.48 391.33 344.18 391.47 342.27 388.12"/><path class="cls-2" d="M353.81,377.12c.07,1.35.11,2.67.14,3.94l2.2-3.48-2.34-.46Z"/><path class="cls-2" d="M364.15,387.21l-.07.11,9.21,1.81a2.51,2.51,0,0,0-.69-.26l-8.45-1.66Z"/><path class="cls-2" d="M351.54,384.85l.07-.11-7.91-1.55a2.06,2.06,0,0,0,.68.25l7.16,1.41Z"/><path class="cls-2" d="M354.05,385.34l10,2,.07-.11-10.11-2s0,.09,0,.13Z"/><path class="cls-2" d="M351.6,384.74l-.07.11,2.52.49v-.12l-2.45-.48Z"/><path class="cls-2" d="M340.92,382.63l2.83.56a2.5,2.5,0,0,1-1.29-2.67l.59-3a2.5,2.5,0,0,1,2.93-2,2.51,2.51,0,0,1-2-2.94l.59-3a2.51,2.51,0,0,1,2.93-2,2.51,2.51,0,0,1-2-2.93l.59-3a2.43,2.43,0,0,1,1.42-1.78l-.05-.16a2.52,2.52,0,0,1,.36-2.27c-3.72,2.79-9,10.43-11.59,14.44l4,10.6a2.09,2.09,0,0,1,.66,0Z"/><path class="cls-2" d="M352.1,360.41l7,1.37,9.11-3,4.06-6.36a25.79,25.79,0,0,1-2.31-2.69l-20.9,7a2.42,2.42,0,0,0-1.22.89,5.37,5.37,0,0,1,1.81-1c1-.33,1.84,1.21,2.45,3.79Z"/><path class="cls-2" d="M347.52,359.83l.05.16a2.53,2.53,0,0,1,1.51-.19l3.07.6c-.62-2.58-1.41-4.12-2.45-3.85a5.63,5.63,0,0,0-1.81,1,2.49,2.49,0,0,0-.36,2.27Z"/><path class="cls-2" d="M372.26,352.4l-4.06,6.41,8.4-2.79A26.39,26.39,0,0,1,372.26,352.4Z"/><path class="cls-2" d="M372.26,352.4l.43-.66a3.7,3.7,0,0,1,5.1-1.1l1.47.93-.69-2.08a2.51,2.51,0,0,0-3.16-1.58l-5.5,1.81a25.85,25.85,0,0,0,2.34,2.67Z"/><path class="cls-2" d="M377.94,355.52a2.51,2.51,0,0,0,1.58-3.16l-.26-.8-1.47-.93a3.69,3.69,0,0,0-5.1,1.1l-.43.66A26.87,26.87,0,0,0,376.6,356l1.34-.43Z"/><path class="cls-2" d="M359.51,394.48l11.54,2.28a2.52,2.52,0,0,0,2.94-2l.58-3a2.48,2.48,0,0,0-1.28-2.67l-9.21-1.81-4.58,7.16Z"/><path class="cls-2" d="M344.22,391.47l.84.16h2.2l4.4-6.83-7.16-1.41a2.31,2.31,0,0,1-.68-.25l-2.83-.56a2.43,2.43,0,0,0-.66,0l2.07,5.5,1.83,3.39Z"/><path class="cls-2" d="M354.05,385.34c.05,3.83,0,6.47,0,6.47l-6.92-.13-.21.33,12.55,2.47,4.58-7.16-10-2Z"/><path class="cls-2" d="M347.17,391.68l6.95.13v-6.47l-2.52-.49-4.43,6.83Z"/><path class="cls-2" d="M364.15,387.21l8.45,1.66a2.4,2.4,0,0,1,.69.26l2.82.55a2.52,2.52,0,0,0,2.94-2l.58-3a2.51,2.51,0,0,0-2-2.93L368.73,380l-4.58,7.16Z"/><path class="cls-2" d="M354,381.06c0-1.26-.08-2.58-.14-3.94l-7.89-1.55a2.51,2.51,0,0,0-2.93,2l-.59,3a2.5,2.5,0,0,0,1.29,2.67l7.91,1.55,2.35-3.68Z"/><path class="cls-2" d="M354,381.06c0,1.48.08,2.89.09,4.17l10.11,2,4.58-7.16-12.55-2.47L354,381.07Z"/><path class="cls-2" d="M354,381.06l-2.35,3.68,2.44.48c0-1.28,0-2.68-.09-4.17Z"/><path class="cls-2" d="M368.73,380.05l8.93,1.76a2.52,2.52,0,0,0,2.94-2l.58-3a2.51,2.51,0,0,0-2-2.93l-5.84-1.15-4.64,7.27Z"/><path class="cls-2" d="M353.81,377.12l2.36.46,4.64-7.27-7.52-1.47C353.52,371.51,353.7,374.36,353.81,377.12Z"/><path class="cls-2" d="M353.3,368.84l-5.77-1.15a2.51,2.51,0,0,0-2.93,2l-.59,3a2.52,2.52,0,0,0,2,2.94l7.89,1.55c-.15-2.76-.33-5.61-.56-8.28Z"/><polygon class="cls-2" points="368.73 380.05 373.37 372.78 360.82 370.31 356.18 377.58 368.73 380.05"/><path class="cls-2" d="M379.21,373.94a2.52,2.52,0,0,0,2.94-2l.58-3a2.52,2.52,0,0,0-2-2.94l-2.75-.54-4.64,7.27,5.84,1.15Z"/><path class="cls-2" d="M353.3,368.84l7.52,1.47,4.64-7.27-6.37-1.25-6.36,2.12c.22,1.51.41,3.18.56,4.93Z"/><path class="cls-2" d="M352.73,363.91l-1.15.38a2.52,2.52,0,0,1-3.16-1.58l-.9-2.72a2.45,2.45,0,0,0-1.42,1.78l-.59,3a2.51,2.51,0,0,0,2,2.93l5.82,1.15c-.15-1.75-.34-3.42-.56-4.93Z"/><path class="cls-2" d="M359.09,361.79l-7-1.37c.24,1,.45,2.2.64,3.5l6.36-2.12Z"/><path class="cls-2" d="M351.58,364.32l1.15-.38c-.19-1.3-.4-2.47-.64-3.5l-3.07-.6a2.53,2.53,0,0,0-1.51.19l.9,2.72a2.51,2.51,0,0,0,3.16,1.58Z"/><polygon class="cls-2" points="360.82 370.31 373.37 372.78 378.01 365.51 365.46 363.04 360.82 370.31"/><polygon class="cls-13" points="344.94 395.18 343.12 398 345.64 397.07 344.94 395.18"/><path class="cls-14" d="M197.94,318.12l15.31,2.64.19-6.3a16.09,16.09,0,0,1,.12-1.68,40.15,40.15,0,0,0-9.9-3.57,31.39,31.39,0,0,1-5.72,8.92Z"/><path class="cls-14" d="M343.48,391.33l-4.17-.81a2.51,2.51,0,0,1-2-2.94l.59-3a2.48,2.48,0,0,1,1.36-1.75l-4.7-8.29s.62-1,1.63-2.55L335,368.88l-57.81,21.69c-4.28,1.61-7.38.57-9.58-1.35-3.15-2.76-36.89-53.29-46.45-67.63-1.52-3.45-3.3-6.07-5.38-7.44a25.75,25.75,0,0,0-2.33-1.36c-.09,1-.12,1.68-.12,1.68l-.19,6.3-15.27-2.64a25.6,25.6,0,0,1-2.61,2.49c-14.74,12.22-40.42,6.48-46.72-6.35-8.58,5.59-15.4,17.75-23.27,48a122.77,122.77,0,0,0-3.72,35A81.59,81.59,0,0,0,177,420.34H211.6c.68-10.6,1.34-21.16,1.73-27.29,12.71,11.34,25.46,22.51,31.58,27.29h38.75L343.1,398l1.81-2.82-1.45-3.86Z"/><path class="cls-14" d="M339.31,382.85a2.36,2.36,0,0,1,.9-.24l-4-10.59c-1,1.54-1.63,2.55-1.63,2.55Z"/><path class="cls-14" d="M339.31,382.85A2.48,2.48,0,0,0,338,384.6l-.59,3a2.52,2.52,0,0,0,2,2.94l4.17.81-1.21-3.21-3-5.27Z"/><path class="cls-14" d="M340.21,382.61a2.36,2.36,0,0,0-.9.24l3,5.27-2.07-5.51Z"/><path class="cls-11" d="M472.91,259A116.58,116.58,0,0,0,258,205.19,66.15,66.15,0,0,0,168.94,259a81.77,81.77,0,0,0,8.11,163h287.5a81.78,81.78,0,0,0,8.36-163Z"/><path class="cls-10" d="M174.21,273.5v19a1.65,1.65,0,0,0,1.67,1.63,1.63,1.63,0,0,0,1.56-1.19,34.83,34.83,0,0,0,1.1-8.44,1.65,1.65,0,1,0-3.3,0,31.13,31.13,0,0,1-1,7.56l3.3.44v-19a1.65,1.65,0,0,0-3.3,0Z"/></g></g></svg>