<?xml version="1.0" encoding="UTF-8"?>
<svg id="Layer_2" xmlns="http://www.w3.org/2000/svg" version="1.1" viewBox="0 0 1493.8 1263">
  <!-- Generator: Adobe Illustrator 29.5.1, SVG Export Plug-In . SVG Version: 2.1.0 Build 141)  -->
  <defs>
    <style>
      .st0, .st1 {
        fill: none;
      }

      .st2 {
        fill: #001e2d;
      }

      .st3 {
        fill: #111;
      }

      .st4 {
        fill: #cec1b6;
      }

      .st1 {
        stroke: #fff;
        stroke-miterlimit: 10;
        stroke-width: 8px;
      }

      .st5 {
        fill: #d8bf80;
      }

      .st6 {
        fill: #1da960;
      }

      .st7 {
        fill: #ce2e3a;
      }

      .st8 {
        fill: #a08447;
      }

      .st9 {
        fill: #fce4cc;
      }

      .st10 {
        fill: #0c222b;
      }

      .st11 {
        fill: #fff0cc;
      }

      .st12 {
        fill: #1275a5;
      }

      .st13 {
        fill: #c5de86;
      }

      .st14 {
        fill: #021214;
      }
    </style>
  </defs>
  <g id="Layer_2-2">
    <path class="st7" d="M1324.7,405.6c-.5-82-24.9-162.7-78.2-225C1158.2,77.5,1028.8,8.6,892.9.6c-36.9-2.2-76.8.7-105.9,23.6-79.4,62.5-38.2,236.8-176.1,221.1-37.9-4.3-69.1-30.2-85.5-64.6C467.8,60,317.5,2.9,193.5,42.7,90.4,75.8,11.4,173.8,1.1,281.6c-2.9,30.6-.6,62.4,12.7,90.1,41.2,86,161.4,95.9,230.1,161.9,112.1,107.6,41.6,295,67.9,448.2,23.4,135.9,137.6,251.3,273.2,276.1,135.6,24.8,283.3-42.8,353.2-161.6,12.2-20.7,22.7-43.3,41.3-58.4,37.9-30.5,93.4-19.3,139.8-4.6,109.4,34.5,241,75.8,325-12,35.2-36.8,51.1-87.7,49.3-138.6-4.3-122.7-80.3-215.7-128.5-320.8-23.7-51.6-40.2-110.1-40.4-156.3"/>
    <polygon class="st9" points="878.9 1078.9 854.6 1112.3 840.8 1099.3 855.2 1060.6 878.9 1078.9"/>
    <polygon class="st14" points="860.7 1109 846.5 1138.1 782 1125.4 783.6 1117.3 830.4 1116.3 835.9 1093.9 860.7 1109"/>
    <polygon class="st9" points="771.9 1026.8 743.6 1057 731.6 1042.3 750.7 1005.7 771.9 1026.8"/>
    <polygon class="st14" points="752.2 1054.8 730.5 1081 671.7 1055.5 674.9 1047.9 721 1056 730.5 1034.9 752.2 1054.8"/>
    <path class="st10" d="M1056.5,779.9s-125.9,69.9-152.6,103.2-133.3,145.7-133.3,145.7l-23.7-19.7s97.7-140.1,141.8-196.2c44.2-56.1,143.4-147.5,143.4-147.5l76,96.6-51.6,17.9h0Z"/>
    <path class="st10" d="M1143.7,755.9c-40.7,67.9-102.9,95.1-145.6,151.1-42.6,56-122.1,176.2-122.1,176.2l-26.5-15.4s70.5-149.5,115.4-213.7,93-155.9,93-155.9c0,0,126.5-10.2,85.8,57.7h0Z"/>
    <path class="st9" d="M1021.2,360c-8.9,8.3-14.3,19.6-15.2,31.7-1.4,20.3.7,39.3,15.3,47,14.7,7.6,21.8,7.3,23.3,14.4s.8,16.7.8,16.7l-.8,8.4,50-2.4s-2-17.8,0-26.2,22.9-45.2,22.7-48.8,20.1-53.4-25.8-66.7c-45.9-13.5-70.3,25.9-70.3,25.9h0Z"/>
    <path class="st12" d="M1058.8,523.5l-37.8-46.6s-94.1,87.1-97,91.4-2.8,12.6,1.1,28.4c5.5,28.3,35.7,120.3,35.7,120.3l30-6.7-29.2-104.7s-2.5-8,0-13.6c5.9-6.4,97.1-68.5,97.1-68.5Z"/>
    <path class="st12" d="M1060.9,472.1l-30.3-1.4s-16.8,10-18.7,23.5c-1.9,13.6-25.9,202.4-25.9,202.4l149.3,59.8,1.8-244s-12.6-37.2-26.8-37.9l-49.4-2.4h0Z"/>
    <rect class="st3" x="1179.2" y="855.2" width="23.3" height="231.8"/>
    <rect class="st3" x="452.6" y="855.2" width="23.3" height="231.8"/>
    <rect class="st3" x="387.9" y="855.2" width="23.3" height="75.1"/>
    <rect class="st3" x="1114.5" y="855.2" width="23.3" height="75.1"/>
    <polygon class="st4" points="1258.3 860.4 370.5 860.4 329.6 697.2 1188.8 697.2 1258.3 860.4"/>
    <circle class="st14" cx="410.1" cy="235.5" r="17"/>
    <path class="st12" d="M849.2,829.9h203c5.1,0,9.2-4.1,9.2-9.2v-92.3c0-5.1-4.1-9.2-9.2-9.2h-203c-5.1,0-9.2,4.1-9.2,9.2h0v92.3c0,5.1,4,9.2,9.2,9.2h0ZM955.2,806.9h-9.2v-9.2h9.2v9.2ZM955.2,788.4h-9.2v-9.2h9.2v9.2ZM955.2,769.9h-9.2v-9.2h9.2v9.2ZM982.9,806.8h-9.2v-9.2h9.2v9.2ZM982.9,788.4h-9.2v-9.2h9.2v9.2ZM982.9,769.9h-9.2v-9.2h9.2v9.2ZM1029.1,742.2h9.2v9.2h-9.2v-9.2ZM1029.1,760.7h9.2v9.2h-9.2v-9.2ZM1029.1,779.2h9.2v9.2h-9.2v-9.2ZM1029.1,797.6h9.2v9.2h-9.2v-9.2ZM1001.4,742.3h9.2v9.2h-9.2v-9.2ZM1001.4,760.7h9.2v9.2h-9.2v-9.2ZM1001.4,779.2h9.2v9.2h-9.2v-9.2ZM1001.4,797.6h9.2v9.2h-9.2v-9.2ZM918.3,742.3h64.6v9.2h-64.6v-9.2ZM918.3,760.7h9.2v9.2h-9.2v-9.2ZM918.3,779.2h9.2v9.2h-9.2v-9.2ZM918.3,797.6h9.2v9.2h-9.2v-9.2ZM890.6,742.3h9.2v9.2h-9.2v-9.2ZM890.6,760.7h9.2v9.2h-9.2v-9.2ZM890.6,779.2h9.2v9.2h-9.2v-9.2ZM890.6,797.7h9.2v9.2h-9.2v-9.2ZM863,742.3h9.2v9.2h-9.2v-9.2ZM863,760.7h9.2v9.2h-9.2v-9.2ZM863,779.2h9.2v9.2h-9.2v-9.2ZM863,797.7h9.2v9.2h-9.2v-9.2Z"/>
    <path class="st8" d="M1071.1,329.2c-8.1-11.8,1.4-23-6-31-7.8-8.5-29.7-7.8-40.5,4.8-10.1,11.7-5.6,27.9-4.8,31,5.2,18.7,22.9,27.1,28.6,29.8,18.6,8.8,35.9,5.2,50,2.4,11-2.2,27.7-7.3,27.4-11.9-.3-3.4-9.6-3.6-28.6-10.7-14.7-5.7-22.1-8.5-26.1-14.4h0Z"/>
    <path class="st9" d="M1012.9,388.2l-6.8-1.3c-2.3-.4-4.4,1.1-4.8,3.4-.4,2.2,1.1,4.3,3.3,4.8l6.8,1.3,1.5-8.2h0Z"/>
    <circle cx="1024.3" cy="382.9" r="3"/>
    <path class="st9" d="M1014.5,809.9l35.3-60.1c1.2-2.1,3.9-2.8,6-1.6l1.7,1c2.1,1.2,2.8,3.9,1.6,6l-35.3,60.1c-1.2,2.1-3.9,2.8-6,1.6l-1.7-1c-2.1-1.2-2.8-3.9-1.6-6Z"/>
    <path class="st9" d="M1001.6,811.1l35.3-60.1c1.2-2.1,3.9-2.8,6-1.6l1.7,1c2.1,1.2,2.8,3.9,1.6,6l-35.3,60.1c-1.2,2.1-3.9,2.8-6,1.6l-1.7-1c-2.1-1.3-2.8-4-1.6-6Z"/>
    <path class="st9" d="M992.4,805.6l35.3-60.1c1.2-2.1,3.9-2.8,6-1.6l1.7,1c2.1,1.2,2.8,3.9,1.6,6l-35.3,60.1c-1.2,2.1-3.9,2.8-6,1.6l-1.7-1c-2.2-1.2-2.9-3.9-1.6-6h0Z"/>
    <path class="st9" d="M983,800.9l35.5-59.9c1.2-2.1,3.9-2.8,6-1.5l1.7,1c2.1,1.2,2.8,3.9,1.5,6l-35.5,59.9c-1.2,2.1-3.9,2.8-6,1.5l-1.7-1c-2-1.2-2.7-3.9-1.5-6h0Z"/>
    <path class="st9" d="M1016.5,734.5c5.5-3.6,31.3.9,31.3.9l8.5,24.8-8.5,10c0,0-36.7-32.1-31.3-35.7h0Z"/>
    <path class="st12" d="M1103,537.4l51.3-34.8s11.1,139.1,3.5,150.6c-5.4,7.9-11.6,15.2-18.6,21.8l-80.2,79.8-25.6-22.2s66.1-67.9,58.4-61.2c-7.6,6.8,22.5-20.8,27.2-32.5s-16-101.5-16-101.5h0Z"/>
    <path class="st9" d="M986,752l30.3-17.5c2.1-1.2,4.8-.5,6,1.6l1,1.7c1.2,2.1.5,4.8-1.6,6l-30.3,17.5c-2.1,1.2-4.8.5-6-1.6l-1-1.7c-1.2-2-.5-4.7,1.6-6Z"/>
    <path class="st5" d="M1048.4,323.2c-8.1-11.8,1.3-23-6-31-7.8-8.5-29.7-7.8-40.5,4.8-10.1,11.7-5.6,27.9-4.8,31,5.2,18.7,22.9,27.1,28.6,29.8,18.5,8.8,35.9,5.2,50,2.4,11-2.2,27.7-7.3,27.4-11.9-.3-3.4-9.6-3.6-28.6-10.7-14.6-5.6-22-8.4-26.1-14.4h0Z"/>
    <path class="st5" d="M1049.6,350.6c0-2.7-.7-18.5,10.7-28.6,10.9-9.6,25.3-7.4,34.5-6,5.3.8,25.6,4,38.1,21.4,11.5,16,9.1,34,7.2,48.8-1.3,9.5-4,30.1-20.2,46.5-10,10-26.9,20.3-33.3,15.5-7.3-5.5-2.8-32.2,1.2-44,1.5-4.2,1.9-8.7,1.2-13.1-.3-1.7-1.6-9.8-6-10.7-3.7-.8-7.8,4-9.5,7.1-3.2,5.8-2.6,13.4-2.4,15.5.3,4,1.2,5.9,0,7.1-2.2,2.2-8.6-.8-9.5-1.2-12.9-6-12.5-44.5-12-58.3h0Z"/>
    <path class="st5" d="M1137.7,368.5c2.8-9.9,25.6-18.1,38.1-8.3,7.4,5.8,11,17.7,8.3,26.2-1.2,3.9-3.3,5.7-3.6,10.7-.2,4.3.8,11.4,4.8,13.1s7.2-4,15.5-6c6.5-1.5,15.2-.5,21.4,4.8,9.1,7.8,10.4,23,4.8,31-4.7,6.6-12.6,6-13.1,10.7s6.3,9.6,11.9,11.9c12.3,5.2,19.3-2.3,28.6,2.4,7.9,4,11.3,13.8,11.9,20.2,1.8,19.1-18.9,31.8-21.4,33.4-11.2,6.9-30.6,12.1-41.7,3.6-6.5-5-4.5-10.4-16.7-26.2-7.7-10-11.3-11.5-14.2-11.9-7.5-.9-16.4,5-16.7,10.7-.3,6.7,11.4,8,14.2,17.9,2.6,8.6-2.8,19.5-9.5,23.8-13.3,8.5-39-3.7-48.8-21.4-11.7-21-1.1-49.8,10.7-65.5,8.2-10.9,14.7-12.2,20.2-25,1.7-4,8.3-19.2,3.6-35.7-3.4-12.2-9.9-14.6-8.3-20.4h0Z"/>
    <path class="st6" d="M1152.2,371.2c2.6-11.2,1.6-13.9,1.2-14.9-2.2-5.1-8.2-9.6-12.9-8.5-5.5,1.3-7.2,9.8-9.4,20.9-1.9,9.8-3.3,16.8.8,20.5,3.1,2.8,8.6,2.8,12.2.9,4.1-2.2,5.5-7.8,8.1-18.9h0Z"/>
    <path class="st14" d="M884.1,528.8h-317.9c-5.9,0-10.7,4.8-10.7,10.7v225.2c0,5.9,4.8,10.7,10.7,10.7h317.9c5.9,0,10.7-4.8,10.7-10.7v-225.2c0-5.9-4.8-10.7-10.7-10.7ZM774.3,802.8h-3c-11.2-1.2-16.8-18.9-19.5-29.9h-60.3c-2.8,11-8.3,28.7-19.5,29.8h-1c0,0-2,0-2,0-5.2,0-9.5,4.3-9.5,9.5s4.2,9.5,9.5,9.5h105.5c5.2,0,9.5-4.2,9.5-9.5s-4.4-9.5-9.7-9.5h0Z"/>
    <path class="st1" d="M555.5,633.7h-88.1s-23.2,2.5-23.2-21.5v-76.4c0-25.8-.3-37.3-37.4-37.4h-91.3c-12.7,0-30.2-2.6-30.2-30.2v-46.2"/>
    <polygon class="st0" points="345 391.6 344.3 391.6 344.2 391.5 343.5 391.3 344.9 395.2 347 392 345 391.6"/>
    <polygon class="st0" points="368.2 358.8 359.1 361.8 365.5 363 368.2 358.8"/>
    <path class="st0" d="M472.9,257.4c-4.6-64.2-60.5-112.5-124.7-107.9-37,2.7-70.4,22.7-90.2,54.1-14-5.3-29.4-5.7-43.6-1.2,13.4,4,23.2,12.7,26.9,16.1,5.9,5.3,10.6,9.5,10.1,14.7-.3,3.1-2.3,5.9-5.5,8.4,3,5.7,4.4,12.1,4,18.5v.9c-.1,0,4.1.7,4.1.7,1.7.3,2.9,1.9,2.6,3.6s-1.9,2.9-3.6,2.6h-.1l-3.6-.6c-1.5,12.3-5.4,22.7-15.1,26.4-11.6,4.3-16.9,3.4-18.7,8.5-1.1,3.5-1.7,7-2,10.6.8.4,1.6.9,2.3,1.4,2.1,1.4,3.9,4,5.4,7.4,9.6,14.3,43.3,64.9,46.5,67.6,2.2,1.9,5.3,3,9.6,1.4l57.8-21.7,1.2,3.1c2.6-4,7.9-11.6,11.6-14.4.3-.4.7-.7,1.2-.9l20.9-7c-7.8-10.3-8.2-26.1.1-39,10.3-16.1,30.1-21.9,44.2-12.9s17.2,29.4,6.9,45.5c-9,14.2-25.4,20.3-38.8,15.5l-4.3,6.7,2.8.5c1.4.3,2.2,1.6,2,2.9l-.6,3c-.3,1.4-1.6,2.2-2.9,2,1.4.3,2.2,1.6,2,2.9l-.6,3c-.3,1.4-1.6,2.2-2.9,2,1.4.3,2.2,1.6,2,2.9l-.6,3c-.3,1.4-1.6,2.2-2.9,2l-2.8-.5c1,.5,1.5,1.6,1.3,2.7l-.6,3c-.3,1.4-1.6,2.2-2.9,2l-11.5-2.3-6.6,10.3c-1.1,1.7-3.4,2.2-5.1,1.1l-3.8-2.4c-1.7-1.1-2.2-3.4-1.1-5.1l.2-.4-59.5,22.3h180.9c45.2-.7,81.2-37.9,80.5-83-1-41-31.8-75.2-72.5-80h0Z"/>
    <path class="st0" d="M211.6,420.3h33.3c-6.1-4.8-18.9-16-31.6-27.3-.4,6.2-1.1,16.7-1.7,27.3h0Z"/>
    <path class="st0" d="M125.3,362.2c7.9-30.2,14.7-42.4,23.3-48,0,0,0-.1-.1-.1-5.1-10.7,3.5-25.9,5-28.5,5.2-9.1,9.3-8.9,10.8-15.2,1.1-4.6-.3-8.3-2.5-11.9-44.2,9.2-72.6,52.5-63.4,96.6,3.3,16,11.4,30.6,23.1,42-.4-11.7.9-23.4,3.8-34.9h0Z"/>
    <path class="st11" d="M253.8,261.8l-4.3-.7h0s.1-.9.1-.9c.3-6.4-1.1-12.8-4-18.5-13.7,10.4-47.3,15.2-51.3,7.9-1.4-2.6.4-7.6-3-10.4-1.2-1-2.7-1.5-4.2-1.4-3.1.3-4.8,3.7-5.4,4.8-4.2,7.9,3.5,21,6.4,25.7,8.8,14.8,14.4,14.1,16.8,22.7,1.5,6.1.9,12.5-1.7,18.2,3.4.8,6.8,2,9.9,3.6.3-3.6.9-7.2,2-10.6,1.8-5.1,7.1-4.2,18.7-8.5,9.8-3.6,13.6-14.1,15.1-26.4h0l3.6.7c1.7.3,3.3-.8,3.7-2.5.4-1.7-.8-3.3-2.4-3.7h0ZM235.6,255.3c-.2,1.2-1.3,2-2.5,1.8-1.3-.2-2.1-1.3-1.9-2.6.2-1.2,1.4-2,2.6-1.8,1.2.2,2,1.4,1.8,2.6h0Z"/>
    <path d="M233.2,257.1c1.2.2,2.3-.6,2.5-1.8s-.6-2.3-1.8-2.5-2.3.6-2.5,1.8c-.3,1.1.5,2.2,1.8,2.5h0Z"/>
    <path class="st14" d="M344.9,395.1l.7,1.9-2.5.9-.2.4c-1.1,1.7-.6,4,1.1,5.1l3.8,2.4c1.7,1.1,4,.6,5.1-1.1l6.6-10.3-12.5-2.5-2.1,3.2Z"/>
    <path class="st14" d="M413.6,298.3c-14.1-9-33.9-3.3-44.2,12.9-8.3,13-7.9,28.7-.1,39l5.5-1.8c1.3-.5,2.7.2,3.2,1.5l.7,2.1h.1c0,0,.2.6.2.6.4,1.3-.3,2.7-1.6,3.2l-.7.3h0c0-.1-8.4,2.8-8.4,2.8l-2.7,4.3,12.5,2.5,4-6.2c13.4,4.6,29.6-1.5,38.5-15.6,10.3-16.1,7.2-36.5-6.9-45.5h0ZM382,358.8s0,0,0,0l.2-.4c.1-.2.2-.4.3-.6-.1.3-.2.6-.4.9v.2h-.1Z"/>
    <path class="st9" d="M380.7,366c1.4.2,2.3,1.5,2,2.9l-.6,3c-.2,1.4-1.5,2.3-2.9,2h-.1c1.4.2,2.3,1.5,2,2.9l-.6,3c-.2,1.2-1.2,2.1-2.4,2.1s-.4,0-.5,0c1.4.2,2.3,1.5,2,2.9l-.6,3c-.2,1.4-1.5,2.3-2.9,2l-2.7-.5c.9.5,1.3,1.5,1.1,2.6l-.6,3c-.2,1.4-1.5,2.3-2.9,2l-24.1-4.8-3.4-.7-1.1-2.9-6.2-16.6c2.6-4,13.5-15.3,13.5-15.3l25.6-8.5c1.3-.4,2.8.3,3.2,1.6l.6,1.9h0s.3.8.3.8c.4,1.3-.3,2.8-1.6,3.2l-1.3.5s0,0,0,0l-8.4,2.8-9.1,3h0l18.9,3.7h0s2.7.5,2.7.5h0Z"/>
    <path class="st6" d="M213.4,314.4s0-.6.1-1.7c-3.1-1.6-6.5-2.8-9.9-3.6-1.3,3.4-3.3,6.4-5.7,9l15.3,2.6.2-6.3h0Z"/>
    <path class="st6" d="M345.6,397.1l-.7-1.9h0s-1.4-3.9-1.4-3.9l-1.2-3.2-3-5.3h0l-4.7-8.3h0l4.7,8.3c.3-.1.6-.2.9-.2l-4-10.6h0l-1.2-3.1-57.8,21.7c-4.3,1.6-7.4.6-9.6-1.4-3.1-2.8-36.9-53.3-46.4-67.6-1.5-3.5-3.3-6.1-5.4-7.4-.8-.5-1.5-1-2.3-1.4-.1,1-.1,1.7-.1,1.7l-.2,6.3-15.3-2.6c-.8.9-1.7,1.7-2.6,2.5-14.7,12.2-40.4,6.5-46.7-6.4-8.6,5.6-15.4,17.8-23.3,48-2.9,11.4-4.2,23.2-3.7,35,14.9,14.5,34.7,22.7,55.4,23.1h34.6c.7-10.6,1.3-21.2,1.7-27.3,12.7,11.3,25.5,22.5,31.6,27.3h38.8l59.4-22.3h0c0-.1,2.4-1,2.4-1h0ZM338.4,383.5c-.2.3-.4.7-.5,1.1,0-.4.2-.8.5-1.1Z"/>
    <path class="st13" d="M339.3,382.8l3,5.3-2.1-5.5c-.3,0-.6.1-.9.2Z"/>
    <path class="st2" d="M241.3,218.4c-3.7-3.3-13.5-12.1-26.9-16.1-24.6,7.8-42.4,29.3-45.5,55-.8.1-1.6.2-2.4.4-1.6.2-3.1.5-4.7.8,2.2,3.6,3.6,7.3,2.5,11.9-1.5,6.3-5.6,6.1-10.8,15.2-1.5,2.6-10.1,17.8-5,28.5h.1c6.3,12.9,32,18.7,46.7,6.5.9-.8,1.8-1.6,2.6-2.5,2.4-2.6,4.4-5.6,5.8-8.9,2.6-5.7,3.2-12.1,1.7-18.2-2.4-8.6-7.9-7.9-16.8-22.7-2.8-4.7-10.5-17.8-6.4-25.7.6-1,2.3-4.4,5.4-4.8,1.5-.1,3.1.4,4.2,1.4,3.4,2.9,1.6,7.9,3,10.4,4,7.3,37.6,2.6,51.1-8.2,3.1-2.5,5.2-5.4,5.5-8.4.5-5.1-4.2-9.3-10.1-14.6h0Z"/>
    <path class="st1" d="M472.9,259c-4.6-64.2-60.5-112.5-124.7-107.9-37,2.7-70.4,22.7-90.2,54.1-34.1-12.9-72.3,4.2-85.3,38.4-1.9,5-3.2,10.1-3.8,15.4-44.8,5.4-76.8,46.1-71.5,90.9,4.8,40.5,38.8,71.2,79.6,72h287.5c45.2-.8,81.2-38,80.4-83.1-.7-40.8-31.4-74.9-72-79.8h0Z"/>
  </g>
</svg>