<?xml version="1.0" encoding="UTF-8"?><svg id="Layer_2" xmlns="http://www.w3.org/2000/svg" viewBox="0 0 1488.75 1263.33"><defs><style>.cls-1{fill:#003c5a;}.cls-2{fill:#d8bf80;}.cls-3{fill:#a08447;}.cls-4{fill:#fce4cc;}.cls-5{fill:#18b7c9;}.cls-6{fill:#fbd7b3;}.cls-7{fill:#dcebb6;}.cls-8{fill:#fff;}.cls-9{fill:#fff0cc;}.cls-10{fill:#f17900;}.cls-11{fill:#07373c;}.cls-12{fill:#f5a14d;}.cls-13{fill:#c5de86;}.cls-14{fill:#8bbd0d;}.cls-15{fill:#021214;}.cls-16{fill:none;stroke:#001e2d;stroke-miterlimit:10;}.cls-17{fill:#1c2603;}</style></defs><g id="Layer_2-2"><path class="cls-5" d="M353.56,160.11C179.66,250.51,50.26,422.31,11.46,614.41c-16,79.4-17,163.2,8.3,240.1,28.7,87.1,89.7,160.8,160.8,218.7,185.3,151.1,436.5,201.3,675.2,188.1,189.7-10.5,387.9-64,517.9-202.6s162.6-378.5,31.3-515.8c-52.3-54.7-123.4-87.9-179.3-139-134.8-123-185.7-349.1-362.2-395.7-54.2-14.2-111.4-7.7-166.5,2.3-148.9,27.2-267.1,109.9-343.4,149.6"/><polygon class="cls-4" points="1090.56 1085.01 1088.26 1117.91 1103.36 1116.91 1114.36 1085.91 1090.56 1085.01"/><polygon class="cls-4" points="1181.06 1068.31 1180.46 1101.21 1195.56 1099.51 1204.86 1068.01 1181.06 1068.31"/><path class="cls-4" d="M1092.76,475.71c-8.1,7.5-13,17.8-13.8,28.7-1.3,18.4.6,35.6,13.9,42.6s19.8,6.6,21.1,13,.7,15.1.7,15.1l-.7,7.6,45.3-2.2s-1.8-16.1,0-23.8,20.8-41,20.6-44.2c-.2-3.2,18.2-48.4-23.4-60.5-41.5-11.9-63.7,23.7-63.7,23.7h0Z"/><path class="cls-4" d="M1080.16,505.51l-6.3.3s-3.8.2-3.6,4c.2,3.8,4,3.6,4,3.6l6.3-.3-.4-7.6h0Z"/><path class="cls-10" d="M1182.36,507.11l-70.6-51.9c2.2-2.3,4.8-4.3,7.6-6,9-5.6,25.6-11.1,46.3,2.8,31.9,21.4,16.7,55.1,16.7,55.1h0Z"/><path class="cls-10" d="M1130.76,468.81l-38-27.9s-7.1-3.8-1.9-7.1,23.8,7.3,23.8,7.3l37.1,21.9-21,5.8h0Z"/><path d="M1144.66,479.21s-39.4,17.5-57.2-.3-7.5-28.9-7.5-28.9c0,0,.5,15.1,9.1,14.8s10.5-9,10.5-9c0,0-2.4-7.5,10.7-3.6s34.4,27,34.4,27h0Z"/><path d="M1154.36,486.51s1.1,13.3-8.3,19.2c-9.4,5.9-15.3-3.6-15.3-3.6,0,0-1.8,8.7,2.7,11.8,4.5,3.1,13.2,4.8,17.2-.8,4.1-5.6,2.1-2.3,5-7.8,2-3.3,3-5.5,7.4-2.5,5.6,3,4.5,4.1,3.5,6.3s-6.1,8.9-7,12.2c-1.9,5.5-8.6,24.2,4.6,27.9s18.2-3,18.2-3c0,0-10.7,1.6-11.2-8.1s19.4-23.6,11.5-30.8c-7.8-7.3-28.2-20.8-28.3-20.8h0Z"/><circle cx="1098.86" cy="500.81" r="2.7"/><path class="cls-4" d="M1222.96,422.61l2-36.5c.1-2.4,2.2-4.2,4.5-4.1l1.1.1c2.4.1,4.2,2.2,4.1,4.5l-2,36.5c-.1,2.4-2.2,4.2-4.5,4.1l-1.1-.1c-2.4-.1-4.2-2.2-4.1-4.5Z"/><path class="cls-4" d="M1213.66,417.71l2-36.5c.1-2.4,2.2-4.2,4.5-4.1l1.1.1c2.4.1,4.2,2.2,4.1,4.5l-2,36.5c-.1,2.4-2.2,4.2-4.5,4.1l-1.1-.1c-2.4-.1-4.2-2.1-4.1-4.5Z"/><path class="cls-4" d="M1203.96,417.11l2-36.5c.1-2.4,2.2-4.2,4.5-4.1l1.1.1c2.4.1,4.2,2.2,4.1,4.5l-2,36.5c-.1,2.4-2.2,4.2-4.5,4.1l-1.1-.1c-2.4,0-4.2-2.1-4.1-4.5Z"/><path class="cls-4" d="M1194.26,416.61l2-36.5c.1-2.4,2.2-4.2,4.5-4.1l1.1.1c2.4.1,4.2,2.2,4.1,4.5l-2,36.5c-.1,2.4-2.2,4.2-4.5,4.1l-1.1-.1c-2.4-.1-4.2-2.1-4.1-4.5Z"/><path class="cls-4" d="M1190.16,417.81c2.3,5.5,24.1,15,24.1,15l18.8-14.4-1.4-11.8c0-.1-43.8,5.7-41.5,11.2h0Z"/><path class="cls-12" d="M1145.96,595.91l34.3,42.3s85.3-78.9,87.8-82.8,2.6-11.5-1-25.7c-5.1-25.7-32.4-109-32.4-109l-27.2,6,26.4,94.9s2.2,7.3-.1,12.3c-5.2,5.7-87.8,61.9-87.8,62h0Z"/><path class="cls-11" d="M1120.06,795.71s40.8,83.3,46.6,117c5.8,33.6,8.3,174.6,8.3,174.6l34.4-.2s4.1-133.9,2.4-190.7-20.8-151.7-20.8-151.7l-95.5,15,24.6,36h0Z"/><path class="cls-11" d="M1060.26,767.91c-3.3,63,25.7,108.7,29,164.6,3.3,55.9-5.2,166.4-5.2,166.4l34.1,4.8s19.9-123,19.8-191.5-13.7-144.4-13.7-144.4c0,0-60.7-62.9-64,.1h0Z"/><polygon class="cls-15" points="1083.96 1118.21 1082.46 1144.21 1140.06 1149.11 1140.76 1142.61 1105.36 1130.81 1107.66 1116.61 1083.96 1118.21"/><polygon class="cls-15" points="1176.16 1101.71 1175.96 1127.81 1233.76 1129.81 1234.06 1123.31 1198.16 1113.31 1199.76 1099.01 1176.16 1101.71"/><path class="cls-12" d="M1128.66,577.31l-27.5-1.3s-28.1-1.4-29.7,17.2c-1.6,18.6-14.2,183.5-14.2,183.5l145.4,2.1-4.6-171.3s-11.7-27.6-24.6-28.2l-44.8-2h0Z"/><path class="cls-4" d="M1025.56,356.21l1.1-.1c2.4-.1,4.4,1.7,4.5,4.1l2,36.5c.1,2.4-1.7,4.4-4.1,4.5l-1.1.1c-2.4.1-4.4-1.7-4.5-4.1l-2-36.5c-.1-2.4,1.7-4.4,4.1-4.5Z"/><path class="cls-4" d="M1034.86,351.31l1.1-.1c2.4-.1,4.4,1.7,4.5,4.1l2,36.5c.1,2.4-1.7,4.4-4.1,4.5l-1.1.1c-2.4.1-4.4-1.7-4.5-4.1l-2-36.5c-.1-2.3,1.7-4.3,4.1-4.5Z"/><path class="cls-4" d="M1044.56,350.81l1.1-.1c2.4-.1,4.4,1.7,4.5,4.1l2,36.5c.1,2.4-1.7,4.4-4.1,4.5l-1.1.1c-2.4.1-4.4-1.7-4.5-4.1l-2-36.5c-.1-2.3,1.7-4.4,4.1-4.5Z"/><path class="cls-4" d="M1054.26,350.31l1.1-.1c2.4-.1,4.4,1.7,4.5,4.1l2,36.5c.1,2.4-1.7,4.4-4.1,4.5l-1.1.1c-2.4.1-4.4-1.7-4.5-4.1l-2-36.5c-.1-2.4,1.7-4.4,4.1-4.5Z"/><path class="cls-4" d="M1065.96,391.91c-2.3,5.5-24.1,15-24.1,15l-18.8-14.4,1.4-11.8c0-.1,43.8,5.7,41.5,11.2h0Z"/><path class="cls-12" d="M1099.36,579.71l-21.3,52s-78-99.4-78.1-112c-.1-12.5,3.1-25.7,3.1-25.7l20.5-100.4,30.4,3.9s-15.9,84.4-13.5,75.5-6.6,27-4.2,38.2c2.4,11.1,63.1,68.5,63.1,68.5h0Z"/><polygon class="cls-8" points="1254.56 403.41 1003.56 360.11 1011.66 187.91 1252.86 204.31 1254.56 403.41"/><path class="cls-4" d="M1057.56,387.11l13.8-27.8c1.1-2.1,3.6-3,5.8-1.9l1,.5c2.1,1.1,3,3.6,1.9,5.8l-13.8,27.8c-1.1,2.1-3.6,3-5.8,1.9l-1-.5c-2.1-1-3-3.6-1.9-5.8Z"/><path class="cls-4" d="M1177.96,383.81l1-.5c2.1-1.1,4.7-.2,5.8,1.9l13.8,27.8c1.1,2.1.2,4.7-1.9,5.8l-1,.5c-2.1,1.1-4.7.2-5.8-1.9l-13.8-27.8c-1.1-2.1-.2-4.7,1.9-5.8Z"/><polygon class="cls-4" points="517.36 1097.41 518.46 1130.31 533.36 1127.81 541.06 1095.81 517.36 1097.41"/><polygon class="cls-15" points="515.96 1125.41 512.36 1150.91 560.66 1171.21 563.16 1165.11 532.76 1143.71 539.06 1126.41 515.96 1125.41"/><polygon class="cls-9" points="592.16 1087.21 592.66 1120.21 607.56 1117.91 615.96 1086.21 592.16 1087.21"/><polygon class="cls-15" points="588.76 1114.31 587.46 1141.31 635.76 1157.81 637.96 1151.61 606.46 1131.71 612.16 1114.21 588.76 1114.31"/><path class="cls-15" d="M556.96,789.11s36.7,108.7,34.5,142.7c-2.1,34,.3,157.3.3,157.3l24.5,1.1s17.6-134.9,21.7-191.6c4.1-56.7-5.4-163.8-5.4-163.8l-96.6,16.1,21,38.2h0Z"/><path class="cls-15" d="M485.86,766.11c-3.3,63,25.7,108.7,29,164.6,3.3,55.9,2.4,170.8,2.4,170.8l24.4,1.6s19.9-130.1,18.8-192.5,7.9-144.4,7.9-144.4c0,0-79.2-63-82.5-.1h0Z"/><path class="cls-4" d="M610.36,456.81c8,7.6,12.8,17.9,13.4,28.9,1,18.4-1.2,35.6-14.5,42.3s-19.8,6.3-21.3,12.8-1,15.1-1,15.1l.6,7.6-45.2-2.8s2.1-16.1.4-23.8-20.2-41.2-20-44.5-17.6-48.6,24.2-60.1c41.7-11.4,63.4,24.5,63.4,24.5h0Z"/><path class="cls-4" d="M622.56,486.71l6.3.4s3.8.2,3.5,4-4,3.5-4,3.5l-6.3-.4.5-7.5Z"/><circle cx="603.96" cy="481.81" r="2.7"/><path class="cls-13" d="M558.66,560.21l-27.5-1.3s-19.5-.2-23.3,17.2-30.4,183.5-30.4,183.5l164.8,2.1-25.1-171.2s-.9-27.6-13.8-28.2l-44.7-2.1h0Z"/><path class="cls-4" d="M666.06,393.51l2-36.5c.1-2.4,2.2-4.2,4.5-4.1l1.1.1c2.4.1,4.2,2.2,4.1,4.5l-2,36.5c-.1,2.4-2.2,4.2-4.5,4.1l-1.1-.1c-2.4-.1-4.2-2.2-4.1-4.5Z"/><path class="cls-4" d="M656.76,388.61l2-36.5c.1-2.4,2.2-4.2,4.5-4.1l1.1.1c2.4.1,4.2,2.2,4.1,4.5l-2,36.5c-.1,2.4-2.2,4.2-4.5,4.1l-1.1-.1c-2.4-.1-4.3-2.1-4.1-4.5Z"/><path class="cls-4" d="M647.06,388.01l2-36.5c.1-2.4,2.2-4.2,4.5-4.1l1.1.1c2.4.1,4.2,2.2,4.1,4.5l-2,36.5c-.1,2.4-2.2,4.2-4.5,4.1l-1.1-.1c-2.4,0-4.2-2.1-4.1-4.5Z"/><path class="cls-4" d="M637.36,387.51l2-36.5c.1-2.4,2.2-4.2,4.5-4.1l1.1.1c2.4.1,4.2,2.2,4.1,4.5l-2,36.5c-.1,2.4-2.2,4.2-4.5,4.1l-1.1-.1c-2.4-.1-4.2-2.1-4.1-4.5Z"/><path class="cls-4" d="M633.26,388.61c2.3,5.5,24.1,15,24.1,15l18.8-14.4-1.4-11.8s-43.8,5.8-41.5,11.2h0Z"/><path class="cls-13" d="M599.76,576.41l21.3,52s78-99.4,78.1-112-3.1-25.7-3.1-25.7l-20.6-100.4-30.5,3.9s15.9,84.4,13.5,75.5,6.5,27,4.2,38.2c-2.2,11.2-62.9,68.5-62.9,68.5h0Z"/><path class="cls-4" d="M454.86,347.61l1.1-.1c2.4-.1,4.4,1.7,4.5,4.1l2,36.5c.1,2.4-1.7,4.4-4.1,4.5l-1.1.1c-2.4.1-4.4-1.7-4.5-4.1l-2-36.5c-.1-2.3,1.7-4.4,4.1-4.5Z"/><path class="cls-4" d="M464.16,342.71l1.1-.1c2.4-.1,4.4,1.7,4.5,4.1l2,36.5c.1,2.4-1.7,4.4-4.1,4.5l-1.1.1c-2.4.1-4.4-1.7-4.5-4.1l-2-36.5c-.1-2.3,1.8-4.3,4.1-4.5Z"/><path class="cls-4" d="M473.86,342.21l1.1-.1c2.4-.1,4.4,1.7,4.5,4.1l2,36.5c.1,2.4-1.7,4.4-4.1,4.5l-1.1.1c-2.4.1-4.4-1.7-4.5-4.1l-2-36.5c-.1-2.3,1.8-4.4,4.1-4.5Z"/><path class="cls-4" d="M483.56,341.71l1.1-.1c2.4-.1,4.4,1.7,4.5,4.1l2,36.5c.1,2.4-1.7,4.4-4.1,4.5l-1.1.1c-2.4.1-4.4-1.7-4.5-4.1l-2-36.5c-.1-2.4,1.7-4.4,4.1-4.5Z"/><path class="cls-4" d="M495.26,383.21c-2.3,5.5-24.1,15-24.1,15l-18.8-14.4,1.4-11.8s43.8,5.8,41.5,11.2h0Z"/><path class="cls-13" d="M528.76,571.01l-21.3,52s-78-99.4-78.1-112c-.1-12.5,3.1-25.7,3.1-25.7l20.5-100.4,30.4,3.9s-15.9,84.4-13.5,75.5-6.5,27-4.2,38.2c2.3,11.2,63.1,68.5,63.1,68.5h0Z"/><polygon class="cls-8" points="441.66 362.31 692.56 361.31 689.36 189.21 445.06 198.71 441.66 362.31"/><path class="cls-4" d="M621.16,356.31l1-.5c2.1-1,4.7-.2,5.8,2l13.6,27.9c1,2.1.2,4.7-2,5.8l-1,.5c-2.1,1-4.7.2-5.8-2l-13.6-27.9c-1-2.1-.1-4.7,2-5.8Z"/><path class="cls-4" d="M486.86,378.51l13.8-27.8c1.1-2.1,3.6-3,5.8-1.9l1,.5c2.1,1.1,3,3.6,1.9,5.8l-13.8,27.8c-1.1,2.1-3.6,3-5.8,1.9l-1-.5c-2.1-1.1-2.9-3.7-1.9-5.8Z"/><path class="cls-15" d="M543.26,423.71c30.3-11.4,56.9,7.7,64.5,13.1,7.8,5.6,14,10,14.1,16.4.3,19.7-58.6,37.7-65.7,27.5-2-2.9-.5-9.1-5-12.2-1.5-1-3.4-1.5-5.3-1.2-3.6.8-5.3,5.1-5.8,6.5-4,10,7,24.8,11,30.1,12.6,16.6,19.2,15,23.2,25,4.7,11.7,1.1,27.3-8.1,36.9-16.1,16.7-48,13.1-57.1-1.6-7.6-12.2.8-31.6,2.2-34.9,5-11.6,10-12,11-19.7,1.8-14.4-14.9-19.7-17.7-34.9-3.6-18.6,16-42.4,38.7-51h0Z"/><path class="cls-3" d="M812.76,745.71c-7.3-10.7,1.2-20.8-5.4-28-7.1-7.7-26.9-7.1-36.7,4.3-9.1,10.6-5.1,25.3-4.3,28,4.7,17,20.7,24.5,25.9,27,16.8,7.9,32.5,4.8,45.3,2.2,9.9-2,25.1-6.7,24.8-10.8-.2-3.1-8.7-3.2-25.9-9.7-13.3-5.1-20-7.6-23.7-13Z"/><polygon class="cls-4" points="806.56 1155.71 839.26 1159.31 835.66 1174.01 803.26 1179.41 806.56 1155.71"/><polygon class="cls-4" points="544.36 1166.01 518.06 1186.01 510.66 1172.81 530.46 1146.61 544.36 1166.01"/><path class="cls-4" d="M767.56,773.61c-8.1,7.5-13,17.8-13.8,28.7-1.3,18.4.6,35.6,13.9,42.5s19.8,6.6,21.2,13,.7,15.1.7,15.1l-.7,7.6,45.3-2.1s-1.8-16.1,0-23.8,20.7-41,20.6-44.2,18.2-48.4-23.4-60.5-63.8,23.6-63.8,23.7h0Z"/><path class="cls-4" d="M760.06,799.11l-6.2-1.2s-3.7-.7-4.4,3,3,4.4,3,4.4l6.2,1.2,1.4-7.4h0Z"/><circle cx="770.46" cy="794.31" r="2.7"/><path class="cls-4" d="M921.56,713.91l2-36.5c.1-2.4,2.2-4.2,4.5-4.1l1.1.1c2.4.1,4.2,2.2,4.1,4.5l-2,36.5c-.1,2.4-2.2,4.2-4.5,4.1l-1.1-.1c-2.4-.1-4.3-2.1-4.1-4.5Z"/><path class="cls-4" d="M912.26,709.01l2-36.5c.1-2.4,2.2-4.2,4.5-4.1l1.1.1c2.4.1,4.2,2.2,4.1,4.5l-2,36.5c-.1,2.4-2.2,4.2-4.5,4.1l-1.1-.1c-2.4,0-4.3-2.1-4.1-4.5Z"/><path class="cls-4" d="M902.56,708.51l2-36.5c.1-2.4,2.2-4.2,4.5-4.1l1.1.1c2.4.1,4.2,2.2,4.1,4.5l-2,36.5c-.1,2.4-2.2,4.2-4.5,4.1l-1.1-.1c-2.4-.1-4.3-2.1-4.1-4.5Z"/><path class="cls-4" d="M892.86,708.01l2-36.5c.1-2.4,2.2-4.2,4.5-4.1l1.1.1c2.4.1,4.2,2.2,4.1,4.5l-2,36.5c-.1,2.4-2.2,4.2-4.5,4.1l-1.1-.1c-2.4-.1-4.3-2.1-4.1-4.5Z"/><path class="cls-4" d="M888.76,709.11c2.3,5.5,24.1,15,24.1,15l18.8-14.4-1.4-11.8s-43.8,5.7-41.5,11.2Z"/><path class="cls-7" d="M844.46,887.21l34.3,42.3s85.3-78.9,87.8-82.8,2.6-11.4-1-25.7c-5.1-25.7-32.4-109.1-32.4-109.1l-27.2,6.1,26.4,94.8s2.2,7.3-.1,12.3c-5.1,5.8-87.8,62.1-87.8,62.1h0Z"/><polygon class="cls-15" points="825.46 1155.31 843.26 1150.41 885.06 1182.01 881.16 1187.31 847.06 1172.21 827.46 1180.31 825.46 1155.31"/><polygon class="cls-15" points="520.26 1189.71 499.36 1205.31 463.56 1159.91 468.66 1155.81 497.96 1178.81 508.46 1169.11 520.26 1189.71"/><path class="cls-4" d="M704.66,649.71l1.1-.1c2.4-.1,4.4,1.7,4.5,4.1l2,36.5c.1,2.4-1.7,4.4-4.1,4.5l-1.1.1c-2.4.1-4.4-1.7-4.5-4.1l-2-36.5c-.1-2.3,1.8-4.4,4.1-4.5Z"/><path class="cls-4" d="M713.96,644.81l1.1-.1c2.4-.1,4.4,1.7,4.5,4.1l2,36.5c.1,2.4-1.7,4.4-4.1,4.5l-1.1.1c-2.4.1-4.4-1.7-4.5-4.1l-2-36.5c-.1-2.3,1.8-4.3,4.1-4.5Z"/><path class="cls-4" d="M723.66,644.31l1.1-.1c2.4-.1,4.4,1.7,4.5,4.1l2,36.5c.1,2.4-1.7,4.4-4.1,4.5l-1.1.1c-2.4.1-4.4-1.7-4.5-4.1l-2-36.5c-.1-2.3,1.8-4.4,4.1-4.5Z"/><path class="cls-4" d="M733.36,643.81l1.1-.1c2.4-.1,4.4,1.7,4.5,4.1l2,36.5c.1,2.4-1.7,4.4-4.1,4.5l-1.1.1c-2.4.1-4.4-1.7-4.5-4.1l-2-36.5c-.1-2.4,1.8-4.4,4.1-4.5Z"/><path class="cls-4" d="M745.06,685.41c-2.3,5.5-24.1,15-24.1,15l-18.8-14.4,1.4-11.8c0-.1,43.8,5.7,41.5,11.2h0Z"/><path class="cls-7" d="M778.56,877.51l-21.3,52s-78-99.5-78.1-112,3.1-25.7,3.1-25.7l20.5-100.4,30.5,3.9s-15.9,84.4-13.5,75.5-6.5,27-4.2,38.2,63,68.5,63,68.5h0Z"/><polygon class="cls-8" points="939.86 686.81 667.46 657.61 684.96 486.11 926.06 494.11 939.86 686.81"/><path class="cls-4" d="M736.66,680.61l13.8-27.8c1.1-2.1,3.6-3,5.8-1.9l1,.5c2.1,1.1,3,3.6,1.9,5.8l-13.8,27.8c-1.1,2.1-3.6,3-5.8,1.9l-1-.5c-2.1-1.1-2.9-3.7-1.9-5.8Z"/><path class="cls-4" d="M876.56,675.11l1-.5c2.1-1.1,4.7-.2,5.8,1.9l13.8,27.8c1.1,2.1.2,4.7-1.9,5.8l-1,.5c-2.1,1.1-4.7.2-5.8-1.9l-13.8-27.8c-1.1-2.1-.3-4.7,1.9-5.8Z"/><path class="cls-15" d="M754.46,1093.11s-13,5.4-95,36.7c-4.1,2.3-12.7,7.1-15.1,16.2-2.2,8.5,6.5,10.8,6.5,10.8h20.5s119.2-5.3,121.9-25.9c2.3-16.8-38.8-37.8-38.8-37.8h0Z"/><path class="cls-11" d="M656.96,1135.71c7.9,1.6,131.6,15.9,131.6,15.9l19.2,2.2-.1,26.3s-142-4.8-159-11.6c-4.8-4.1-7.2-10.3-6.5-16.6.8-5.9,6.9-17.8,14.8-16.2h0Z"/><path class="cls-11" d="M770.86,1136.81c-22.6-25.2-55.4-53.8-86-51.5-53.9,4-141.1,88.4-141.1,88.4l-23-25.6s110.6-110.6,153.7-114.5,188.5,36.4,188.5,36.4c0,0-18,54.4-29.2,64.6-11.3,10.3-45.6,21.5-62.9,2.2h0Z"/><path class="cls-7" d="M803.56,875.21l-27.4-1.3s-15.2,7.2-16.8,17.2-21.8,149-21.8,149l135.7,45.2-.4-179.9s-11.7-27.6-24.6-28.2l-44.7-2h0Z"/><path class="cls-2" d="M792.26,740.31c-7.3-10.7,1.2-20.8-5.4-28-7.1-7.7-26.9-7.1-36.7,4.3-9.1,10.6-5.1,25.3-4.3,28,4.7,17,20.7,24.5,25.9,27,16.8,7.9,32.5,4.8,45.3,2.2,9.9-2,25.1-6.7,24.8-10.8-.2-3.1-8.7-3.2-25.9-9.7-13.3-5.1-20-7.6-23.7-13Z"/><path class="cls-2" d="M793.36,765.11c-.1-2.4-.6-16.8,9.7-25.9,9.9-8.7,22.9-6.7,31.3-5.4,4.8.7,23.2,3.6,34.5,19.4,10.4,14.5,8.2,30.8,6.5,44.2-1.1,8.6-3.6,27.3-18.3,42.1-9.1,9.1-24.4,18.4-30.2,14-6.6-5-2.6-29.1,1.1-39.9,1.3-3.8,1.7-7.9,1.1-11.9-.3-1.6-1.5-8.9-5.4-9.7-3.4-.7-7.1,3.6-8.6,6.5-2.9,5.3-2.3,12.2-2.2,14,.3,3.6,1.1,5.4,0,6.5-2,2-7.8-.7-8.6-1.1-11.8-5.4-11.4-40.3-10.9-52.8h0Z"/><path class="cls-2" d="M873.16,781.31c2.5-8.9,23.2-16.4,34.5-7.5,6.7,5.2,10,16,7.5,23.7-1.1,3.5-3,5.2-3.2,9.7-.2,3.9.7,10.3,4.3,11.9s6.5-3.6,14-5.4c5.8-1.4,13.8-.5,19.4,4.3,8.2,7,9.5,20.8,4.3,28-4.2,6-11.4,5.4-11.9,9.7s5.8,8.6,10.8,10.8c11.1,4.7,17.5-2.1,25.9,2.2,7.2,3.6,10.2,12.5,10.8,18.3,1.6,17.3-17.1,28.7-19.4,30.2-10.2,6.2-27.7,11-37.8,3.2-5.9-4.5-4.1-9.4-15.1-23.7-7-9.1-10.2-10.5-13-10.8-6.8-.8-14.8,4.5-15.1,9.7-.3,6.1,10.3,7.3,13,16.2,2.3,7.8-2.5,17.7-8.6,21.6-12.1,7.7-35.3-3.3-44.2-19.4-10.5-19-1-45.1,9.7-59.3,7.5-9.9,13.3-11,18.3-22.7,1.5-3.6,7.5-17.4,3.2-32.4-3-10.9-8.9-13-7.4-18.3h0Z"/><path class="cls-14" d="M886.26,783.71c2.4-10.2,1.5-12.6,1.1-13.5-2-4.6-7.5-8.7-11.7-7.7-5,1.2-6.5,8.9-8.5,18.9-1.8,8.9-3,15.2.8,18.5,2.9,2.5,7.8,2.6,11.1.8,3.6-1.8,4.8-6.9,7.2-17h0Z"/><path d="M549.66,274.21c-1.5,10.8-1,24.8.7,32.7,8.6,1.1,32.8,1.4,38.1.7l.7-.1c.5,0,1.1-.1,1.6-.3,1.1-.4,1.8-1.7,1.7-5.9,0-1,.5-2,1.3-2.6,2.8-1.9,3.2-4,2.1-7.8-.5-1.6.5-3.3,2.1-3.8.1,0,.2,0,.3-.1,1-.2,2.2-5,1.2-5.9-1.3-1.1-1.4-3.1-.3-4.4q.1-.1.2-.2c.8-1.1,1.3-2.5,1.3-3.9,0-2.7-.8-3.8-3.4-4.2-2-.3-4.1-.5-6.2-.6-4-.2-8-.1-11.9.2-1,.1-1.9.1-2.7.2l-1,.1c-1.2.1-2.4-.5-3-1.6-.2-.4-.3-.8-.4-1.2-.4-1.9.1-5.5,1.7-11.6,1.5-5.8-2.4-11.6-7.2-13.8-.7-.3-1.1-.3-1.5.2,0,1.4.1,2.9,0,4.2,0,1.2-.1,2.2-.2,3.1-.6,5.6-1.6,8.8-4.9,14.9-1.4,2.4-3.1,4.6-5.1,6.6-1.3,1.4-2.7,2.6-4.2,3.8-.2.7-.7,1.1-1,1.3h0ZM548.36,267.31c.8-.7,1.6-1.5,2.3-2.2,1.6-1.6,3-3.3,4.1-5.2,2.9-5.5,3.7-7.9,4.2-12.7.1-.7.1-1.6.1-2.6v-3.9c0-.6,0-1.1-.1-1.4,0-.6.1-1.2.4-1.8.4-.7,1-1.3,1.6-1.8,2.2-2,5.5-2.4,8.1-1,7.2,3.3,13,11.8,10.5,20.9-.6,2.1-1.1,4.2-1.4,6.4h.4c4.2-.3,8.5-.4,12.7-.2,2.3.1,4.7.3,7,.7,5.8,1,8.5,4.7,8.5,10.3,0,2.1-.6,4.3-1.6,6.2,1.7,4,.4,10-2.9,12.8.8,4.5-.2,8.1-3.8,11.1-.1,5.8-2.2,9.1-5.9,10.4-.6.2-1.2.3-1.8.4q-.4.1-1.3.1h-.4c-5.6.8-28.3.6-38.5-.5-.3.4-.8.8-1.3,1-8.4,3.3-11.3,3.5-24.8,1.8-1.2-.2-2.2-1-2.5-2.2-3.8-12.7-3.2-26.6,0-45.3.3-1.7,1.9-2.8,3.6-2.5.1,0,.2,0,.3.1,7,1.9,11.5,2.1,20.8,1.2.7-.3,1.2-.3,1.7-.1h0ZM527.76,272.71c-2.5,15.2-2.9,27-.2,37.4,9.2,1.2,12,1.1,17.1-.7-2.1-8.6-2.7-23.8-1.1-35.8-5.3.6-10.6.3-15.8-.9Z"/><path d="M1116.26,279.61c-3.3,10.4-5.2,24.3-4.9,32.4,8.3,2.6,32,7.1,37.4,7.2h.7c.5.1,1.1.1,1.6,0,1.2-.2,2.1-1.4,2.7-5.5.1-1,.8-1.9,1.8-2.4,3.1-1.4,3.8-3.3,3.4-7.3-.2-1.7,1-3.2,2.7-3.4h.3c1.1,0,3-4.6,2.2-5.6-1.1-1.3-.9-3.3.5-4.3.1-.1.2-.1.2-.2,1-1,1.7-2.2,1.9-3.6.5-2.7-.1-3.8-2.6-4.8-2-.7-4-1.3-6-1.7-3.9-.9-7.8-1.5-11.8-1.9-1-.1-1.9-.2-2.7-.2l-1-.1c-1.2-.1-2.3-.9-2.7-2.1-.1-.4-.2-.8-.2-1.2,0-1.9,1-5.4,3.7-11.2,2.5-5.4-.3-11.8-4.7-14.8-.6-.4-1-.5-1.5,0-.2,1.4-.4,2.9-.7,4.2-.2,1.1-.4,2.1-.7,3-1.5,5.4-3.1,8.4-7.4,13.9-1.8,2.2-3.8,4.1-6.2,5.7-1.6,1.1-3.2,2.1-4.8,3.1l-1.2.8h0ZM1116.26,272.51c.9-.6,1.8-1.2,2.7-1.8,1.8-1.3,3.5-2.8,4.9-4.5,3.8-4.9,5-7.2,6.3-11.8.2-.7.4-1.5.6-2.5.2-1.2.5-2.6.7-3.9.1-.6.2-1.1.2-1.4.1-.6.3-1.2.7-1.7.6-.6,1.2-1.1,1.9-1.5,2.6-1.6,5.8-1.4,8.2.4,6.5,4.5,10.8,13.8,6.8,22.4-.9,2-1.8,4-2.5,6h.4c4.2.4,8.4,1.1,12.5,2,2.3.5,4.5,1.1,6.7,1.9,5.5,2,7.6,6.1,6.6,11.6-.4,2.1-1.3,4.1-2.7,5.8,1,4.2-1.3,9.9-5,12.1,0,4.5-1.7,8-5.6,10.3-1.1,5.6-3.7,8.6-7.6,9.2-.6.1-1.2.1-1.8.1q-.4,0-1.3-.1h-.4c-5.8-.2-28-4.4-37.9-7.2-.4.4-.9.6-1.4.7-8.9,1.8-11.8,1.5-24.7-2.5-1.2-.4-2-1.4-2.1-2.6-1.5-13.1,1.5-26.8,7.9-44.6.6-1.6,2.3-2.4,3.9-1.9.1,0,.2.1.3.1,6.5,3.1,11,4.1,20.3,4.7.5.3.9.4,1.4.7h0ZM1095.06,274.31c-5.1,14.6-7.5,26.1-6.7,36.7,8.9,2.7,11.7,3.2,16.9,2.3-.6-8.8,1.4-24,5.1-35.5-5.3-.3-10.5-1.5-15.3-3.5h0Z"/><path class="cls-4" d="M326.96,521.41c8,7.6,12.8,17.9,13.4,28.9,1,18.4-1.1,35.6-14.5,42.3s-19.8,6.3-21.3,12.8-1,15.1-1,15.1l.6,7.6-45.2-2.8s2.1-16.1.4-23.8-20.2-41.2-20-44.5-17.6-48.6,24.2-60.1,63.4,24.5,63.4,24.5h0Z"/><path class="cls-4" d="M339.16,551.31l6.3.4s3.8.2,3.5,4-4,3.5-4,3.5l-6.3-.4.5-7.5Z"/><circle cx="325.56" cy="546.41" r="2.7"/><path class="cls-4" d="M382.66,458.01l2-36.5c.1-2.4,2.2-4.2,4.5-4.1l1.1.1c2.4.1,4.2,2.2,4.1,4.5l-2,36.5c-.1,2.4-2.2,4.2-4.5,4.1l-1.1-.1c-2.4,0-4.3-2.1-4.1-4.5Z"/><path class="cls-4" d="M373.36,453.21l2-36.5c.1-2.4,2.2-4.2,4.5-4.1l1.1.1c2.4.1,4.2,2.2,4.1,4.5l-2,36.5c-.1,2.4-2.2,4.2-4.5,4.1l-1.1-.1c-2.5-.1-4.3-2.1-4.1-4.5Z"/><path class="cls-4" d="M363.56,452.61l2-36.5c.1-2.4,2.2-4.2,4.5-4.1l1.1.1c2.4.1,4.2,2.2,4.1,4.5l-2,36.5c-.1,2.4-2.2,4.2-4.5,4.1l-1.1-.1c-2.4-.1-4.2-2.1-4.1-4.5Z"/><path class="cls-4" d="M353.96,452.11l2-36.5c.1-2.4,2.2-4.2,4.5-4.1l1.1.1c2.4.1,4.2,2.2,4.1,4.5l-2,36.5c-.1,2.4-2.2,4.2-4.5,4.1l-1.1-.1c-2.5-.1-4.3-2.1-4.1-4.5Z"/><path class="cls-4" d="M349.86,453.21c2.3,5.5,24.1,15,24.1,15l18.8-14.4-1.4-11.8c-.1,0-43.9,5.8-41.5,11.2h0Z"/><path class="cls-6" d="M316.36,641.01l21.3,52s78-99.4,78.1-112-3.1-25.7-3.1-25.7l-20.6-100.4-30.5,3.9s15.9,84.4,13.5,75.5,6.5,27,4.2,38.2-62.9,68.5-62.9,68.5Z"/><path class="cls-4" d="M171.46,412.21l1.1-.1c2.4-.1,4.4,1.7,4.5,4.1l2,36.5c.1,2.4-1.7,4.4-4.1,4.5l-1.1.1c-2.4.1-4.4-1.7-4.5-4.1l-2-36.5c-.1-2.3,1.7-4.4,4.1-4.5Z"/><path class="cls-4" d="M180.76,407.31l1.1-.1c2.4-.1,4.4,1.7,4.5,4.1l2,36.5c.1,2.4-1.7,4.4-4.1,4.5l-1.1.1c-2.4.1-4.4-1.7-4.5-4.1l-2-36.5c-.1-2.3,1.7-4.3,4.1-4.5Z"/><path class="cls-4" d="M190.46,406.81l1.1-.1c2.4-.1,4.4,1.7,4.5,4.1l2,36.5c.1,2.4-1.7,4.4-4.1,4.5l-1.1.1c-2.4.1-4.4-1.7-4.5-4.1l-2-36.5c-.1-2.3,1.7-4.4,4.1-4.5Z"/><path class="cls-4" d="M200.16,406.31l1.1-.1c2.4-.1,4.4,1.7,4.5,4.1l2,36.5c.1,2.4-1.7,4.4-4.1,4.5l-1.1.1c-2.4.1-4.4-1.7-4.5-4.1l-2-36.5c-.1-2.4,1.7-4.4,4.1-4.5Z"/><path class="cls-4" d="M211.86,447.81c-2.3,5.5-24.1,15-24.1,15l-18.8-14.4,1.4-11.8s43.8,5.8,41.5,11.2h0Z"/><path class="cls-6" d="M245.36,635.61l-21.3,52s-78-99.4-78.1-112c-.1-12.5,3.1-25.7,3.1-25.7l20.6-100.4,30.4,3.9s-15.9,84.4-13.5,75.5-6.6,27-4.2,38.2,63,68.5,63,68.5h0Z"/><polygon class="cls-8" points="158.16 426.91 409.16 425.91 405.96 253.81 161.56 263.31 158.16 426.91"/><path class="cls-4" d="M337.76,420.91l1-.5c2.1-1,4.7-.2,5.8,2l13.6,27.9c1,2.1.2,4.7-2,5.8l-1,.5c-2.1,1-4.7.2-5.8-2l-13.6-27.9c-1.1-2.2-.2-4.8,2-5.8Z"/><path class="cls-4" d="M203.46,443.11l13.8-27.8c1.1-2.1,3.6-3,5.8-1.9l1,.5c2.1,1.1,3,3.6,1.9,5.8l-13.8,27.8c-1.1,2.1-3.6,3-5.8,1.9l-1-.5c-2.1-1.1-3-3.7-1.9-5.8Z"/><path d="M266.16,338.81c-1.5,10.8-1,24.8.7,32.7,8.6,1.1,32.8,1.4,38.1.7l.7-.1c.5,0,1.1-.1,1.6-.3,1.1-.4,1.8-1.7,1.7-5.9,0-1,.5-2,1.3-2.6,2.8-1.9,3.2-4,2.1-7.8-.5-1.6.5-3.3,2.1-3.8.1,0,.2,0,.3-.1,1-.2,2.2-5,1.2-5.9-1.3-1.1-1.4-3.1-.3-4.4l.2-.2c.8-1.1,1.3-2.5,1.3-3.9,0-2.7-.8-3.8-3.4-4.2-2-.3-4.1-.5-6.2-.6-4-.2-8-.1-11.9.2-1,.1-1.9.1-2.7.2l-1,.1c-1.2.1-2.4-.5-3-1.6-.2-.4-.3-.8-.4-1.2-.4-1.9.1-5.5,1.7-11.6,1.5-5.8-2.4-11.6-7.2-13.8-.7-.3-1.1-.3-1.5.2,0,1.4.1,2.9,0,4.2,0,1.2-.1,2.2-.2,3.1-.6,5.6-1.6,8.8-4.9,15-1.4,2.4-3.1,4.6-5.1,6.6-1.3,1.4-2.7,2.6-4.2,3.8-.2.6-.6,1-1,1.2h0ZM264.86,331.91c.8-.7,1.6-1.5,2.3-2.2,1.6-1.6,3-3.3,4.1-5.2,2.9-5.5,3.7-7.9,4.2-12.7.1-.7.1-1.6.1-2.6v-3.9c0-.6,0-1.1-.1-1.4,0-.6.1-1.2.4-1.8.4-.7,1-1.3,1.6-1.8,2.2-2,5.5-2.4,8.1-1,7.2,3.3,13,11.8,10.5,20.9-.6,2.1-1.1,4.2-1.4,6.4h.4c4.2-.3,8.5-.4,12.7-.2,2.3.1,4.7.3,7,.7,5.8,1,8.5,4.7,8.5,10.3,0,2.1-.6,4.3-1.6,6.2,1.7,4,.4,10-2.9,12.8.8,4.5-.2,8.1-3.8,11.1-.1,5.8-2.2,9.1-5.9,10.4-.6.2-1.2.3-1.8.4q-.4.1-1.3.1h-.4c-5.6.8-28.3.6-38.5-.5-.3.4-.8.8-1.3,1-8.4,3.3-11.3,3.5-24.8,1.8-1.2-.2-2.2-1-2.5-2.2-3.8-12.7-3.2-26.6,0-45.3.3-1.7,1.9-2.8,3.6-2.5.1,0,.2,0,.3.1,6.9,1.9,11.5,2.1,20.8,1.2.8-.3,1.3-.3,1.7-.1h0ZM244.36,337.31c-2.4,15.2-2.9,27-.2,37.4,9.2,1.2,12,1.1,17.1-.7-2.1-8.6-2.7-23.8-1.1-35.8-5.3.6-10.7.3-15.8-.9h0Z"/><path class="cls-1" d="M343.06,564.61s-2.4-4.6-6.8-4.3-1.9,7.4-8,8.5-4.2-2.5-4.2-2.5c0,0-2.9,6.1,2.5,6.5s17.1,1.3,16.5-8.2Z"/><path d="M323.26,511.91l-36.7,2.3-4.2,46.1h-5.8v-8.9s1.5-7-5.9-7.6-8.2,10.2-8.2,10.2c0,0-2.5,14.8,2,14.7l4.5-.2s.5,22.4-4.2,25.8-10.9,8.9-14.5,1.8,3.8-1.2,3.8-1.2l1.8-3.5s-32.5-37.1-30.5-58.2c2-21.1,19.9-45.1,45.5-44.5s38-2.1,52.4,23.2h0Z"/><path class="cls-16" d="M336.26,547.21c.4-6.8-5.5-12.6-12.2-12.5-6.2.1-12,5.1-12,11.8s5.7,11.7,12,11.8c6.2,0,11.8-4.9,12.2-11.1Z"/><path class="cls-16" d="M314.26,540.01l-47.1-1.2s-7.2-1.2-7.4,8"/><path class="cls-16" d="M336.26,547.21s2-1.8,4.2,0"/><polygon class="cls-4" points="234.76 1142.11 232.56 1175.01 247.56 1174.01 258.56 1143.01 234.76 1142.11"/><polygon class="cls-4" points="325.26 1125.41 324.76 1158.31 339.76 1156.61 349.06 1125.11 325.26 1125.41"/><path class="cls-17" d="M264.26,852.81s40.8,83.3,46.6,117,8.4,174.6,8.4,174.6l34.4-.2s4.1-133.9,2.4-190.7-20.8-151.7-20.8-151.7l-95.5,15,24.5,36h0Z"/><path class="cls-17" d="M204.56,825.01c-3.3,63,25.7,108.7,29,164.6,3.3,55.9-5.2,166.4-5.2,166.4l34.1,4.8s19.9-123,19.8-191.5-13.8-144.3-13.8-144.3c0,0-60.7-63-63.9,0h0Z"/><polygon class="cls-15" points="228.16 1175.31 226.66 1201.31 284.26 1206.21 284.96 1199.71 249.56 1187.91 251.86 1173.71 228.16 1175.31"/><polygon class="cls-15" points="320.46 1158.81 320.16 1184.91 377.96 1186.91 378.36 1180.41 342.46 1170.41 343.96 1156.11 320.46 1158.81"/><path class="cls-6" d="M274.46,625.01l-27.5-1.3s-28.1-1.4-29.7,17.2-14.2,183.5-14.2,183.5l145.4,2.1-4.6-171.3s-11.7-27.6-24.6-28.2l-44.8-2h0Z"/><path d="M791.17,578.54c-3.3,10.4-5.2,24.3-4.9,32.4,8.3,2.6,32,7.1,37.4,7.2h.7c.5.1,1.1.1,1.6,0,1.2-.2,2.1-1.4,2.7-5.5.1-1,.8-1.9,1.8-2.4,3.1-1.4,3.8-3.3,3.4-7.3-.2-1.7,1-3.2,2.7-3.4h.3c1.1,0,3-4.6,2.2-5.6-1.1-1.3-.9-3.3.5-4.3.1-.1.2-.1.2-.2,1-1,1.7-2.2,1.9-3.6.5-2.7-.1-3.8-2.6-4.8-2-.7-4-1.3-6-1.7-3.9-.9-7.8-1.5-11.8-1.9-1-.1-1.9-.2-2.7-.2l-1-.1c-1.2-.1-2.3-.9-2.7-2.1-.1-.4-.2-.8-.2-1.2,0-1.9,1-5.4,3.7-11.2,2.5-5.4-.3-11.8-4.7-14.8-.6-.4-1-.5-1.5,0-.2,1.4-.4,2.9-.7,4.2-.2,1.1-.4,2.1-.7,3-1.5,5.4-3.1,8.4-7.4,13.9-1.8,2.2-3.8,4.1-6.2,5.7-1.6,1.1-3.2,2.1-4.8,3.1l-1.2.8h0ZM791.17,571.44c.9-.6,1.8-1.2,2.7-1.8,1.8-1.3,3.5-2.8,4.9-4.5,3.8-4.9,5-7.2,6.3-11.8.2-.7.4-1.5.6-2.5.2-1.2.5-2.6.7-3.9.1-.6.2-1.1.2-1.4.1-.6.3-1.2.7-1.7.6-.6,1.2-1.1,1.9-1.5,2.6-1.6,5.8-1.4,8.2.4,6.5,4.5,10.8,13.8,6.8,22.4-.9,2-1.8,4-2.5,6h.4c4.2.4,8.4,1.1,12.5,2,2.3.5,4.5,1.1,6.7,1.9,5.5,2,7.6,6.1,6.6,11.6-.4,2.1-1.3,4.1-2.7,5.8,1,4.2-1.3,9.9-5,12.1,0,4.5-1.7,8-5.6,10.3-1.1,5.6-3.7,8.6-7.6,9.2-.6.1-1.2.1-1.8.1q-.4,0-1.3-.1h-.4c-5.8-.2-28-4.4-37.9-7.2-.4.4-.9.6-1.4.7-8.9,1.8-11.8,1.5-24.7-2.5-1.2-.4-2-1.4-2.1-2.6-1.5-13.1,1.5-26.8,7.9-44.6.6-1.6,2.3-2.4,3.9-1.9.1,0,.2.1.3.1,6.5,3.1,11,4.1,20.3,4.7.5.3.9.4,1.4.7h0ZM769.97,573.24c-5.1,14.6-7.5,26.1-6.7,36.7,8.9,2.7,11.7,3.2,16.9,2.3-.6-8.8,1.4-24,5.1-35.5-5.3-.3-10.5-1.5-15.3-3.5h0Z"/></g></svg>