<?xml version="1.0" encoding="UTF-8"?><svg id="Layer_2" xmlns="http://www.w3.org/2000/svg" viewBox="0 0 1493.75 1263"><defs><style>.cls-1,.cls-2{fill:none;}.cls-3{fill:#001e2d;}.cls-2{stroke:#fff;stroke-miterlimit:10;stroke-width:8px;}.cls-4{fill:#d8bf80;}.cls-5{fill:#a08447;}.cls-6{fill:#fce4cc;}.cls-7{fill:#ffa14d;}.cls-8{fill:#dcebb6;}.cls-9{fill:#fff0cc;}.cls-10{fill:#f17900;}.cls-11{fill:#07373c;}.cls-12{fill:#c5de86;}.cls-13{fill:#603000;}.cls-14{fill:#8bbd0d;}.cls-15{fill:#021214;}</style></defs><g id="Layer_2-2"><path class="cls-10" d="M1324.71,405.61c-.5-82-24.9-162.7-78.2-225C1158.21,77.51,1028.81,8.61,892.91.61c-36.9-2.2-76.8.7-105.9,23.6-79.4,62.5-38.2,236.8-176.1,221.1-37.9-4.3-69.1-30.2-85.5-64.6C467.81,60.01,317.51,2.91,193.51,42.71,90.41,75.81,11.41,173.81,1.11,281.61c-2.9,30.6-.6,62.4,12.7,90.1,41.2,86,161.4,95.9,230.1,161.9,112.1,107.6,41.6,295,67.9,448.2,23.4,135.9,137.6,251.3,273.2,276.1s283.3-42.8,353.2-161.6c12.2-20.7,22.7-43.3,41.3-58.4,37.9-30.5,93.4-19.3,139.8-4.6,109.4,34.5,241,75.8,325-12,35.2-36.8,51.1-87.7,49.3-138.6-4.3-122.7-80.3-215.7-128.5-320.8-23.7-51.6-40.2-110.1-40.4-156.3"/><polygon class="cls-6" points="878.91 1078.91 854.61 1112.31 840.81 1099.31 855.21 1060.61 878.91 1078.91"/><polygon class="cls-15" points="860.71 1109.01 846.51 1138.11 782.01 1125.41 783.61 1117.31 830.41 1116.31 835.91 1093.91 860.71 1109.01"/><polygon class="cls-6" points="771.91 1026.81 743.61 1057.01 731.61 1042.31 750.71 1005.71 771.91 1026.81"/><polygon class="cls-15" points="752.21 1054.81 730.51 1081.01 671.71 1055.51 674.91 1047.91 721.01 1056.01 730.51 1034.91 752.21 1054.81"/><path class="cls-11" d="M1056.51,779.91s-125.9,69.9-152.6,103.2-133.3,145.7-133.3,145.7l-23.7-19.7s97.7-140.1,141.8-196.2c44.2-56.1,143.4-147.5,143.4-147.5l76,96.6-51.6,17.9h0Z"/><path class="cls-11" d="M1143.71,755.91c-40.7,67.9-102.9,95.1-145.6,151.1-42.6,56-122.1,176.2-122.1,176.2l-26.5-15.4s70.5-149.5,115.4-213.7,93-155.9,93-155.9c0,0,126.5-10.2,85.8,57.7h0Z"/><path class="cls-6" d="M1021.21,360.01c-8.9,8.3-14.3,19.6-15.2,31.7-1.4,20.3.7,39.3,15.3,47,14.7,7.6,21.8,7.3,23.3,14.4s.8,16.7.8,16.7l-.8,8.4,50-2.4s-2-17.8,0-26.2,22.9-45.2,22.7-48.8,20.1-53.4-25.8-66.7c-45.9-13.5-70.3,25.9-70.3,25.9h0Z"/><path class="cls-8" d="M1058.81,523.51l-37.8-46.6s-94.1,87.1-97,91.4-2.8,12.6,1.1,28.4c5.5,28.3,35.7,120.3,35.7,120.3l30-6.7-29.2-104.7s-2.5-8,.1-13.6c5.9-6.4,97.1-68.5,97.1-68.5Z"/><path class="cls-8" d="M1060.91,472.11l-30.3-1.4s-16.8,10-18.7,23.5c-1.9,13.6-25.9,202.4-25.9,202.4l149.3,59.8,1.8-244s-12.6-37.2-26.8-37.9l-49.4-2.4h0Z"/><rect class="cls-13" x="1179.21" y="855.21" width="23.3" height="231.8"/><rect class="cls-13" x="452.61" y="855.21" width="23.3" height="231.8"/><rect class="cls-13" x="387.91" y="855.21" width="23.3" height="75.1"/><rect class="cls-13" x="1114.51" y="855.21" width="23.3" height="75.1"/><polygon class="cls-13" points="1258.31 860.41 370.51 860.41 329.61 697.21 1188.81 697.21 1258.31 860.41"/><circle class="cls-15" cx="410.11" cy="235.51" r="17"/><path class="cls-7" d="M849.21,829.91h203c5.1,0,9.2-4.1,9.2-9.2v-92.3c0-5.1-4.1-9.2-9.2-9.2h-203c-5.1,0-9.2,4.1-9.2,9.2h0v92.3c-.1,5.1,4,9.2,9.2,9.2h0ZM955.21,806.91h-9.2v-9.2h9.2v9.2ZM955.21,788.41h-9.2v-9.2h9.2v9.2ZM955.21,769.91h-9.2v-9.2h9.2v9.2ZM982.91,806.81h-9.2v-9.2h9.2v9.2ZM982.91,788.41h-9.2v-9.2h9.2v9.2ZM982.91,769.91h-9.2v-9.2h9.2v9.2ZM1029.11,742.21h9.2v9.2h-9.2v-9.2ZM1029.11,760.71h9.2v9.2h-9.2v-9.2ZM1029.11,779.21h9.2v9.2h-9.2v-9.2ZM1029.11,797.61h9.2v9.2h-9.2v-9.2ZM1001.41,742.31h9.2v9.2h-9.2v-9.2ZM1001.41,760.71h9.2v9.2h-9.2v-9.2ZM1001.41,779.21h9.2v9.2h-9.2v-9.2ZM1001.41,797.61h9.2v9.2h-9.2v-9.2ZM918.31,742.31h64.6v9.2h-64.6v-9.2ZM918.31,760.71h9.2v9.2h-9.2v-9.2ZM918.31,779.21h9.2v9.2h-9.2v-9.2ZM918.31,797.61h9.2v9.2h-9.2v-9.2ZM890.61,742.31h9.2v9.2h-9.2v-9.2ZM890.61,760.71h9.2v9.2h-9.2v-9.2ZM890.61,779.21h9.2v9.2h-9.2v-9.2ZM890.61,797.71h9.2v9.2h-9.2v-9.2ZM863.01,742.31h9.2v9.2h-9.2v-9.2ZM863.01,760.71h9.2v9.2h-9.2v-9.2ZM863.01,779.21h9.2v9.2h-9.2v-9.2ZM863.01,797.71h9.2v9.2h-9.2v-9.2Z"/><path class="cls-5" d="M1071.11,329.21c-8.1-11.8,1.4-23-6-31-7.8-8.5-29.7-7.8-40.5,4.8-10.1,11.7-5.6,27.9-4.8,31,5.2,18.7,22.9,27.1,28.6,29.8,18.6,8.8,35.9,5.2,50,2.4,11-2.2,27.7-7.3,27.4-11.9-.3-3.4-9.6-3.6-28.6-10.7-14.7-5.7-22.1-8.5-26.1-14.4h0Z"/><path class="cls-6" d="M1012.91,388.21l-6.8-1.3c-2.3-.4-4.4,1.1-4.8,3.4-.4,2.2,1.1,4.3,3.3,4.8l6.8,1.3,1.5-8.2h0Z"/><circle cx="1024.31" cy="382.91" r="3"/><path class="cls-6" d="M1014.51,809.91l35.3-60.1c1.2-2.1,3.9-2.8,6-1.6l1.7,1c2.1,1.2,2.8,3.9,1.6,6l-35.3,60.1c-1.2,2.1-3.9,2.8-6,1.6l-1.7-1c-2.1-1.2-2.8-3.9-1.6-6Z"/><path class="cls-6" d="M1001.61,811.11l35.3-60.1c1.2-2.1,3.9-2.8,6-1.6l1.7,1c2.1,1.2,2.8,3.9,1.6,6l-35.3,60.1c-1.2,2.1-3.9,2.8-6,1.6l-1.7-1c-2.1-1.3-2.8-4-1.6-6Z"/><path class="cls-6" d="M992.41,805.61l35.3-60.1c1.2-2.1,3.9-2.8,6-1.6l1.7,1c2.1,1.2,2.8,3.9,1.6,6l-35.3,60.1c-1.2,2.1-3.9,2.8-6,1.6l-1.7-1c-2.2-1.2-2.9-3.9-1.6-6Z"/><path class="cls-6" d="M983.01,800.91l35.5-59.9c1.2-2.1,3.9-2.8,6-1.5l1.7,1c2.1,1.2,2.8,3.9,1.5,6l-35.5,59.9c-1.2,2.1-3.9,2.8-6,1.5l-1.7-1c-2-1.2-2.7-3.9-1.5-6Z"/><path class="cls-6" d="M1016.51,734.51c5.5-3.6,31.3.9,31.3.9l8.5,24.8-8.5,10c.1,0-36.7-32.1-31.3-35.7h0Z"/><path class="cls-8" d="M1103.01,537.41l51.3-34.8s11.1,139.1,3.5,150.6c-5.4,7.9-11.6,15.2-18.6,21.8l-80.2,79.8-25.6-22.2s66.1-67.9,58.4-61.2c-7.6,6.8,22.5-20.8,27.2-32.5s-16-101.5-16-101.5h0Z"/><path class="cls-6" d="M986.01,752.01l30.3-17.5c2.1-1.2,4.8-.5,6,1.6l1,1.7c1.2,2.1.5,4.8-1.6,6l-30.3,17.5c-2.1,1.2-4.8.5-6-1.6l-1-1.7c-1.2-2-.5-4.7,1.6-6Z"/><path class="cls-4" d="M1048.41,323.21c-8.1-11.8,1.3-23-6-31-7.8-8.5-29.7-7.8-40.5,4.8-10.1,11.7-5.6,27.9-4.8,31,5.2,18.7,22.9,27.1,28.6,29.8,18.5,8.8,35.9,5.2,50,2.4,11-2.2,27.7-7.3,27.4-11.9-.3-3.4-9.6-3.6-28.6-10.7-14.6-5.6-22-8.4-26.1-14.4h0Z"/><path class="cls-4" d="M1049.61,350.61c-.1-2.7-.7-18.5,10.7-28.6,10.9-9.6,25.3-7.4,34.5-6,5.3.8,25.6,4,38.1,21.4,11.5,16,9.1,34,7.2,48.8-1.3,9.5-4,30.1-20.2,46.5-10,10-26.9,20.3-33.3,15.5-7.3-5.5-2.8-32.2,1.2-44,1.5-4.2,1.9-8.7,1.2-13.1-.3-1.7-1.6-9.8-6-10.7-3.7-.8-7.8,4-9.5,7.1-3.2,5.8-2.6,13.4-2.4,15.5.3,4,1.2,5.9,0,7.1-2.2,2.2-8.6-.8-9.5-1.2-12.9-6-12.5-44.5-12-58.3h0Z"/><path class="cls-4" d="M1137.71,368.51c2.8-9.9,25.6-18.1,38.1-8.3,7.4,5.8,11,17.7,8.3,26.2-1.2,3.9-3.3,5.7-3.6,10.7-.2,4.3.8,11.4,4.8,13.1s7.2-4,15.5-6c6.5-1.5,15.2-.5,21.4,4.8,9.1,7.8,10.4,23,4.8,31-4.7,6.6-12.6,6-13.1,10.7s6.3,9.6,11.9,11.9c12.3,5.2,19.3-2.3,28.6,2.4,7.9,4,11.3,13.8,11.9,20.2,1.8,19.1-18.9,31.8-21.4,33.4-11.2,6.9-30.6,12.1-41.7,3.6-6.5-5-4.5-10.4-16.7-26.2-7.7-10-11.3-11.5-14.2-11.9-7.5-.9-16.4,5-16.7,10.7-.3,6.7,11.4,8,14.2,17.9,2.6,8.6-2.8,19.5-9.5,23.8-13.3,8.5-39-3.7-48.8-21.4-11.7-21-1.1-49.8,10.7-65.5,8.2-10.9,14.7-12.2,20.2-25,1.7-4,8.3-19.2,3.6-35.7-3.4-12.2-9.9-14.6-8.3-20.4h0Z"/><path class="cls-14" d="M1152.21,371.21c2.6-11.2,1.6-13.9,1.2-14.9-2.2-5.1-8.2-9.6-12.9-8.5-5.5,1.3-7.2,9.8-9.4,20.9-1.9,9.8-3.3,16.8.8,20.5,3.1,2.8,8.6,2.8,12.2.9,4.1-2.2,5.5-7.8,8.1-18.9h0Z"/><path class="cls-15" d="M884.11,528.81h-317.9c-5.9,0-10.7,4.8-10.7,10.7v225.2c0,5.9,4.8,10.7,10.7,10.7h317.9c5.9,0,10.7-4.8,10.7-10.7v-225.2c0-5.9-4.8-10.7-10.7-10.7ZM774.31,802.81h-2l-1-.1c-11.2-1.1-16.8-18.8-19.5-29.8h-60.3c-2.8,11-8.3,28.7-19.5,29.8l-1,.1h-2c-5.2,0-9.5,4.3-9.5,9.5s4.2,9.5,9.5,9.5h105.5c5.2,0,9.5-4.2,9.5-9.5s-4.4-9.5-9.7-9.5h0Z"/><path class="cls-2" d="M555.51,633.71h-88.1s-23.2,2.5-23.2-21.5v-76.4c0-25.8-.3-37.3-37.4-37.4h-91.3c-12.7,0-30.2-2.6-30.2-30.2v-46.2"/><polygon class="cls-1" points="345.01 391.61 344.31 391.61 344.21 391.51 343.51 391.31 344.91 395.21 347.01 392.01 345.01 391.61"/><polygon class="cls-1" points="368.21 358.81 359.11 361.81 365.51 363.01 368.21 358.81"/><path class="cls-1" d="M472.91,257.41c-4.6-64.2-60.5-112.5-124.7-107.9-37,2.7-70.4,22.7-90.2,54.1-14-5.3-29.4-5.7-43.6-1.2,13.4,4,23.2,12.7,26.9,16.1,5.9,5.3,10.6,9.5,10.1,14.7-.3,3.1-2.3,5.9-5.5,8.4,3,5.7,4.4,12.1,4,18.5l-.1.9,4.2.7c1.7.3,2.9,1.9,2.6,3.6s-1.9,2.9-3.6,2.6h-.1l-3.6-.6c-1.5,12.3-5.4,22.7-15.1,26.4-11.6,4.3-16.9,3.4-18.7,8.5-1.1,3.5-1.7,7-2,10.6.8.4,1.6.9,2.3,1.4,2.1,1.4,3.9,4,5.4,7.4,9.6,14.3,43.3,64.9,46.5,67.6,2.2,1.9,5.3,3,9.6,1.4l57.8-21.7,1.2,3.1c2.6-4,7.9-11.6,11.6-14.4.3-.4.7-.7,1.2-.9l20.9-7c-7.8-10.3-8.2-26.1.1-39,10.3-16.1,30.1-21.9,44.2-12.9s17.2,29.4,6.9,45.5c-9,14.2-25.4,20.3-38.8,15.5l-4.3,6.7,2.8.5c1.4.3,2.2,1.6,2,2.9l-.6,3c-.3,1.4-1.6,2.2-2.9,2,1.4.3,2.2,1.6,2,2.9l-.6,3c-.3,1.4-1.6,2.2-2.9,2,1.4.3,2.2,1.6,2,2.9l-.6,3c-.3,1.4-1.6,2.2-2.9,2l-2.8-.5c1,.5,1.5,1.6,1.3,2.7l-.6,3c-.3,1.4-1.6,2.2-2.9,2l-11.5-2.3-6.6,10.3c-1.1,1.7-3.4,2.2-5.1,1.1l-3.8-2.4c-1.7-1.1-2.2-3.4-1.1-5.1l.2-.4-59.5,22.3h180.9c45.2-.7,81.2-37.9,80.5-83-1-41-31.8-75.2-72.5-80h0Z"/><path class="cls-1" d="M211.61,420.31h33.3c-6.1-4.8-18.9-16-31.6-27.3-.4,6.2-1.1,16.7-1.7,27.3h0Z"/><path class="cls-1" d="M125.31,362.21c7.9-30.2,14.7-42.4,23.3-48,0,0,0-.1-.1-.1-5.1-10.7,3.5-25.9,5-28.5,5.2-9.1,9.3-8.9,10.8-15.2,1.1-4.6-.3-8.3-2.5-11.9-44.2,9.2-72.6,52.5-63.4,96.6,3.3,16,11.4,30.6,23.1,42-.4-11.7.9-23.4,3.8-34.9h0Z"/><path class="cls-9" d="M253.75,261.84l-4.3-.7h0s0-.03,0-.03l.1-.9c.3-6.4-1.1-12.8-4-18.5-13.7,10.4-47.3,15.2-51.3,7.9-1.4-2.6.4-7.6-3-10.4-1.2-1-2.7-1.5-4.2-1.4-3.1.3-4.8,3.7-5.4,4.8-4.2,7.9,3.5,21,6.4,25.7,8.8,14.8,14.4,14.1,16.8,22.7,1.5,6.1.9,12.5-1.7,18.2,3.4.8,6.8,2,9.9,3.6.3-3.6.9-7.2,2-10.6,1.8-5.1,7.1-4.2,18.7-8.5,9.79-3.6,13.59-14.08,15.1-26.37h0s0,0,0,0l3.6.7c1.7.3,3.3-.8,3.7-2.5s-.8-3.3-2.4-3.7ZM235.64,255.31c-.2,1.2-1.3,2-2.5,1.8-1.3-.2-2.1-1.3-1.9-2.6.2-1.2,1.4-2,2.6-1.8,1.2.2,2,1.4,1.8,2.6Z"/><path d="M233.22,257.06c1.2.2,2.3-.6,2.5-1.8s-.6-2.3-1.8-2.5-2.3.6-2.5,1.8c-.3,1.1.5,2.2,1.8,2.5h0Z"/><path class="cls-15" d="M344.89,395.11l.7,1.9-2.5.9-.2.4c-1.1,1.7-.6,4,1.1,5.1l3.8,2.4c1.7,1.1,4,.6,5.1-1.1l6.6-10.3-12.5-2.5-2.1,3.2Z"/><path class="cls-15" d="M413.64,298.29c-14.1-9-33.9-3.3-44.2,12.9-8.3,13-7.9,28.7-.1,39l5.5-1.8c1.3-.5,2.7.2,3.2,1.5l.7,2.1.1.07.18.48c.4,1.3-.3,2.7-1.6,3.2l-.74.28-.09-.12-8.4,2.9-2.7,4.3,12.5,2.5,4-6.23c13.35,4.63,29.6-1.47,38.55-15.58,10.3-16.1,7.2-36.5-6.9-45.5ZM382.02,358.8s-.03-.01-.05-.02l.25-.44c.13-.2.23-.41.32-.63-.1.3-.22.6-.4.88l-.12.21Z"/><path class="cls-6" d="M380.73,365.96c1.4.2,2.3,1.5,2,2.9l-.6,3c-.2,1.4-1.5,2.3-2.9,2h-.1c1.4.2,2.3,1.5,2,2.9l-.6,3c-.17,1.22-1.18,2.06-2.36,2.06-.18,0-.36-.02-.54-.06,1.4.2,2.3,1.5,2,2.9l-.6,3c-.2,1.4-1.5,2.3-2.9,2l-2.71-.48c.87.53,1.3,1.55,1.11,2.58l-.6,3c-.2,1.4-1.5,2.3-2.9,2l-24.1-4.8-3.4-.7-1.09-2.91-6.21-16.59c2.6-4,13.46-15.3,13.49-15.3l25.65-8.48c1.3-.4,2.8.3,3.2,1.6l.62,1.86.04.02.3.8c.4,1.3-.3,2.8-1.6,3.2l-1.34.48s.03.01.04.02l-8.4,2.8-9.1,3h-.04s18.94,3.7,18.94,3.7v.02s2.7.48,2.7.48Z"/><path class="cls-12" d="M213.41,314.41s0-.6.1-1.7c-3.1-1.6-6.5-2.8-9.9-3.6-1.3,3.4-3.3,6.4-5.7,9l15.3,2.6.2-6.3Z"/><path class="cls-12" d="M345.61,397.11l-.7-1.9-.02.04-1.38-3.94-1.2-3.2-3-5.3h0l-4.7-8.3h0l4.7,8.3c.3-.1.6-.2.9-.2l-4-10.6h0l-1.2-3.1-57.8,21.7c-4.3,1.6-7.4.6-9.6-1.4-3.1-2.8-36.9-53.3-46.4-67.6-1.5-3.5-3.3-6.1-5.4-7.4-.8-.5-1.5-1-2.3-1.4-.1,1-.1,1.7-.1,1.7l-.2,6.3-15.3-2.6c-.8.9-1.7,1.7-2.6,2.5-14.7,12.2-40.4,6.5-46.7-6.4-8.6,5.6-15.4,17.8-23.3,48-2.9,11.4-4.2,23.2-3.7,35,14.9,14.5,34.7,22.7,55.4,23.1h34.6c.7-10.6,1.3-21.2,1.7-27.3,12.7,11.3,25.5,22.5,31.6,27.3h38.8l59.4-22.3.08-.13,2.42-.87ZM338.42,383.52c-.24.31-.41.69-.51,1.08.05-.42.24-.78.51-1.08Z"/><path class="cls-12" d="M339.31,382.81l3,5.3-2.1-5.5c-.3,0-.6.1-.9.2Z"/><path class="cls-3" d="M241.31,218.41c-3.7-3.3-13.5-12.1-26.9-16.1-24.6,7.8-42.4,29.3-45.5,55-.8.1-1.6.2-2.4.4-1.6.2-3.1.5-4.7.8,2.2,3.6,3.6,7.3,2.5,11.9-1.5,6.3-5.6,6.1-10.8,15.2-1.5,2.6-10.1,17.8-5,28.5l.1.1c6.3,12.8,32,18.6,46.7,6.4.9-.8,1.8-1.6,2.6-2.5,2.4-2.6,4.4-5.6,5.8-8.9,2.6-5.7,3.2-12.1,1.7-18.2-2.4-8.6-7.9-7.9-16.8-22.7-2.8-4.7-10.5-17.8-6.4-25.7.6-1,2.3-4.4,5.4-4.8,1.5-.1,3.1.4,4.2,1.4,3.4,2.9,1.6,7.9,3,10.4,4,7.3,37.6,2.6,51.1-8.2,3.1-2.5,5.2-5.4,5.5-8.4.5-5.1-4.2-9.3-10.1-14.6Z"/><path class="cls-2" d="M472.91,259.01c-4.6-64.2-60.5-112.5-124.7-107.9-37,2.7-70.4,22.7-90.2,54.1-34.1-12.9-72.3,4.2-85.3,38.4-1.9,5-3.2,10.1-3.8,15.4-44.8,5.4-76.8,46.1-71.5,90.9,4.8,40.5,38.8,71.2,79.6,72h287.5c45.2-.8,81.2-38,80.4-83.1-.7-40.8-31.4-74.9-72-79.8h0Z"/></g></svg>