<?xml version="1.0" encoding="UTF-8"?><svg id="Layer_2" xmlns="http://www.w3.org/2000/svg" viewBox="0 0 1297.73 1150.22"><defs><style>.cls-1{fill:#d8bf80;}.cls-2{fill:#a08447;}.cls-3{fill:#fce4cc;}.cls-4{fill:#fbd7b3;}.cls-5{fill:#dcebb6;}.cls-6{fill:#fff;}.cls-7{fill:#f17900;}.cls-8{fill:#07373c;}.cls-9{fill:#f5a14d;}.cls-10{fill:#c5de86;}.cls-11{fill:#8bbd0d;}.cls-12{fill:#021214;}.cls-13{fill:none;stroke:#001e2d;stroke-miterlimit:10;}</style></defs><g id="Layer_2-2"><path class="cls-11" d="M829.63,8c-81.4-8.7-166.5-16.9-242.6,13.3-76.1,30.2-138.2,112.2-117,191.3,10.1,37.7,36.8,68.4,54.3,103.3,17.5,34.9,24,81.6-3.3,109.5-17.2,17.6-43.1,22.9-67.3,27.3-81.9,14.9-163.8,29.8-245.7,44.6-71.6,13-152.3,32.2-188,95.6C2.73,623.6-.77,660.2.13,695.5c6.2,241.6,228.7,456.7,470.3,454.7,33.2-.3,68.9-5.2,93-27.9,39.2-36.8,30.7-100.8,52-150.1,32.8-76.1,129.2-102.2,211.8-96.2s164,34,246.5,26.4c84.8-7.8,167-57.5,204.1-134s22-178-42.5-233.5c-39.3-33.8-91.1-48.4-136.4-73.3-45.4-24.9-88.3-68.6-84.4-120.2,3.5-46.3,42.9-81.7,56.4-126.1,19.2-63.3-19.7-132.7-74.8-169.5-55.1-37-121.6-32.9-166.5-37.8"/><rect class="cls-8" x="378.53" y="731.7" width="18.3" height="58.9"/><path class="cls-3" d="M947.33,141c41.8,11.5,24,56.9,24.2,60.1s-18.3,36.8-20,44.5.4,23.8.4,23.8l-45.2,2.8.6-7.6s.5-8.7-1-15.1c-1.5-6.4-7.9-6.1-21.3-12.8-13.4-6.7-15.5-23.9-14.5-42.3.6-11,5.4-21.3,13.4-28.9-.1-.1,21.6-36,63.4-24.5h0Z"/><path class="cls-3" d="M872.13,202.9l-6.3.4s-3.8.2-4-3.5c-.2-3.8,3.5-4,3.5-4l6.3-.4.5,7.5Z"/><circle cx="885.33" cy="190.4" r="2.7"/><path d="M867.83,208.5s2.4-4.6,6.8-4.3,1.9,7.4,8,8.5,4.2-2.5,4.2-2.5c0,0,2.9,6.1-2.5,6.6s-17.2,1.2-16.5-8.3Z"/><path d="M887.63,155.9l36.7,2.2,4.2,46.1h5.8v-8.9s-1.5-6.9,5.9-7.6,8.2,10.2,8.2,10.2c0,0,2.5,14.8-2,14.6l-4.5-.1s-.5,22.4,4.2,25.8,10.9,8.9,14.5,1.8-3.8-1.2-3.8-1.2l-1.8-3.5s32.5-37.1,30.5-58.2-19.9-45.1-45.5-44.5c-25.4.4-38.1-2.1-52.4,23.3h0Z"/><path class="cls-13" d="M874.53,191.2c-.4-6.8,5.5-12.6,12.2-12.5,6.2.1,12,5.1,12,11.8s-5.7,11.7-12,11.8c-6.1-.1-11.8-4.9-12.2-11.1Z"/><path class="cls-13" d="M896.53,184l47.2-1.2s7.2-1.2,7.4,8"/><path class="cls-13" d="M874.53,191.2s-2-1.8-4.2,0"/><path class="cls-3" d="M764.73,119.4l.2-.1c2.1-.9,4.6,0,5.6,2.1l22.7,51.1c.9,2.1,0,4.6-2.1,5.6l-.2.1c-2.1.9-4.6,0-5.6-2.1l-22.7-51.1c-1-2.2-.1-4.7,2.1-5.6Z"/><path class="cls-3" d="M767.53,107.8l.2-.1c2.1-.9,4.6,0,5.6,2.1l22.7,51.1c.9,2.1,0,4.6-2.1,5.6l-.2.1c-2.1.9-4.6,0-5.6-2.1l-22.7-51.1c-1-2.2-.1-4.7,2.1-5.6Z"/><path class="cls-3" d="M771.73,98.1l.2-.1c2.1-.9,4.6,0,5.6,2.1l22.7,51.1c.9,2.1,0,4.6-2.1,5.6l-.2.1c-2.1.9-4.6,0-5.6-2.1l-22.7-51.1c-1-2.2-.1-4.7,2.1-5.6Z"/><path class="cls-3" d="M780.83,98.3l.2-.1c2.1-.9,4.6,0,5.6,2.1l22.7,51.1c.9,2.1,0,4.6-2.1,5.6l-.2.1c-2.1.9-4.6,0-5.6-2.1l-22.7-51.1c-1-2.2,0-4.7,2.1-5.6Z"/><path class="cls-3" d="M788.23,156.5l1.8,10.3,15,5.9s11.4-15,11.6-20.3c.2-5.3-28.4,4.1-28.4,4.1Z"/><path class="cls-4" d="M819.53,262.9c-3.5-3.5-4-10.2-4-10.2l-8-87.5-24.6,3.6s3.6,78.2,7.5,101.2c1.5,13.1,3.9,19.3,7.3,21.7s99.5,41.2,99.5,41.2l15.2-46.1s-86.7-20.8-92.9-23.9h0Z"/><path class="cls-4" d="M1001.93,380.8c2.1,10-5.9,42-3.8,34s-12,67.3-12,67.3l27.2,3.5,18.3-89.5c1.8-7.5,2.7-15.2,2.8-23-.1-11.2-69.7-99.8-69.7-99.8l-19,46.4c.1-.1,54.2,51.1,56.2,61.1h0Z"/><path class="cls-3" d="M808.23,151.9l2.6-26.8c.2-2.3,2.3-4,4.6-3.8h.2c2.3.2,4,2.3,3.8,4.6l-2.6,26.8c-.2,2.3-2.3,4-4.6,3.8h-.2c-2.3-.2-4-2.2-3.8-4.6Z"/><path class="cls-4" d="M956.63,270.1c11.5.5,21.6,31.9,21.6,31.9l-1.8,205.4-120.5-50s19.7-159,21.2-170.5,15.2-19.9,15.2-19.9l24.5,1.1,39.8,2h0Z"/><path class="cls-2" d="M476.53,210.3c-14.9,5.6-22.3,5.8-22.5,8.4-.3,3.6,12.9,7.6,21.6,9.4,11.1,2.3,24.8,5,39.4-1.9,4.5-2.1,18.4-8.7,22.5-23.4.7-2.4,4.2-15.2-3.7-24.4-8.5-9.9-25.7-10.4-31.9-3.7-5.8,6.3,1.7,15.1-4.7,24.4-3.4,4.6-9.1,6.8-20.7,11.2h0Z"/><path class="cls-3" d="M480.93,202.8c-36.2,10.5-20.2,49.7-20.3,52.5-.1,2.8,16.3,31.8,17.9,38.4s0,20.6,0,20.6l39.3,1.9-.6-6.6c-.3-4.4-.1-8.8.6-13.1,1.2-5.6,6.8-5.3,18.4-11.3s13.2-21,12.1-37c-.7-9.6-5-18.5-12-25,0,0-19.2-30.9-55.4-20.4h0Z"/><path class="cls-3" d="M544.13,251.9l5.4-1c1.7-.4,2.8-2,2.5-3.7-.3-1.8-1.9-3-3.7-2.8l-5.4,1,1.2,6.5h0Z"/><circle cx="533.93" cy="241.3" r="2.3"/><path class="cls-3" d="M399.93,121.4l2.7,49.5c.1,2.3-1.6,4.3-4,4.4h0c-2.3.1-4.3-1.6-4.4-4l-2.7-49.5c-.1-2.3,1.6-4.3,4-4.4h0c2.3-.2,4.2,1.6,4.4,4Z"/><path class="cls-3" d="M407.93,115.3l2.7,49.5c.1,2.3-1.6,4.3-4,4.4h0c-2.3.1-4.3-1.6-4.4-4l-2.7-49.5c-.1-2.3,1.6-4.3,4-4.4h0c2.2-.1,4.2,1.7,4.4,4Z"/><path class="cls-3" d="M416.33,114.8l2.7,49.5c.1,2.3-1.6,4.3-4,4.4h0c-2.3.1-4.3-1.6-4.4-4l-2.7-49.5c-.1-2.3,1.6-4.3,4-4.4h0c2.3-.1,4.2,1.7,4.4,4Z"/><path class="cls-3" d="M424.73,114.4l2.7,49.5c.1,2.3-1.6,4.3-4,4.4h0c-2.3.1-4.3-1.6-4.4-4l-2.7-49.5c-.1-2.3,1.6-4.3,4-4.4h0c2.3-.1,4.3,1.7,4.4,4Z"/><path class="cls-3" d="M395.13,157.5l-1.2,10.3,16.4,12.5s18.9-8.3,20.9-13c1.9-4.8-36.1-9.8-36.1-9.8h0Z"/><path class="cls-5" d="M393.23,268.1c-2-4.4-.1-10.7-.1-10.7l23-82.4-23.6-5.3s-23.8,72.4-28.2,94.8c-3.1,12.4-3.1,19-.8,22.3s76.3,71.9,76.3,71.9l29.8-36.7c-.1,0-71.9-48.9-76.4-53.9h0Z"/><path class="cls-3" d="M584.43,150.3l2.9-53.3c.1-2.3,2.1-4.1,4.4-4h0c2.3.1,4.1,2.1,4,4.4l-2.9,53.3c-.1,2.3-2.1,4.1-4.4,4h0c-2.3-.1-4.1-2.1-4-4.4Z"/><path class="cls-3" d="M576.53,143.9l2.9-53.3c.1-2.3,2.1-4.1,4.4-4h0c2.3.1,4.1,2.1,4,4.4l-2.9,53.3c-.1,2.3-2.1,4.1-4.4,4h0c-2.4-.1-4.2-2.1-4-4.4h0Z"/><path class="cls-3" d="M568.03,143.4l2.9-53.3c.1-2.3,2.1-4.1,4.4-4h0c2.3.1,4.1,2.1,4,4.4l-2.9,53.3c-.1,2.3-2.1,4.1-4.4,4h0c-2.3-.1-4.1-2-4-4.4h0Z"/><path class="cls-3" d="M559.63,143l2.9-53.3c.1-2.3,2.1-4.1,4.4-4h0c2.3.1,4.1,2.1,4,4.4l-2.9,53.3c-.1,2.3-2.1,4.1-4.4,4h0c-2.4-.1-4.1-2.1-4-4.4h0Z"/><path class="cls-3" d="M591.93,136.9l1.2,10.2-16.4,12.6s-18.9-8.3-20.9-13c-1.9-4.8,36.1-9.8,36.1-9.8h0Z"/><path class="cls-5" d="M581.73,254c2-9.7-5.8-40.9-3.7-33.2s-11.7-65.6-11.7-65.6l26.5-3.4,17.9,87.2c1.7,7.3,2.6,14.8,2.7,22.3-.1,10.9-67.9,97.3-67.9,97.3l-18.5-45.2c-.2.1,52.7-49.7,54.7-59.4h0Z"/><path class="cls-3" d="M555.43,145.9l-11.6-23.3c-1-2.1-.2-4.6,1.9-5.7h0c2.1-1,4.6-.2,5.7,1.9l11.6,23.3c1,2.1.2,4.6-1.9,5.6h0c-2.1,1.1-4.6.2-5.7-1.8Z"/><path class="cls-3" d="M443.13,143.2l-11.6,23.3c-1,2.1-3.6,2.9-5.6,1.9h0c-2.1-1-2.9-3.6-1.9-5.6l11.6-23.3c1-2.1,3.6-2.9,5.6-1.9h0c2.1,1,3,3.5,1.9,5.6Z"/><path class="cls-5" d="M466.23,313.4c-11.2.5-21.4,24.5-21.4,24.5l-.3,156.3,117.8-39.3s-17.5-120.8-18.9-129.5c-1.4-8.6-14.6-15-14.6-15l-23.9,1.1-38.7,1.9h0Z"/><path class="cls-1" d="M494.33,205.5c-14.9,5.6-22.3,5.8-22.5,8.4-.3,3.6,12.9,7.6,21.6,9.4,11.1,2.3,24.8,5,39.4-1.9,4.5-2.1,18.4-8.7,22.5-23.4.7-2.4,4.2-15.2-3.7-24.4-8.5-9.9-25.7-10.4-31.9-3.7-5.8,6.3,1.7,15.1-4.7,24.4-3.3,4.7-9.1,6.9-20.7,11.2h0Z"/><path class="cls-1" d="M504.53,261.8c-.7.4-5.7,2.7-7.4.9-.9-1-.3-2.5,0-5.6.1-1.6.6-7.6-1.9-12.2-1.3-2.5-4.6-6.2-7.5-5.6-3.4.7-4.5,7.1-4.7,8.4-.5,3.5-.2,7,.9,10.3,3.2,9.4,6.7,30.4.9,34.7-5,3.8-18.4-4.3-26.3-12.2-12.8-12.9-15-29.1-15.9-36.6-1.5-11.7-3.4-25.8,5.6-38.4,9.9-13.8,25.9-16.2,30-16.9,7.3-1.1,18.6-2.9,27.2,4.7,9,7.9,8.5,20.4,8.4,22.5.6,10.9.9,41.3-9.3,46h0Z"/><path class="cls-1" d="M438.13,245.9c-3.8,13.1,1.5,25,2.8,28.1,4.4,10.1,9.4,11.1,15.9,19.7,9.3,12.4,17.6,35,8.4,51.6-7.8,14-28,23.6-38.5,16.9-5.3-3.4-9.5-12-7.5-18.8,2.3-7.8,11.5-8.8,11.2-14.1-.2-4.5-7.2-9.1-13.1-8.4-2.3.3-5.2,1.5-11.2,9.4-9.5,12.5-8,16.7-13.1,20.6-8.8,6.7-24,2.6-32.8-2.8-2-1.2-18.3-11.2-16.9-26.2.5-5.1,3.2-12.8,9.4-15.9,7.3-3.7,12.8,2.2,22.5-1.9,4.4-1.9,9.8-5.7,9.4-9.4s-6.6-3.3-10.3-8.4c-4.5-6.3-3.4-18.3,3.7-24.4,4.9-4.1,11.8-4.9,16.9-3.7,6.6,1.5,9.1,6,12.2,4.7s3.9-6.9,3.7-10.3c-.2-4-1.9-5.4-2.8-8.4-2.1-6.7.7-16.1,6.6-20.6,9.9-7.6,27.8-1.2,30,6.6,1.3,4.3-3.8,6.2-6.5,15.7h0Z"/><path class="cls-11" d="M439.73,247c2.9,1.5,7.1,1.5,9.6-.7,3.3-2.9,2.2-8.4.7-16.1-1.8-8.7-3.1-15.4-7.4-16.4-3.7-.9-8.5,2.6-10.2,6.7-.3.8-1.1,2.9.9,11.7,2,8.6,3.1,13,6.4,14.8h0Z"/><rect class="cls-8" x="999.13" y="731.7" width="18.3" height="181.8"/><polygon class="cls-8" points="1049.93 735.8 353.63 735.8 321.63 447.3 995.43 447.3 1049.93 735.8"/><polygon class="cls-3" points="1224.83 991.7 1255.13 1005 1247.23 1017.9 1214.53 1013.3 1224.83 991.7"/><polygon class="cls-12" points="1257.33 1001.3 1281.23 1012 1258.83 1065.6 1252.73 1063.1 1258.73 1026.2 1244.93 1021.6 1257.33 1001.3"/><polygon class="cls-3" points="1027.43 1014.1 1034.93 1046.3 1019.83 1047.8 1004.03 1018.8 1027.43 1014.1"/><path class="cls-12" d="M1079.33,798.3c-32.5,12.7-76,35.2-84.6,67.3-14,52.4,36.9,163.2,36.9,163.2l-31.9,13.3s-68.1-141.6-57.4-183.8c10.7-42.2,100.2-142.5,100.2-142.5l53.8,51.3c0,.1-13.4,29.8-17,31.2h0Z"/><path class="cls-12" d="M1120.73,795.2c-14.9,30.6-29.2,71.9-15.5,99.5,24.1,48.7,135.6,98.1,135.6,98.1l-15.1,31.1s-144.7-61.3-164.6-100-19-173.2-19-173.2l71.2,2.9c-.1,0,18.7,18.3,7.4,41.6h0Z"/><polygon class="cls-12" points="1039.33 1045.9 1045.03 1071.5 988.63 1085.6 986.93 1079.3 1020.13 1061.9 1015.53 1048.2 1039.33 1045.9"/><path class="cls-3" d="M322.23,430.6c7.7,7.2,12.5,17,13.2,27.6,1.2,17.7-.6,34.2-13.3,40.8-12.8,6.7-19,6.4-20.3,12.5-.8,4.8-1,9.6-.7,14.5l.7,7.3-43.4-2.1s1.8-15.5,0-22.8-19.9-39.3-19.8-42.4-17.5-46.5,22.4-58c39.9-11.5,61.2,22.6,61.2,22.6h0Z"/><path class="cls-3" d="M334.33,459.2l6,.3c2,.1,3.5,1.8,3.4,3.8s-1.8,3.5-3.8,3.4l-6-.3.4-7.2Z"/><path class="cls-7" d="M236.23,460.7l67.7-49.8c-2.1-2.2-4.6-4.2-7.3-5.8-8.7-5.4-24.5-10.6-44.4,2.7-30.6,20.6-16,52.9-16,52.9h0Z"/><path class="cls-7" d="M285.83,424l36.4-26.7s6.8-3.6,1.9-6.8-22.8,7-22.8,7l-35.5,21,20,5.5h0Z"/><path d="M272.53,433.9s37.8,16.8,54.9-.3c17.1-17,7.1-27.7,7.1-27.7,0,0-.5,14.5-8.8,14.2s-10.1-8.6-10.1-8.6c0,0,2.3-7.1-10.2-3.4s-33,25.8-32.9,25.8h0Z"/><path d="M263.03,441s-1,12.7,8,18.4c9.1,5.6,14.7-3.5,14.7-3.5,0,0,1.7,8.3-2.6,11.3-4.3,2.9-12.7,4.6-16.5-.8-3.9-5.4-2-2.2-4.8-7.5-1.9-3.2-2.9-5.3-7.1-2.4-5.3,2.9-4.3,3.9-3.4,6,.9,2.1,5.8,8.6,6.7,11.7,1.8,5.3,8.2,23.2-4.4,26.7s-17.5-2.9-17.5-2.9c0,0,10.3,1.5,10.7-7.8s-18.6-22.6-11.1-29.5,27.3-19.7,27.3-19.7h0Z"/><circle cx="316.43" cy="454.7" r="2.6"/><path class="cls-3" d="M193.83,383.2h0c-2.6.1-4.8-1.9-4.9-4.4l-1.7-34c-.1-2.6,1.9-4.8,4.4-4.9h0c2.6-.1,4.8,1.9,4.9,4.4l1.7,34c.1,2.6-1.9,4.8-4.4,4.9Z"/><path class="cls-3" d="M201.83,379.3h0c-2.6.1-4.8-1.8-4.9-4.4l-1.9-34c-.1-2.6,1.8-4.8,4.4-4.9h0c2.6-.1,4.8,1.8,4.9,4.4l1.9,34c.2,2.6-1.8,4.8-4.4,4.9Z"/><path class="cls-3" d="M211.13,378.8h0c-2.6.1-4.8-1.8-4.9-4.4l-1.9-34c-.1-2.6,1.8-4.8,4.4-4.9h0c2.6-.1,4.8,1.8,4.9,4.4l1.9,34c.2,2.6-1.8,4.8-4.4,4.9Z"/><path class="cls-3" d="M220.43,378.3h0c-2.6.1-4.8-1.8-4.9-4.4l-1.9-34c-.1-2.6,1.8-4.8,4.4-4.9h0c2.6-.1,4.8,1.8,4.9,4.4l1.9,34c.2,2.6-1.8,4.8-4.4,4.9Z"/><path class="cls-3" d="M228.73,375c-2.2,5.2-23.1,14.4-23.1,14.4l-18.1-13.9,1.4-11.3s42.1,5.5,39.8,10.8h0Z"/><path class="cls-9" d="M271.23,545.8l-32.9,40.6s-81.8-75.8-84.3-79.5-2.5-11,.9-24.7c4.9-24.6,31.1-104.6,31.1-104.6l26.1,5.8-25.4,91.1s-2.1,7,.1,11.8c5.1,5.5,84.4,59.5,84.4,59.5h0Z"/><path class="cls-3" d="M496.93,668.2c-5.7.5-20.8,17.6-20.8,17.6l7.7,21.5,11.2,2.2c.1-.1,7.6-41.8,1.9-41.3h0Z"/><path class="cls-3" d="M531.23,668.3h0c.4,2.5-1.4,4.9-3.9,5.3l-28.4,4.3c-2.5.4-4.9-1.4-5.3-3.9h0c-.4-2.5,1.4-4.9,3.9-5.3l28.4-4.3c2.5-.4,4.9,1.3,5.3,3.9h0Z"/><path class="cls-3" d="M223.03,376.2h0c-2.3-1.1-3.2-3.9-2.1-6.2l12.8-25.7c1.1-2.3,3.9-3.2,6.2-2.1h0c2.3,1.1,3.2,3.9,2.1,6.2l-12.8,25.7c-1.1,2.3-3.9,3.2-6.2,2.1Z"/><path class="cls-3" d="M981.73,501.8c-6.3,7.5-9.5,17.2-9,27,.9,16.5,4.5,31.5,17,36.2,12.6,4.7,18.3,3.7,20.2,9.2,1.3,4.3,2.1,8.8,2.3,13.3l.2,6.8,39.9-6.9s-3.4-14-2.7-21.1,13.9-38.6,13.4-41.5,10.8-44.9-27.4-51.1c-38.2-6-53.9,28.1-53.9,28.1h0Z"/><path class="cls-3" d="M973.83,529.6l-5.5,1c-1.8.3-3.1,2.1-2.7,3.9.3,1.8,2.1,3.1,3.9,2.7l5.5-1-1.2-6.6h0Z"/><circle cx="989.83" cy="523.4" r="2.4"/><path class="cls-10" d="M1029.63,768.3c8.8,11,58.7,13.6,78,10.7,14.2-2.1,36.7-5.5,39.1-16.5,2.2-9.8-14.4-14.3-26.5-33.1-17.9-27.7-2.2-49.8-12.9-90.2-9.4-36-17.4-48.3-28.1-53.5-4.2-2.1-7.7-2.5-14.6-3.5-14.7-2.1-40-4.9-55.2,5-15.2,10-15.5,80.8-15.5,80.8l18-1.4s2.4,39,3.8,59.2c1,15.6,2,22.5,4.4,28.1,2.1,5.5,5.4,10.3,9.5,14.4h0Z"/><path class="cls-12" d="M1038.03,465.7c-28-7.1-49.8,12.4-56,18s-11.4,10.3-10.9,15.9c1.7,17.6,55.8,27.7,61.1,17.9,1.5-2.8-.4-8.2,3.3-11.3,1.3-1.1,2.9-1.6,4.6-1.6,3.3.4,5.2,4,5.8,5.1,4.5,8.5-3.8,22.7-6.9,27.8-9.6,16-15.6,15.2-18.2,24.5-3,10.8,1.7,24.4,10.9,32,16,13.3,43.9,7,50.6-7,5.5-11.6-3.8-28-5.4-30.8-5.6-9.8-10.1-9.6-11.7-16.4-3-12.7,11.3-19,12.3-32.8,1.3-16.6-18.4-35.9-39.5-41.3h0Z"/><path class="cls-3" d="M864.93,633c5.1,1.4,16.3,19.4,16.3,19.4l-10.5,18.6-10.6.2s-.3-39.5,4.8-38.2h0Z"/><path class="cls-3" d="M866.73,638.1h0c-.8,2.3-3.2,3.5-5.5,2.8l-25.4-8.5c-2.3-.8-3.5-3.2-2.8-5.5h0c.8-2.3,3.2-3.5,5.5-2.8l25.4,8.5c2.3.8,3.6,3.3,2.8,5.5Z"/><path class="cls-12" d="M832.43,628h0c3-1.9,7-1,8.9,2l29.6,46.3c1.9,3,1,7-2,8.9h0c-3,1.9-7,1-8.9-2l-29.6-46.3c-1.9-3.1-1-7,2-8.9Z"/><ellipse class="cls-12" cx="815.19" cy="601.13" rx="32.8" ry="37.4" transform="translate(-195.41 533.37) rotate(-32.57)"/><path class="cls-3" d="M877.93,665h0c.5,2.3-1.1,4.6-3.4,5.1l-31.1,6.1c-2.3.5-4.6-1.1-5.1-3.4h0c-.5-2.3,1.1-4.6,3.4-5.1l31.1-6.1c2.3-.5,4.6,1,5.1,3.4Z"/><path class="cls-3" d="M872.43,657.3h0c.5,2.3-1.1,4.6-3.4,5.1l-31.1,6.1c-2.3.5-4.6-1.1-5.1-3.4h0c-.5-2.3,1.1-4.6,3.4-5.1l31.1-6.1c2.4-.4,4.7,1.1,5.1,3.4Z"/><path class="cls-3" d="M870.83,648.8h0c.5,2.3-1.1,4.6-3.4,5.1l-31.1,6.1c-2.3.5-4.6-1.1-5.1-3.4h0c-.5-2.3,1.1-4.6,3.4-5.1l31.1-6.1c2.3-.4,4.6,1.1,5.1,3.4Z"/><path class="cls-3" d="M869.13,640.3h0c.5,2.3-1.1,4.6-3.4,5.1l-31.1,6.1c-2.3.5-4.6-1.1-5.1-3.4h0c-.5-2.3,1.1-4.6,3.4-5.1l31.1-6.1c2.3-.5,4.6,1.1,5.1,3.4Z"/><path class="cls-10" d="M1006.43,591.2l43.5,47.3s-57.6,52.7-72.4,64c-14.8,11.3-26.5,5.1-26.5,5.1l-81.8-30.7,11.4-30.5,62.5,23.4c4.6,1.7,8,.6,10.4-1.5,4-3.4,52.9-77.1,52.9-77.1h0Z"/><polygon class="cls-6" points="723.83 675.9 715.03 735.8 665.93 448.3 674.73 398.6 723.83 675.9"/><path class="cls-12" d="M523.13,656.6h0c3.5,1,5.5,4.7,4.5,8.1l-15.7,53.8c-1,3.5-4.7,5.5-8.1,4.5h0c-3.5-1-5.5-4.7-4.5-8.1l15.7-53.8c1-3.5,4.6-5.5,8.1-4.5Z"/><ellipse class="cls-12" cx="534.51" cy="626.41" rx="38.1" ry="33.4" transform="translate(-216.79 963.52) rotate(-73.69)"/><path class="cls-3" d="M517.83,715.1h0c-.9,2.4-3.6,3.6-6,2.7l-31.8-12.2c-2.4-.9-3.6-3.6-2.7-6h0c.9-2.4,3.6-3.6,6-2.7l31.8,12.2c2.5.9,3.7,3.6,2.7,6Z"/><path class="cls-3" d="M525.03,708h0c-.9,2.4-3.6,3.6-6,2.7l-31.8-12.2c-2.4-.9-3.6-3.6-2.7-6h0c.9-2.4,3.6-3.6,6-2.7l31.7,12.2c2.5.9,3.7,3.6,2.8,6h0Z"/><path class="cls-3" d="M528.43,699.3h0c-.9,2.4-3.6,3.6-6,2.7l-31.8-12.2c-2.4-.9-3.6-3.6-2.7-6h0c.9-2.4,3.6-3.6,6-2.7l31.7,12.2c2.5.9,3.7,3.6,2.8,6h0Z"/><path class="cls-3" d="M531.73,690.6h0c-.9,2.4-3.6,3.6-6,2.7l-31.8-12.2c-2.4-.9-3.6-3.6-2.7-6h0c.9-2.4,3.6-3.6,6-2.7l31.8,12.2c2.4.9,3.6,3.6,2.7,6Z"/><path class="cls-9" d="M333.33,579.2l-53.8,4.2s67.9,100.4,79.4,104.2c7.9,2.5,16.1,4,24.4,4.7l97.8,10.7,5.4-29s-81.8-10.2-72.9-9.8-26.6-2-36.1-7.4-44.2-77.6-44.2-77.6h0Z"/><polygon class="cls-3" points="153.53 973.5 124.33 990.4 133.73 1002.6 166.33 994.3 153.53 973.5"/><polygon class="cls-12" points="121.63 986.9 98.63 1000.4 127.33 1052.2 133.23 1049 123.03 1012.3 136.43 1006.1 121.63 986.9"/><polygon class="cls-3" points="355.73 974.1 351.83 1007.6 367.23 1007.4 380.03 976.3 355.73 974.1"/><path class="cls-8" d="M272.93,762.2c34.3,9.2,80.9,27.1,93.2,58.6,20.1,51.5-19.1,169.3-19.1,169.3l33.8,9.9s53-151,37.5-192.5-117.4-133-117.4-133l-48.7,58c.1.1,16.9,28.7,20.7,29.7h0Z"/><path class="cls-8" d="M236.83,763c18.5,29.3,37.6,69.5,26.9,98.9-18.9,52-126.2,114.5-126.2,114.5l18.8,29.8s139.6-78.3,155.4-119.7-.2-177.5-.2-177.5l-71.8,11s-17,20.6-2.9,43h0Z"/><polygon class="cls-12" points="347.33 1007.6 344.43 1034.2 403.03 1042.2 404.03 1035.5 368.53 1021.7 371.63 1007.3 347.33 1007.6"/><path class="cls-9" d="M287.73,528.1l26.4-1.2s27-1.3,28.5,16.5,13.6,176.1,13.6,176.1l-139.4,2,4.4-164.3s11.2-26.4,23.6-27l42.9-2.1h0Z"/><circle class="cls-12" cx="786.73" cy="382.7" r="23.2"/><rect class="cls-8" x="429.23" y="731.7" width="18.3" height="181.8"/><rect class="cls-8" x="948.33" y="731.7" width="18.3" height="58.9"/><path class="cls-3" d="M191.73,361.4h0c-2.6.1-4.8-1.8-4.9-4.4l-1.9-34c-.1-2.6,1.8-4.8,4.4-4.9h0c2.6-.1,4.8,1.8,4.9,4.4l1.9,34c.1,2.5-1.8,4.7-4.4,4.9Z"/><path class="cls-3" d="M200.63,351.9h0c-2.6.1-4.8-1.8-4.9-4.4l-1.9-34c-.1-2.6,1.8-4.8,4.4-4.9h0c2.6-.1,4.8,1.8,4.9,4.4l1.9,34c.2,2.6-1.8,4.8-4.4,4.9Z"/><path class="cls-3" d="M209.93,351.4h0c-2.6.1-4.8-1.8-4.9-4.4l-1.9-34c-.1-2.6,1.8-4.8,4.4-4.9h0c2.6-.1,4.8,1.8,4.9,4.4l1.9,34c.2,2.6-1.8,4.8-4.4,4.9Z"/><path class="cls-3" d="M219.23,350.9h0c-2.6.1-4.8-1.8-4.9-4.4l-1.9-34c-.1-2.6,1.8-4.8,4.4-4.9h0c2.6-.1,4.8,1.8,4.9,4.4l1.9,34c.2,2.6-1.8,4.8-4.4,4.9Z"/></g></svg>