<?xml version="1.0" encoding="UTF-8"?>
<svg id="Layer_2" data-name="Layer 2" xmlns="http://www.w3.org/2000/svg" viewBox="0 0 98.88 119.16">
  <defs>
    <style>
      .cls-1 {
        fill: #fff;
      }

      .cls-1, .cls-2, .cls-3, .cls-4, .cls-5 {
        fill-rule: evenodd;
      }

      .cls-6, .cls-4 {
        fill: #231f20;
      }

      .cls-2, .cls-7 {
        fill: #009d57;
      }

      .cls-3 {
        fill: #006bb6;
      }

      .cls-5 {
        fill: #ffd64f;
      }
    </style>
  </defs>
  <g id="Layer_1-2" data-name="Layer 1">
    <g>
      <polyline class="cls-1" points="98.67 60.84 98.49 63.41 98.2 65.99 97.81 68.54 97.31 71.07 96.7 73.58 96 76.05 95.2 78.49 94.3 80.9 93.31 83.27 92.22 85.59 91.05 87.86 89.78 90.09 88.43 92.26 87 94.38 85.48 96.44 83.89 98.43 82.21 100.35 80.47 102.21 78.64 103.99 76.75 105.7 74.78 107.32 72.75 108.87 70.65 110.32 68.49 111.69 66.27 112.96 63.99 114.14 61.65 115.22 59.26 116.19 56.81 117.06 54.31 117.82 51.77 118.47 49.45 118.95 47.16 118.46 44.65 117.79 42.18 117.01 39.76 116.12 37.39 115.12 35.07 114.01 32.81 112.81 30.6 111.51 28.45 110.11 26.36 108.63 24.33 107.06 22.37 105.41 20.48 103.68 18.65 101.88 16.89 100.01 15.21 98.07 13.61 96.07 12.08 94.01 10.64 91.9 9.28 89.75 8.01 87.54 6.82 85.29 5.72 83 4.71 80.69 3.8 78.34 2.98 75.96 2.27 73.56 1.65 71.15 1.13 68.72 .72 66.29 .42 63.84 .23 61.42 .21 .21 98.67 .21 98.67 60.84"/>
      <path class="cls-6" d="M98.28,63.39l.18-2.55V.42H.41l.02,60.99.19,2.41.3,2.44.41,2.42.51,2.42.62,2.41.71,2.38.82,2.37.91,2.34,1,2.31,1.09,2.28,1.19,2.24,1.28,2.2,1.35,2.15,1.44,2.11,1.52,2.05,1.6,1.99,1.67,1.93,1.75,1.87,1.82,1.79,1.89,1.73,1.95,1.64,2.02,1.57,2.09,1.48,2.14,1.39,2.19,1.29,2.26,1.2,2.31,1.1,2.35.99,2.41.89,2.47.78,2.5.66,2.24.48,2.27-.46,2.55-.65,2.48-.75,2.44-.87,2.39-.97,2.33-1.07,2.27-1.17,2.22-1.27,2.15-1.36,2.1-1.46,2.02-1.53,1.96-1.62,1.89-1.7,1.81-1.77,1.75-1.85,1.67-1.92,1.59-1.99,1.51-2.05h0s1.42-2.1,1.42-2.1l1.35-2.17,1.26-2.21,1.17-2.28,1.08-2.31.99-2.37.89-2.39.8-2.44.7-2.47.6-2.49.5-2.53.39-2.54.29-2.57M98.88,60.86l-.18,2.57h0s-.29,2.58-.29,2.58h0s-.4,2.56-.4,2.56h0s-.5,2.54-.5,2.54h0s-.61,2.51-.61,2.51h0s-.7,2.48-.7,2.48h0s-.8,2.45-.8,2.45h0s-.9,2.41-.9,2.41h0s-.99,2.37-.99,2.37h0s-1.08,2.33-1.08,2.33h0s-1.17,2.28-1.17,2.28h0s-1.26,2.24-1.26,2.24h0s-1.35,2.18-1.35,2.18h0s-1.43,2.12-1.43,2.12h0s-1.52,2.06-1.52,2.06h0s-1.59,2-1.59,2h0s-1.67,1.93-1.67,1.93h0s-1.75,1.86-1.75,1.86h0s-1.83,1.79-1.83,1.79h0s-1.9,1.71-1.9,1.71h0s-1.97,1.63-1.97,1.63h0s-2.03,1.55-2.03,1.55h0s-2.1,1.46-2.1,1.46h-.01s-2.16,1.37-2.16,1.37h0s-2.22,1.28-2.22,1.28h0s-2.28,1.18-2.28,1.18h0s-2.34,1.08-2.34,1.08h0s-2.39.98-2.39.98h0s-2.45.88-2.45.88h0l-2.5.76h0s-2.55.65-2.55.65h0s-2.32.48-2.32.48h-.04s-.04,0-.04,0l-2.28-.49h0s-2.51-.67-2.51-.67h-.01l-2.47-.78h-.01s-2.42-.9-2.42-.9h0s-2.37-1-2.37-1h-.01s-2.32-1.11-2.32-1.11h0s-2.27-1.21-2.27-1.21h0s-2.21-1.31-2.21-1.31h-.01s-2.15-1.4-2.15-1.4h0s-2.09-1.49-2.09-1.49h0s-2.03-1.57-2.03-1.57h0s-1.96-1.66-1.96-1.66h0s-1.89-1.73-1.89-1.73h0s-1.82-1.81-1.82-1.81h0s-1.75-1.88-1.75-1.88h0s-1.68-1.94-1.68-1.94h0s-1.6-2.01-1.6-2.01h0s-1.52-2.06-1.52-2.06h0s-1.45-2.12-1.45-2.12h0s-1.36-2.17-1.36-2.17h0s-1.27-2.21-1.27-2.21h0s-1.19-2.26-1.19-2.26h0s-1.1-2.29-1.1-2.29h0s-1.01-2.33-1.01-2.33h0s-.91-2.36-.91-2.36h0s-.82-2.38-.82-2.38h0s-.72-2.4-.72-2.4h0s-.62-2.42-.62-2.42h0s-.51-2.43-.51-2.43h0s-.41-2.45-.41-2.45h0s-.3-2.45-.3-2.45H.21s-.19-2.43-.19-2.43v-.02L0,.21v-.21h98.88v60.86Z"/>
      <polyline class="cls-4" points="97.48 63.31 97.19 65.84 96.8 68.35 96.31 70.84 95.72 73.3 95.02 75.74 94.23 78.14 93.35 80.51 92.38 82.84 91.3 85.12 90.15 87.37 88.9 89.56 87.58 91.7 86.16 93.78 84.67 95.8 83.1 97.76 81.46 99.66 79.73 101.48 77.94 103.24 76.08 104.92 74.15 106.51 72.15 108.03 70.09 109.46 67.97 110.8 65.78 112.06 63.54 113.21 61.24 114.27 58.89 115.23 56.49 116.08 54.04 116.83 51.53 117.46 49.43 117.9 47.4 117.45 44.93 116.8 42.51 116.04 40.13 115.16 37.81 114.18 35.53 113.09 33.3 111.91 31.13 110.63 29.02 109.26 26.96 107.8 24.97 106.25 23.04 104.63 21.17 102.93 19.37 101.16 17.64 99.31 15.99 97.41 14.41 95.44 12.91 93.41 11.49 91.33 10.14 89.2 8.89 87.03 7.72 84.82 6.64 82.57 5.65 80.28 4.75 77.97 3.94 75.64 3.24 73.28 2.63 70.9 2.13 68.52 1.72 66.12 1.42 63.73 1.24 61.37 1.22 1.21 97.65 1.21 97.65 60.8 97.48 63.31"/>
      <polyline class="cls-1" points="96.18 65.7 95.8 68.17 95.32 70.62 94.73 73.05 94.05 75.44 93.28 77.81 92.41 80.14 91.45 82.43 90.39 84.68 89.26 86.88 88.04 89.04 86.73 91.14 85.34 93.19 83.87 95.18 82.32 97.11 80.7 98.97 79.01 100.77 77.25 102.5 75.42 104.14 73.52 105.72 71.55 107.21 69.53 108.62 67.44 109.93 65.29 111.16 63.1 112.3 60.84 113.34 58.53 114.28 56.17 115.12 53.76 115.85 51.31 116.47 49.45 116.85 47.63 116.47 45.21 115.83 42.84 115.08 40.5 114.22 38.22 113.25 35.98 112.19 33.8 111.02 31.67 109.76 29.58 108.42 27.57 106.98 25.6 105.46 23.7 103.87 21.87 102.2 20.1 100.45 18.4 98.64 16.77 96.75 15.21 94.82 13.74 92.82 12.33 90.78 11.02 88.68 9.78 86.54 8.63 84.36 7.56 82.15 6.59 79.9 5.7 77.62 4.91 75.33 4.22 73.01 3.62 70.67 3.12 68.33 2.73 65.98 2.44 63.62 2.25 61.33 2.23 2.23 96.64 2.23 96.64 60.76 96.47 63.21 96.18 65.7"/>
      <path class="cls-6" d="M3.31,73.19c-.51-1.73-.91-3.62-1.24-5.7-.33-2.08-.57-4.32-.77-6.75,0-.02,0-.05,0-.07V2.23c0-.52.42-.94.93-.94.24,0,.46.09.63.24l46.6,34.88L96.08,1.47c.41-.31.99-.22,1.3.19.13.17.19.36.19.56h0v58.35s0,.04,0,.06h0c-.14,2.22-.33,4.35-.64,6.43-.3,2.09-.71,4.12-1.28,6.13-.14.49-.65.79-1.15.65-.14-.04-.27-.11-.37-.2l-44.69-34.88L4.78,73.66c-.41.32-.99.24-1.31-.16-.07-.1-.13-.2-.16-.31"/>
      <path class="cls-5" d="M4.21,72.93c-1-3.4-1.59-7.39-1.97-12.27V2.23l47.22,35.35L96.64,2.22v58.35c-.28,4.39-.77,8.44-1.88,12.37l-45.3-35.37L4.21,72.93"/>
      <path class="cls-6" d="M49.26,117.73h0c-1.55-.29-3.08-.66-4.58-1.09-1.52-.44-2.99-.95-4.42-1.51-7.41-2.93-14.1-7.58-20.01-13.31-.35-.34-.35-.89-.02-1.24.13-.13.29-.21.45-.24.27-.06.53-.15.79-.25.27-.1.52-.23.75-.37,1.21-.74,2.12-1.99,2.29-3.6.12-1.1-.05-2.11-.43-2.98-.34-.77-.85-1.42-1.49-1.89-.63-.47-1.38-.78-2.22-.86-.88-.09-1.85.06-2.86.5-.44.2-.96,0-1.16-.44-.12-.27-.09-.57.05-.81.79-1.33,1.66-2.4,2.59-3.24,1.49-1.34,3.13-2.05,4.81-2.17,1.68-.12,3.38.33,5.03,1.32,1.16.69,2.29,1.65,3.37,2.85h0s0,0,0,0h0s0,0,0,0l.02.02c1.57,1.76,3.06,4.17,4.48,6.49.8,1.3,1.59,2.58,2.34,3.65v.02c.96,1.14,2.18,1.73,3.41,1.86.69.07,1.38,0,2.03-.19.65-.19,1.26-.51,1.78-.93.93-.75,1.59-1.85,1.74-3.21.12-1.1-.05-2.12-.44-2.98-.34-.77-.85-1.42-1.49-1.89-.63-.47-1.39-.77-2.22-.86-.88-.09-1.85.05-2.86.5-.44.2-.96,0-1.16-.44-.12-.27-.09-.57.05-.81h0c3.9-6.45,7.99-6.8,11.76-4.52,4.12,2.49,7.7,8.3,10.14,12.25.2.32.38.62.75,1.21.95,1.15,2.18,1.74,3.41,1.87.69.07,1.37,0,2.02-.19.65-.19,1.26-.51,1.78-.93.93-.75,1.59-1.86,1.74-3.21.12-1.1-.05-2.12-.43-2.98-.34-.77-.86-1.42-1.49-1.89-.63-.47-1.39-.77-2.22-.86-.88-.09-1.85.06-2.86.51-.44.2-.96,0-1.16-.44-.12-.27-.09-.57.05-.81.8-1.33,1.67-2.41,2.59-3.24,1.5-1.34,3.13-2.05,4.81-2.17,1.67-.12,3.38.33,5.03,1.32,1.16.69,2.29,1.65,3.38,2.85h0s.02.03.02.03c1.57,1.76,3.05,4.16,4.47,6.48.02.02.03.04.04.06l.32.51c.2.33.16.73-.07,1.02h0c-1.21,1.49-2.48,2.94-3.83,4.33-1.33,1.38-2.73,2.7-4.17,3.94-7.44,6.4-16.33,10.92-26.39,12.97-.11.02-.23.02-.34,0"/>
      <path class="cls-3" d="M49.42,116.87c-10.91-2.04-20.46-7.84-28.57-15.68,2.29-.52,4.25-2.35,4.53-4.99.5-4.71-3.6-8.18-8.23-6.12,3.93-6.57,9.67-6.38,14.4-1.1,2.38,2.65,4.66,7.05,6.77,10.08h0c3.43,4.24,10.02,2.17,10.55-2.86.5-4.71-3.6-8.18-8.23-6.12,8.22-13.6,17.01,2.33,21.17,8.98h0c3.43,4.24,10.02,2.17,10.55-2.86.5-4.71-3.6-8.18-8.23-6.12,3.93-6.58,9.67-6.38,14.4-1.1,1.65,1.83,3.24,4.5,4.77,6.97-8.59,10.62-20.12,18.13-33.89,20.93"/>
      <path class="cls-6" d="M42.01,21.25c-.89-.82-1.16-1.77-.99-2.54.07-.33.23-.63.46-.88.24-.25.54-.45.91-.56.85-.26,1.99-.05,3.12.95.98.87,1.27,1.74,1.14,2.46-.07.35-.25.66-.5.9-.24.24-.56.41-.91.52-.93.28-2.19.08-3.22-.87M57.23,33.56c-1.31-.23-2.11-1-2.4-1.86-.12-.34-.14-.69-.09-1.03.06-.34.2-.66.42-.94.54-.68,1.54-1.11,2.99-.89,1.42.22,2.2.9,2.48,1.7.12.35.14.72.07,1.06-.07.33-.22.65-.44.93-.59.75-1.68,1.27-3.03,1.03ZM55.77,21.69c-1.26.32-2.3-.04-2.91-.68-.26-.27-.44-.59-.53-.93-.09-.33-.09-.68.01-1.02.22-.78.95-1.53,2.32-1.91,1.35-.37,2.33-.08,2.92.51.28.28.46.62.53.98h0c.07.32.05.67-.05,1.01-.24.86-1.02,1.72-2.3,2.04ZM61.71,62.47c-1.28-.2-2.09-.91-2.39-1.72-.13-.33-.17-.68-.12-1.01.05-.33.19-.65.41-.92.52-.66,1.53-1.09,3-.89,1.39.19,2.17.82,2.47,1.57.14.34.17.7.1,1.04-.06.32-.21.63-.43.91-.58.73-1.68,1.23-3.03,1.02ZM78.99,24.78c-1.35.12-2.35-.35-2.87-1.04-.23-.3-.37-.64-.4-.99-.03-.34.04-.68.2-1,.38-.73,1.3-1.37,2.83-1.54,1.45-.16,2.4.24,2.9.87.25.31.38.67.39,1.04.01.33-.07.67-.23.99-.42.81-1.41,1.54-2.82,1.67ZM81.19,33.54c-1.27-.18-2.07-.84-2.39-1.58-.14-.32-.18-.66-.13-.98h0c.05-.32.18-.63.41-.9.52-.62,1.52-1.03,2.99-.85,1.36.17,2.14.75,2.46,1.44.16.34.19.69.12,1.03-.06.31-.21.6-.43.87-.57.68-1.67,1.17-3.02.97ZM19.58,21.94c-.37-.4-.72-.85-.92-1.32-.25-.57-.3-1.17.02-1.73.24-.42.65-.84,1.18-1.09.32-.15.68-.24,1.07-.24.41,0,.82.1,1.24.34.58.33,1.15.93,1.63,1.93.42.89.47,1.58.28,2.09-.15.41-.43.7-.8.88-.34.17-.73.25-1.14.24-.9,0-1.94-.43-2.55-1.08ZM42,33.77c-1.25-.17-2.06-.79-2.39-1.5-.14-.31-.2-.65-.15-.97.05-.31.18-.61.41-.88.52-.6,1.52-1,2.98-.82,1.35.16,2.13.71,2.45,1.36.16.34.21.68.14,1.02-.06.3-.21.59-.44.85-.57.66-1.67,1.12-3.01.94ZM40.63,37.93c-.05.24-.13.48-.26.75-.23.46-.54.8-.92,1.03-.45.28-.96.39-1.48.37-.49-.02-.99-.15-1.45-.37l-.08-.04c.3.38.58.76.84,1.15,1.83,2.76,2.53,5.74,1.47,8.82.02.37.02.47.3.79.32.25.8.63,1.27,1.01,1.25.99,2.5,1.96,3.62,3.09.1.1.18.23.29.33.13.1.27.16.39.17.13,0,.26-.04.35-.13.6-1.1.56-2.38.51-3.55v-.25h-.01c-.08-2.09-.32-4.23-.94-6.33-.61-2.07-1.59-4.09-3.16-5.96-.2-.24-.35-.41-.42-.5l-.33-.38ZM36.7,35.11c.19-.03.38-.05.58-.05.23,0,.46,0,.7.04-.29-.25-.59-.66-.71-.73-.18.24-.36.5-.57.74ZM34.6,37.66c-.06-.18-.1-.35-.11-.51-.08.05-.16.1-.25.15l.36.36ZM59.35,40.15c-.39-.29-.62-.62-.72-.99l-.05.05c-.42.49-.85.97-1.12,1.37h0s-.02.02-.02.02c-.31.47-.64,1.02-.97,1.64-.33.61-.65,1.28-.94,1.99-1.5,3.56-2.45,8.01-.71,10.67.3.46.32.48.67.41h0s.15-.03.15-.03h0s0,0,0,0h.01c1.39-.26,3.42-1.58,5.08-2.68.83-.54,1.58-1.03,2.17-1.34,0,0,0-.01,0-.02.03-.12,0-.23-.04-.3,0-.01-.03-.04-.07-.09-1.07-1.49-1.38-3.91-1.04-6.23.21-1.39.65-2.76,1.3-3.89-1.02.41-2.39.37-3.71-.59ZM40.19,50.55c-.48-.82-.4-1.93-.03-2.78h0c.15-.35.35-.67.59-.92.29-.3.63-.52,1.02-.6.56-.12,1.12.01,1.64.48,1.18,1.08,1.37,2.33,1.05,3.3-.15.46-.4.86-.73,1.15-.36.34-.81.55-1.29.61-.83.1-1.68-.25-2.26-1.25ZM71.39,47.01c-.07.32-.18.61-.33.87-.23.4-.55.73-.92.94-.52.3-1.12.38-1.75.15-1.1-.41-1.55-1.17-1.6-2.01-.32,1.34-.75,2.54-1.09,3.43.95-.29,2.2-.69,3.35-1.06.96-.31,1.85-.6,2.54-.78-.03-.14-.05-.3-.08-.49-.05-.34-.09-.69-.13-1.05ZM70.62,44.37c.35.36.58.75.71,1.16,0-.21.01-.42.03-.62h0c.03-.35.1-.72.22-1.09.12-.36.27-.73.47-1.1.55-1.04,1.43-2.12,2.58-3.07h-1.11c-.43,0-.75.02-1.04.03-2.78.09-4.37.15-8.99-4.31h0s-.05-.05-.05-.05h0c-.45-.44-.46-.34-.76-.16-.19.11-.37.23-.55.35-.37.25-.72.53-1.05.83.5-.1,1.04-.08,1.56.1,1.27.44,1.88,1.18,2.01,1.96.03.17.03.34.01.51l.06-.05.79-.57.55.83s.05.07.06.1h0c1.22,1.89,1.29,4.23.95,6.39.06-.14.13-.28.21-.4.29-.47.68-.87,1.12-1.11h0c.74-.41,1.55-.4,2.23.3ZM55.91,49.31c.17-.52.59-1.11,1.09-1.53.32-.27.68-.49,1.05-.6.52-.16,1.04-.13,1.52.16.27.17.5.41.67.74.79,1.56.44,2.92-.3,3.8-.47.56-1.11.94-1.73,1.08-.81.17-1.59-.03-2.12-.68-.46-.59-.63-1.56-.18-2.97ZM81.85,58.17c-.86-.23-1.51-.81-1.87-1.48-.15-.29-.25-.59-.29-.88-.04-.31-.03-.61.05-.91.13-.51.46-.95.99-1.23l.08-.04.1-.03c1.64-.44,3.08.2,3.9,1.1.39.43.64.93.72,1.41.09.55-.05,1.07-.44,1.48-.54.56-1.55.87-3.14.6h-.04s-.05-.02-.05-.02ZM33.76,45.75c-.07.18-.17.36-.29.52-.32.44-.8.78-1.38.91.9.23,1.75.45,2.36.81.15.09.31.18.46.26-.35-.72-.76-1.58-1.14-2.5ZM28.79,43.76c.04-.07.08-.13.12-.19.39-.53,1.06-.92,1.93-.96.85-.04,1.51.12,2,.41-.46-1.86-.51-3.73.44-5.2l.04-.06c-2.16.85-4.83.72-7.27.49,1.53,1.84,2.33,4.05,2.74,5.5ZM65.08,28.71c-.07.66-.15,1.25-.22,1.71.11-.05.22-.11.32-.16.31-.15.62-.29.94-.42-.41-.24-.77-.61-1.04-1.13ZM19.99,29.76c.48-.25.98-.49,1.5-.71,1.44-.62,2.97-1.06,4.54-1.16-.53-.16-.99-.26-1.18-.24h-.05s-.08,0-.08,0c-.03,0-.31,0-.66-.02-1.65-.04-3.52-.09-5.64-.87.32.18.61.4.85.64.37.38.64.82.75,1.29.08.35.09.7-.01,1.05ZM33.03,32.47c.31-.07.59-.13.85-.17-.13-.08-.25-.17-.38-.25l-.34-.22c.02.22-.03.44-.13.64ZM22.02,44.39c1.09.29,2.12.71,3.03,1.28.22,0,.6.01,1.25.08h0s-.04-.04-.06-.06c-.6-.65-1.18-1.22-1.69-1.73-.64-.64-1.2-1.2-1.67-1.74.01.12.02.23.02.35,0,.42-.11.83-.32,1.19-.14.24-.33.46-.56.64ZM19.17,51.19c1.22-1.09,2.8-1.91,4.95-2.48.06-.02.27-.07.46-.12.53-.14.96-.24,1.36-.44-.07,0-.13,0-.2,0-.69-.01-1.42.1-1.73.29h0c-.26.17-.59.33-.97.48-.38.15-.81.28-1.29.39-.91.21-2.03.34-3.33.31.22.17.4.36.53.61.16.28.24.6.22.96ZM15.95,56.17c.34-.84.7-1.62,1.11-2.33-.11.03-.22.05-.33.07-.37.06-.77.06-1.15-.01-.39-.08-.76-.22-1.1-.44-.58-.38-1.01-.96-1.14-1.72-.18-1.09.46-1.87,1.38-2.3.14-.07.29-.12.45-.17-1.36-.28-2.85-.72-4.43-1.4l-1.24-.53.94-.75h0s0,0,0,0c.56-.44,1.17-.84,1.81-1.16.64-.33,1.32-.6,2.03-.82,1.09-.34,2.24-.54,3.4-.61-.34-.27-.62-.57-.83-.89-.23-.35-.38-.73-.42-1.1h0c-.04-.41.04-.81.29-1.16.39-.54,1.14-.93,2.37-1.01,1.07-.06,1.9.16,2.52.55-.53-1.09-.77-2.39-.72-4.29l.03-1.02,1.11.37h.01s0,0,0,0c.89.3,1.68.74,2.37,1.25.5-.43,1.01-.82,1.53-1.17.56-.38,1.13-.72,1.71-1.03.43-.23.85-.44,1.28-.63-.27-.08-.51-.19-.71-.35-.46-.36-.71-.86-.57-1.5-1.97.97-5.27,1.87-11.15,1.78l-2.48-.04,1.83-1.35c.42-.31.87-.63,1.36-.96-.33-.05-.67-.14-1-.27-.58-.23-1.14-.58-1.57-.98-.46-.43-.81-.95-.94-1.47-.24-1,.22-1.93,1.92-2.34.65-.16,1.3-.13,1.89.04-1.3-.59-2.68-1.47-4.15-2.79l-1.07-.96,1.4-.31h0c.48-.11,1.05-.15,1.69-.15.6,0,1.27.06,1.96.15,3.36.43,7.56,1.82,9.1,3.17-.12-.18-.24-.37-.36-.55-.26-.42-.51-.86-.73-1.31-1.16-2.32-1.71-4.84-1.01-7.32l.26-.91.98.48c4.13,2.02,4.39,5.36,4.25,8.53.11-.07.24-.13.39-.18,1.51-.55,2.75-.05,3.52.77.37.4.62.88.73,1.35.11.5.07,1.01-.15,1.43-.22.41-.59.74-1.11.9.38.16.73.33,1.02.5.48.26.94.52,1.4.79.13.08.26.15.4.24-.55-1.46-1.13-3.29-1.41-5.15-.35-2.3-.22-4.66,1-6.46l.43-.62.76.4c.59.31,1.07.77,1.45,1.33.36.52.64,1.12.85,1.77,1.02,3.16.54,7.85-.01,9.32l-.08.14c-.15.22-.2.43-.2.62,0,.16.04.34.09.52.13.13.28.28.45.43.23.21.51.45.81.7,1.55,1.29,3.65,2.81,4.51,3.38h0c.24.16.45.33.65.5.27.22.5.4.75.23.24-.24.57-.81.86-1.54.33-.82.59-1.79.64-2.7.04-.8-.08-1.52-.49-1.95-.1-.1-.22-.19-.36-.26-1.34-.28-3.11-1.53-4.47-3.07-1.4-1.58-2.41-3.5-2.15-5.06h0s0-.04,0-.04l.12-.68.79.09h0s0,0,0,0c.51.06,1.02.2,1.52.42.48.2.95.46,1.4.77,1.36.93,2.61,2.31,3.47,3.68-.06-.3-.11-.61-.16-.92-.49-3.44-.01-7.51,1.52-9.14l.79-.84.67,1.03h0s0,0,0,0h0s0,0,0,0c.29.44.55.95.79,1.5.24.55.45,1.14.63,1.75.5,1.74.74,3.69.54,5.46.23-.26.47-.51.74-.76,1.33-1.24,3.2-2.28,5.88-3.15l1.35-.44-.12,1.29h0s0,0,0,0c-.06.66-.26,1.29-.55,1.9-.28.58-.66,1.14-1.1,1.65-1.93,2.28-5.07,3.89-6.18,4.36-.49,1.02-.51,3.04-.17,4.74.14.67.33,1.28.58,1.73.17.31.33.52.45.55.02,0,.07-.02.16-.06l.05-.03.05-.02c1.36-.53,2.15-1.16,3.11-1.92.9-.72,1.94-1.55,3.7-2.53.34-.19,1-.59,1.47-.97.1-.08.2-.16.27-.24-.01-.02-.03-.04-.04-.06-.58-.9-1.09-3.21-1.19-5.57-.1-2.38.23-4.88,1.31-6.15.18-.21.39-.39.62-.54l.69-.44.56.64h0c.36.41.63.92.84,1.5.19.53.33,1.14.42,1.78.15,1.05.18,2.22.14,3.34.09-.12.19-.24.29-.35.35-.36.81-.64,1.28-.8.52-.18,1.07-.23,1.58-.12.35.08.66.23.93.46.13-3.11,1.05-7.32,4.19-8.57l1.07-.42.21,1.06c.81,3.99-.69,6.89-1.7,8.86-.29.57-.53,1.04-.66,1.35.64-.29,1.36-.75,1.51-.89h0s0,0,0,0c.36-.33.79-.61,1.28-.84.47-.22.99-.39,1.54-.53,2.71-.67,6.34-.44,8.59-.05l2.58.45-2.24,1c-5.86,2.63-9.42,3.18-11.52,3.28.2.09.41.18.62.27,3.13,1.41,7.49,4.01,7.98,5.2l.46,1.14-1.35-.17c-8.1-1-8.54-1.54-11.89-5.67.08.11.22.27-.05-.06-.21.07-.46.17-.72.28-1.34.55-3.26,1.44-4.12,1.99.07.01.13.03.2.04,3.46.82,5.24,1.29,6.41,1.98,1.29.76,1.74,1.62,2.56,3.24l.49.96c.87-.71,1.88-1.35,3.02-1.87l1.08-.48.24,1.09c.62,2.81-1.2,4.94-2.84,6.86-.87,1.01-1.57,2-1.92,2.81-.25.58,2.26-.07,2.71-.18.63-.15,1.31-.31,2.12-.4-.5-.23-.92-.62-1.21-1.08-.21-.34-.35-.72-.39-1.09-.04-.39.02-.78.22-1.13.22-.38.59-.68,1.15-.85h.04s.05-.02.05-.02c1.75-.33,2.97.12,3.63.82.36.38.55.84.57,1.3.02.44-.12.87-.41,1.25-.26.33-.63.61-1.12.79.28.02.58.06.89.1h0c.19.03.46.09.78.17.3.08.65.18,1.02.3,2,.63,4.92,1.81,5.75,2.77l.66.77-.94.38h0c-.28.11-.56.21-.83.3-.27.08-.58.17-.93.26-1.66.4-3.7.63-5.82.5h-.02s0,0,0,0h0c-1.4-.11-2.88-.73-4.32-1.32-1.47-.61-2.88-1.19-3.76-1.06,0,.06.02.12.04.18.05.13.1.25.12.26h.01s0,0,0,0c.49.16.97.47,1.44.91.4.38.81.87,1.21,1.42,1.94,2.7,3.79,7.24,4.1,8.82l.2,1.01-1.16-.18h0c-.82-.12-1.57-.39-2.27-.77-.68-.37-1.29-.84-1.84-1.39-1.23-1.22-2.16-2.83-2.82-4.47-.08.21-.2.41-.36.58-.5.54-1.29.78-2.37.43-.94-.31-1.75-1.12-2.15-1.96-.18-.37-.29-.75-.3-1.1-.02-.42.09-.81.34-1.13.29-.37.75-.61,1.41-.67,1.05-.09,1.87.21,2.47.71-.17-.79-.27-1.54-.31-2.17h0c-.21.06-.42.12-.62.18-1.04.3-2.1.61-3,.98h0c-.28.12-.47.2-.52.22-.11.05-.3.13-.59.26-.87.39-1.58.68-2.22,1.08.2.1.48.3,1.07.73.54.4,1.16.87,1.76,1.34,1.12.89,2.3,1.91,3.21,2.98.98,1.15,1.65,2.37,1.65,3.56v.87l-.99-.17h-.01c-4.83-.85-7.58-5.69-8.63-7.88-2.95,2.14-4.61,3.85-5.41,5.68-.88,1.98-.78,4.21-.3,7.38.22.89.73,2.83,1.59,4.71.81,1.81,1.93,3.56,3.37,4.17h0s.05.02.05.02c.42.18,1.47.62,1.82,1.25.3.53.23,1.04-.49,1.45-2.29,1.28-4.07.09-5.78-1.05-1.11-.74-2.18-1.46-3.11-.85-.1.06-.4.26-.66.43-2.83,1.86-3.29,2.17-5.46.57l-.16-.14c-.25-.29-.5-.55-.74-.76-1.05-.94-2.02-1.22-2.82-1.17-.81.05-1.48.43-1.89.78-.08.07-.15.14-.22.21-1.17,1.3-2.51,1.83-3.84,1.92-1.31.09-2.57-.26-3.64-.71l-.06-.03c-.21-.1-.92-.53-1.3-.93-.18-.18-.32-.38-.38-.59-.13-.39-.04-.74.34-.99.21-.14.5-.23.91-.24,1.13-.02,2.05-.17,2.88-.44.81-.27,1.55-.67,2.32-1.23,5.46-4.82,3.79-9.56,2.11-14.31-.12-.35-.26-.64-.44-.96-.17-.29-.4-.68-.68-1.11-1.19-1.87-3.1-4.63-3.96-5.04-.03.03-.06.07-.09.1h0c-.11.14-.2.29-.27.42l-.06.13-.1.09c-.17.15-.36.52-.59.98-.86,1.71-2.27,4.51-7.66,6.26l-.93.3-.27-.87v-.02c-.15-.46-.19-.94-.13-1.43.04-.46.18-.93.36-1.39.59-1.45,1.83-2.92,3.1-4.02-.69.09-1.42-.05-2.05-.56-.85-.67-1.1-1.37-.97-1.99.1-.51.47-.93.98-1.22.45-.26,1.01-.41,1.58-.43,1.12-.04,2.27.42,2.72,1.62l.02.06v.05c.08.33.03.67-.1.98.16-.05.3-.1.45-.14.55-.17,1.23-.38,1.54-.61-.15-.11-.32-.23-.48-.34-.47-.33-.92-.66-1.34-.9h0c-.08-.05-.21-.11-.38-.19-.19-.09-.42-.18-.66-.28-.99-.4-2.33-.91-2.74-.96-.23.45-.59.72-.95.99-.26.19-.51.39-.57.62v.07s-.04.06-.04.06c-.79,1.63-1.43,2.89-2.9,3.99-1.44,1.07-3.63,1.91-7.49,2.65l-1.64.31.56-1.38ZM40.14,57.74c.1.68-.18,1.39-1.04,1.94-.78.5-1.84.61-2.7.4-.41-.1-.78-.27-1.08-.5-.35-.27-.6-.62-.69-1.03-.09-.44,0-.92.35-1.43.84-1.22,2.04-1.52,3.05-1.32.54.1,1.02.35,1.39.68.39.35.65.79.72,1.27Z"/>
      <path class="cls-2" d="M16.78,56.47c1.42-3.51,3.19-5.85,7.65-7.02,1.26-.33,2.04-.44,2.89-1.27.25-1.04-2.93-.98-3.87-.39-1.56.99-6.15,2.02-12.38-.64,3.66-2.93,9.89-3.27,13.69-.75.13.09.16-.04,1.5.11.41.04.74.35,1.12.21.6-.21-.06-1.06-.48-1.51-3.45-3.68-5.25-4.42-5.13-9.07,5.03,1.7,6.27,8.16,6.49,9.12.13.54-.02,1.15.49,1.52,1.3.94,4.08,1.16,5.23,1.84,1.14.68,1.64.85,2.34,1.39.06-.03.11-.06.18-.1-.04-1.11-4.81-8.05-2.46-11.68,3.45,3.38,5.26,7.23,3.82,11.25.04.7.01.83.56,1.45,1.67,1.35,3.41,2.59,4.87,4.08.71.96,1.89,1.01,2.45.31.77-1.36.66-2.86.61-4.2-.16-4.27-.98-8.82-4.28-12.75-.95-1.14-2.33-2.71-3.5-3.81-.58-.48-1.43-1.19-1.93-.82-.41.58-.92,1.28-1.55,1.73-2.21,2.72-6.6,2.26-10.15,1.9,3.48-3.1,8.47-4.37,10.03-4.4.38-.07.8-.07.78-.42-1.21-.68-2.29-1.52-3.48-2.19-.92-.52-1.42-1.15-2.39-.96-1.06.73-2.92,3.79-13.43,3.61,2.9-2.13,7.62-5.19,12.09-4.16.05.01.11-.02.19-.09.75-.7-3.22-1.96-4.07-1.87-2.8-.1-6.32.13-10.69-3.78,2.93-.65,10.44,1.34,12.03,3.1.11.06,2.14.85,2.2.86.2-.32-.39-.87-.55-1.23-2.01-2.77-3.36-6.06-2.45-9.25,4.89,2.39,3.63,7.14,3.61,10.72.88,1.08,3.69,1.78,4.96,2.55.95.52,1.84,1.03,2.74,1.61.87-.08.62-.37.64-.62-1.2-3.04-3.02-8.51-.79-11.79,3.18,1.68,2.59,9.53,1.86,11.47-.48.7-.31,1.33-.15,1.89,1.22,1.35,4.86,4,6.09,4.81.92.61,1.45,1.55,2.55.68,1.07-1.02,3.18-6.58.23-7.76-2.28-.38-6.46-4.59-5.98-7.25,2.92.33,6.39,4.23,6.86,6.65.2,1.04,1.59.92,1.26-.07-1.61-3.34-1.56-9.95.38-12.01,1.88,2.93,2.92,8.98.5,11.72-.73.8.76,1.22,1.13.46,1-3.02,2.95-5.32,8.06-6.97-.39,4.15-6.82,7.18-7.63,7.43-1.37,2.17-.32,9.64,2.2,8.24,2.79-1.07,3.28-2.48,6.91-4.5.71-.4,2.69-1.62,2.14-2.05-1.19-1.02-2.29-9.8.35-11.51,2.06,2.32.98,9.59.69,10.81-.05.22-.73.86-.09.88,1.13-.67,2.64-1.5,4.02-1.86.09-.02,1.43-.43,2.09-.7.53-.21.49-.27.47-.77-.33-1.85-.39-9.27,3.6-10.86,1.26,6.25-3.52,9.78-2.2,11.04.4.38,2.59-.97,2.88-1.24,2.11-1.98,7.64-1.74,10.63-1.22-9.03,4.04-12.37,3.05-13.46,3.23-.31.12-.37.56-.04.74,1.9.24,9.62,4.29,10.19,5.69-8.05-1-8.13-1.5-11.69-5.86-.57-.07-6.23,2.49-6.45,3.3-.15.54.67.49,1.32.65,6.72,1.59,6.85,1.81,8.34,4.73-3.25.02-4.44.72-9.33-4.01-.25-.24-.91-.93-1.36-.7-1.49.76-2.84,1.9-3.72,3.15-.65.93-1.74,1.96-2.35,2.87-2.37,3.54-5.25,11.04-2.61,15.08.67,1.03.67,1.01,1.84.79,2.39-.44,6.01-3.41,7.69-4.2.33-.41.25-.97,0-1.29-2-2.63-1.14-9.05,1.7-11.1,2.88,4.31-.99,11.58-.97,12.12.75-.03,8.07-2.55,8.25-2.48-.24-1.19-.44-2.71-.34-4.08.15-2.12,2.43-5.03,5.96-6.62.99,4.5-5.43,7.41-4.83,10.45.11.56,1.53.07,2.16.03,1.87-.12,3.25-1.13,6.94-.61,1.08.14,5.97,1.78,6.94,2.91-1.72.68-4.38,1.17-7.18,1-2.85-.23-6.59-3.01-8.7-2.28-.57.2-.25,1.6.53,1.84,2.43.75,5.72,8.38,6.13,10.49-4.99-.75-7.2-7.69-7.41-11.17-.01-.26-.31-1.03-.54-.96-1.42.44-3.03.83-4.39,1.4-1.14.47-3.19,1.38-4.1,2.07-.08.27,1.61,1.37,3.46,2.84,2.16,1.71,4.54,3.93,4.54,5.92-5.56-.97-8.21-8.02-8.41-8.39-7.31,5.07-7.93,7.79-6.92,14.39.44,1.79,2.09,8.08,5.49,9.51.42.18,2.1.85,1.2,1.36-3.49,1.96-5.98-3.8-8.94-1.87-2.97,1.94-3.27,2.35-5.02,1.06-3.17-3.69-6.16-2.02-7.06-1.01-2.02,2.25-4.53,1.83-6.44,1.03-.32-.16-2.09-1.26-.72-1.3,2.46-.06,4.02-.62,5.73-1.86,6-5.27,3.98-10.38,2.18-15.5-.34-.85-4.48-7.49-6.13-7.34-.36.27-.61.63-.8.99-1.11.96-1.2,4.88-7.97,7.09-.82-2.63,2.75-6.25,5-7.45.97-.33,2.73-.7,2.69-1.71-.81-.53-1.69-1.24-2.43-1.66-.73-.42-4.31-1.84-4.93-1.38-.27.92-1.44,1.06-1.66,1.99-1.5,3.07-2.39,4.8-9.83,6.23"/>
      <path class="cls-7" d="M38.54,59.03c2.19-1.41-1.08-3.93-2.79-1.46-1.08,1.56,1.45,2.33,2.79,1.46"/>
      <path class="cls-7" d="M70.71,56.61c2.58.85,2.25-3.6-.81-3.33-1.94.17-.77,2.81.81,3.33"/>
      <path class="cls-7" d="M31.1,46.39c-2.43-.6-1.98-2.91-.15-2.99,3.27-.16,2.21,3.51.15,2.99"/>
      <path class="cls-7" d="M65.68,27.9c0-1.59,2.49-2.63,3.24-1.45,1.44,2.25-2.32,4.48-3.24,1.45"/>
      <path class="cls-7" d="M29.04,31.27c.9-.83,1.87-.88,2.69-.23,2.52,2.03-5.22,3.49-2.69.23"/>
      <path class="cls-7" d="M82.05,57.41c-1.5-.4-2.04-2.41-.82-3.06,3.25-.88,5.37,3.84.82,3.06"/>
      <path class="cls-7" d="M17.82,52.3c-.87,1.33-3.3,1.1-3.59-.64-.41-2.42,5.76-2.67,3.59.64"/>
      <path class="cls-7" d="M56.77,49.58c.33-1.03,2.03-2.45,2.66-1.22,1.86,3.67-4.15,5.88-2.66,1.22"/>
      <path class="cls-7" d="M69.97,44.87c1.43,1.46.04,3.87-1.29,3.38-2.37-.88.08-4.61,1.29-3.38"/>
      <path class="cls-7" d="M79.74,46.78c-1.19-.27-2.03-2.32-.5-2.77,3.97-.74,4.02,3.2.5,2.77"/>
      <path class="cls-7" d="M40.97,50.23c-.8-1.37.63-4.06,1.83-2.96,2.39,2.18-.52,5.21-1.83,2.96"/>
      <path class="cls-7" d="M20,44.11c-2.38-.25-4.22-3.3-.77-3.5,3.71-.22,3.47,3.79.77,3.5"/>
      <path class="cls-7" d="M59.89,39.55c-1.29-.94.79-2.98,2.47-2.39,3.23,1.13.28,4.4-2.47,2.39"/>
      <path class="cls-7" d="M35.67,37.93c-1.74-2.81,5.46-2.87,3.87.39-.8,1.65-3.01.99-3.87-.39"/>
      <path class="cls-7" d="M42.07,32.98c-2.51-.34-2.31-2.96.73-2.6,3.04.36,1.77,2.94-.73,2.6"/>
      <path class="cls-7" d="M15.93,27.15c1.85-.45,3.67,1.16,3.15,2.5-1.17,2.99-7.18-1.52-3.15-2.5"/>
      <path class="cls-7" d="M32.18,28.03c2.7.16,1.33-4.07-1.57-3.02-1.84.67-.09,2.92,1.57,3.02"/>
      <path class="cls-7" d="M20.25,21.46c-.62-.67-1.16-1.49-.77-2.18.52-.91,2.22-1.86,3.49.8,1.28,2.66-1.66,2.51-2.71,1.38"/>
      <path class="cls-7" d="M28.92,52.63c-2.32-1.84,2.11-3.37,2.9-1.25.22,1.04-1.67,2.23-2.9,1.25"/>
      <path class="cls-7" d="M81.27,32.76c-2.51-.36-2.31-3.13.73-2.75,3.05.38,1.78,3.11-.73,2.75"/>
      <path class="cls-7" d="M78.83,24c-2.74.25-3.21-2.64.1-3,3.31-.36,2.63,2.75-.1,3"/>
      <path class="cls-7" d="M61.8,61.69c-2.51-.39-2.32-3.38.73-2.97,3.04.41,1.78,3.36-.73,2.97"/>
      <path class="cls-7" d="M55.47,20.92c-2.45.62-3.45-2.2-.49-3.01,2.96-.81,2.94,2.39.49,3.01"/>
      <path class="cls-7" d="M57.34,32.79c-2.51-.44-2.32-3.63.73-3.17,3.05.47,1.78,3.61-.73,3.17"/>
      <path class="cls-7" d="M42.63,20.73c-1.86-1.72-.02-3.98,2.27-1.95,2.29,2.03-.41,3.66-2.27,1.95"/>
    </g>
  </g>
</svg>