<svg id="Layer_1" data-name="Layer 1" xmlns="http://www.w3.org/2000/svg" viewBox="0 0 198.43 198.43"><defs><style>.cls-1{fill:#272d67;}.cls-2{fill:#fff;}.cls-3{fill:#cf3036;}</style></defs><path class="cls-1" d="M25.07,158.08v-.46a1.89,1.89,0,0,0,1.27-.4,1.74,1.74,0,0,0,.34-1.24v-8a1.52,1.52,0,0,0-.32-1.14,2.31,2.31,0,0,0-1.27-.36V146h4.49l3.51,8.28L36.58,146H41v.45a1.81,1.81,0,0,0-1.18.42,1.66,1.66,0,0,0-.33,1.18v7.74a2.36,2.36,0,0,0,.29,1.44,1.7,1.7,0,0,0,1.2.36v.46H35.16v-.46a1.88,1.88,0,0,0,1.25-.39,2.11,2.11,0,0,0,.31-1.35v-8.36l-4.4,10.56h-.48l-4.35-10.29V156a1.85,1.85,0,0,0,.35,1.32,1.93,1.93,0,0,0,1.33.34v.46Z"/><path class="cls-1" d="M41.84,158.08v-.44a1.86,1.86,0,0,0,1.27-.34,1.83,1.83,0,0,0,.34-1.29v-7.68a2.3,2.3,0,0,0-.33-1.48,1.57,1.57,0,0,0-1.23-.37V146H52v3.59h-.42a3,3,0,0,0-1.09-2.25,5,5,0,0,0-2.91-.68,1.85,1.85,0,0,0-1.09.2,1.35,1.35,0,0,0-.21.92v3.76h.32A2.19,2.19,0,0,0,48.3,151a3.74,3.74,0,0,0,.78-2h.42v6h-.42a3.52,3.52,0,0,0-.74-2.15,2.57,2.57,0,0,0-1.92-.61h-.13v3.94a1.46,1.46,0,0,0,.23,1,1.69,1.69,0,0,0,1,.21,5.57,5.57,0,0,0,3-.71,4.73,4.73,0,0,0,1.74-2.34h.5l-.72,3.78Z"/><path class="cls-1" d="M54.29,158.36v-4.45h.51a6.1,6.1,0,0,0,1.29,2.85,3,3,0,0,0,2.27.93,2.21,2.21,0,0,0,1.57-.55,1.83,1.83,0,0,0,.6-1.42,1.72,1.72,0,0,0-.35-1.07,2.81,2.81,0,0,0-1.08-.8L57.46,153a6.56,6.56,0,0,1-2.28-1.63,3.29,3.29,0,0,1-.71-2.1A3.38,3.38,0,0,1,58,145.75,7,7,0,0,1,60,146c.67.18,1,.28,1.12.28a.48.48,0,0,0,.37-.15.75.75,0,0,0,.19-.42h.49v3.89h-.44a5.05,5.05,0,0,0-1.32-2.41,2.92,2.92,0,0,0-2.07-.91,2.05,2.05,0,0,0-1.42.48,1.52,1.52,0,0,0-.55,1.23,1.63,1.63,0,0,0,.42,1.1,4.16,4.16,0,0,0,1.4.94l1.71.8A5.72,5.72,0,0,1,62,152.45a3.37,3.37,0,0,1,.64,2.11,3.46,3.46,0,0,1-1.2,2.76,4.82,4.82,0,0,1-3.22,1,5.85,5.85,0,0,1-1.8-.3,8.5,8.5,0,0,0-1-.29.54.54,0,0,0-.4.13,1,1,0,0,0-.22.47Z"/><path class="cls-1" d="M70.46,155.94a1.88,1.88,0,0,0,.34,1.34,2.17,2.17,0,0,0,1.36.34v.46H65.93v-.46a1.86,1.86,0,0,0,1.32-.36,1.83,1.83,0,0,0,.36-1.32v-9.32h-.14a3.16,3.16,0,0,0-2.25.79,3.46,3.46,0,0,0-1,2.26h-.48V146H74.31v3.66h-.44a3.5,3.5,0,0,0-1-2.29,3.22,3.22,0,0,0-2.3-.78h-.14Z"/><path class="cls-1" d="M77.49,156a1.79,1.79,0,0,0,.32,1.26,2,2,0,0,0,1.26.36v.46H75.14v-.46a1.87,1.87,0,0,0,1.21-.34,1.93,1.93,0,0,0,.31-1.28v-8.19l-.55-.68a.45.45,0,0,1-.07-.07,1.36,1.36,0,0,0-.91-.58V146H78.8l6.2,7.59V148.1a1.81,1.81,0,0,0-.31-1.27,2.16,2.16,0,0,0-1.27-.35V146h3.92v.44a1.82,1.82,0,0,0-1.21.36,1.87,1.87,0,0,0-.31,1.28v10.25h-.5l-7.83-9.54Z"/><path class="cls-1" d="M87.48,157.6a1.17,1.17,0,0,0,.84-.33,3.1,3.1,0,0,0,.67-1.13l4.18-10.39h.48l4.22,10a5.66,5.66,0,0,0,.81,1.48,1,1,0,0,0,.76.33v.48H93.77v-.48a2.59,2.59,0,0,0,1.09-.19.55.55,0,0,0,.34-.54,1.17,1.17,0,0,0-.06-.31,4.85,4.85,0,0,0-.23-.63l-.52-1.35h-4l-.53,1.3a2.77,2.77,0,0,0-.17.51,1.76,1.76,0,0,0-.06.41.66.66,0,0,0,.31.61,1.94,1.94,0,0,0,1,.19h.1v.48H87.48Zm3.24-3.76h3.39l-1.72-4.2Z"/><path class="cls-1" d="M104.43,152.06a6.58,6.58,0,0,1,.54-2.65,6.25,6.25,0,0,1,1.58-2.15,5.88,5.88,0,0,1,1.89-1.12,6.66,6.66,0,0,1,2.28-.39,6.23,6.23,0,0,1,2.3.43,6.08,6.08,0,0,1,3.37,3.32,6.56,6.56,0,0,1,.49,2.56,6.49,6.49,0,0,1-.54,2.64,6.25,6.25,0,0,1-1.57,2.16,5.75,5.75,0,0,1-1.89,1.11,6.74,6.74,0,0,1-2.28.39,6.33,6.33,0,0,1-2.32-.42,5.76,5.76,0,0,1-2-1.25,6,6,0,0,1-1.42-2.07A6.74,6.74,0,0,1,104.43,152.06Zm9.31,0a8.84,8.84,0,0,0-.83-4.22,2.57,2.57,0,0,0-2.33-1.49,2.45,2.45,0,0,0-2.28,1.44,9.35,9.35,0,0,0-.77,4.27,8.69,8.69,0,0,0,.84,4.21,2.57,2.57,0,0,0,2.33,1.49,2.44,2.44,0,0,0,2.27-1.43A9.35,9.35,0,0,0,113.74,152.06Z"/><path class="cls-1" d="M118,158.08v-.46a1.74,1.74,0,0,0,1.22-.4,1.94,1.94,0,0,0,.32-1.31v-7.58a2.35,2.35,0,0,0-.32-1.49,1.62,1.62,0,0,0-1.24-.36V146h5.42a6.84,6.84,0,0,1,3.47.71,2.26,2.26,0,0,1,1.18,2.07,2.38,2.38,0,0,1-.71,1.78,4.37,4.37,0,0,1-2.18.95,5.45,5.45,0,0,1,2.62,1.1,2.5,2.5,0,0,1,.86,2,3,3,0,0,1-1.26,2.56,5.89,5.89,0,0,1-3.52.92Zm4.39-6.66h.15a2.83,2.83,0,0,0,2-.55,2.59,2.59,0,0,0,.56-1.92,3,3,0,0,0-.43-1.79,1.65,1.65,0,0,0-1.38-.56.93.93,0,0,0-.71.21,1.45,1.45,0,0,0-.19.93Zm0,.54v4a2,2,0,0,0,.22,1.18,1.09,1.09,0,0,0,.83.25,1.9,1.9,0,0,0,1.61-.63,3.57,3.57,0,0,0,.49-2.12,2.92,2.92,0,0,0-.63-2.12,3,3,0,0,0-2.11-.62h-.41Z"/><path class="cls-1" d="M141.13,155.74a6.37,6.37,0,0,1-2.2,1.95,6,6,0,0,1-2.84.67,6.25,6.25,0,0,1-2.4-.45,5.89,5.89,0,0,1-2-1.32,5.74,5.74,0,0,1-1.3-2A7.16,7.16,0,0,1,130,152a6.82,6.82,0,0,1,.45-2.48,6.06,6.06,0,0,1,1.31-2,5.58,5.58,0,0,1,2-1.31,6.62,6.62,0,0,1,2.44-.44,6.21,6.21,0,0,1,2.14.4,8.18,8.18,0,0,0,1.25.4.76.76,0,0,0,.53-.2,1.31,1.31,0,0,0,.31-.6h.46v4.16h-.45a6.33,6.33,0,0,0-1.7-2.64,3.5,3.5,0,0,0-2.38-.94,2.61,2.61,0,0,0-2.42,1.44,9.12,9.12,0,0,0-.8,4.3,7.28,7.28,0,0,0,.9,4,3,3,0,0,0,2.66,1.35,4.36,4.36,0,0,0,2.14-.56,6,6,0,0,0,1.84-1.62Zm-7.74-14h.73l1.86,1.57,1.87-1.57h.72l-1.95,3h-1.28Z"/><path class="cls-1" d="M148.14,146v.45a2.36,2.36,0,0,0-1.31.32,1.34,1.34,0,0,0-.32,1V156a1.62,1.62,0,0,0,.34,1.19,2.39,2.39,0,0,0,1.33.4v.46H142v-.46a2.38,2.38,0,0,0,1.29-.4,1.52,1.52,0,0,0,.34-1.13v-8.25a1.35,1.35,0,0,0-.33-1.05,2.29,2.29,0,0,0-1.3-.32V146Z"/><path class="cls-1" d="M151.4,156a1.79,1.79,0,0,0,.32,1.26,2,2,0,0,0,1.26.36v.46h-3.93v-.46a1.85,1.85,0,0,0,1.21-.34,1.87,1.87,0,0,0,.31-1.28v-8.19l-.55-.68a.45.45,0,0,1-.07-.07,1.36,1.36,0,0,0-.91-.58V146h3.66l6.2,7.59V148.1a1.81,1.81,0,0,0-.31-1.27,2.14,2.14,0,0,0-1.27-.35V146h3.92v.44a1.79,1.79,0,0,0-1.2.36,1.81,1.81,0,0,0-.32,1.28v10.25h-.5l-7.83-9.54Z"/><path class="cls-1" d="M161.39,157.6a1.21,1.21,0,0,0,.85-.33,3.25,3.25,0,0,0,.66-1.13l4.18-10.39h.48l4.22,10a5.66,5.66,0,0,0,.81,1.48,1,1,0,0,0,.76.33v.48h-5.67v-.48a2.59,2.59,0,0,0,1.09-.19.55.55,0,0,0,.34-.54,1.17,1.17,0,0,0-.06-.31,6.26,6.26,0,0,0-.22-.63l-.53-1.35h-3.95l-.53,1.3a3.81,3.81,0,0,0-.17.51,1.76,1.76,0,0,0-.06.41.66.66,0,0,0,.31.61,1.94,1.94,0,0,0,1,.19h.1v.48h-3.61Zm3.24-3.76H168l-1.72-4.2Z"/><path class="cls-1" d="M38.1,174.94a1.79,1.79,0,0,0,.31,1.26,2.15,2.15,0,0,0,1.27.36V177H35.75v-.46a1.87,1.87,0,0,0,1.21-.34,1.94,1.94,0,0,0,.3-1.28v-8.19l-.54-.68a.3.3,0,0,1-.07-.08,1.38,1.38,0,0,0-.91-.57V165h3.66l6.2,7.59V167a1.8,1.8,0,0,0-.32-1.27,2.1,2.1,0,0,0-1.26-.35V165H48v.44a1.89,1.89,0,0,0-1.21.35,1.91,1.91,0,0,0-.32,1.29V177.3h-.49l-7.83-9.54Z"/><path class="cls-1" d="M49.5,171a6.54,6.54,0,0,1,.54-2.65,6.22,6.22,0,0,1,1.57-2.15,5.93,5.93,0,0,1,1.9-1.12,6.65,6.65,0,0,1,2.27-.39,6.32,6.32,0,0,1,2.31.43,6.08,6.08,0,0,1,3.37,3.32A6.56,6.56,0,0,1,62,171a6.49,6.49,0,0,1-.54,2.64,6.15,6.15,0,0,1-1.58,2.15,5.42,5.42,0,0,1-1.89,1.12,6.66,6.66,0,0,1-2.28.39,6.41,6.41,0,0,1-2.32-.42,5.82,5.82,0,0,1-1.94-1.25A6,6,0,0,1,50,173.56,6.74,6.74,0,0,1,49.5,171Zm9.3,0a8.72,8.72,0,0,0-.83-4.22,2.55,2.55,0,0,0-2.32-1.49,2.45,2.45,0,0,0-2.28,1.44A9.32,9.32,0,0,0,52.6,171a8.82,8.82,0,0,0,.83,4.21,2.59,2.59,0,0,0,2.34,1.49A2.45,2.45,0,0,0,58,175.27,9.37,9.37,0,0,0,58.8,171Z"/><path class="cls-1" d="M62.42,165.41V165h6v.45a2.86,2.86,0,0,0-1.19.18.61.61,0,0,0-.35.59,1,1,0,0,0,0,.32,4.08,4.08,0,0,0,.18.51l2.57,6.22L72,167c0-.17.1-.32.13-.46a3.08,3.08,0,0,0,0-.38.61.61,0,0,0-.33-.59,2.69,2.69,0,0,0-1.14-.19V165h3.79v.45a1.32,1.32,0,0,0-.89.29,3,3,0,0,0-.69,1.19l-4,10.46H68.4L64,167a3.56,3.56,0,0,0-.69-1.16A1.62,1.62,0,0,0,62.42,165.41Z"/><path class="cls-1" d="M72.94,176.54a1.17,1.17,0,0,0,.84-.33,3.19,3.19,0,0,0,.67-1.13l4.18-10.39h.48l4.22,10a5.66,5.66,0,0,0,.81,1.48,1,1,0,0,0,.76.33V177H79.23v-.48a2.59,2.59,0,0,0,1.09-.19.56.56,0,0,0,.34-.54,1.17,1.17,0,0,0-.06-.31,4.85,4.85,0,0,0-.23-.63l-.52-1.35h-4l-.53,1.29a2.86,2.86,0,0,0-.17.52,1.76,1.76,0,0,0-.06.41.67.67,0,0,0,.31.61,1.94,1.94,0,0,0,1,.19h.1V177H72.94Zm3.24-3.76h3.39l-1.72-4.2Z"/><path class="cls-1" d="M101.84,176.25a11.69,11.69,0,0,1-2.34.78,11.22,11.22,0,0,1-2.36.26,6.29,6.29,0,0,1-4.63-1.73,6.21,6.21,0,0,1-1.73-4.6,7,7,0,0,1,.42-2.41,5.71,5.71,0,0,1,1.17-2,6,6,0,0,1,2-1.39,6.14,6.14,0,0,1,2.46-.49,7,7,0,0,1,2.25.39q1.14.39,1.2.39a.65.65,0,0,0,.46-.16,1.75,1.75,0,0,0,.37-.62h.48v4.17h-.46a6.47,6.47,0,0,0-1.69-2.63,3.46,3.46,0,0,0-2.34-1,2.6,2.6,0,0,0-2.41,1.44A8.88,8.88,0,0,0,93.9,171a8.14,8.14,0,0,0,.9,4.2,2.8,2.8,0,0,0,2.53,1.48,2.15,2.15,0,0,0,1.37-.35,1.51,1.51,0,0,0,.4-1.19v-1.5a1.37,1.37,0,0,0-.34-1.11,2.62,2.62,0,0,0-1.43-.33v-.42h6v.42a1.79,1.79,0,0,0-1.14.31,1.53,1.53,0,0,0-.3,1.12Z"/><path class="cls-1" d="M104.65,171a6.54,6.54,0,0,1,.54-2.65,6.35,6.35,0,0,1,1.57-2.15,6,6,0,0,1,1.9-1.12,6.66,6.66,0,0,1,2.28-.39,6.23,6.23,0,0,1,2.3.43,6.06,6.06,0,0,1,1.94,1.24,5.92,5.92,0,0,1,1.43,2.08,6.56,6.56,0,0,1,.49,2.56,6.49,6.49,0,0,1-.54,2.64,6.25,6.25,0,0,1-1.57,2.15,5.61,5.61,0,0,1-1.89,1.12,6.76,6.76,0,0,1-2.29.39,6.41,6.41,0,0,1-2.32-.42,5.82,5.82,0,0,1-1.94-1.25,6,6,0,0,1-1.42-2.07A6.74,6.74,0,0,1,104.65,171Zm9.3,0a8.85,8.85,0,0,0-.82-4.22,2.58,2.58,0,0,0-2.33-1.49,2.45,2.45,0,0,0-2.28,1.44,9.32,9.32,0,0,0-.77,4.27,8.69,8.69,0,0,0,.84,4.21,2.57,2.57,0,0,0,2.33,1.49,2.45,2.45,0,0,0,2.27-1.43A9.37,9.37,0,0,0,114,171Z"/><path class="cls-1" d="M124,165a8,8,0,0,1,4,.79,2.64,2.64,0,0,1,1.31,2.41,2.6,2.6,0,0,1-.69,1.83,4,4,0,0,1-2,1.1l3.09,4.58a2.66,2.66,0,0,0,.6.7,1.05,1.05,0,0,0,.62.18H131V177h-3.75l-3.63-5.61h-.51v3.47a1.34,1.34,0,0,0,1.58,1.68V177h-6v-.46a1.73,1.73,0,0,0,1.22-.39,1.92,1.92,0,0,0,.34-1.29V167a1.72,1.72,0,0,0-.33-1.2,1.9,1.9,0,0,0-1.22-.39V165Zm-.93,5.86h.57a2.67,2.67,0,0,0,2-.65,2.79,2.79,0,0,0,.64-2,2.92,2.92,0,0,0-.53-1.89,1.94,1.94,0,0,0-1.57-.64,1.29,1.29,0,0,0-.91.22,1.53,1.53,0,0,0-.21,1Z"/><path class="cls-1" d="M137.67,165v.45a2.33,2.33,0,0,0-1.31.32,1.34,1.34,0,0,0-.32,1V175a1.6,1.6,0,0,0,.34,1.19,2.36,2.36,0,0,0,1.33.4V177h-6.15v-.46a2.37,2.37,0,0,0,1.3-.41,1.48,1.48,0,0,0,.33-1.12v-8.25a1.35,1.35,0,0,0-.33-1.05,2.26,2.26,0,0,0-1.3-.32V165Z"/><path class="cls-1" d="M150.38,174.68a6.4,6.4,0,0,1-2.21,1.95,6,6,0,0,1-2.84.67,6.33,6.33,0,0,1-2.4-.45,6,6,0,0,1-3.27-3.33,7.16,7.16,0,0,1-.42-2.54,6.59,6.59,0,0,1,.46-2.48,6,6,0,0,1,1.3-2,5.62,5.62,0,0,1,2-1.31,6.58,6.58,0,0,1,2.44-.44,6.2,6.2,0,0,1,2.13.4,7.75,7.75,0,0,0,1.26.4.73.73,0,0,0,.52-.2,1.15,1.15,0,0,0,.31-.6h.46v4.16h-.44a6.55,6.55,0,0,0-1.71-2.65,3.52,3.52,0,0,0-2.38-.93,2.59,2.59,0,0,0-2.41,1.44,9,9,0,0,0-.8,4.3,7.38,7.38,0,0,0,.89,4,3,3,0,0,0,2.66,1.35,4.33,4.33,0,0,0,2.14-.56,5.85,5.85,0,0,0,1.84-1.62Z"/><path class="cls-1" d="M150.82,176.54a1.17,1.17,0,0,0,.84-.33,3.35,3.35,0,0,0,.67-1.13l4.18-10.39H157l4.22,10a6.06,6.06,0,0,0,.8,1.48,1,1,0,0,0,.77.33V177h-5.67v-.48a2.59,2.59,0,0,0,1.09-.19.58.58,0,0,0,.34-.54,1.17,1.17,0,0,0-.06-.31c0-.13-.11-.34-.23-.63l-.53-1.35h-3.94l-.53,1.29a4,4,0,0,0-.18.52,1.76,1.76,0,0,0-.06.41.68.68,0,0,0,.32.61,1.9,1.9,0,0,0,1,.19h.1V177h-3.61Zm3.24-3.76h3.39l-1.72-4.2Z"/><path class="cls-2" d="M146.17,109.41a15,15,0,0,1-15,15H66.91a15,15,0,0,1-15-15V28.12h94.29Z"/><path class="cls-3" d="M101.51,94.78c-2.88.22-5.75.46-8.63.72q-5.82.51-11.65,1.13c-4.48.47-9.2.48-13.46-1.2-3.95-1.56-7.43-4.87-8.16-9.05a19.13,19.13,0,0,1,.11-5.55l1.22-10.65.61-5.25c.18-1.59.16-3.07.22-4.65A2.22,2.22,0,0,1,64.62,58c9,1.36,18.06,2.79,27.15,3.51,4.12.33,8.26.51,12.35,1.16a40.69,40.69,0,0,1,6.08,1.43c2.73.89,5.31,1.94,7.23,4.18,2.35,2.73,3.13,6.45,3.67,10q.63,4.16,1,8.34c.12,1.4.21,2.8.28,4.2,0,.89.33,2.29-.87,2.53a50.05,50.05,0,0,1-6.71.56c-2.44.14-4.87.3-7.31.47Z"/><path class="cls-3" d="M90.6,59.65c-.34,0-.8,0-1-.61a.9.9,0,0,1,.6-1c1.63-.72,3.28-1.28,5-1.91A28,28,0,0,1,100,54.71a46.79,46.79,0,0,1,5.17-.42q5.49-.34,11-.77,5-.37,10-.8c3.23-.28,6.61-.33,9.79-.93,1.57-.3,2.42.51,2.36,2.09-.09,2.58-.76,5.12-.5,7.74.18,1.82.25,3.66.43,5.49.34,3.56.87,7.12,1,10.69a46.92,46.92,0,0,1-.36,8.46,9.74,9.74,0,0,1-5.61,7.41,13.34,13.34,0,0,1-5.5,1.84c-1.26.06-1.8-.49-1.86-1.75-.16-3.38-.21-6.74-.62-10.11a78.78,78.78,0,0,0-1.91-10.21c-.69-2.71-1.57-5.48-3.46-7.55s-4.77-3.27-7.56-4A58.3,58.3,0,0,0,102,60.06a77.49,77.49,0,0,0-9.63-.42C91.77,59.66,91.19,59.68,90.6,59.65Z"/><path class="cls-3" d="M76.09,57.61l-5.69-.77a12.93,12.93,0,0,1-1.65-.29c-.63-.18-.87-.59-.5-1.23.79-1.39,1.57-2.8,2.37-4.19.64-1.1,1.26-2.21,2-3.25a1.44,1.44,0,0,1,1.12-.48c3,.29,6,.75,9,.94q8.3.52,16.61.78c3.21.1,6.44,0,9.66-.12,6.48-.18,12.95-.41,19.42-.63a1.34,1.34,0,0,1,1.47,1.21A1.27,1.27,0,0,1,128.57,51c-3.49.07-7,.12-10.47.29s-7,.37-10.52.66a134.6,134.6,0,0,0-20.74,3.17c-2.76.67-5.46,1.48-8.21,2.18A7.81,7.81,0,0,1,76.09,57.61Z"/><path class="cls-3" d="M102,43c-5.49.51-10.94.21-16.46.28a1.4,1.4,0,0,0-1.52,1.39c.06,1,.84.83,1.46.86,7.23.31,14.47.75,21.7,1.09,3.19.15,6.39.28,9.59.41l4.85.17c1.47,0,2.85-.06,4.31-.15,1-.06,1.27-.61.65-1.32-2-2.35-4.24-4.44-7.62-4.7-4.51-.35-8.61.85-13,1.53C104.74,42.72,103.25,42.86,102,43Z"/><path class="cls-3" d="M101.14,41.84c-3,.13-5.39.29-9,.32a3.82,3.82,0,0,1-2.75-.78c-2.24-1.9-6.29-1.19-7.44,1a10.19,10.19,0,0,0-.6,1.19c-.73,2.3-2.26,3.14-4.57,2.48a1,1,0,0,1-.69-1.42c.75-1.67,1.57-3.31,2.47-4.9,1.16-2,3-2.45,5.17-2s4.46.72,6.71,1a44.1,44.1,0,0,0,4.74.21c2.41,0,4.81-.08,7.22-.09a3.56,3.56,0,0,1,1.71.22,1.38,1.38,0,0,1,.69,2C104.46,41.65,103,41.77,101.14,41.84Z"/><path class="cls-3" d="M89.67,106.7a8.6,8.6,0,0,1-5.45-2c-1.29-1-2.66-1.91-3.94-2.93a1.93,1.93,0,0,1-.63-1.11c0-.57.68-.8,1.09-.86,3.59-.53,7.2-1,10.81-1.37,1.8-.2,3.6-.45,5.4-.63,1-.1,1.88,0,2,1.15a4.63,4.63,0,0,1-.12,1.29,16.64,16.64,0,0,1-.38,1.73c-.44,1.42-1.32,2-2.79,2.82A12.89,12.89,0,0,1,89.67,106.7Z"/><path class="cls-3" d="M116.15,96.28a25.07,25.07,0,0,1,7.17.8,17.33,17.33,0,0,1,4.45,2c1.24.78,1.55,1.53.31,2.53a12.07,12.07,0,0,1-7.81,3c-1.59,0-2.68-1-3.91-1.68-2.34-1.31-4.62-2.71-6.89-4.13-.48-.3-1.16-.86-1.14-1.27,0-.82,1-.84,1.61-.88C112,96.47,114.07,96.3,116.15,96.28Z"/><path class="cls-3" d="M104.53,104.19a27.71,27.71,0,0,1-2.15,10,1.44,1.44,0,0,1-2.73-.84c.43-1.72,1.19-3.25,1.62-5a15.21,15.21,0,0,0,.18-7.16c-.23-1-.62-1.88-.87-2.83s.35-1.62,1.42-1.81,2,.23,2.06,1.18C104.25,99.9,104.37,102,104.53,104.19Z"/><path class="cls-1" d="M44.83,21.07v88.34a22.08,22.08,0,0,0,22.08,22.07h64.23a22.08,22.08,0,0,0,22.08-22.07V21.07Zm101.34,88.34a15,15,0,0,1-15,15H66.91a15,15,0,0,1-15-15V28.12h94.29Z"/></svg>